<?xml version="1.0" encoding="UTF-8" standalone="no"?>
<!-- Created with Inkscape (http://www.inkscape.org/) -->

<svg
   width="121mm"
   height="121mm"
   viewBox="0 0 121 121"
   version="1.1"
   id="svg1"
   xml:space="preserve"
   inkscape:version="1.3.2 (091e20e, 2023-11-25, custom)"
   sodipodi:docname="bfcdxsffd.svg"
   xmlns:inkscape="http://www.inkscape.org/namespaces/inkscape"
   xmlns:sodipodi="http://sodipodi.sourceforge.net/DTD/sodipodi-0.dtd"
   xmlns="http://www.w3.org/2000/svg"
   xmlns:svg="http://www.w3.org/2000/svg"><sodipodi:namedview
     id="namedview1"
     pagecolor="#ffffff"
     bordercolor="#000000"
     borderopacity="0.25"
     inkscape:showpageshadow="2"
     inkscape:pageopacity="0.0"
     inkscape:pagecheckerboard="0"
     inkscape:deskcolor="#d1d1d1"
     inkscape:document-units="mm"
     inkscape:zoom="5.6568542"
     inkscape:cx="240.32792"
     inkscape:cy="1206.7661"
     inkscape:window-width="1920"
     inkscape:window-height="991"
     inkscape:window-x="-9"
     inkscape:window-y="-9"
     inkscape:window-maximized="1"
     inkscape:current-layer="g137" /><defs
     id="defs1" /><g
     inkscape:label="Capa 1"
     inkscape:groupmode="layer"
     id="layer1"
     transform="translate(44.08778,-216.62822)"><g
       id="g137"
       transform="translate(-100.48563,188.06963)"
       inkscape:export-filename="Agricultura.svg"
       inkscape:export-xdpi="96"
       inkscape:export-ydpi="96"><circle
         style="display:inline;fill:#f9a86f;fill-opacity:1;stroke:#ffffff;stroke-width:1;stroke-linecap:square;stroke-linejoin:round;stroke-opacity:1"
         id="circle66"
         cx="116.89785"
         cy="89.058594"
         r="60" /><circle
         style="display:inline;fill:#ffffff;fill-opacity:1;stroke:#ffffff;stroke-width:1;stroke-linecap:square;stroke-linejoin:round;stroke-opacity:1"
         id="circle67"
         cx="116.89785"
         cy="89.058594"
         r="54.053749" /><path
         id="path67"
         style="display:inline;fill:#f9a86f;fill-opacity:1;stroke:none;stroke-width:1;stroke-linecap:square;stroke-linejoin:round;stroke-opacity:1"
         d="m 117.29465,40.168607 c -22.742213,0.05319 -42.265283,16.19718 -46.588372,38.524781 h 14.346928 c 4.051515,-14.458577 17.225954,-24.457386 32.241444,-24.469825 15.02202,0.0046 28.20574,10.004971 32.25902,24.469825 h 14.43529 C 159.65824,56.326703 140.07674,40.17114 117.29465,40.168607 Z M 69.953353,90.892126 c 1.658666,24.943744 22.342535,44.347224 47.341297,44.410724 24.99876,-0.0635 45.68263,-19.46697 47.3413,-44.410724 H 150.58099 C 148.95574,108.0715 134.55069,121.20832 117.29465,121.24789 100.03861,121.20829 85.633554,108.0715 84.008309,90.892126 Z"
         sodipodi:nodetypes="cccccccccccccc" /><g
         id="g78"
         transform="translate(0.396875,-1.3229167)"><text
           xml:space="preserve"
           style="font-weight:bold;font-size:14.1111px;line-height:1.2;font-family:Arial;-inkscape-font-specification:'Arial Bold';text-align:center;text-anchor:middle;fill:#ffffff;fill-opacity:1;stroke:#ffffff;stroke-width:1;stroke-linecap:square;stroke-linejoin:round;stroke-dasharray:none;stroke-opacity:1"
           x="84.139343"
           y="38.668396"
           id="text67"
           transform="rotate(49.651447,-3.8973156,78.581555)"><tspan
             sodipodi:role="line"
             id="tspan67"
             style="font-size:14.1111px;fill:#ffffff;fill-opacity:1;stroke:#ffffff;stroke-width:1;stroke-dasharray:none;stroke-opacity:1"
             x="84.139343"
             y="38.668396">D</tspan></text><text
           xml:space="preserve"
           style="font-weight:bold;font-size:14.1111px;line-height:1.2;font-family:Arial;-inkscape-font-specification:'Arial Bold';text-align:center;text-anchor:middle;fill:#ffffff;fill-opacity:1;stroke:#ffffff;stroke-width:1;stroke-linecap:square;stroke-linejoin:round;stroke-dasharray:none;stroke-opacity:1"
           x="81.138748"
           y="63.438328"
           id="text68"
           transform="rotate(32.416911,-23.506148,115.98634)"><tspan
             sodipodi:role="line"
             id="tspan68"
             style="font-size:14.1111px;fill:#ffffff;fill-opacity:1;stroke:#ffffff;stroke-width:1;stroke-dasharray:none;stroke-opacity:1"
             x="81.138748"
             y="63.438328">E</tspan></text><text
           xml:space="preserve"
           style="font-weight:bold;font-size:14.1111px;line-height:1.2;font-family:Arial;-inkscape-font-specification:'Arial Bold';text-align:center;text-anchor:middle;fill:#ffffff;fill-opacity:1;stroke:#ffffff;stroke-width:1;stroke-linecap:square;stroke-linejoin:round;stroke-dasharray:none;stroke-opacity:1"
           x="74.167931"
           y="83.492027"
           id="text69"
           transform="rotate(17.580526,-69.929297,204.5407)"><tspan
             sodipodi:role="line"
             id="tspan69"
             style="font-size:14.1111px;fill:#ffffff;fill-opacity:1;stroke:#ffffff;stroke-width:1;stroke-dasharray:none;stroke-opacity:1"
             x="74.167931"
             y="83.492027">L</tspan></text><text
           xml:space="preserve"
           style="font-weight:bold;font-size:14.1111px;line-height:1.2;font-family:Arial;-inkscape-font-specification:'Arial Bold';text-align:center;text-anchor:middle;fill:#ffffff;fill-opacity:1;stroke:#ffffff;stroke-width:1;stroke-linecap:square;stroke-linejoin:round;stroke-dasharray:none;stroke-opacity:1"
           x="58.342377"
           y="105.44102"
           id="text70"
           transform="rotate(-1.2470186,1438.6142,-2673.0762)"><tspan
             sodipodi:role="line"
             id="tspan70"
             style="font-size:14.1111px;fill:#ffffff;fill-opacity:1;stroke:#ffffff;stroke-width:1;stroke-dasharray:none;stroke-opacity:1"
             x="58.342377"
             y="105.44102">P</tspan></text><text
           xml:space="preserve"
           style="font-weight:bold;font-size:14.1111px;line-height:1.2;font-family:Arial;-inkscape-font-specification:'Arial Bold';text-align:center;text-anchor:middle;fill:#ffffff;fill-opacity:1;stroke:#ffffff;stroke-width:1;stroke-linecap:square;stroke-linejoin:round;stroke-dasharray:none;stroke-opacity:1"
           x="36.925251"
           y="119.13938"
           id="text71"
           transform="rotate(-18.271503,124.63216,-166.59454)"><tspan
             sodipodi:role="line"
             id="tspan71"
             style="font-size:14.1111px;fill:#ffffff;fill-opacity:1;stroke:#ffffff;stroke-width:1;stroke-dasharray:none;stroke-opacity:1"
             x="36.925251"
             y="119.13938">E</tspan></text><text
           xml:space="preserve"
           style="font-weight:bold;font-size:14.1111px;line-height:1.2;font-family:Arial;-inkscape-font-specification:'Arial Bold';text-align:center;text-anchor:middle;fill:#ffffff;fill-opacity:1;stroke:#ffffff;stroke-width:1;stroke-linecap:square;stroke-linejoin:round;stroke-dasharray:none;stroke-opacity:1"
           x="14.023943"
           y="126.68509"
           id="text72"
           transform="rotate(-35.071346,77.79661,-77.253487)"><tspan
             sodipodi:role="line"
             id="tspan72"
             style="font-size:14.1111px;fill:#ffffff;fill-opacity:1;stroke:#ffffff;stroke-width:1;stroke-dasharray:none;stroke-opacity:1"
             x="14.023943"
             y="126.68509">R</tspan></text><path
           id="path72"
           style="font-weight:bold;font-size:15.875px;line-height:1.2;font-family:Arial;-inkscape-font-specification:'Arial Bold';text-align:center;text-anchor:middle;fill:#ffffff;fill-opacity:1;stroke:#ffffff;stroke-width:1;stroke-linecap:square;stroke-linejoin:round;stroke-dasharray:none;stroke-opacity:1"
           d="m 89.378044,76.781959 -1.413349,1.807643 0.55695,0.43366 0.875404,-2.228284 z m 1.104679,0.896174 -0.875396,2.22829 1.890529,1.373317 c 0.708292,0.55389 1.194388,0.976469 1.458307,1.268138 0.263919,0.291668 0.399781,0.650875 0.407727,1.076937 0.0039,0.422877 -0.194729,0.89062 -0.59583,1.403531 -0.394734,0.50477 -0.816539,0.817767 -1.265557,0.93896 -0.449907,0.113938 -0.888314,0.06601 -1.315165,-0.143144 -0.26298,-0.13349 -0.778855,-0.500604 -1.548227,-1.102259 l -3.429292,-2.609007 -1.413862,1.807129 3.356422,2.551641 c 1.0014,0.783103 1.804448,1.316339 2.409674,1.599388 0.409679,0.18917 0.873581,0.279457 1.391644,0.271299 0.513997,-0.01134 1.042684,-0.158695 1.585955,-0.442346 0.542373,-0.290913 1.147924,-0.863908 1.816425,-1.71876 0.553901,-0.708305 0.913284,-1.351957 1.07797,-1.931665 0.16062,-0.582886 0.189941,-1.124394 0.08836,-1.623675 -0.09838,-0.503346 -0.331357,-0.976938 -0.698664,-1.421618 -0.367307,-0.44468 -1.087986,-1.087645 -2.162661,-1.92805 z"
           sodipodi:nodetypes="ccccccccscscccccccccsccscc"
           transform="translate(58.514518,30.675262)" /><text
           xml:space="preserve"
           style="font-style:italic;font-variant:normal;font-weight:bold;font-stretch:normal;font-size:14.1111px;line-height:1.2;font-family:Arial;-inkscape-font-specification:'Arial Bold Italic';text-align:center;text-anchor:middle;fill:#ffffff;fill-opacity:1;stroke:#ffffff;stroke-width:1;stroke-linecap:square;stroke-linejoin:round;stroke-dasharray:none;stroke-opacity:1"
           x="3.0038822"
           y="46.686371"
           id="text73"
           transform="rotate(-44.498689,66.748647,-56.178969)"><tspan
             sodipodi:role="line"
             id="tspan73"
             style="font-style:italic;font-variant:normal;font-weight:bold;font-stretch:normal;font-family:Arial;-inkscape-font-specification:'Arial Bold Italic';stroke-width:1"
             x="3.0038824"
             y="46.686371">S</tspan></text><text
           xml:space="preserve"
           style="font-weight:bold;font-size:14.1111px;line-height:1.2;font-family:Arial;-inkscape-font-specification:'Arial Bold';text-align:center;text-anchor:middle;fill:#ffffff;fill-opacity:1;stroke:#ffffff;stroke-width:1;stroke-linecap:square;stroke-linejoin:round;stroke-dasharray:none;stroke-opacity:1"
           x="22.793133"
           y="45.594044"
           id="text74"
           transform="rotate(-33.043386,80.964335,-83.296072)"><tspan
             sodipodi:role="line"
             id="tspan74"
             style="stroke-width:1"
             x="22.793133"
             y="45.594044">C</tspan></text><text
           xml:space="preserve"
           style="font-weight:bold;font-size:14.1111px;line-height:1.2;font-family:Arial;-inkscape-font-specification:'Arial Bold';text-align:center;text-anchor:middle;fill:#ffffff;fill-opacity:1;stroke:#ffffff;stroke-width:1;stroke-linecap:square;stroke-linejoin:round;stroke-dasharray:none;stroke-opacity:1"
           x="95.420288"
           y="81.118217"
           id="text75"
           transform="rotate(-15.019919)"><tspan
             sodipodi:role="line"
             id="tspan75"
             style="stroke-width:1"
             x="95.420288"
             y="81.118217">O</tspan></text><text
           xml:space="preserve"
           style="font-weight:bold;font-size:14.1111px;line-height:1.2;font-family:Arial;-inkscape-font-specification:'Arial Bold';text-align:center;text-anchor:middle;fill:#ffffff;fill-opacity:1;stroke:#ffffff;stroke-width:1;stroke-linecap:square;stroke-linejoin:round;stroke-dasharray:none;stroke-opacity:1"
           x="131.35493"
           y="26.227385"
           id="text76"
           transform="rotate(12.642406)"><tspan
             sodipodi:role="line"
             id="tspan76"
             style="stroke-width:1"
             x="131.35493"
             y="26.227385">U</tspan></text><text
           xml:space="preserve"
           style="font-weight:bold;font-size:14.1111px;line-height:1.2;font-family:Arial;-inkscape-font-specification:'Arial Bold';text-align:center;text-anchor:middle;fill:#ffffff;fill-opacity:1;stroke:#ffffff;stroke-width:1;stroke-linecap:square;stroke-linejoin:round;stroke-dasharray:none;stroke-opacity:1"
           x="143.29329"
           y="-3.814055"
           id="text77"
           transform="rotate(24.880191)"><tspan
             sodipodi:role="line"
             id="tspan77"
             style="stroke-width:1"
             x="143.29329"
             y="-3.814055">T</tspan></text><text
           xml:space="preserve"
           style="font-style:italic;font-variant:normal;font-weight:bold;font-stretch:normal;font-size:14.1111px;line-height:1.2;font-family:Arial;-inkscape-font-specification:'Arial Bold Italic';text-align:center;text-anchor:middle;fill:#ffffff;fill-opacity:1;stroke:#ffffff;stroke-width:1;stroke-linecap:square;stroke-linejoin:round;stroke-dasharray:none;stroke-opacity:1"
           x="153.21227"
           y="-5.6454854"
           id="text78"
           transform="rotate(26.053437)"><tspan
             sodipodi:role="line"
             id="tspan78"
             style="font-style:italic;font-variant:normal;font-weight:bold;font-stretch:normal;font-family:Arial;-inkscape-font-specification:'Arial Bold Italic';stroke-width:1"
             x="153.21227"
             y="-5.6454854">S</tspan></text></g><path
         style="display:inline;fill:none;stroke:#a07161;stroke-width:1;stroke-linecap:round;stroke-linejoin:round;stroke-dasharray:none;stroke-opacity:1"
         d="m 85.355629,85.261679 c 4.777235,7.563202 4.684252,13.373126 3.274052,18.708851"
         id="path137"
         sodipodi:nodetypes="cc" /><path
         style="display:inline;fill:none;fill-opacity:1;stroke:#a07161;stroke-width:1;stroke-linecap:round;stroke-linejoin:round;stroke-dasharray:none;stroke-opacity:1"
         d="m 87.937939,73.409272 c 0,0 3.220129,7.285536 5.743136,10.72986 1.088117,1.485461 2.98942,2.340078 3.835318,3.975636 0.962216,1.860463 0.450663,4.206507 1.169304,6.173926 0.337718,0.924568 1.335793,1.594794 1.449933,2.57247 0.59837,5.125136 -4.289854,14.873546 -4.289854,14.873546"
         id="path138"
         sodipodi:nodetypes="cssssc" /><path
         style="display:inline;fill:none;stroke:#a07161;stroke-width:1;stroke-linecap:round;stroke-linejoin:round"
         d="m 126.22391,118.95977 c 0,0 3.98459,-1.79177 5.42006,-3.35941 1.0255,-1.11993 1.15653,-2.8405 2.05052,-4.06797 2.07578,-2.85009 5.87516,-2.74781 7.05767,-2.79475"
         id="path41"
         sodipodi:nodetypes="cssc" /><path
         style="display:inline;fill:none;stroke:#a07161;stroke-width:1;stroke-linecap:round;stroke-linejoin:round"
         d="m 149.75059,95.288805 c 0,0 -5.19778,-1.513291 -7.42407,-2.981404 -1.45584,-0.960044 -2.40374,-2.53261 -3.70416,-3.694536 -1.57998,-1.411713 -4.96511,-3.96875 -4.96511,-3.96875 -2.79454,-2.233755 -0.3823,-10.027068 -0.78958,-16.007292 -0.19959,-2.930643 -0.53187,-5.631504 0.78958,-9.618745"
         id="path42"
         sodipodi:nodetypes="cssssc" /><path
         style="display:inline;fill:none;stroke:#a07161;stroke-width:1;stroke-linecap:round;stroke-linejoin:round"
         d="m 150.25059,87.786043 c 0,0 -4.32217,-0.196799 -5.97276,-2.348178 -0.65756,-0.857051 -1.04504,-2.540589 -1.40998,-2.910417 -1.52444,-1.544819 -6.86108,-11.239392 -6.7451,-16.999479 0.0215,-1.069485 1.35823,-2.907502 1.35823,-2.907502"
         id="path43"
         sodipodi:nodetypes="csssc" /><path
         style="display:inline;fill:none;stroke:#a07161;stroke-width:1;stroke-linecap:round;stroke-linejoin:round"
         d="M 149.94799,81.753754 C 145.93374,77.98302 140.6803,75.853372 141.01823,66.318942"
         id="path44"
         sodipodi:nodetypes="cc" /><rect
         style="display:inline;fill:none;stroke:#2d2d2d;stroke-width:1;stroke-linecap:round;stroke-linejoin:round;stroke-opacity:1"
         id="rect44"
         width="2.2208982"
         height="0.41996399"
         x="162.00119"
         y="-32.947689"
         ry="0.1274603"
         transform="rotate(39.64256)" /><rect
         style="display:inline;fill:none;stroke:#2d2d2d;stroke-width:1;stroke-linecap:round;stroke-linejoin:round;stroke-opacity:1"
         id="rect45"
         width="2.2208982"
         height="0.41996399"
         x="124.65865"
         y="-96.214699"
         ry="0.1274603"
         transform="rotate(65.939333)" /><rect
         style="display:inline;fill:none;stroke:#2d2d2d;stroke-width:1;stroke-linecap:round;stroke-linejoin:round;stroke-opacity:1"
         id="rect46"
         width="2.2208982"
         height="0.41996399"
         x="64.968323"
         y="-136.64186"
         ry="0.1274603"
         transform="rotate(92.996497)" /><rect
         style="display:inline;fill:none;stroke:#2d2d2d;stroke-width:1;stroke-linecap:round;stroke-linejoin:round;stroke-opacity:1"
         id="rect49"
         width="2.2208982"
         height="0.41996399"
         x="109.79774"
         y="-64.067619"
         ry="0.1274603"
         transform="rotate(76.155262)" /><rect
         style="display:inline;fill:none;stroke:#2d2d2d;stroke-width:1;stroke-linecap:round;stroke-linejoin:round;stroke-opacity:1"
         id="rect50"
         width="2.2208982"
         height="0.41996399"
         x="68.757851"
         y="-125.61286"
         ry="0.1274603"
         transform="rotate(107.29164)" /><path
         style="fill:none;stroke:#a07161;stroke-width:1;stroke-linecap:round;stroke-linejoin:round;stroke-opacity:1"
         d="m 101.05152,60.20323 c -0.42399,0.18373 3.58298,10.601577 10.41797,11.740885 2.08042,0.346781 4.2078,-0.366423 6.31693,-0.363802 2.57329,0.0032 5.31646,1.418009 7.70599,0.463021 6.41904,-2.565402 3.50065,-14.545198 3.27422,-14.585156"
         id="path50"
         sodipodi:nodetypes="csssc" /><path
         style="fill:none;stroke:#a07161;stroke-width:1;stroke-linecap:round;stroke-linejoin:round;stroke-opacity:1"
         d="m 105.08642,58.152709 c 0,0 -1.07168,3.96077 -0.33073,5.721615 1.18499,2.816083 4.11118,4.799191 6.91224,6.01927 2.02249,0.88095 4.62958,-0.444595 6.58151,0.694528 0.38383,0.223996 0.42345,0.579797 0.8599,0.496097 1.62741,-0.312093 5.8878,-1.042872 6.18463,-1.719791 3.5414,-8.076199 2.2892,-10.420678 1.52136,-12.501563"
         id="path51"
         sodipodi:nodetypes="csssssc" /><path
         style="fill:none;stroke:#a07161;stroke-width:1;stroke-linecap:round;stroke-linejoin:round;stroke-opacity:1"
         d="m 107.89981,56.520177 c 0,0 -1.69307,4.202325 -1.05237,6.197309 0.78207,2.435161 3.10542,4.377741 5.44896,5.402182 2.81686,1.231346 8.05808,1.226249 10.71083,-0.327406 1.37176,-0.803411 -0.25389,-1.016439 0.6548,-3.531298 0.9591,-2.654392 2.03945,-5.306407 -0.0935,-8.021427"
         id="path52"
         sodipodi:nodetypes="cssssc" /><path
         style="fill:none;stroke:#a07161;stroke-width:1;stroke-linecap:round;stroke-linejoin:round;stroke-opacity:1"
         d="m 117.86228,55.304086 c -2.94058,-0.195454 -5.87698,2.186292 -7.24969,4.794147 -0.57024,1.083355 -0.86715,2.423562 -0.11687,3.39099 1.9916,2.568005 6.26857,3.922106 9.21407,2.549084 2.24543,-1.046693 3.31259,-3.667895 2.80633,-6.080383 -0.45984,-2.191226 -2.41981,-4.505347 -4.65384,-4.653838 z"
         id="path53"
         sodipodi:nodetypes="ssssss" /><path
         style="fill:none;stroke:#a07161;stroke-width:1;stroke-linecap:round;stroke-linejoin:round;stroke-dasharray:none;stroke-opacity:1"
         d="m 117.5094,57.390095 c -1.71275,-0.121474 -3.42307,1.358775 -4.22261,2.979549 -0.33214,0.673302 -0.76232,1.927186 -0.32525,2.52844 1.16002,1.596008 3.90841,2.016627 5.62402,1.163298 1.30786,-0.650517 1.92943,-2.279586 1.63455,-3.77894 -0.26783,-1.36184 -1.40942,-2.80006 -2.71064,-2.892347 z"
         id="path65"
         sodipodi:nodetypes="sssssss" /><rect
         style="display:inline;fill:none;stroke:#2d2d2d;stroke-width:1;stroke-linecap:round;stroke-linejoin:round;stroke-opacity:1"
         id="rect65"
         width="2.2208982"
         height="0.41996399"
         x="49.919399"
         y="-135.95183"
         ry="0.1274603"
         transform="rotate(96.12968)" /><rect
         style="display:inline;fill:none;stroke:#2d2d2d;stroke-width:1;stroke-linecap:round;stroke-linejoin:round;stroke-opacity:1"
         id="rect66"
         width="2.2208982"
         height="0.41996399"
         x="26.077837"
         y="-140.00562"
         ry="0.1274603"
         transform="rotate(105.85179)" /><rect
         style="display:inline;fill:none;stroke:#2d2d2d;stroke-width:1;stroke-linecap:round;stroke-linejoin:round;stroke-opacity:1"
         id="rect67"
         width="2.2208982"
         height="0.41996399"
         x="25.652449"
         y="-136.84216"
         ry="0.1274603"
         transform="rotate(105.85179)" /><rect
         style="display:inline;fill:none;stroke:#2d2d2d;stroke-width:1;stroke-linecap:round;stroke-linejoin:round;stroke-opacity:1"
         id="rect68"
         width="2.2208982"
         height="0.41996399"
         x="41.195168"
         y="-130.88321"
         ry="0.1274603"
         transform="rotate(99.036962)" /><rect
         style="display:inline;fill:none;stroke:#65666a;stroke-width:1;stroke-linecap:round;stroke-linejoin:round;stroke-dasharray:none;stroke-opacity:1"
         id="rect69"
         width="25.193813"
         height="28.857023"
         x="131.86203"
         y="42.221119"
         ry="6.9442625"
         transform="rotate(16.418486,-1.3758826e-6,4.7683237e-6)" /><path
         style="display:inline;fill:none;stroke:#a07161;stroke-width:1;stroke-linecap:round;stroke-linejoin:round"
         d="m 114.45224,120.50356 c 2.23597,-0.68514 5.00926,-5.84472 7.61221,-11.71224"
         id="path81"
         sodipodi:nodetypes="cc"
         transform="translate(1.2916667e-6)" /><path
         style="display:inline;fill:none;stroke:#a07161;stroke-width:1;stroke-linecap:round;stroke-linejoin:round"
         d="m 91.49432,67.231304 c 9.19416,17.623151 21.62078,9.98429 30.54771,17.636411 1.59666,1.368648 3.89986,2.814924 3.95265,4.917239 0.11465,4.566364 -5.25849,7.066765 -8.03858,11.097966 -1.92147,2.78618 -0.90356,8.32535 -2.41864,11.35179 -1.55023,3.09663 -7.40833,7.28339 -7.40833,7.28339"
         id="path38"
         sodipodi:nodetypes="caassc"
         transform="translate(1.2916667e-6)" /><path
         id="path70"
         style="display:inline;fill:#adabb1;fill-opacity:1;stroke:#65666a;stroke-width:1;stroke-linecap:round;stroke-linejoin:round;stroke-dasharray:none;stroke-opacity:1"
         d="m 122.38769,86.388711 c -7.90445,-7e-6 -10.97157,6.050866 -11.06082,10.937316 -0.0851,4.658673 3.14034,10.931643 11.0448,10.931633 7.90446,1e-5 15.2797,-5.05756 15.27969,-11.037569 0,-5.980009 -7.35921,-10.831391 -15.26367,-10.83138 z m 0.97203,1.904793 a 8.5593061,9.1205721 0 0 1 8.55969,9.12089 8.5593061,9.1205721 0 0 1 -8.55969,9.120376 8.5593061,9.1205721 0 0 1 -8.55916,-9.120376 8.5593061,9.1205721 0 0 1 8.55916,-9.12089 z" /><path
         style="display:inline;fill:none;stroke:#a07161;stroke-width:1;stroke-linecap:round;stroke-linejoin:round"
         d="m 122.96579,106.74765 c 3.036,-7.470091 7.78679,-5.90709 10.04519,-11.755321 1.68592,-4.365771 0.96804,-11.73221 -6.2896,-12.297854 C 116.67683,81.911626 98.561546,70.799155 97.788726,67.17955 l -0.68657,-3.215695"
         id="path40"
         sodipodi:nodetypes="csssc" /><circle
         style="display:inline;fill:none;stroke:#de493b;stroke-width:1;stroke-linecap:round;stroke-linejoin:round;stroke-dasharray:none;stroke-opacity:1"
         id="path69"
         cx="122.26942"
         cy="97.367393"
         r="9.635066" /><path
         style="display:inline;fill:#ffffff;fill-opacity:1;stroke:#2d2d2d;stroke-width:1;stroke-linecap:round;stroke-linejoin:round;stroke-dasharray:none;stroke-opacity:1"
         d="m 118.0559,92.558722 9.29349,9.888808"
         id="path71" /><path
         style="display:inline;fill:#ffffff;fill-opacity:1;stroke:#aaabae;stroke-width:1;stroke-linecap:round;stroke-linejoin:round;stroke-dasharray:none;stroke-opacity:1"
         d="m 121.88856,97.765679 -1.8502,6.487761 3.20659,-6.37082"
         id="path74"
         sodipodi:nodetypes="ccc" /><path
         style="display:inline;fill:#ffffff;fill-opacity:1;stroke:#aaabae;stroke-width:1;stroke-linecap:round;stroke-linejoin:round;stroke-dasharray:none;stroke-opacity:1"
         d="m 123.61918,96.642907 1.85587,-6.775727 -2.96672,6.21445"
         id="path75"
         sodipodi:nodetypes="ccc" /><circle
         style="display:inline;fill:#adabb1;fill-opacity:1;stroke:#2d2d2d;stroke-width:1;stroke-linecap:round;stroke-linejoin:round;stroke-dasharray:none;stroke-opacity:1"
         id="path73"
         cx="122.70706"
         cy="97.239502"
         r="0.8769781" /><path
         style="fill:#adabb1;fill-opacity:1;stroke:#65666a;stroke-width:1;stroke-linecap:round;stroke-linejoin:round;stroke-dasharray:none;stroke-opacity:1"
         d="m 124.73663,86.307941 0.80012,-2.986088"
         id="path76" /><path
         style="fill:#adabb1;fill-opacity:1;stroke:#65666a;stroke-width:1;stroke-linecap:round;stroke-linejoin:round;stroke-dasharray:none;stroke-opacity:1"
         d="m 122.68611,83.761326 c 1.68598,-0.07159 3.38248,0.08842 5.13017,1.374616"
         id="path77"
         sodipodi:nodetypes="cc" /><rect
         style="fill:none;fill-opacity:1;stroke:#2d2d2d;stroke-width:1;stroke-linecap:round;stroke-linejoin:round;stroke-dasharray:none;stroke-opacity:1"
         id="rect77"
         width="0.67819279"
         height="2.0112057"
         x="141.03966"
         y="39.21727"
         ry="0.51449382"
         transform="rotate(23.440197)" /><rect
         style="fill:none;fill-opacity:1;stroke:#2d2d2d;stroke-width:1;stroke-linecap:round;stroke-linejoin:round;stroke-dasharray:none;stroke-opacity:1"
         id="rect78"
         width="0.67819279"
         height="2.0112057"
         x="145.8132"
         y="75.783699"
         ry="0.51449382"
         transform="rotate(9.3863817)" /><rect
         style="fill:none;fill-opacity:1;stroke:#2d2d2d;stroke-width:1;stroke-linecap:round;stroke-linejoin:round;stroke-dasharray:none;stroke-opacity:1"
         id="rect79"
         width="0.67819279"
         height="2.0112057"
         x="-38.276691"
         y="153.07805"
         ry="0.51449382"
         transform="rotate(-61.917398)" /><rect
         style="fill:none;fill-opacity:1;stroke:#2d2d2d;stroke-width:1;stroke-linecap:round;stroke-linejoin:round;stroke-dasharray:none;stroke-opacity:1"
         id="rect80"
         width="0.67819279"
         height="2.0112057"
         x="-47.709385"
         y="145.47551"
         ry="0.51449382"
         transform="rotate(-72.782505)"
         inkscape:transform-center-x="0.65481034"
         inkscape:transform-center-y="-0.1403165" /><circle
         style="fill:#ffffff;fill-opacity:1;stroke:#aaabae;stroke-width:1;stroke-linecap:round;stroke-linejoin:round;stroke-dasharray:none;stroke-opacity:1"
         id="path80"
         cx="126.98286"
         cy="109.27917"
         r="0.3975634" /><rect
         style="display:inline;fill:none;stroke:#2d2d2d;stroke-width:1;stroke-linecap:round;stroke-linejoin:round;stroke-opacity:1"
         id="rect47"
         width="2.2208982"
         height="0.41996399"
         x="124.92827"
         y="12.213267"
         ry="0.1274603"
         transform="rotate(29.61925,-4.5733017e-7,2.7343861e-6)" /><rect
         style="display:inline;fill:none;stroke:#2d2d2d;stroke-width:1;stroke-linecap:round;stroke-linejoin:round;stroke-opacity:1"
         id="rect48"
         width="2.2208982"
         height="0.41996399"
         x="116.70067"
         y="-19.007034"
         ry="0.1274603"
         transform="rotate(46.416566,-3.4404338e-8,1.7979073e-6)" /></g></g></svg>
