<?xml version="1.0" encoding="UTF-8" standalone="no"?>
<!-- Created with Inkscape (http://www.inkscape.org/) -->

<svg
   width="121mm"
   height="121.00001mm"
   viewBox="0 0 121 121.00001"
   version="1.1"
   id="svg1"
   xml:space="preserve"
   inkscape:version="1.3.2 (091e20e, 2023-11-25, custom)"
   sodipodi:docname="bfcdxsffd.svg"
   xmlns:inkscape="http://www.inkscape.org/namespaces/inkscape"
   xmlns:sodipodi="http://sodipodi.sourceforge.net/DTD/sodipodi-0.dtd"
   xmlns="http://www.w3.org/2000/svg"
   xmlns:svg="http://www.w3.org/2000/svg"><sodipodi:namedview
     id="namedview1"
     pagecolor="#ffffff"
     bordercolor="#000000"
     borderopacity="0.25"
     inkscape:showpageshadow="2"
     inkscape:pageopacity="0.0"
     inkscape:pagecheckerboard="0"
     inkscape:deskcolor="#d1d1d1"
     inkscape:document-units="mm"
     inkscape:zoom="1.9394262"
     inkscape:cx="757.1827"
     inkscape:cy="257.5504"
     inkscape:window-width="1920"
     inkscape:window-height="991"
     inkscape:window-x="-9"
     inkscape:window-y="-9"
     inkscape:window-maximized="1"
     inkscape:current-layer="layer1" /><defs
     id="defs1" /><g
     inkscape:label="Capa 1"
     inkscape:groupmode="layer"
     id="layer1"
     transform="translate(-80.06052,-91.832885)"><g
       id="g106"
       transform="translate(23.662668,63.274291)"
       inkscape:export-filename="Antropologia.svg"
       inkscape:export-xdpi="96"
       inkscape:export-ydpi="96"><circle
         style="display:inline;fill:#f9a86f;fill-opacity:1;stroke:#ffffff;stroke-width:1;stroke-linecap:square;stroke-linejoin:round;stroke-opacity:1"
         id="circle92"
         cx="116.89785"
         cy="89.058594"
         r="60" /><circle
         style="display:inline;fill:#ffffff;fill-opacity:1;stroke:#ffffff;stroke-width:1;stroke-linecap:square;stroke-linejoin:round;stroke-opacity:1"
         id="circle93"
         cx="116.89785"
         cy="89.058594"
         r="54.053749" /><path
         id="path93"
         style="display:inline;fill:#f9a86f;fill-opacity:1;stroke:none;stroke-width:1;stroke-linecap:square;stroke-linejoin:round;stroke-opacity:1"
         d="m 117.29465,40.168607 c -22.742213,0.05319 -42.265283,16.19718 -46.588372,38.524781 h 14.346928 c 4.051515,-14.458577 17.225954,-24.457386 32.241444,-24.469825 15.02202,0.0046 28.20574,10.004971 32.25902,24.469825 h 14.43529 C 159.65824,56.326703 140.07674,40.17114 117.29465,40.168607 Z M 69.953353,90.892126 c 1.658666,24.943744 22.342535,44.347224 47.341297,44.410724 24.99876,-0.0635 45.68263,-19.46697 47.3413,-44.410724 H 150.58099 C 148.95574,108.0715 134.55069,121.20832 117.29465,121.24789 100.03861,121.20829 85.633554,108.0715 84.008309,90.892126 Z"
         sodipodi:nodetypes="cccccccccccccc" /><g
         id="g105"
         transform="translate(0.396875,-1.3229167)"><text
           xml:space="preserve"
           style="font-weight:bold;font-size:14.1111px;line-height:1.2;font-family:Arial;-inkscape-font-specification:'Arial Bold';text-align:center;text-anchor:middle;fill:#ffffff;fill-opacity:1;stroke:#ffffff;stroke-width:1;stroke-linecap:square;stroke-linejoin:round;stroke-dasharray:none;stroke-opacity:1"
           x="84.139343"
           y="38.668396"
           id="text94"
           transform="rotate(49.651447,-3.8973156,78.581555)"><tspan
             sodipodi:role="line"
             id="tspan94"
             style="font-size:14.1111px;fill:#ffffff;fill-opacity:1;stroke:#ffffff;stroke-width:1;stroke-dasharray:none;stroke-opacity:1"
             x="84.139343"
             y="38.668396">D</tspan></text><text
           xml:space="preserve"
           style="font-weight:bold;font-size:14.1111px;line-height:1.2;font-family:Arial;-inkscape-font-specification:'Arial Bold';text-align:center;text-anchor:middle;fill:#ffffff;fill-opacity:1;stroke:#ffffff;stroke-width:1;stroke-linecap:square;stroke-linejoin:round;stroke-dasharray:none;stroke-opacity:1"
           x="81.138748"
           y="63.438328"
           id="text95"
           transform="rotate(32.416911,-23.506148,115.98634)"><tspan
             sodipodi:role="line"
             id="tspan95"
             style="font-size:14.1111px;fill:#ffffff;fill-opacity:1;stroke:#ffffff;stroke-width:1;stroke-dasharray:none;stroke-opacity:1"
             x="81.138748"
             y="63.438328">E</tspan></text><text
           xml:space="preserve"
           style="font-weight:bold;font-size:14.1111px;line-height:1.2;font-family:Arial;-inkscape-font-specification:'Arial Bold';text-align:center;text-anchor:middle;fill:#ffffff;fill-opacity:1;stroke:#ffffff;stroke-width:1;stroke-linecap:square;stroke-linejoin:round;stroke-dasharray:none;stroke-opacity:1"
           x="74.167931"
           y="83.492027"
           id="text96"
           transform="rotate(17.580526,-69.929297,204.5407)"><tspan
             sodipodi:role="line"
             id="tspan96"
             style="font-size:14.1111px;fill:#ffffff;fill-opacity:1;stroke:#ffffff;stroke-width:1;stroke-dasharray:none;stroke-opacity:1"
             x="74.167931"
             y="83.492027">L</tspan></text><text
           xml:space="preserve"
           style="font-weight:bold;font-size:14.1111px;line-height:1.2;font-family:Arial;-inkscape-font-specification:'Arial Bold';text-align:center;text-anchor:middle;fill:#ffffff;fill-opacity:1;stroke:#ffffff;stroke-width:1;stroke-linecap:square;stroke-linejoin:round;stroke-dasharray:none;stroke-opacity:1"
           x="58.342377"
           y="105.44102"
           id="text97"
           transform="rotate(-1.2470186,1438.6142,-2673.0762)"><tspan
             sodipodi:role="line"
             id="tspan97"
             style="font-size:14.1111px;fill:#ffffff;fill-opacity:1;stroke:#ffffff;stroke-width:1;stroke-dasharray:none;stroke-opacity:1"
             x="58.342377"
             y="105.44102">P</tspan></text><text
           xml:space="preserve"
           style="font-weight:bold;font-size:14.1111px;line-height:1.2;font-family:Arial;-inkscape-font-specification:'Arial Bold';text-align:center;text-anchor:middle;fill:#ffffff;fill-opacity:1;stroke:#ffffff;stroke-width:1;stroke-linecap:square;stroke-linejoin:round;stroke-dasharray:none;stroke-opacity:1"
           x="36.925251"
           y="119.13938"
           id="text98"
           transform="rotate(-18.271503,124.63216,-166.59454)"><tspan
             sodipodi:role="line"
             id="tspan98"
             style="font-size:14.1111px;fill:#ffffff;fill-opacity:1;stroke:#ffffff;stroke-width:1;stroke-dasharray:none;stroke-opacity:1"
             x="36.925251"
             y="119.13938">E</tspan></text><text
           xml:space="preserve"
           style="font-weight:bold;font-size:14.1111px;line-height:1.2;font-family:Arial;-inkscape-font-specification:'Arial Bold';text-align:center;text-anchor:middle;fill:#ffffff;fill-opacity:1;stroke:#ffffff;stroke-width:1;stroke-linecap:square;stroke-linejoin:round;stroke-dasharray:none;stroke-opacity:1"
           x="14.023943"
           y="126.68509"
           id="text99"
           transform="rotate(-35.071346,77.79661,-77.253487)"><tspan
             sodipodi:role="line"
             id="tspan99"
             style="font-size:14.1111px;fill:#ffffff;fill-opacity:1;stroke:#ffffff;stroke-width:1;stroke-dasharray:none;stroke-opacity:1"
             x="14.023943"
             y="126.68509">R</tspan></text><path
           id="path99"
           style="font-weight:bold;font-size:15.875px;line-height:1.2;font-family:Arial;-inkscape-font-specification:'Arial Bold';text-align:center;text-anchor:middle;fill:#ffffff;fill-opacity:1;stroke:#ffffff;stroke-width:1;stroke-linecap:square;stroke-linejoin:round;stroke-dasharray:none;stroke-opacity:1"
           d="m 89.378044,76.781959 -1.413349,1.807643 0.55695,0.43366 0.875404,-2.228284 z m 1.104679,0.896174 -0.875396,2.22829 1.890529,1.373317 c 0.708292,0.55389 1.194388,0.976469 1.458307,1.268138 0.263919,0.291668 0.399781,0.650875 0.407727,1.076937 0.0039,0.422877 -0.194729,0.89062 -0.59583,1.403531 -0.394734,0.50477 -0.816539,0.817767 -1.265557,0.93896 -0.449907,0.113938 -0.888314,0.06601 -1.315165,-0.143144 -0.26298,-0.13349 -0.778855,-0.500604 -1.548227,-1.102259 l -3.429292,-2.609007 -1.413862,1.807129 3.356422,2.551641 c 1.0014,0.783103 1.804448,1.316339 2.409674,1.599388 0.409679,0.18917 0.873581,0.279457 1.391644,0.271299 0.513997,-0.01134 1.042684,-0.158695 1.585955,-0.442346 0.542373,-0.290913 1.147924,-0.863908 1.816425,-1.71876 0.553901,-0.708305 0.913284,-1.351957 1.07797,-1.931665 0.16062,-0.582886 0.189941,-1.124394 0.08836,-1.623675 -0.09838,-0.503346 -0.331357,-0.976938 -0.698664,-1.421618 -0.367307,-0.44468 -1.087986,-1.087645 -2.162661,-1.92805 z"
           sodipodi:nodetypes="ccccccccscscccccccccsccscc"
           transform="translate(58.514518,30.675262)" /><text
           xml:space="preserve"
           style="font-style:italic;font-variant:normal;font-weight:bold;font-stretch:normal;font-size:14.1111px;line-height:1.2;font-family:Arial;-inkscape-font-specification:'Arial Bold Italic';text-align:center;text-anchor:middle;fill:#ffffff;fill-opacity:1;stroke:#ffffff;stroke-width:1;stroke-linecap:square;stroke-linejoin:round;stroke-dasharray:none;stroke-opacity:1"
           x="3.0038822"
           y="46.686371"
           id="text100"
           transform="rotate(-44.498689,66.748647,-56.178969)"><tspan
             sodipodi:role="line"
             id="tspan100"
             style="font-style:italic;font-variant:normal;font-weight:bold;font-stretch:normal;font-family:Arial;-inkscape-font-specification:'Arial Bold Italic';stroke-width:1"
             x="3.0038824"
             y="46.686371">S</tspan></text><text
           xml:space="preserve"
           style="font-weight:bold;font-size:14.1111px;line-height:1.2;font-family:Arial;-inkscape-font-specification:'Arial Bold';text-align:center;text-anchor:middle;fill:#ffffff;fill-opacity:1;stroke:#ffffff;stroke-width:1;stroke-linecap:square;stroke-linejoin:round;stroke-dasharray:none;stroke-opacity:1"
           x="22.793133"
           y="45.594044"
           id="text101"
           transform="rotate(-33.043386,80.964335,-83.296072)"><tspan
             sodipodi:role="line"
             id="tspan101"
             style="stroke-width:1"
             x="22.793133"
             y="45.594044">C</tspan></text><text
           xml:space="preserve"
           style="font-weight:bold;font-size:14.1111px;line-height:1.2;font-family:Arial;-inkscape-font-specification:'Arial Bold';text-align:center;text-anchor:middle;fill:#ffffff;fill-opacity:1;stroke:#ffffff;stroke-width:1;stroke-linecap:square;stroke-linejoin:round;stroke-dasharray:none;stroke-opacity:1"
           x="95.420288"
           y="81.118217"
           id="text102"
           transform="rotate(-15.019919)"><tspan
             sodipodi:role="line"
             id="tspan102"
             style="stroke-width:1"
             x="95.420288"
             y="81.118217">O</tspan></text><text
           xml:space="preserve"
           style="font-weight:bold;font-size:14.1111px;line-height:1.2;font-family:Arial;-inkscape-font-specification:'Arial Bold';text-align:center;text-anchor:middle;fill:#ffffff;fill-opacity:1;stroke:#ffffff;stroke-width:1;stroke-linecap:square;stroke-linejoin:round;stroke-dasharray:none;stroke-opacity:1"
           x="131.35493"
           y="26.227385"
           id="text103"
           transform="rotate(12.642406)"><tspan
             sodipodi:role="line"
             id="tspan103"
             style="stroke-width:1"
             x="131.35493"
             y="26.227385">U</tspan></text><text
           xml:space="preserve"
           style="font-weight:bold;font-size:14.1111px;line-height:1.2;font-family:Arial;-inkscape-font-specification:'Arial Bold';text-align:center;text-anchor:middle;fill:#ffffff;fill-opacity:1;stroke:#ffffff;stroke-width:1;stroke-linecap:square;stroke-linejoin:round;stroke-dasharray:none;stroke-opacity:1"
           x="143.29329"
           y="-3.814055"
           id="text104"
           transform="rotate(24.880191)"><tspan
             sodipodi:role="line"
             id="tspan104"
             style="stroke-width:1"
             x="143.29329"
             y="-3.814055">T</tspan></text><text
           xml:space="preserve"
           style="font-style:italic;font-variant:normal;font-weight:bold;font-stretch:normal;font-size:14.1111px;line-height:1.2;font-family:Arial;-inkscape-font-specification:'Arial Bold Italic';text-align:center;text-anchor:middle;fill:#ffffff;fill-opacity:1;stroke:#ffffff;stroke-width:1;stroke-linecap:square;stroke-linejoin:round;stroke-dasharray:none;stroke-opacity:1"
           x="153.21227"
           y="-5.6454854"
           id="text105"
           transform="rotate(26.053437)"><tspan
             sodipodi:role="line"
             id="tspan105"
             style="font-style:italic;font-variant:normal;font-weight:bold;font-stretch:normal;font-family:Arial;-inkscape-font-specification:'Arial Bold Italic';stroke-width:1"
             x="153.21227"
             y="-5.6454854">S</tspan></text></g><path
         style="fill:#6f4b41;fill-opacity:1;stroke:#653e34;stroke-width:1;stroke-linecap:round;stroke-linejoin:round;stroke-opacity:1"
         d="m 127.79798,141.71797 -2.14867,-16.71188 3.78575,-1.33013 2.38742,5.86621 c 5.67009,-3.26952 11.18746,-2.03388 16.67777,0 l 2.38741,-6.13906 4.12681,1.56888 -2.01224,16.54135 -8.73111,-1.63709 c 1.54526,-2.05128 1.87264,-3.10882 2.01225,-6.20726 0.20948,-4.64923 -12.76715,-4.53459 -12.41454,-0.0682 0.29409,3.72522 0.56869,4.43545 1.84172,6.27548 z"
         id="path159"
         sodipodi:nodetypes="cccccccccsscc"
         transform="translate(-23.662669,-63.274291)" /><path
         id="path109"
         style="display:inline;fill:#e6cdad;fill-opacity:1;stroke:#e0b783;stroke-width:1;stroke-linecap:round;stroke-linejoin:round;stroke-opacity:1"
         d="m 140.42796,139.26623 c -16.01556,0 -27.74456,9.81018 -27.74456,22.38778 0,0.70509 0.0639,1.39777 0.17105,2.0805 18.80572,4.93886 37.56912,6.99575 56.20018,0.0584 0.11385,-0.70138 0.17932,-1.41382 0.17932,-2.13889 0,-12.5776 -12.79045,-22.38778 -28.80599,-22.38778 z"
         sodipodi:nodetypes="ssccss"
         transform="translate(-23.662669,-63.274291)" /><path
         style="display:inline;fill:#ca966f;fill-opacity:1;stroke:none;stroke-width:1;stroke-linecap:round;stroke-linejoin:round;stroke-opacity:1"
         d="m 168.74288,160.94783 c -2.43023,0.62417 -4.32632,0.32551 -6.56618,1.71115 l -1.73939,-3.00132 1.56887,0.37517 -12.10759,-4.33145 11.69832,8.93513 -12.1758,-3.92156 -0.44338,2.42151 -11.35726,0.64801 -0.17052,-10.98209 c 0,0 -3.63228,-0.19631 -3.63228,-3.61522 0,-3.88029 3.93923,-4.33145 3.93923,-4.33145 l -0.46043,-4.97946 c 18.48206,-1.73965 31.60757,10.17828 31.44641,21.07158 z"
         id="path114"
         sodipodi:nodetypes="ccccccccccsccc"
         transform="translate(-23.662669,-63.274291)" /><path
         id="path106"
         style="display:inline;fill:#8d4832;fill-opacity:1;stroke:#893b22;stroke-width:1;stroke-linecap:round;stroke-linejoin:round;stroke-opacity:1"
         d="m 113.1428,165.13649 c 2.84493,10.75408 18.35439,17.45786 27.78642,17.45786 9.47569,0 24.83316,-6.6356 27.79727,-17.31007 -18.5279,6.71427 -37.05579,5.19337 -55.58369,-0.14779 z"
         sodipodi:nodetypes="cscc"
         transform="translate(-23.662669,-63.274291)" /><path
         style="display:inline;fill:#ca966f;fill-opacity:1;stroke:#753a30;stroke-width:1;stroke-linecap:round;stroke-linejoin:round;stroke-opacity:1"
         d="m 137.48405,159.2825 c -0.0369,0.0394 -16.7485,3.63975 -15.92745,-6.9576 0.79219,-10.22483 16.01325,-9.99302 16.01325,-9.99302"
         id="path112"
         sodipodi:nodetypes="csc"
         transform="translate(-23.662669,-63.274291)" /><path
         style="fill:#e6ccad;fill-opacity:1;stroke:#753a30;stroke-width:1;stroke-linecap:round;stroke-linejoin:round;stroke-opacity:1"
         d="m 134.0067,147.73116 c 0,0 -3.42122,0.63096 -3.4969,-1.15759 -0.1791,-4.23247 6.36677,-1.60374 6.36677,-1.60374"
         id="path142"
         sodipodi:nodetypes="csc"
         transform="translate(-23.662669,-63.274291)" /><path
         style="fill:#e6ccad;fill-opacity:1;stroke:#753a30;stroke-width:1;stroke-linecap:round;stroke-linejoin:round;stroke-opacity:1"
         d="m 134.28138,151.0368 c 0,0 -4.14006,0.11759 -4.24946,2.9934 -0.1,2.62793 7.49657,2.33624 7.49657,2.33624 l -0.15676,-2.78703"
         id="path136"
         sodipodi:nodetypes="cscc"
         transform="translate(-23.662669,-63.274291)" /><path
         style="fill:none;fill-opacity:1;stroke:#753a30;stroke-width:1;stroke-linecap:round;stroke-linejoin:round;stroke-opacity:1"
         d="m 168.97197,160.93862 c -2.43023,0.62417 -4.55541,0.33472 -6.79527,1.72036 l -1.73939,-3.00132 1.56887,0.37517 -12.10759,-4.33145 11.69832,8.93513 -12.1758,-3.92156 -0.44338,2.42151 -11.35726,0.64801 -0.17052,-10.98209 c 0,0 -3.63228,-0.19631 -3.63228,-3.61522 0,-3.88029 3.93923,-4.33145 3.93923,-4.33145 l -0.28851,-5.07593"
         id="path113"
         sodipodi:nodetypes="ccccccccccscc"
         transform="translate(-23.662669,-63.274291)" /><path
         style="fill:#ca966f;fill-opacity:1;stroke:none;stroke-width:1;stroke-linecap:round;stroke-linejoin:round;stroke-opacity:1"
         d="m 140.09027,153.07523 0.86427,10.36818"
         id="path115"
         transform="translate(-23.662669,-63.274291)" /><path
         style="fill:#ca966f;fill-opacity:1;stroke:#753a30;stroke-width:1;stroke-linecap:round;stroke-linejoin:round;stroke-opacity:1"
         d="m 140.09027,153.07523 0.86427,10.36818"
         id="path117"
         transform="translate(-23.662669,-63.274291)" /><path
         style="fill:#ca966f;fill-opacity:1;stroke:#753a30;stroke-width:1;stroke-linecap:round;stroke-linejoin:round;stroke-opacity:1"
         d="m 142.77046,153.07523 0.52864,10.38523"
         id="path118"
         transform="translate(-23.662669,-63.274291)" /><path
         style="fill:#ca966f;fill-opacity:1;stroke:#753a30;stroke-width:1;stroke-linecap:round;stroke-linejoin:round;stroke-opacity:1"
         d="m 146.07873,153.07523 0.42899,10.20216"
         id="path119"
         transform="translate(-23.662669,-63.274291)" /><path
         style="fill:#ca966f;fill-opacity:1;stroke:#753a30;stroke-width:1;stroke-linecap:round;stroke-linejoin:round;stroke-opacity:1"
         d="m 138.9165,146.01531 0.10231,1.97814"
         id="path120"
         transform="translate(-23.662669,-63.274291)" /><path
         style="fill:#ca966f;fill-opacity:1;stroke:#753a30;stroke-width:1;stroke-linecap:round;stroke-linejoin:round;stroke-opacity:1"
         d="m 138.96765,149.28947 v 1.43245"
         id="path121"
         transform="translate(-23.662669,-63.274291)" /><path
         style="fill:#ca966f;fill-opacity:1;stroke:#753a30;stroke-width:1;stroke-linecap:round;stroke-linejoin:round;stroke-opacity:1"
         d="m 139.51881,143.66201 v -4.14952"
         id="path122"
         sodipodi:nodetypes="cc"
         transform="translate(-23.662669,-63.274291)" /><path
         style="fill:#ca966f;fill-opacity:1;stroke:#753a30;stroke-width:1;stroke-linecap:round;stroke-linejoin:round;stroke-opacity:1"
         d="M 141.98602,144.16201 V 139.5807"
         id="path123"
         sodipodi:nodetypes="cc"
         transform="translate(-23.662669,-63.274291)" /><path
         style="fill:#ca966f;fill-opacity:1;stroke:#753a30;stroke-width:1;stroke-linecap:round;stroke-linejoin:round;stroke-opacity:1"
         d="m 144.57807,144.66201 -0.10232,-5.08131"
         id="path124"
         sodipodi:nodetypes="cc"
         transform="translate(-23.662669,-63.274291)" /><path
         style="fill:none;fill-opacity:1;stroke:#6f4c41;stroke-width:1;stroke-linecap:round;stroke-linejoin:round;stroke-opacity:1"
         d="m 163.13167,158.97554 c -4.27162,-3.31092 -9.37073,-5.88629 -15.27943,-7.74203 l -0.88675,-7.84435 c 4.13158,-0.1111 8.89143,-0.15972 13.4036,3.30827"
         id="path151"
         sodipodi:nodetypes="cccc"
         transform="translate(-23.662669,-63.274291)" /><path
         style="fill:#753a30;fill-opacity:1;stroke:#753a30;stroke-width:1;stroke-linecap:round;stroke-linejoin:round;stroke-opacity:1"
         d="m 163.8919,161.85988 -3.52454,-16.31937 1.40008,1.6678 c 4.42337,5.26918 3.93305,9.81389 4.60319,14.20158"
         id="path129"
         sodipodi:nodetypes="ccsc"
         transform="translate(-23.662669,-63.274291)" /><path
         style="fill:#ca966f;fill-opacity:1;stroke:#753a30;stroke-width:1;stroke-linecap:round;stroke-linejoin:round;stroke-opacity:1"
         d="m 163.95021,152.57523 h 2.35331"
         id="path130"
         transform="translate(-23.662669,-63.274291)" /><path
         style="fill:#ca966f;fill-opacity:1;stroke:#753a30;stroke-width:1;stroke-linecap:round;stroke-linejoin:round;stroke-opacity:1"
         d="m 164.4442,154.5823 2.61976,-0.10873"
         id="path131"
         transform="translate(-23.662669,-63.274291)" /><path
         style="fill:#ca966f;fill-opacity:1;stroke:#753a30;stroke-width:1;stroke-linecap:round;stroke-linejoin:round;stroke-opacity:1"
         d="m 165.01132,156.59229 2.96338,-0.17469"
         id="path132"
         transform="translate(-23.662669,-63.274291)" /><path
         style="fill:#ca966f;fill-opacity:1;stroke:#753a30;stroke-width:1;stroke-linecap:round;stroke-linejoin:round;stroke-opacity:1"
         d="m 165.75408,158.7027 2.72062,-0.0341"
         id="path134"
         transform="translate(-23.662669,-63.274291)" /><ellipse
         style="fill:#753a30;fill-opacity:1;stroke:#753a30;stroke-width:1;stroke-linecap:round;stroke-linejoin:round;stroke-opacity:1"
         id="path141"
         cx="133.70525"
         cy="146.01889"
         rx="1.2178831"
         ry="0.57879591"
         transform="translate(-23.662669,-63.274291)" /><path
         style="fill:#e6ccad;fill-opacity:1;stroke:#753a30;stroke-width:1;stroke-linecap:round;stroke-linejoin:round;stroke-opacity:1"
         d="m 126.62705,146.7665 c -1.90416,0.31572 -2.61854,3.04079 -2.72516,4.968 -0.16384,2.96352 1.46204,3.33558 2.94221,2.99044 0.61645,-0.14374 0.60655,-8.095 -0.21705,-7.95844 z"
         id="path143"
         sodipodi:nodetypes="ssss"
         transform="translate(-23.662669,-63.274291)" /><path
         style="fill:#e6ccad;fill-opacity:1;stroke:#753a30;stroke-width:1;stroke-linecap:round;stroke-linejoin:round;stroke-opacity:1"
         d="m 132.72852,160.05469 -0.0482,2.26695"
         id="path144"
         sodipodi:nodetypes="cc"
         transform="translate(-23.662669,-63.274291)" /><path
         style="fill:none;fill-opacity:1;stroke:#753a30;stroke-width:1;stroke-linecap:round;stroke-linejoin:round;stroke-opacity:1"
         d="m 130.91979,159.91 c 0,0 -6.47079,-0.57721 -11.64826,1.15758 -0.54079,0.18119 6.31852,-2.02578 6.31852,-2.02578"
         id="path145"
         sodipodi:nodetypes="csc"
         transform="translate(-23.662669,-63.274291)" /><path
         style="fill:none;fill-opacity:1;stroke:#753a30;stroke-width:1;stroke-linecap:round;stroke-linejoin:round;stroke-opacity:1"
         d="m 119.64667,161.03895 v 2.64321"
         id="path146"
         transform="translate(-23.662669,-63.274291)" /><path
         style="fill:none;fill-opacity:1;stroke:#753a30;stroke-width:1;stroke-linecap:round;stroke-linejoin:round;stroke-opacity:1"
         d="m 122.27283,160.4421 v 2.09751"
         id="path147"
         transform="translate(-23.662669,-63.274291)" /><path
         style="fill:none;fill-opacity:1;stroke:#753a30;stroke-width:1;stroke-linecap:round;stroke-linejoin:round;stroke-opacity:1"
         d="m 124.86487,159.8964 v 2.2851"
         id="path148"
         transform="translate(-23.662669,-63.274291)" /><path
         style="fill:none;fill-opacity:1;stroke:#753a30;stroke-width:1;stroke-linecap:round;stroke-linejoin:round;stroke-opacity:1"
         d="m 128.05378,159.8964 v 2.54089"
         id="path149"
         transform="translate(-23.662669,-63.274291)" /><path
         style="fill:none;fill-opacity:1;stroke:#753a30;stroke-width:1;stroke-linecap:round;stroke-linejoin:round;stroke-opacity:1"
         d="m 120.75512,148.06166 c 1.20856,-1.11177 2.37396,-1.87821 3.40179,-1.5442"
         id="path150"
         sodipodi:nodetypes="cc"
         transform="translate(-23.662669,-63.274291)" /><path
         style="fill:#8c4831;fill-opacity:1;stroke:#6f4c41;stroke-width:1;stroke-linecap:round;stroke-linejoin:round;stroke-opacity:1"
         d="m 147.95456,151.23351 12.68738,2.48972 -1.60297,-7.87845 c -3.81469,-2.26341 -8.02281,-2.55485 -12.10759,-2.38741 z"
         id="path152"
         sodipodi:nodetypes="ccccc"
         transform="translate(-23.662669,-63.274291)" /><path
         style="fill:#8c4831;fill-opacity:1;stroke:#6f4c41;stroke-width:1;stroke-linecap:round;stroke-linejoin:round;stroke-opacity:1"
         d="m 150.95587,149.18716 4.70661,0.44337"
         id="path153"
         transform="translate(-23.662669,-63.274291)" /><path
         style="fill:#8c4831;fill-opacity:1;stroke:#6f4c41;stroke-width:1;stroke-linecap:round;stroke-linejoin:round;stroke-opacity:1"
         d="m 150.98998,146.35637 4.60429,0.37516"
         id="path154"
         transform="translate(-23.662669,-63.274291)" /><path
         style="fill:none;fill-opacity:1;stroke:#ca966f;stroke-width:1;stroke-linecap:round;stroke-linejoin:round;stroke-opacity:1"
         d="m 118.30686,153.2056 c -0.45369,-1.11662 -0.76973,-3.12129 -0.65115,-4.36508"
         id="path155"
         sodipodi:nodetypes="cc"
         transform="translate(-23.662669,-63.274291)" /><path
         style="fill:none;fill-opacity:1;stroke:#ca966f;stroke-width:1;stroke-linecap:round;stroke-linejoin:round;stroke-opacity:1"
         d="m 117.49896,154.48377 c -0.45369,-1.11662 -1.11942,-2.97659 -1.00084,-4.22038"
         id="path156"
         sodipodi:nodetypes="cc"
         transform="translate(-23.662669,-63.274291)" /><path
         style="fill:none;fill-opacity:1;stroke:#ca966f;stroke-width:1;stroke-linecap:round;stroke-linejoin:round;stroke-opacity:1"
         d="m 116.30519,155.67754 c -0.45369,-1.11662 -1.02295,-2.63896 -0.90437,-3.88275"
         id="path157"
         sodipodi:nodetypes="cc"
         transform="translate(-23.662669,-63.274291)" /><path
         style="fill:none;fill-opacity:1;stroke:#ca966f;stroke-width:1;stroke-linecap:round;stroke-linejoin:round;stroke-opacity:1"
         d="m 114.80997,158.01684 c -0.45369,-1.11662 -0.81796,-2.2531 -0.69938,-3.49689"
         id="path158"
         sodipodi:nodetypes="cc"
         transform="translate(-23.662669,-63.274291)" /><ellipse
         style="fill:#753a30;fill-opacity:1;stroke:#753a30;stroke-width:1;stroke-linecap:round;stroke-linejoin:round;stroke-opacity:1"
         id="path139"
         cx="134.89902"
         cy="153.83264"
         rx="2.5081155"
         ry="1.0128928"
         transform="translate(-23.662669,-63.274291)" /><path
         id="path135"
         style="display:inline;fill:none;fill-opacity:1;stroke:#e0b783;stroke-width:1;stroke-linecap:round;stroke-linejoin:round;stroke-opacity:1"
         d="m 140.42796,139.26623 c -16.01556,0 -27.74456,9.81018 -27.74456,22.38778 0,0.70509 0.0639,1.39777 0.17105,2.0805 18.80572,4.93886 37.56912,6.99575 56.20018,0.0584 0.11385,-0.70138 0.17932,-1.41382 0.17932,-2.13889 0,-12.5776 -12.79045,-22.38778 -28.80599,-22.38778 z"
         sodipodi:nodetypes="ssccss"
         transform="translate(-23.662669,-63.274291)" /><path
         id="path108"
         style="display:inline;fill:#894b38;fill-opacity:1;stroke:#6d3929;stroke-width:1;stroke-linecap:round;stroke-linejoin:round;stroke-opacity:1"
         d="m 113.30675,165.70817 c 18.52786,5.34114 36.75668,6.74775 55.28454,0.0335 0.13621,-0.49051 0.38157,-1.44503 0.46334,-1.94874 -18.63087,6.93713 -37.39466,4.88032 -56.20018,-0.0584 0.1037,0.65789 0.22506,1.31578 0.4523,1.97366 z"
         sodipodi:nodetypes="ccccc"
         transform="translate(-23.662669,-63.274291)" /></g></g></svg>
