<?xml version="1.0" encoding="UTF-8" standalone="no"?>
<!-- Created with Inkscape (http://www.inkscape.org/) -->

<svg
   width="120.99999mm"
   height="120.99998mm"
   viewBox="0 0 120.99999 120.99998"
   version="1.1"
   id="svg1"
   xml:space="preserve"
   inkscape:version="1.3.2 (091e20e, 2023-11-25, custom)"
   sodipodi:docname="bfcdxsffd.svg"
   xmlns:inkscape="http://www.inkscape.org/namespaces/inkscape"
   xmlns:sodipodi="http://sodipodi.sourceforge.net/DTD/sodipodi-0.dtd"
   xmlns="http://www.w3.org/2000/svg"
   xmlns:svg="http://www.w3.org/2000/svg"><sodipodi:namedview
     id="namedview1"
     pagecolor="#ffffff"
     bordercolor="#000000"
     borderopacity="0.25"
     inkscape:showpageshadow="2"
     inkscape:pageopacity="0.0"
     inkscape:pagecheckerboard="0"
     inkscape:deskcolor="#d1d1d1"
     inkscape:document-units="mm"
     inkscape:zoom="0.68569071"
     inkscape:cx="350.01203"
     inkscape:cy="951.59522"
     inkscape:window-width="1920"
     inkscape:window-height="991"
     inkscape:window-x="-9"
     inkscape:window-y="-9"
     inkscape:window-maximized="1"
     inkscape:current-layer="layer1" /><defs
     id="defs1" /><g
     inkscape:label="Capa 1"
     inkscape:groupmode="layer"
     id="layer1"
     transform="translate(-206.66153,-343.0269)"><g
       id="g257"
       transform="translate(150.26369,314.46829)"
       inkscape:export-filename="Arquitectura.svg"
       inkscape:export-xdpi="96"
       inkscape:export-ydpi="96"><circle
         style="display:inline;fill:#f9a86f;fill-opacity:1;stroke:#ffffff;stroke-width:1;stroke-linecap:square;stroke-linejoin:round;stroke-opacity:1"
         id="circle237"
         cx="116.89785"
         cy="89.058594"
         r="60" /><circle
         style="display:inline;fill:#ffffff;fill-opacity:1;stroke:#ffffff;stroke-width:1;stroke-linecap:square;stroke-linejoin:round;stroke-opacity:1"
         id="circle238"
         cx="116.89785"
         cy="89.058594"
         r="54.053749" /><path
         id="path238"
         style="display:inline;fill:#f9a86f;fill-opacity:1;stroke:none;stroke-width:1;stroke-linecap:square;stroke-linejoin:round;stroke-opacity:1"
         d="m 117.29465,40.168607 c -22.742213,0.05319 -42.265283,16.19718 -46.588372,38.524781 h 14.346928 c 4.051515,-14.458577 17.225954,-24.457386 32.241444,-24.469825 15.02202,0.0046 28.20574,10.004971 32.25902,24.469825 h 14.43529 C 159.65824,56.326703 140.07674,40.17114 117.29465,40.168607 Z M 69.953353,90.892126 c 1.658666,24.943744 22.342535,44.347224 47.341297,44.410724 24.99876,-0.0635 45.68263,-19.46697 47.3413,-44.410724 H 150.58099 C 148.95574,108.0715 134.55069,121.20832 117.29465,121.24789 100.03861,121.20829 85.633554,108.0715 84.008309,90.892126 Z"
         sodipodi:nodetypes="cccccccccccccc" /><g
         id="g249"
         transform="translate(0.396875,-1.3229167)"><text
           xml:space="preserve"
           style="font-weight:bold;font-size:14.1111px;line-height:1.2;font-family:Arial;-inkscape-font-specification:'Arial Bold';text-align:center;text-anchor:middle;fill:#ffffff;fill-opacity:1;stroke:#ffffff;stroke-width:1;stroke-linecap:square;stroke-linejoin:round;stroke-dasharray:none;stroke-opacity:1"
           x="84.139343"
           y="38.668396"
           id="text238"
           transform="rotate(49.651447,-3.8973156,78.581555)"><tspan
             sodipodi:role="line"
             id="tspan238"
             style="font-size:14.1111px;fill:#ffffff;fill-opacity:1;stroke:#ffffff;stroke-width:1;stroke-dasharray:none;stroke-opacity:1"
             x="84.139343"
             y="38.668396">D</tspan></text><text
           xml:space="preserve"
           style="font-weight:bold;font-size:14.1111px;line-height:1.2;font-family:Arial;-inkscape-font-specification:'Arial Bold';text-align:center;text-anchor:middle;fill:#ffffff;fill-opacity:1;stroke:#ffffff;stroke-width:1;stroke-linecap:square;stroke-linejoin:round;stroke-dasharray:none;stroke-opacity:1"
           x="81.138748"
           y="63.438328"
           id="text239"
           transform="rotate(32.416911,-23.506148,115.98634)"><tspan
             sodipodi:role="line"
             id="tspan239"
             style="font-size:14.1111px;fill:#ffffff;fill-opacity:1;stroke:#ffffff;stroke-width:1;stroke-dasharray:none;stroke-opacity:1"
             x="81.138748"
             y="63.438328">E</tspan></text><text
           xml:space="preserve"
           style="font-weight:bold;font-size:14.1111px;line-height:1.2;font-family:Arial;-inkscape-font-specification:'Arial Bold';text-align:center;text-anchor:middle;fill:#ffffff;fill-opacity:1;stroke:#ffffff;stroke-width:1;stroke-linecap:square;stroke-linejoin:round;stroke-dasharray:none;stroke-opacity:1"
           x="74.167931"
           y="83.492027"
           id="text240"
           transform="rotate(17.580526,-69.929297,204.5407)"><tspan
             sodipodi:role="line"
             id="tspan240"
             style="font-size:14.1111px;fill:#ffffff;fill-opacity:1;stroke:#ffffff;stroke-width:1;stroke-dasharray:none;stroke-opacity:1"
             x="74.167931"
             y="83.492027">L</tspan></text><text
           xml:space="preserve"
           style="font-weight:bold;font-size:14.1111px;line-height:1.2;font-family:Arial;-inkscape-font-specification:'Arial Bold';text-align:center;text-anchor:middle;fill:#ffffff;fill-opacity:1;stroke:#ffffff;stroke-width:1;stroke-linecap:square;stroke-linejoin:round;stroke-dasharray:none;stroke-opacity:1"
           x="58.342377"
           y="105.44102"
           id="text241"
           transform="rotate(-1.2470186,1438.6142,-2673.0762)"><tspan
             sodipodi:role="line"
             id="tspan241"
             style="font-size:14.1111px;fill:#ffffff;fill-opacity:1;stroke:#ffffff;stroke-width:1;stroke-dasharray:none;stroke-opacity:1"
             x="58.342377"
             y="105.44102">P</tspan></text><text
           xml:space="preserve"
           style="font-weight:bold;font-size:14.1111px;line-height:1.2;font-family:Arial;-inkscape-font-specification:'Arial Bold';text-align:center;text-anchor:middle;fill:#ffffff;fill-opacity:1;stroke:#ffffff;stroke-width:1;stroke-linecap:square;stroke-linejoin:round;stroke-dasharray:none;stroke-opacity:1"
           x="36.925251"
           y="119.13938"
           id="text242"
           transform="rotate(-18.271503,124.63216,-166.59454)"><tspan
             sodipodi:role="line"
             id="tspan242"
             style="font-size:14.1111px;fill:#ffffff;fill-opacity:1;stroke:#ffffff;stroke-width:1;stroke-dasharray:none;stroke-opacity:1"
             x="36.925251"
             y="119.13938">E</tspan></text><text
           xml:space="preserve"
           style="font-weight:bold;font-size:14.1111px;line-height:1.2;font-family:Arial;-inkscape-font-specification:'Arial Bold';text-align:center;text-anchor:middle;fill:#ffffff;fill-opacity:1;stroke:#ffffff;stroke-width:1;stroke-linecap:square;stroke-linejoin:round;stroke-dasharray:none;stroke-opacity:1"
           x="14.023943"
           y="126.68509"
           id="text243"
           transform="rotate(-35.071346,77.79661,-77.253487)"><tspan
             sodipodi:role="line"
             id="tspan243"
             style="font-size:14.1111px;fill:#ffffff;fill-opacity:1;stroke:#ffffff;stroke-width:1;stroke-dasharray:none;stroke-opacity:1"
             x="14.023943"
             y="126.68509">R</tspan></text><path
           id="path243"
           style="font-weight:bold;font-size:15.875px;line-height:1.2;font-family:Arial;-inkscape-font-specification:'Arial Bold';text-align:center;text-anchor:middle;fill:#ffffff;fill-opacity:1;stroke:#ffffff;stroke-width:1;stroke-linecap:square;stroke-linejoin:round;stroke-dasharray:none;stroke-opacity:1"
           d="m 89.378044,76.781959 -1.413349,1.807643 0.55695,0.43366 0.875404,-2.228284 z m 1.104679,0.896174 -0.875396,2.22829 1.890529,1.373317 c 0.708292,0.55389 1.194388,0.976469 1.458307,1.268138 0.263919,0.291668 0.399781,0.650875 0.407727,1.076937 0.0039,0.422877 -0.194729,0.89062 -0.59583,1.403531 -0.394734,0.50477 -0.816539,0.817767 -1.265557,0.93896 -0.449907,0.113938 -0.888314,0.06601 -1.315165,-0.143144 -0.26298,-0.13349 -0.778855,-0.500604 -1.548227,-1.102259 l -3.429292,-2.609007 -1.413862,1.807129 3.356422,2.551641 c 1.0014,0.783103 1.804448,1.316339 2.409674,1.599388 0.409679,0.18917 0.873581,0.279457 1.391644,0.271299 0.513997,-0.01134 1.042684,-0.158695 1.585955,-0.442346 0.542373,-0.290913 1.147924,-0.863908 1.816425,-1.71876 0.553901,-0.708305 0.913284,-1.351957 1.07797,-1.931665 0.16062,-0.582886 0.189941,-1.124394 0.08836,-1.623675 -0.09838,-0.503346 -0.331357,-0.976938 -0.698664,-1.421618 -0.367307,-0.44468 -1.087986,-1.087645 -2.162661,-1.92805 z"
           sodipodi:nodetypes="ccccccccscscccccccccsccscc"
           transform="translate(58.514518,30.675262)" /><text
           xml:space="preserve"
           style="font-style:italic;font-variant:normal;font-weight:bold;font-stretch:normal;font-size:14.1111px;line-height:1.2;font-family:Arial;-inkscape-font-specification:'Arial Bold Italic';text-align:center;text-anchor:middle;fill:#ffffff;fill-opacity:1;stroke:#ffffff;stroke-width:1;stroke-linecap:square;stroke-linejoin:round;stroke-dasharray:none;stroke-opacity:1"
           x="3.0038822"
           y="46.686371"
           id="text244"
           transform="rotate(-44.498689,66.748647,-56.178969)"><tspan
             sodipodi:role="line"
             id="tspan244"
             style="font-style:italic;font-variant:normal;font-weight:bold;font-stretch:normal;font-family:Arial;-inkscape-font-specification:'Arial Bold Italic';stroke-width:1"
             x="3.0038824"
             y="46.686371">S</tspan></text><text
           xml:space="preserve"
           style="font-weight:bold;font-size:14.1111px;line-height:1.2;font-family:Arial;-inkscape-font-specification:'Arial Bold';text-align:center;text-anchor:middle;fill:#ffffff;fill-opacity:1;stroke:#ffffff;stroke-width:1;stroke-linecap:square;stroke-linejoin:round;stroke-dasharray:none;stroke-opacity:1"
           x="22.793133"
           y="45.594044"
           id="text245"
           transform="rotate(-33.043386,80.964335,-83.296072)"><tspan
             sodipodi:role="line"
             id="tspan245"
             style="stroke-width:1"
             x="22.793133"
             y="45.594044">C</tspan></text><text
           xml:space="preserve"
           style="font-weight:bold;font-size:14.1111px;line-height:1.2;font-family:Arial;-inkscape-font-specification:'Arial Bold';text-align:center;text-anchor:middle;fill:#ffffff;fill-opacity:1;stroke:#ffffff;stroke-width:1;stroke-linecap:square;stroke-linejoin:round;stroke-dasharray:none;stroke-opacity:1"
           x="95.420288"
           y="81.118217"
           id="text246"
           transform="rotate(-15.019919)"><tspan
             sodipodi:role="line"
             id="tspan246"
             style="stroke-width:1"
             x="95.420288"
             y="81.118217">O</tspan></text><text
           xml:space="preserve"
           style="font-weight:bold;font-size:14.1111px;line-height:1.2;font-family:Arial;-inkscape-font-specification:'Arial Bold';text-align:center;text-anchor:middle;fill:#ffffff;fill-opacity:1;stroke:#ffffff;stroke-width:1;stroke-linecap:square;stroke-linejoin:round;stroke-dasharray:none;stroke-opacity:1"
           x="131.35493"
           y="26.227385"
           id="text247"
           transform="rotate(12.642406)"><tspan
             sodipodi:role="line"
             id="tspan247"
             style="stroke-width:1"
             x="131.35493"
             y="26.227385">U</tspan></text><text
           xml:space="preserve"
           style="font-weight:bold;font-size:14.1111px;line-height:1.2;font-family:Arial;-inkscape-font-specification:'Arial Bold';text-align:center;text-anchor:middle;fill:#ffffff;fill-opacity:1;stroke:#ffffff;stroke-width:1;stroke-linecap:square;stroke-linejoin:round;stroke-dasharray:none;stroke-opacity:1"
           x="143.29329"
           y="-3.814055"
           id="text248"
           transform="rotate(24.880191)"><tspan
             sodipodi:role="line"
             id="tspan248"
             style="stroke-width:1"
             x="143.29329"
             y="-3.814055">T</tspan></text><text
           xml:space="preserve"
           style="font-style:italic;font-variant:normal;font-weight:bold;font-stretch:normal;font-size:14.1111px;line-height:1.2;font-family:Arial;-inkscape-font-specification:'Arial Bold Italic';text-align:center;text-anchor:middle;fill:#ffffff;fill-opacity:1;stroke:#ffffff;stroke-width:1;stroke-linecap:square;stroke-linejoin:round;stroke-dasharray:none;stroke-opacity:1"
           x="153.21227"
           y="-5.6454854"
           id="text249"
           transform="rotate(26.053437)"><tspan
             sodipodi:role="line"
             id="tspan249"
             style="font-style:italic;font-variant:normal;font-weight:bold;font-stretch:normal;font-family:Arial;-inkscape-font-specification:'Arial Bold Italic';stroke-width:1"
             x="153.21227"
             y="-5.6454854">S</tspan></text></g><path
         id="rect257"
         style="display:inline;fill:#ee1d23;fill-opacity:1;stroke:#e13d42;stroke-width:1;stroke-linecap:round;stroke-linejoin:round;stroke-dasharray:none;stroke-opacity:1"
         d="m 252.53912,384.91671 -9.81439,10.03247 h -4.20284 c -1.2126,0 -2.18901,0.97641 -2.18901,2.18901 v 10.28516 c 0,1.2126 0.97641,2.18901 2.18901,2.18901 h 2.24637 c 0.1464,-4.10496 3.81935,-7.35433 7.65277,-7.36285 3.83863,8e-4 7.51959,3.25232 7.6662,7.36285 h 25.05047 c 0.1464,-4.10518 3.82106,-7.35463 7.65468,-7.36285 3.83863,8e-4 7.18336,3.25232 7.32996,7.36285 h 1.01406 c 1.2126,0 2.18901,-0.97641 2.18901,-2.18901 v -8.25944 c 0,-1.2126 -0.99025,-2.00636 -2.18901,-2.18902 l -13.29428,-2.02571 -10.03195,-10.03247 z m 2.06809,1.39889 h 7.89771 c 0.33081,0 0.59738,0.26657 0.59738,0.59738 v 6.66729 c 0,0.3308 -0.26657,0.59738 -0.59738,0.59738 h -4.00906 -4.51548 -3.82871 l 3.23184,-6.0849 0.62684,-1.17977 c 0.15525,-0.29212 0.26605,-0.59738 0.59686,-0.59738 z m 10.63708,0 h 7.89719 c 0.33081,0 0.6855,0.34884 0.90382,0.59738 l 1.03663,1.17977 6.2327,6.0849 h -7.5458 -4.51548 -4.00906 c -0.33081,0 -0.59738,-0.26658 -0.59738,-0.59738 v -6.66729 c 0,-0.33081 0.26657,-0.59738 0.59738,-0.59738 z"
         sodipodi:nodetypes="ccssssccccccsssscccssssscccccssscccccssss"
         transform="translate(-150.26369,-314.46829)" /><path
         id="rect258"
         style="display:inline;fill:#e2edf0;fill-opacity:1;stroke:#bddfea;stroke-width:1;stroke-linecap:round;stroke-linejoin:round;stroke-dasharray:none;stroke-opacity:1"
         d="m 254.60741,386.3156 c -0.33081,0 -0.44162,0.30526 -0.59687,0.59738 l -0.62703,1.17977 -3.23184,6.0849 h 3.82871 4.51548 4.00906 c 0.33081,0 0.59738,-0.26658 0.59738,-0.59738 v -6.66729 c 0,-0.33081 -0.26657,-0.59738 -0.59738,-0.59738 z"
         sodipodi:nodetypes="ssccccsssss"
         transform="translate(-150.26369,-314.46829)" /><path
         id="path258"
         style="display:inline;fill:#e2edf0;fill-opacity:1;stroke:#bddfea;stroke-width:1;stroke-linecap:round;stroke-linejoin:round;stroke-dasharray:none;stroke-opacity:1"
         d="m 273.14159,386.3156 c 0.33081,0 0.6855,0.34884 0.90382,0.59738 l 1.0363,1.17977 6.23316,6.0849 h -7.54625 -4.51548 -4.00906 c -0.33081,0 -0.59738,-0.26658 -0.59738,-0.59738 v -6.66729 c 0,-0.33081 0.26657,-0.59738 0.59738,-0.59738 z"
         sodipodi:nodetypes="ssccccsssss"
         transform="translate(-150.26369,-314.46829)" /><path
         id="path260"
         style="display:inline;fill:#1a1a1a;fill-opacity:1;stroke:#030708;stroke-width:1;stroke-linecap:round;stroke-linejoin:round;stroke-dasharray:none;stroke-opacity:1"
         d="m 248.4758,403.94966 a 6,6 0 0 0 -6.00015,6.00015 6,6 0 0 0 6.00015,6.00015 6,6 0 0 0 5.99964,-6.00015 6,6 0 0 0 -5.99964,-6.00015 z m 0,2.6479 a 3.3520329,3.3520329 0 0 1 3.35174,3.35225 3.3520329,3.3520329 0 0 1 -3.35174,3.35225 3.3520329,3.3520329 0 0 1 -3.35225,-3.35225 3.3520329,3.3520329 0 0 1 3.35225,-3.35225 z"
         transform="translate(-150.26369,-314.46829)" /><path
         id="path261"
         style="display:inline;fill:#1a1a1a;fill-opacity:1;stroke:#030708;stroke-width:1;stroke-linecap:round;stroke-linejoin:round;stroke-dasharray:none;stroke-opacity:1"
         d="m 288.60565,403.94966 a 6,6 0 0 0 -6.00015,6.00015 6,6 0 0 0 6.00015,6.00015 6,6 0 0 0 5.99964,-6.00015 6,6 0 0 0 -5.99964,-6.00015 z m 0,2.6479 a 3.3520329,3.3520329 0 0 1 3.35174,3.35225 3.3520329,3.3520329 0 0 1 -3.35174,3.35225 3.3520329,3.3520329 0 0 1 -3.35225,-3.35225 3.3520329,3.3520329 0 0 1 3.35225,-3.35225 z"
         transform="translate(-150.26369,-314.46829)" /></g></g></svg>
