<?xml version="1.0" encoding="UTF-8" standalone="no"?>
<!-- Created with Inkscape (http://www.inkscape.org/) -->

<svg
   width="120.99998mm"
   height="121mm"
   viewBox="0 0 120.99998 121"
   version="1.1"
   id="svg1"
   xml:space="preserve"
   inkscape:version="1.3.2 (091e20e, 2023-11-25, custom)"
   sodipodi:docname="Especialidades.svg"
   xmlns:inkscape="http://www.inkscape.org/namespaces/inkscape"
   xmlns:sodipodi="http://sodipodi.sourceforge.net/DTD/sodipodi-0.dtd"
   xmlns="http://www.w3.org/2000/svg"
   xmlns:svg="http://www.w3.org/2000/svg"><sodipodi:namedview
     id="namedview1"
     pagecolor="#ffffff"
     bordercolor="#000000"
     borderopacity="0.25"
     inkscape:showpageshadow="2"
     inkscape:pageopacity="0.0"
     inkscape:pagecheckerboard="0"
     inkscape:deskcolor="#d1d1d1"
     inkscape:document-units="mm"
     inkscape:zoom="22.627417"
     inkscape:cx="2636.8012"
     inkscape:cy="1554.1102"
     inkscape:window-width="1920"
     inkscape:window-height="991"
     inkscape:window-x="-9"
     inkscape:window-y="-9"
     inkscape:window-maximized="1"
     inkscape:current-layer="layer1" /><defs
     id="defs1" /><g
     inkscape:label="Capa 1"
     inkscape:groupmode="layer"
     id="layer1"
     transform="translate(-593.67219,31.283783)"><g
       id="g485"
       transform="translate(537.27435,-59.842377)"
       inkscape:export-filename="Antropologia.svg"
       inkscape:export-xdpi="96"
       inkscape:export-ydpi="96"
       inkscape:label="Costura"><circle
         style="display:inline;fill:#f9a86f;fill-opacity:1;stroke:#ffffff;stroke-width:1;stroke-linecap:square;stroke-linejoin:round;stroke-opacity:1"
         id="circle455"
         cx="116.89785"
         cy="89.058594"
         r="60" /><circle
         style="display:inline;fill:#ffffff;fill-opacity:1;stroke:#ffffff;stroke-width:1;stroke-linecap:square;stroke-linejoin:round;stroke-opacity:1"
         id="circle456"
         cx="116.89785"
         cy="89.058594"
         r="54.053749" /><path
         id="path456"
         style="display:inline;fill:#f9a86f;fill-opacity:1;stroke:none;stroke-width:1;stroke-linecap:square;stroke-linejoin:round;stroke-opacity:1"
         d="m 117.29465,40.168607 c -22.742213,0.05319 -42.265283,16.19718 -46.588372,38.524781 h 14.346928 c 4.051515,-14.458577 17.225954,-24.457386 32.241444,-24.469825 15.02202,0.0046 28.20574,10.004971 32.25902,24.469825 h 14.43529 C 159.65824,56.326703 140.07674,40.17114 117.29465,40.168607 Z M 69.953353,90.892126 c 1.658666,24.943744 22.342535,44.347224 47.341297,44.410724 24.99876,-0.0635 45.68263,-19.46697 47.3413,-44.410724 H 150.58099 C 148.95574,108.0715 134.55069,121.20832 117.29465,121.24789 100.03861,121.20829 85.633554,108.0715 84.008309,90.892126 Z"
         sodipodi:nodetypes="cccccccccccccc" /><g
         id="g467"
         transform="translate(0.396875,-1.3229167)"><text
           xml:space="preserve"
           style="font-weight:bold;font-size:14.1111px;line-height:1.2;font-family:Arial;-inkscape-font-specification:'Arial Bold';text-align:center;text-anchor:middle;fill:#ffffff;fill-opacity:1;stroke:#ffffff;stroke-width:1;stroke-linecap:square;stroke-linejoin:round;stroke-dasharray:none;stroke-opacity:1"
           x="84.139343"
           y="38.668396"
           id="text456"
           transform="rotate(49.651447,-3.8973156,78.581555)"><tspan
             sodipodi:role="line"
             id="tspan456"
             style="font-size:14.1111px;fill:#ffffff;fill-opacity:1;stroke:#ffffff;stroke-width:1;stroke-dasharray:none;stroke-opacity:1"
             x="84.139343"
             y="38.668396">D</tspan></text><text
           xml:space="preserve"
           style="font-weight:bold;font-size:14.1111px;line-height:1.2;font-family:Arial;-inkscape-font-specification:'Arial Bold';text-align:center;text-anchor:middle;fill:#ffffff;fill-opacity:1;stroke:#ffffff;stroke-width:1;stroke-linecap:square;stroke-linejoin:round;stroke-dasharray:none;stroke-opacity:1"
           x="81.138748"
           y="63.438328"
           id="text457"
           transform="rotate(32.416911,-23.506148,115.98634)"><tspan
             sodipodi:role="line"
             id="tspan457"
             style="font-size:14.1111px;fill:#ffffff;fill-opacity:1;stroke:#ffffff;stroke-width:1;stroke-dasharray:none;stroke-opacity:1"
             x="81.138748"
             y="63.438328">E</tspan></text><text
           xml:space="preserve"
           style="font-weight:bold;font-size:14.1111px;line-height:1.2;font-family:Arial;-inkscape-font-specification:'Arial Bold';text-align:center;text-anchor:middle;fill:#ffffff;fill-opacity:1;stroke:#ffffff;stroke-width:1;stroke-linecap:square;stroke-linejoin:round;stroke-dasharray:none;stroke-opacity:1"
           x="74.167931"
           y="83.492027"
           id="text458"
           transform="rotate(17.580526,-69.929297,204.5407)"><tspan
             sodipodi:role="line"
             id="tspan458"
             style="font-size:14.1111px;fill:#ffffff;fill-opacity:1;stroke:#ffffff;stroke-width:1;stroke-dasharray:none;stroke-opacity:1"
             x="74.167931"
             y="83.492027">L</tspan></text><text
           xml:space="preserve"
           style="font-weight:bold;font-size:14.1111px;line-height:1.2;font-family:Arial;-inkscape-font-specification:'Arial Bold';text-align:center;text-anchor:middle;fill:#ffffff;fill-opacity:1;stroke:#ffffff;stroke-width:1;stroke-linecap:square;stroke-linejoin:round;stroke-dasharray:none;stroke-opacity:1"
           x="58.342377"
           y="105.44102"
           id="text459"
           transform="rotate(-1.2470186,1438.6142,-2673.0762)"><tspan
             sodipodi:role="line"
             id="tspan459"
             style="font-size:14.1111px;fill:#ffffff;fill-opacity:1;stroke:#ffffff;stroke-width:1;stroke-dasharray:none;stroke-opacity:1"
             x="58.342377"
             y="105.44102">P</tspan></text><text
           xml:space="preserve"
           style="font-weight:bold;font-size:14.1111px;line-height:1.2;font-family:Arial;-inkscape-font-specification:'Arial Bold';text-align:center;text-anchor:middle;fill:#ffffff;fill-opacity:1;stroke:#ffffff;stroke-width:1;stroke-linecap:square;stroke-linejoin:round;stroke-dasharray:none;stroke-opacity:1"
           x="36.925251"
           y="119.13938"
           id="text460"
           transform="rotate(-18.271503,124.63216,-166.59454)"><tspan
             sodipodi:role="line"
             id="tspan460"
             style="font-size:14.1111px;fill:#ffffff;fill-opacity:1;stroke:#ffffff;stroke-width:1;stroke-dasharray:none;stroke-opacity:1"
             x="36.925251"
             y="119.13938">E</tspan></text><text
           xml:space="preserve"
           style="font-weight:bold;font-size:14.1111px;line-height:1.2;font-family:Arial;-inkscape-font-specification:'Arial Bold';text-align:center;text-anchor:middle;fill:#ffffff;fill-opacity:1;stroke:#ffffff;stroke-width:1;stroke-linecap:square;stroke-linejoin:round;stroke-dasharray:none;stroke-opacity:1"
           x="14.023943"
           y="126.68509"
           id="text461"
           transform="rotate(-35.071346,77.79661,-77.253487)"><tspan
             sodipodi:role="line"
             id="tspan461"
             style="font-size:14.1111px;fill:#ffffff;fill-opacity:1;stroke:#ffffff;stroke-width:1;stroke-dasharray:none;stroke-opacity:1"
             x="14.023943"
             y="126.68509">R</tspan></text><path
           id="path461"
           style="font-weight:bold;font-size:15.875px;line-height:1.2;font-family:Arial;-inkscape-font-specification:'Arial Bold';text-align:center;text-anchor:middle;fill:#ffffff;fill-opacity:1;stroke:#ffffff;stroke-width:1;stroke-linecap:square;stroke-linejoin:round;stroke-dasharray:none;stroke-opacity:1"
           d="m 89.378044,76.781959 -1.413349,1.807643 0.55695,0.43366 0.875404,-2.228284 z m 1.104679,0.896174 -0.875396,2.22829 1.890529,1.373317 c 0.708292,0.55389 1.194388,0.976469 1.458307,1.268138 0.263919,0.291668 0.399781,0.650875 0.407727,1.076937 0.0039,0.422877 -0.194729,0.89062 -0.59583,1.403531 -0.394734,0.50477 -0.816539,0.817767 -1.265557,0.93896 -0.449907,0.113938 -0.888314,0.06601 -1.315165,-0.143144 -0.26298,-0.13349 -0.778855,-0.500604 -1.548227,-1.102259 l -3.429292,-2.609007 -1.413862,1.807129 3.356422,2.551641 c 1.0014,0.783103 1.804448,1.316339 2.409674,1.599388 0.409679,0.18917 0.873581,0.279457 1.391644,0.271299 0.513997,-0.01134 1.042684,-0.158695 1.585955,-0.442346 0.542373,-0.290913 1.147924,-0.863908 1.816425,-1.71876 0.553901,-0.708305 0.913284,-1.351957 1.07797,-1.931665 0.16062,-0.582886 0.189941,-1.124394 0.08836,-1.623675 -0.09838,-0.503346 -0.331357,-0.976938 -0.698664,-1.421618 -0.367307,-0.44468 -1.087986,-1.087645 -2.162661,-1.92805 z"
           sodipodi:nodetypes="ccccccccscscccccccccsccscc"
           transform="translate(58.514518,30.675262)" /><text
           xml:space="preserve"
           style="font-style:italic;font-variant:normal;font-weight:bold;font-stretch:normal;font-size:14.1111px;line-height:1.2;font-family:Arial;-inkscape-font-specification:'Arial Bold Italic';text-align:center;text-anchor:middle;fill:#ffffff;fill-opacity:1;stroke:#ffffff;stroke-width:1;stroke-linecap:square;stroke-linejoin:round;stroke-dasharray:none;stroke-opacity:1"
           x="3.0038822"
           y="46.686371"
           id="text462"
           transform="rotate(-44.498689,66.748647,-56.178969)"><tspan
             sodipodi:role="line"
             id="tspan462"
             style="font-style:italic;font-variant:normal;font-weight:bold;font-stretch:normal;font-family:Arial;-inkscape-font-specification:'Arial Bold Italic';stroke-width:1"
             x="3.0038824"
             y="46.686371">S</tspan></text><text
           xml:space="preserve"
           style="font-weight:bold;font-size:14.1111px;line-height:1.2;font-family:Arial;-inkscape-font-specification:'Arial Bold';text-align:center;text-anchor:middle;fill:#ffffff;fill-opacity:1;stroke:#ffffff;stroke-width:1;stroke-linecap:square;stroke-linejoin:round;stroke-dasharray:none;stroke-opacity:1"
           x="22.793133"
           y="45.594044"
           id="text463"
           transform="rotate(-33.043386,80.964335,-83.296072)"><tspan
             sodipodi:role="line"
             id="tspan463"
             style="stroke-width:1"
             x="22.793133"
             y="45.594044">C</tspan></text><text
           xml:space="preserve"
           style="font-weight:bold;font-size:14.1111px;line-height:1.2;font-family:Arial;-inkscape-font-specification:'Arial Bold';text-align:center;text-anchor:middle;fill:#ffffff;fill-opacity:1;stroke:#ffffff;stroke-width:1;stroke-linecap:square;stroke-linejoin:round;stroke-dasharray:none;stroke-opacity:1"
           x="95.420288"
           y="81.118217"
           id="text464"
           transform="rotate(-15.019919)"><tspan
             sodipodi:role="line"
             id="tspan464"
             style="stroke-width:1"
             x="95.420288"
             y="81.118217">O</tspan></text><text
           xml:space="preserve"
           style="font-weight:bold;font-size:14.1111px;line-height:1.2;font-family:Arial;-inkscape-font-specification:'Arial Bold';text-align:center;text-anchor:middle;fill:#ffffff;fill-opacity:1;stroke:#ffffff;stroke-width:1;stroke-linecap:square;stroke-linejoin:round;stroke-dasharray:none;stroke-opacity:1"
           x="131.35493"
           y="26.227385"
           id="text465"
           transform="rotate(12.642406)"><tspan
             sodipodi:role="line"
             id="tspan465"
             style="stroke-width:1"
             x="131.35493"
             y="26.227385">U</tspan></text><text
           xml:space="preserve"
           style="font-weight:bold;font-size:14.1111px;line-height:1.2;font-family:Arial;-inkscape-font-specification:'Arial Bold';text-align:center;text-anchor:middle;fill:#ffffff;fill-opacity:1;stroke:#ffffff;stroke-width:1;stroke-linecap:square;stroke-linejoin:round;stroke-dasharray:none;stroke-opacity:1"
           x="143.29329"
           y="-3.814055"
           id="text466"
           transform="rotate(24.880191)"><tspan
             sodipodi:role="line"
             id="tspan466"
             style="stroke-width:1"
             x="143.29329"
             y="-3.814055">T</tspan></text><text
           xml:space="preserve"
           style="font-style:italic;font-variant:normal;font-weight:bold;font-stretch:normal;font-size:14.1111px;line-height:1.2;font-family:Arial;-inkscape-font-specification:'Arial Bold Italic';text-align:center;text-anchor:middle;fill:#ffffff;fill-opacity:1;stroke:#ffffff;stroke-width:1;stroke-linecap:square;stroke-linejoin:round;stroke-dasharray:none;stroke-opacity:1"
           x="153.21227"
           y="-5.6454854"
           id="text467"
           transform="rotate(26.053437)"><tspan
             sodipodi:role="line"
             id="tspan467"
             style="font-style:italic;font-variant:normal;font-weight:bold;font-stretch:normal;font-family:Arial;-inkscape-font-specification:'Arial Bold Italic';stroke-width:1"
             x="153.21227"
             y="-5.6454854">S</tspan></text></g><g
         id="g993"
         transform="translate(-537.27435,59.842377)"><path
           id="path991"
           style="display:inline;fill:#a2a4a8;fill-opacity:1;stroke:#1e1e1e;stroke-width:1;stroke-linecap:round;stroke-linejoin:round;stroke-miterlimit:0.6;stroke-dasharray:none;stroke-opacity:1"
           d="m 649.74886,5.3741202 c -1.29531,0.078916 -1.95318,1.3480301 -2.34269,3.1093231 -0.53571,2.4224107 1.98747,5.6503117 4.09616,8.7031837 2.23289,3.232699 3.7334,6.429388 3.13614,6.026606 0,0 -1.7286,-1.188932 -3.8265,-3.291604 -2.57511,-2.58098 -4.70794,-16.8741188 -19.51056,-11.0024007 -0.0222,10.0254997 15.23991,12.9465167 15.41485,11.0221667 3.0433,0.402379 6.69271,7.786841 6.76784,10.906396 0.0686,2.850066 22.51702,18.401988 22.50883,18.428634 l -18.05525,-22.060066 20.53113,20.327278 c 0,0 -7.07869,-12.218674 -11.68196,-17.549533 -3.88395,-4.497839 -13.24722,-11.969505 -13.24722,-11.969505 0,0 2.60751,-4.325423 2.08481,-6.559368 -0.6427,-2.7468097 -3.0598,-6.2626607 -5.87558,-6.0911108 z m 0.85182,2.6622431 c 3.37944,2.4020117 3.68782,4.9028887 1.78878,7.4751757 -1.99006,-1.890573 -2.69434,-4.335517 -1.78878,-7.4751757 z m -11.7695,2.5808277 c 3.47934,0.07193 5.72485,2.470137 7.23328,6.257707 -5.27944,-0.123 -8.86847,-1.936445 -10.45697,-5.750389 1.1786,-0.36515 2.24947,-0.527459 3.22369,-0.507318 z"
           sodipodi:nodetypes="sssssccscccscsscccsccs" /><path
           style="fill:#f1c522;fill-opacity:1;stroke:#5e6c73;stroke-width:1;stroke-linecap:round;stroke-linejoin:round;stroke-miterlimit:0.6;stroke-dasharray:none;stroke-opacity:1"
           d="m 634.98816,34.819272 c 0,0 7.49094,-9.460675 12.95121,-10.752507 0.99298,-0.23493 2.03956,0.727699 2.98179,0.69274 4.26703,-0.158316 17.27176,-12.939468 20.14966,-11.113936 l 3.61429,2.289049 c -2.12243,-0.303205 -11.81825,10.541424 -19.58992,12.245107 -1.57551,0.345379 -3.58691,-0.918104 -5.25457,-0.107122 -4.22271,2.053482 -11.02826,10.480927 -11.35864,10.30072 z"
           id="path961"
           sodipodi:nodetypes="casscsscc" /><path
           style="fill:#f1c522;fill-opacity:1;stroke:#5e6c73;stroke-width:1;stroke-linecap:round;stroke-linejoin:round;stroke-miterlimit:0.6;stroke-dasharray:none;stroke-opacity:1"
           d="m 666.21241,21.927056 c 0.71081,1.120641 2.15995,1.50568 3.71388,1.46203 -1.42381,-0.59084 -2.03553,-1.627058 -1.75635,-3.008823 -0.28697,1.453371 0.21152,2.301123 1.75635,3.008823 4.06735,0.04164 7.5421,-2.141745 4.75882,-7.454468"
           id="path962"
           sodipodi:nodetypes="ccccc" /><path
           style="fill:none;fill-opacity:1;stroke:#5e6c73;stroke-width:1;stroke-linecap:round;stroke-linejoin:round;stroke-miterlimit:0.6;stroke-dasharray:none;stroke-opacity:1"
           d="m 670.32209,20.229081 c 0.0933,0.330878 0.44218,0.892167 1.01164,0.969031"
           id="path963"
           sodipodi:nodetypes="cc" /><path
           style="fill:none;fill-opacity:1;stroke:#5e6c73;stroke-width:1;stroke-linecap:round;stroke-linejoin:round;stroke-miterlimit:0.6;stroke-dasharray:none;stroke-opacity:1"
           d="m 672.50508,21.112922 c 0.48576,-0.11411 0.92802,-0.484699 1.07551,-0.937086"
           id="path964"
           sodipodi:nodetypes="cc" /><path
           style="fill:none;fill-opacity:1;stroke:#5e6c73;stroke-width:1;stroke-linecap:round;stroke-linejoin:round;stroke-miterlimit:0.6;stroke-dasharray:none;stroke-opacity:1"
           d="m 673.64449,19.047076 c -0.0435,-0.430172 -0.42513,-0.783683 -0.89448,-0.873195"
           id="path965"
           sodipodi:nodetypes="cc" /><path
           id="path966"
           style="fill:none;fill-opacity:1;stroke:#5e6c73;stroke-width:1;stroke-linecap:round;stroke-linejoin:round;stroke-miterlimit:0.6;stroke-dasharray:none;stroke-opacity:1"
           inkscape:label="path966"
           d="m 669.48816,15.076225 1.47583,1.475834 z m -1.47585,0.858393 1.47585,1.475834 z m -1.31017,0.78639 1.47584,1.475834 z m -1.47584,0.843334 1.47584,1.475834 z m -1.40053,0.858393 1.47583,1.475835 z m -1.32477,0.948751 1.47583,1.475834 z m -1.193,0.94875 1.47583,1.475834 z m -1.19346,0.903572 1.47583,1.475835 z m -1.193,0.798155 1.47583,1.475835 z m -1.37042,0.865453 1.47583,1.475835 z m -1.35536,0.918632 1.47583,1.475834 z m -1.49089,0.813215 1.47583,1.475833 z m -1.44572,0.873452 1.47583,1.475835 z m -7.21351,0.888513 1.47583,1.475834 z m -1.43066,1.066874 1.47584,1.475834 z m -1.34407,1.076286 1.47584,1.475834 z m -1.35535,1.31018 1.47584,1.475834 z m -1.29512,1.295119 1.47583,1.475834 z" /><path
           style="fill:#a7a8ab;fill-opacity:1;stroke:#5e6c73;stroke-width:1;stroke-linecap:round;stroke-linejoin:round;stroke-miterlimit:0.6;stroke-dasharray:none;stroke-opacity:1"
           d="m 637.72517,31.67277 3.78666,3.63261 -3.02985,3.067943 -3.49382,-3.554051 z"
           id="path983"
           sodipodi:nodetypes="ccccc" /><path
           style="display:inline;fill:#e5e6e8;fill-opacity:1;stroke:#b6bcc8;stroke-width:1;stroke-linecap:round;stroke-linejoin:round;stroke-miterlimit:0.6;stroke-dasharray:none;stroke-opacity:1"
           d="m 639.86683,40.557446 c -0.0456,3.439045 0.69172,6.095046 1.66119,8.518959 4.4364,3.412169 9.65618,4.131492 15.90916,1.299141 1.19846,-2.4619 1.88545,-4.834106 2.40659,-7.177224"
           id="path985"
           sodipodi:nodetypes="cccc" /><path
           style="display:inline;fill:#ef3d22;fill-opacity:1;stroke:#c13621;stroke-width:1;stroke-linecap:round;stroke-linejoin:round;stroke-miterlimit:0.6;stroke-dasharray:none;stroke-opacity:1"
           d="m 639.86683,40.557446 c 4.98109,-10.303604 20.87942,-5.130001 19.97694,2.640876 -7.096,5.205625 -17.01256,4.133263 -19.97694,-2.640876 z"
           id="path984"
           sodipodi:nodetypes="ccc" /><path
           style="display:inline;fill:#ef3d22;fill-opacity:1;stroke:#5e6c73;stroke-width:1;stroke-linecap:round;stroke-linejoin:round;stroke-miterlimit:0.6;stroke-dasharray:none;stroke-opacity:1"
           d="m 645.06338,34.168225 0.83061,4.660421"
           id="path986" /><path
           style="display:inline;fill:#ef3d22;fill-opacity:1;stroke:#5e6c73;stroke-width:1;stroke-linecap:round;stroke-linejoin:round;stroke-miterlimit:0.6;stroke-dasharray:none;stroke-opacity:1"
           d="m 647.17183,33.231142 0.31946,5.597504"
           id="path987" /><path
           style="display:inline;fill:#ef3d22;fill-opacity:1;stroke:#5e6c73;stroke-width:1;stroke-linecap:round;stroke-linejoin:round;stroke-miterlimit:0.6;stroke-dasharray:none;stroke-opacity:1"
           d="m 649.70622,32.038487 0.14807,5.175268"
           id="path988" /><path
           style="display:inline;fill:#ef3d22;fill-opacity:1;stroke:#5e6c73;stroke-width:1;stroke-linecap:round;stroke-linejoin:round;stroke-miterlimit:0.6;stroke-dasharray:none;stroke-opacity:1"
           d="m 652.21931,32.443138 -0.95839,5.835487"
           id="path989" /><path
           style="display:inline;fill:#ef3d22;fill-opacity:1;stroke:#5e6c73;stroke-width:1;stroke-linecap:round;stroke-linejoin:round;stroke-miterlimit:0.6;stroke-dasharray:none;stroke-opacity:1"
           d="m 654.00828,33.422817 -1.51209,4.067805"
           id="path990" /></g></g></g></svg>
