<?xml version="1.0" encoding="UTF-8" standalone="no"?>
<!-- Created with Inkscape (http://www.inkscape.org/) -->

<svg
   width="258.04007mm"
   height="223.46918mm"
   viewBox="0 0 258.04007 223.46918"
   version="1.1"
   id="svg1"
   xml:space="preserve"
   inkscape:version="1.3.2 (091e20e, 2023-11-25, custom)"
   sodipodi:docname="Especialidades.svg"
   xmlns:inkscape="http://www.inkscape.org/namespaces/inkscape"
   xmlns:sodipodi="http://sodipodi.sourceforge.net/DTD/sodipodi-0.dtd"
   xmlns="http://www.w3.org/2000/svg"
   xmlns:svg="http://www.w3.org/2000/svg"><sodipodi:namedview
     id="namedview1"
     pagecolor="#ffffff"
     bordercolor="#000000"
     borderopacity="0.25"
     inkscape:showpageshadow="2"
     inkscape:pageopacity="0.0"
     inkscape:pagecheckerboard="0"
     inkscape:deskcolor="#d1d1d1"
     inkscape:document-units="mm"
     inkscape:zoom="0.0625"
     inkscape:cx="3904"
     inkscape:cy="4312"
     inkscape:window-width="1291"
     inkscape:window-height="981"
     inkscape:window-x="-8"
     inkscape:window-y="0"
     inkscape:window-maximized="0"
     inkscape:current-layer="layer3"
     showguides="false" /><defs
     id="defs1" /><g
     inkscape:groupmode="layer"
     id="layer3"
     inkscape:label="Capa 2"
     transform="translate(-2372.4717,-1776.962)"><g
       id="g1294"
       inkscape:export-filename="CaminantesyRovers\Ciencia y Tecnologia 1.svg"
       inkscape:export-xdpi="96"
       inkscape:export-ydpi="96"
       transform="translate(300.44363,1202.8342)"><path
         sodipodi:type="star"
         style="display:inline;fill:#efda00;fill-opacity:1;stroke:#efda00;stroke-width:8;stroke-linecap:round;stroke-linejoin:miter;stroke-miterlimit:29.8;stroke-dasharray:none;stroke-dashoffset:21.9213;stroke-opacity:1;paint-order:fill markers stroke"
         id="path1289"
         inkscape:flatsided="true"
         sodipodi:sides="6"
         sodipodi:cx="2183.8708"
         sodipodi:cy="711.20001"
         sodipodi:r1="104.42606"
         sodipodi:r2="66.092422"
         sodipodi:arg1="6.2931178e-09"
         sodipodi:arg2="0.52359879"
         inkscape:rounded="0"
         inkscape:randomized="0"
         d="m 2288.2969,711.20001 -52.213,90.43563 -104.4261,0 -52.213,-90.43563 52.213,-90.43562 104.4261,0 z"
         inkscape:transform-center-x="2.7513333e-05"
         inkscape:transform-center-y="-8.9599999e-06"
         transform="translate(17.177246,-25.337686)" /><path
         sodipodi:type="star"
         style="display:inline;fill:#f4e400;fill-opacity:1;stroke:none;stroke-width:8;stroke-linecap:round;stroke-linejoin:miter;stroke-miterlimit:29.8;stroke-dasharray:none;stroke-dashoffset:21.9213;stroke-opacity:1;paint-order:fill markers stroke"
         id="path1290"
         inkscape:flatsided="false"
         sodipodi:sides="38"
         sodipodi:cx="2183.8708"
         sodipodi:cy="711.20001"
         sodipodi:r1="109.02294"
         sodipodi:r2="65.413765"
         sodipodi:arg1="0"
         sodipodi:arg2="0.1051533"
         inkscape:rounded="0"
         inkscape:randomized="0"
         d="m 2292.8938,711.20001 -43.9705,6.86581 42.4836,11.07878 -44.5009,-0.46514 40.0806,17.92024 -43.8173,-7.7834 36.5844,24.2729 -41.9387,-14.88935 32.0903,29.96344 -38.916,-21.58915 26.7208,34.83666 -34.8318,-27.70006 20.6224,38.75962 -29.7974,-33.05538 13.9616,41.62533 -23.9503,-37.50904 6.9198,43.35561 -17.4498,-40.93955 -0.3107,43.90326 -10.4734,-43.25334 -7.5327,43.25334 -3.2113,-44.38729 -14.5492,41.42358 4.1384,-44.31046 -21.1689,38.46389 11.3753,-43.02496 -27.2111,34.45501 18.3017,-40.56586 -32.5111,29.5063 24.7291,-37.00023 -36.9243,23.75272 30.4819,-32.42532 -40.3303,17.35123 35.4032,-26.96594 -42.6361,10.47644 39.3587,-20.77099 -43.779,3.31589 42.2408,-14.00947 -43.7277,-3.93512 43.9705,-6.8658 -42.4836,-11.07878 44.5009,0.46514 -40.0806,-17.92025 43.8173,7.7834 -36.5844,-24.27289 41.9387,14.88934 -32.0903,-29.96343 38.916,21.58915 -26.7208,-34.83666 34.8318,27.70006 -20.6224,-38.75963 29.7974,33.05538 -13.9616,-41.62533 23.9503,37.50904 -6.9198,-43.35561 17.4498,40.93955 0.3107,-43.90325 10.4734,43.25333 7.5327,-43.25333 3.2113,44.38728 14.5492,-41.42358 -4.1384,44.31046 21.1689,-38.46389 -11.3753,43.02496 27.2111,-34.45501 -18.3017,40.56586 32.5111,-29.50629 -24.7291,37.00022 36.9243,-23.75271 -30.4819,32.42531 40.3303,-17.35122 -35.4032,26.96593 42.6361,-10.47644 -39.3587,20.77099 43.779,-3.31588 -42.2408,14.00946 z"
         inkscape:transform-center-x="2.7513333e-05"
         inkscape:transform-center-y="-8.9599999e-06"
         transform="translate(17.177246,-25.337686)" /><path
         sodipodi:type="star"
         style="fill:none;stroke:#e2001a;stroke-width:2;stroke-linecap:round;stroke-linejoin:miter;stroke-miterlimit:29.8;stroke-dasharray:4, 6;stroke-dashoffset:6;stroke-opacity:1;paint-order:fill markers stroke"
         id="path1291"
         inkscape:flatsided="true"
         sodipodi:sides="6"
         sodipodi:cx="2183.8708"
         sodipodi:cy="711.20001"
         sodipodi:r1="101.37034"
         sodipodi:r2="66.092422"
         sodipodi:arg1="6.293118e-09"
         sodipodi:arg2="0.52359879"
         inkscape:rounded="0"
         inkscape:randomized="0"
         d="m 2285.2412,711.20001 -50.6852,87.78929 -101.3703,0 -50.6852,-87.78929 50.6852,-87.78929 101.3703,0 z"
         inkscape:transform-center-x="2.7513333e-05"
         inkscape:transform-center-y="-8.9599999e-06"
         transform="translate(17.177246,-26.053936)" /><path
         sodipodi:type="star"
         style="fill:none;stroke:#ffffff;stroke-width:8;stroke-linecap:round;stroke-linejoin:miter;stroke-miterlimit:29.8;stroke-dasharray:none;stroke-dashoffset:21.9213;stroke-opacity:1;paint-order:fill markers stroke"
         id="path1292"
         inkscape:flatsided="true"
         sodipodi:sides="6"
         sodipodi:cx="2183.8708"
         sodipodi:cy="711.20001"
         sodipodi:r1="113.64817"
         sodipodi:r2="66.092422"
         sodipodi:arg1="6.2931178e-09"
         sodipodi:arg2="0.52359879"
         inkscape:rounded="0"
         inkscape:randomized="0"
         d="m 2297.519,711.20001 -56.8241,98.42221 -113.6481,-10e-6 -56.8241,-98.4222 56.8241,-98.4222 113.6481,0 z"
         inkscape:transform-center-x="2.7513333e-05"
         inkscape:transform-center-y="-8.9599999e-06"
         transform="translate(17.177246,-25.337686)" /><path
         sodipodi:type="star"
         style="fill:none;stroke:#e2001a;stroke-width:8;stroke-linecap:round;stroke-linejoin:miter;stroke-miterlimit:29.8;stroke-dasharray:none;stroke-dashoffset:21.9213;stroke-opacity:1;paint-order:fill markers stroke"
         id="path1293"
         inkscape:flatsided="true"
         sodipodi:sides="6"
         sodipodi:cx="2183.8708"
         sodipodi:cy="711.20001"
         sodipodi:r1="115.40091"
         sodipodi:r2="66.092422"
         sodipodi:arg1="6.2931178e-09"
         sodipodi:arg2="0.52359879"
         inkscape:rounded="0"
         inkscape:randomized="0"
         d="m 2299.2718,711.20001 -57.7005,99.94012 -115.4009,0 -57.7005,-99.94012 57.7005,-99.94012 115.4009,0 z"
         inkscape:transform-center-x="2.7513333e-05"
         inkscape:transform-center-y="-8.9599999e-06"
         transform="translate(17.177246,-25.337686)" /><path
         sodipodi:type="star"
         style="fill:none;stroke:#ffffff;stroke-width:8;stroke-linecap:round;stroke-linejoin:miter;stroke-miterlimit:29.8;stroke-dasharray:none;stroke-dashoffset:21.9213;stroke-opacity:1;paint-order:fill markers stroke"
         id="path1294"
         inkscape:flatsided="true"
         sodipodi:sides="6"
         sodipodi:cx="2183.8708"
         sodipodi:cy="711.20001"
         sodipodi:r1="124.40124"
         sodipodi:r2="66.092422"
         sodipodi:arg1="6.2931178e-09"
         sodipodi:arg2="0.52359879"
         inkscape:rounded="0"
         inkscape:randomized="0"
         d="m 2308.2721,711.20001 -62.2006,107.73463 -124.4013,0 -62.2006,-107.73463 62.2006,-107.73463 124.4013,0 z"
         inkscape:transform-center-x="2.7513333e-05"
         inkscape:transform-center-y="-8.9599999e-06"
         transform="translate(17.177246,-25.337686)" /><g
         id="g1316"
         transform="translate(-297.49011,-1204.1484)"><path
           id="path1314"
           style="fill:#000000;fill-opacity:0.51"
           d="m 2485.3514,1808.761 c -0.6025,0 -17.5054,17.0724 -17.5054,17.681 0,0.3237 3.0948,3.9427 5.5263,6.4622 0.8076,0.8367 1.5765,1.5213 1.7089,1.5213 0.2144,0 8.2246,-7.6254 14.4906,-13.795 2.0203,-1.9892 2.2976,-2.37 2.1379,-2.9378 -0.2969,-1.0559 -3.4763,-6.1459 -4.7444,-7.5954 -0.6428,-0.7349 -1.3692,-1.3363 -1.6139,-1.3363 z m 12.8416,7.6946 c -0.5206,-0.013 -1.1254,0.091 -1.9466,0.3095 -1.3233,0.3516 -1.5941,0.614 -17.4238,16.8651 -2.6237,2.6935 -6.9898,7.1594 -9.7022,9.9245 -2.973,3.0308 -4.9833,5.29 -5.0633,5.6885 -0.073,0.3635 -0.274,1.554 -0.4475,2.6454 -0.4878,3.0681 -0.7552,3.7175 -2.235,5.4239 -3.6483,4.2069 -7.0182,8.3706 -7.0182,8.6713 0,0.1839 1.6074,1.9644 3.5719,3.9564 1.9645,1.992 3.5719,3.7826 3.5719,3.9791 0,0.2979 -1.407,1.4768 -2.8686,2.4039 -0.3799,0.241 -1.1526,-0.5219 -6.3025,-6.2265 -2.8661,-3.1749 -3.5726,-3.6664 -5.8141,-4.0395 -1.3488,-0.2245 -3.0217,0.1982 -3.685,0.9312 -0.7154,0.7859 -0.7128,4.0692 0,5.164 0.4808,0.7385 2.2561,2.782 5.966,6.8684 4.4936,4.9497 5.0271,5.6286 5.0271,6.3975 0,0.4181 -0.1218,0.8819 -0.2703,1.0304 -0.1838,0.1838 -2.4463,-1.9139 -7.0776,-6.5624 l -6.8073,-6.8326 -1.4154,5e-4 c -2.655,0 -4.1408,1.1512 -4.1408,3.2024 v 1.2934 l 7.8713,7.8745 c 6.493,6.4957 7.8714,8.0017 7.8714,8.6005 0,0.3993 -0.09,0.7261 -0.2005,0.7261 -0.1101,0 -3.5321,-3.3338 -7.6047,-7.4084 l -7.4048,-7.4083 h -1.404 c -0.7722,0 -1.7451,0.1764 -2.1616,0.3917 -1.6393,0.8478 -2.3047,2.6148 -1.5178,4.0308 0.1792,0.3224 3.5088,3.8545 7.3991,7.8491 5.4603,5.6069 7.0734,7.4152 7.0734,7.9297 0,0.8537 -0.4425,2.0237 -0.7653,2.0237 -0.1369,0 -3.5538,-3.3337 -7.5928,-7.4083 -4.4051,-4.4439 -7.5414,-7.4084 -7.8383,-7.4084 -0.8528,0 -2.9642,2.213 -3.2954,3.4541 -0.6506,2.4373 -0.916,2.1167 14.7045,17.7353 l 14.18,14.178 3.0929,1.3756 c 4.3848,1.9499 7.4266,2.9504 9.4469,3.1073 2.7486,0.2133 2.7803,0.2301 5.6271,3.0158 1.6862,1.65 2.9053,2.6355 3.2468,2.6355 0.3503,0 1.1646,-0.734 2.2665,-2.0308 1.9302,-2.2716 4.0365,-4.6769 5.5863,-6.3785 l 1.0387,-1.1399 1.1854,1.389 c 0.652,0.7639 1.1846,1.4559 1.1839,1.5369 -8e-4,0.082 -2.3758,2.291 -5.2777,4.9103 -5.905,5.3302 -6.627,6.2884 -6.627,8.7917 0,1.737 0.5515,3.1344 1.3354,3.3832 0.9732,0.3088 3.8658,0.1933 4.5635,-0.1824 0.5911,-0.3182 1.9886,-1.5212 6.257,-5.3857 3.7444,-3.3901 5.5462,-4.8883 5.8751,-4.8783 0.1965,0 0.5898,0.1838 0.8738,0.3985 0.6118,0.4627 0.9606,0.064 -6.9324,7.9318 -5.6709,5.6529 -5.5369,5.4165 -4.6901,8.2682 0.4848,1.6325 1.4581,2.4428 2.9347,2.4428 0.9675,0 1.3227,-0.3144 8.955,-7.9215 7.6559,-7.6307 9.0275,-8.7747 9.5353,-7.953 0.118,0.1909 -2.6989,3.209 -7.4073,7.9359 l -7.598,7.6275 0.1918,1.4123 c 0.2491,1.8384 0.7411,2.76 1.7533,3.2835 1.0813,0.5591 2.2723,0.3229 3.5735,-0.709 0.561,-0.445 3.9671,-3.7233 7.5695,-7.2848 l 6.55,-6.4751 1.0961,0.081 c 0.6884,0.051 1.2039,0.2523 1.3854,0.542 0.2482,0.3961 -0.749,1.4819 -7.0507,7.6761 -5.72,5.6223 -7.3386,7.3597 -7.3386,7.8729 0,0.7817 0.8348,1.8705 2.1156,2.7646 v 6e-4 c 1.3369,0.933 2.9853,0.8998 4.5124,-0.091 0.6469,-0.4198 7.3087,-6.9384 14.8042,-14.4859 14.6795,-14.7813 13.6275,-13.5466 16.0828,-18.8821 1.235,-2.6837 2.1996,-6.0303 2.3637,-8.2021 l 0.1498,-1.9843 1.7766,-1.8521 c 2.606,-2.717 3.7021,-3.9967 3.7021,-4.3212 0,-0.1583 -1.6073,-1.6819 -3.5718,-3.3858 -1.9645,-1.7039 -3.5719,-3.1857 -3.5719,-3.2929 0,-0.2682 2.2548,-1.5678 2.7202,-1.5678 0.2074,0 1.9859,1.7562 3.9523,3.9026 5.4057,5.9007 5.5743,6.0659 6.6647,6.5215 0.5751,0.2403 1.7548,0.4238 2.7228,0.4238 1.5348,0 1.786,-0.079 2.481,-0.7736 0.7,-0.6998 0.7712,-0.9326 0.7472,-2.4474 -0.014,-0.9207 -0.1034,-1.9429 -0.1984,-2.2717 -0.1549,-0.5383 -1.8535,-2.5269 -9.3948,-11.0009 -2.1941,-2.4641 -2.334,-2.6927 -2.1942,-3.5538 0.082,-0.5062 0.1946,-0.9656 0.2496,-1.0206 0.055,-0.055 3.3048,3.115 7.2213,7.0451 7.8813,7.9084 7.4205,7.6001 10.1322,6.7892 1.7874,-0.5345 2.4128,-1.286 2.4128,-2.9001 v -1.3472 l -7.9375,-7.9659 c -6.4754,-6.4984 -7.9375,-8.0975 -7.9375,-8.6796 0,-0.3924 0.1057,-0.7131 0.2351,-0.7131 0.1293,0 3.4928,3.224 7.4745,7.1644 3.9816,3.9404 7.4994,7.342 7.8171,7.5593 0.4262,0.2916 0.9117,0.3467 1.8521,0.2098 2.5761,-0.375 3.3975,-1.2272 3.1967,-3.3166 -0.1209,-1.2589 -0.1857,-1.3356 -7.2399,-8.5747 -3.9148,-4.0174 -7.2205,-7.5674 -7.3458,-7.8894 -0.154,-0.3956 -0.087,-0.9236 0.2077,-1.6284 l 0.4357,-1.0428 7.599,7.5959 c 4.1794,4.1776 7.7113,7.5954 7.8481,7.5954 0.1367,0 0.7089,-0.319 1.2717,-0.709 1.9728,-1.3672 2.8414,-3.8782 1.9327,-5.5877 -0.2088,-0.393 -6.787,-7.1064 -14.6182,-14.9185 l -14.2384,-14.2038 -2.773,-1.3405 c -1.5252,-0.7372 -2.866,-1.3405 -2.9796,-1.3405 -0.1135,0 -0.7112,-0.224 -1.3281,-0.4981 -1.9393,-0.8614 -4.2278,-1.452 -6.2177,-1.6041 l -1.9208,-0.1467 -2.9068,-2.7301 c -2.1528,-2.022 -3.0274,-2.6854 -3.3709,-2.5585 -0.2551,0.094 -2.5248,2.5431 -5.0441,5.442 -2.5193,2.8988 -4.7503,5.2705 -4.9579,5.2705 -0.4603,0 -1.3846,-0.7487 -1.7518,-1.419 -0.2333,-0.426 0.7427,-1.5079 7.1727,-7.9525 l 7.4424,-7.4595 -0.1483,-1.0433 c -0.081,-0.5738 -0.2199,-1.6523 -0.3069,-2.3968 -0.087,-0.7445 -0.4709,-1.9946 -0.8527,-2.7781 -0.5925,-1.2157 -0.8136,-1.4363 -1.5105,-1.5043 -0.8882,-0.087 -0.6754,-0.2757 -13.4167,11.9254 -5.0967,4.8804 -5.2522,5.0029 -5.7553,4.5475 -0.2844,-0.2573 -0.5167,-0.5824 -0.5167,-0.7219 0,-0.2389 3.9052,-4.0709 11.7739,-11.5533 1.8917,-1.7989 3.4795,-3.506 3.5285,-3.7936 0.1361,-0.8008 -1.5089,-3.8033 -2.6474,-4.8318 -1.9591,-1.7699 -1.7197,-1.9264 -10.5673,6.9175 -6.4727,6.4699 -7.9317,7.8047 -8.3778,7.6631 -1.249,-0.3964 -0.8889,-0.9818 2.2092,-3.591 4.9917,-4.204 10.4233,-9.4857 11.5641,-11.2448 1.2438,-1.9178 1.2113,-2.3042 -0.3317,-3.9357 -1.5774,-1.6679 -2.7021,-2.282 -4.1781,-2.282 -1.3287,0 -1.4875,0.1334 -10.7724,9.0366 -4.6383,4.4476 -5.5159,5.2509 -5.7366,5.2509 -0.5976,0 0.095,-0.7745 3.9393,-4.4044 8.973,-8.4723 9.0174,-8.5195 9.4573,-10.0325 0.2218,-0.763 0.4036,-1.7001 0.4036,-2.0825 0,-1.1549 -0.7017,-2.4694 -1.5534,-2.9099 -0.4843,-0.2506 -0.9207,-0.3809 -1.4413,-0.3938 z m -0.7989,32.2574 c 0.1007,0 1.213,0.9824 2.4717,2.1829 1.2588,1.2006 3.6398,3.4329 5.2911,4.9609 1.6513,1.5279 3.5336,3.4925 4.1832,4.3656 3.4881,4.6883 4.5474,10.609 2.9828,16.6745 -0.7378,2.8599 -1.2955,4.2466 -3.1827,7.9157 -1.7885,3.4775 -3.8601,9.5226 -4.2618,12.436 -0.5026,3.6449 -0.2211,3.3228 -2.9068,3.3228 -1.5185,0 -2.4126,-0.1101 -2.5378,-0.3127 -0.1819,-0.2943 -0.288,-3.7251 -0.8615,-27.8655 -0.227,-9.5553 -0.5448,-12.8866 -0.9209,-9.651 -0.6312,5.4304 -1.1748,16.4207 -1.3735,27.775 -0.085,4.8749 -0.2094,9.1315 -0.2754,9.4589 -0.1143,0.5644 -0.2451,0.5953 -2.4919,0.5953 -2.2424,0 -2.3786,-0.032 -2.5068,-0.5953 -0.075,-0.3274 -0.4317,-1.9918 -0.7932,-3.6985 -0.7476,-3.5291 -2.2552,-8.0762 -3.7083,-11.1844 -0.5442,-1.164 -1.0841,-2.3548 -1.1995,-2.6458 -1.8385,-4.6338 -2.4682,-7.5116 -2.4892,-11.3771 -0.022,-3.9898 0.3441,-5.8466 1.6356,-8.2982 1.3352,-2.5344 2.6132,-4.1206 5.7846,-7.1794 1.5839,-1.5278 3.8017,-3.7006 4.9284,-4.8286 1.1267,-1.128 2.1311,-2.0511 2.2319,-2.0511 z m 66.1515,9.3896 c -0.1611,0.02 -0.3063,0.1111 -0.4894,0.2393 -1.2789,0.8958 -6.8032,5.8919 -7.1117,6.4317 -0.3119,0.546 0.03,0.9595 5.455,6.6145 3.183,3.3177 6.7421,7.0077 7.9091,8.1995 1.5842,1.6179 2.3018,2.1709 2.8329,2.1829 1.5423,0.034 9.2108,-5.2172 9.2108,-6.3077 0,-0.4332 -6.2669,-6.7978 -14.4885,-14.7148 -2.2097,-2.1279 -2.8349,-2.7058 -3.3182,-2.6454 z m -94.1265,16.5613 c 2.5977,0.071 5.2413,0.8328 7.4124,2.2727 2.9783,1.9754 5.8134,5.4919 7.7494,9.6119 1.6435,3.4977 3.8089,10.6227 3.9801,13.0968 0.055,0.7905 0.048,0.7949 -1.665,0.9653 -0.9459,0.094 -2.268,0.2567 -2.9378,0.3613 l -1.2175,0.1901 -0.3209,-1.2877 c -0.9505,-3.8106 -4.0273,-6.3722 -7.9783,-6.643 -2.6247,-0.1799 -4.1594,0.468 -5.2741,2.2257 -0.8063,1.2714 -1.4072,3.8738 -1.2743,5.5185 h 5e-4 c 0.1003,1.2411 -0.1234,1.3125 -2.4753,0.7912 -4.3146,-0.9565 -7.3825,-3.5881 -8.9514,-7.6776 -0.8916,-2.3239 -0.9142,-6.913 -0.047,-9.5018 1.2671,-3.7823 2.963,-6.1095 5.8621,-8.0455 1.9874,-1.3271 4.5393,-1.9484 7.1371,-1.8779 z m 57.69,0.8279 c 3.5244,0.15 5.1602,0.8677 7.7018,3.3791 4.6245,4.5696 5.9885,12.4281 3.1466,18.1286 -1.3859,2.7799 -3.4961,4.5905 -6.2978,5.4028 -2.262,0.6561 -3.5461,0.8571 -3.9083,0.6123 -0.1665,-0.1126 -0.2852,-1.0827 -0.2852,-2.3109 0,-3.383 -1.2571,-5.5848 -3.9491,-6.9019 -1.2773,-0.6246 -1.6516,-0.6909 -3.08,-0.5416 -1.7854,0.1867 -3.341,1.0246 -4.5191,2.435 -0.6806,0.8146 -2.3431,3.9597 -2.6825,5.0746 -0.1712,0.5618 -0.4654,0.7282 -1.0718,0.6041 -0.1455,-0.03 -1.3198,-0.212 -2.6096,-0.4051 -1.2897,-0.193 -2.4643,-0.4707 -2.6102,-0.6165 -0.3403,-0.3403 0.8106,-5.7928 1.927,-9.1297 2.3085,-6.9007 6.1869,-12.0863 10.6888,-14.2906 2.437,-1.1933 4.4283,-1.5731 7.5494,-1.4402 z m -46.4013,0.3514 c 0.082,0.021 0.1458,0.117 0.2129,0.2919 h -5e-4 c 0.2333,0.608 -0.2121,1.0065 -0.601,0.538 -0.2389,-0.2883 -0.2249,-0.4428 0.06,-0.6796 0.1443,-0.1197 0.2457,-0.1719 0.3282,-0.1503 z m -17.1323,6.2073 c -0.4272,0 -0.4956,0.2193 -0.4956,1.6537 0,1.6025 -0.032,1.6725 -0.9431,2.2629 -1.1467,0.743 -1.0614,1.156 0.3054,1.4743 1.1464,0.267 1.4209,0.5413 1.4309,1.4098 0,0.3206 0.1422,0.886 0.3111,1.2567 0.4314,0.9467 0.7765,0.8336 1.601,-0.525 0.7108,-1.1713 0.731,-1.1824 2.1828,-1.1824 1.6897,0 1.8061,-0.2294 0.8041,-1.5875 -0.7476,-1.0134 -0.8232,-1.7481 -0.2563,-2.4975 0.3757,-0.4968 0.545,-1.7358 0.2372,-1.7358 -0.083,0 -0.6512,0.2932 -1.262,0.6511 l -1.1105,0.6506 -1.1565,-0.9152 c -0.6362,-0.5035 -1.3779,-0.9157 -1.6485,-0.9157 z m 68.0517,0.539 -0.6904,0.6403 c -0.9379,0.8692 -2.0097,1.0686 -2.9978,0.5576 -0.9644,-0.4988 -1.6244,-0.5328 -1.6144,-0.083 0,0.1819 0.237,0.8399 0.5194,1.4619 l 0.5131,1.1312 -0.7829,1.2346 c -0.8999,1.419 -0.7619,1.6483 0.9834,1.6583 0.9491,0 1.19,0.1263 1.6945,0.864 0.3235,0.4729 0.7768,1.013 1.0072,1.1999 0.5598,0.4542 1.0867,-0.2391 1.0867,-1.4299 0,-0.9896 0.5795,-1.6819 1.4077,-1.6919 0.3171,0 0.7474,-0.1126 0.9565,-0.2449 0.3085,-0.1952 0.2277,-0.3832 -0.4299,-0.9974 -0.5585,-0.5218 -0.8721,-1.124 -1.0087,-1.9383 -0.1091,-0.6497 -0.2985,-1.4468 -0.4212,-1.7715 z m -8.1148,14.0384 c 0.1144,0.021 0.2048,0.097 0.2816,0.2212 0.1752,0.2835 -2.4172,3.0011 -4.7681,4.9987 -1.6863,1.4333 -2.9241,1.9063 -3.4887,1.3343 -0.3852,-0.3902 -0.432,-1.3609 -0.097,-2.019 0.1286,-0.2527 0.3927,-0.8166 0.5871,-1.2532 0.6002,-1.3477 1.8451,-3.0615 2.1063,-2.9001 0.1364,0.084 0.248,0.4518 0.248,0.8165 0,0.3648 0.1233,0.8937 0.2739,1.1751 0.4788,0.8947 1.3731,0.6037 2.9011,-0.9436 1.0538,-1.0669 1.6127,-1.4932 1.956,-1.4299 z m -100.0972,1.9844 c -0.2201,-0.015 -0.4569,0.017 -0.7121,0.095 -0.4194,0.1278 -1.2385,0.3792 -1.8206,0.5586 -1.6132,0.4973 -2.249,1.008 -2.249,1.8061 0,0.5749 1.5709,2.2394 8.5856,9.0976 v 6e-4 c 4.722,4.6167 8.7305,8.3938 8.9074,8.3938 0.4449,0 3.8798,-2.6408 4.0659,-3.1259 0.1023,-0.2666 -2.4032,-2.9767 -7.7272,-8.3577 -4.3331,-4.3797 -8.131,-8.1077 -8.4392,-8.2842 -0.1876,-0.1077 -0.3908,-0.1687 -0.6108,-0.1835 z m 67.8873,4.1316 c 2.0096,-0.034 4.4123,-0.024 7.2926,0.021 9.581,0.1507 12.0519,0.3957 14.15,1.4041 1.5239,0.7324 1.9764,1.4985 1.2904,2.1844 -0.4988,0.4988 -1.9578,0.6668 -9.4124,1.0831 -2.8377,0.1585 -5.4328,0.4054 -5.7671,0.5483 -0.7568,0.3235 -0.829,0.3181 -1.6412,-0.1127 -0.4367,-0.2317 -2.1899,-0.4001 -5.1594,-0.4961 -4.0795,-0.1321 -7.2756,-0.5376 -9.988,-1.2671 -1.1098,-0.2986 -1.31,-0.9345 -0.5194,-1.65 1.2346,-1.1173 3.7256,-1.6133 9.7545,-1.7151 z m 3.1905,1.59 c -5.0257,0 -9.485,0.1659 -10.0082,0.4894 -0.3042,0.188 -0.2868,0.3072 0.1003,0.6945 0.4021,0.4021 1.2321,0.4949 5.9531,0.6672 3.0173,0.1101 5.7836,0.2436 6.1474,0.2966 v 5e-4 c 1.5238,0.2214 7.523,0.1544 10.187,-0.1137 4.9581,-0.499 5.3283,-1.0595 1.0273,-1.5559 -2.789,-0.3221 -8.3812,-0.481 -13.4069,-0.4786 z m -10.773,4.5729 c 0.1074,-0.066 1.1929,0.055 2.4128,0.2697 1.22,0.2147 2.2632,0.3905 2.3182,0.3907 0.1864,7e-4 -0.2521,2.2409 -0.802,4.0964 -0.3011,1.0159 -0.908,2.3852 -1.3488,3.0427 -1.0432,1.5562 -3.0505,3.6501 -3.9553,4.1264 -0.7529,0.3963 -2.4507,0.4539 -3.7832,0.1281 -2.294,-0.561 -4.2014,-2.2807 -4.9098,-4.4271 -0.3827,-1.1552 -0.085,-1.5357 0.9152,-1.1555 2.5188,0.9576 6.1961,-0.6779 7.8253,-3.4804 0.4491,-0.7724 0.8876,-1.7341 0.9746,-2.1373 0.087,-0.4032 0.2457,-0.7877 0.353,-0.8537 z m 28.0164,0.4046 c 0.407,0.093 0.5596,0.3195 0.5596,0.7023 0,0.2096 0.3192,1.0333 0.7095,1.8304 1.4875,3.0378 4.2602,4.581 7.5453,4.1997 l 1.6046,-0.1865 -0.1866,1.0226 c -0.3021,1.6503 -1.3336,3.1412 -2.7946,4.0401 -3.0298,1.8643 -6.4287,0.6264 -9.3767,-3.4148 -0.7749,-1.0623 -1.7487,-3.5692 -2.4913,-6.4141 -0.322,-1.2339 -0.222,-1.3058 2.344,-1.6836 1.0175,-0.1498 1.6791,-0.1893 2.0862,-0.096 z m -18.2258,0.2785 c 2.3517,0.024 2.4694,0.1291 2.8226,2.5177 0.17,1.1496 0.4619,4.1459 0.6485,6.6585 0.2077,2.7972 0.4419,4.5339 0.6046,4.4799 0.4395,-0.1465 0.8677,-2.4776 1.2,-6.5345 0.3152,-3.8495 0.7041,-6.2535 1.0459,-6.4647 0.1007,-0.062 1.2112,-0.1968 2.4675,-0.2987 l 2.2841,-0.1856 0.3034,1.1591 c 0.6686,2.5565 2.4396,7.5556 3.4117,9.63 l 1.0299,2.1977 -0.4822,0.7938 c -1.1618,1.9104 -7.5644,7.6689 -9.5555,8.5943 -1.9171,0.8911 -3.9584,0.2372 -6.5592,-2.1012 -1.5729,-1.4141 -6.7076,-7.4392 -6.5795,-7.7204 0.045,-0.099 0.6378,-1.1923 1.3172,-2.4293 1.3091,-2.3837 2.6517,-6.0302 3.1316,-8.5054 0.3294,-1.6992 0.5191,-1.8162 2.9094,-1.7912 z m 25.7612,37.2841 c -0.4903,0 -16.4302,15.4997 -16.6491,16.1892 -0.1525,0.4807 0.044,0.9728 1.1932,2.9931 1.0525,1.8501 3.9771,5.9232 4.4514,6.1996 0.8567,0.4993 1.2209,0.2819 3.6195,-2.1647 12.0731,-12.3146 14.4275,-14.8008 14.4275,-15.2084 -0.01,-0.6108 -6.5111,-8.0088 -7.0425,-8.0088 z" /><path
           id="path1316"
           style="fill:#fdfbfa"
           d="m 2482.1763,1806.1151 c -0.6025,0 -17.5054,17.0724 -17.5054,17.681 0,0.3237 3.0948,3.9427 5.5263,6.4622 0.8076,0.8367 1.5765,1.5213 1.7089,1.5213 0.2144,0 8.2246,-7.6254 14.4906,-13.795 2.0203,-1.9892 2.2976,-2.37 2.1379,-2.9378 -0.2969,-1.0559 -3.4763,-6.1459 -4.7444,-7.5954 -0.6428,-0.7349 -1.3692,-1.3363 -1.6139,-1.3363 z m 12.8416,7.6946 c -0.5206,-0.013 -1.1254,0.091 -1.9466,0.3095 -1.3233,0.3516 -1.5941,0.614 -17.4238,16.8651 -2.6237,2.6935 -6.9898,7.1594 -9.7022,9.9245 -2.973,3.0308 -4.9833,5.29 -5.0633,5.6885 -0.073,0.3635 -0.274,1.554 -0.4475,2.6454 -0.4878,3.0681 -0.7552,3.7175 -2.235,5.4239 -3.6483,4.2069 -7.0182,8.3706 -7.0182,8.6713 0,0.1839 1.6074,1.9644 3.5719,3.9564 1.9645,1.992 3.5719,3.7826 3.5719,3.9791 0,0.2979 -1.407,1.4768 -2.8686,2.4039 -0.3799,0.241 -1.1526,-0.5219 -6.3025,-6.2265 -2.8661,-3.1749 -3.5726,-3.6664 -5.8141,-4.0395 -1.3488,-0.2245 -3.0217,0.1982 -3.685,0.9312 -0.7154,0.7859 -0.7128,4.0692 0,5.164 0.4808,0.7385 2.2561,2.782 5.966,6.8684 4.4936,4.9497 5.0271,5.6286 5.0271,6.3975 0,0.4181 -0.1218,0.8819 -0.2703,1.0304 -0.1838,0.1838 -2.4463,-1.9139 -7.0776,-6.5624 l -6.8073,-6.8326 -1.4154,5e-4 c -2.655,0 -4.1408,1.1512 -4.1408,3.2024 v 1.2934 l 7.8713,7.8745 c 6.493,6.4957 7.8714,8.0017 7.8714,8.6005 0,0.3993 -0.09,0.7261 -0.2005,0.7261 -0.1101,0 -3.5321,-3.3338 -7.6047,-7.4084 l -7.4048,-7.4083 h -1.404 c -0.7722,0 -1.7451,0.1764 -2.1616,0.3917 -1.6393,0.8478 -2.3047,2.6148 -1.5178,4.0308 0.1792,0.3224 3.5088,3.8545 7.3991,7.8491 5.4603,5.6069 7.0734,7.4152 7.0734,7.9297 0,0.8537 -0.4425,2.0237 -0.7653,2.0237 -0.1369,0 -3.5538,-3.3337 -7.5928,-7.4083 -4.4051,-4.4439 -7.5414,-7.4084 -7.8383,-7.4084 -0.8528,0 -2.9642,2.213 -3.2954,3.4541 -0.6506,2.4373 -0.916,2.1167 14.7045,17.7353 l 14.18,14.178 3.0929,1.3756 c 4.3848,1.9499 7.4266,2.9504 9.4469,3.1073 2.7486,0.2133 2.7803,0.2301 5.6271,3.0158 1.6862,1.65 2.9053,2.6355 3.2468,2.6355 0.3503,0 1.1646,-0.734 2.2665,-2.0308 1.9302,-2.2716 4.0365,-4.6769 5.5863,-6.3785 l 1.0387,-1.1399 1.1854,1.389 c 0.652,0.7639 1.1846,1.4559 1.1839,1.5369 -8e-4,0.082 -2.3758,2.291 -5.2777,4.9103 -5.905,5.3302 -6.627,6.2884 -6.627,8.7917 0,1.737 0.5515,3.1344 1.3354,3.3832 0.9732,0.3088 3.8658,0.1933 4.5635,-0.1824 0.5911,-0.3182 1.9886,-1.5212 6.257,-5.3857 3.7444,-3.3901 5.5462,-4.8883 5.8751,-4.8783 0.1965,0 0.5898,0.1838 0.8738,0.3985 0.6118,0.4627 0.9606,0.064 -6.9324,7.9318 -5.6709,5.6529 -5.5369,5.4165 -4.6901,8.2682 0.4848,1.6325 1.4581,2.4428 2.9347,2.4428 0.9675,0 1.3227,-0.3144 8.955,-7.9215 7.6559,-7.6307 9.0275,-8.7747 9.5353,-7.953 0.118,0.1909 -2.6989,3.209 -7.4073,7.9359 l -7.598,7.6275 0.1918,1.4123 c 0.2491,1.8384 0.7411,2.76 1.7533,3.2835 1.0813,0.5591 2.2723,0.3229 3.5735,-0.709 0.561,-0.445 3.9671,-3.7233 7.5695,-7.2848 l 6.55,-6.4751 1.0961,0.081 c 0.6884,0.051 1.2039,0.2523 1.3854,0.542 0.2482,0.3961 -0.749,1.4819 -7.0507,7.6761 -5.72,5.6223 -7.3386,7.3597 -7.3386,7.8729 0,0.7817 0.8348,1.8705 2.1156,2.7646 v 6e-4 c 1.3369,0.933 2.9853,0.8998 4.5124,-0.091 0.6469,-0.4198 7.3087,-6.9384 14.8042,-14.4859 14.6795,-14.7813 13.6275,-13.5466 16.0828,-18.8821 1.235,-2.6837 2.1996,-6.0303 2.3637,-8.2021 l 0.1498,-1.9843 1.7766,-1.8521 c 2.606,-2.717 3.7021,-3.9967 3.7021,-4.3212 0,-0.1583 -1.6073,-1.6819 -3.5718,-3.3858 -1.9645,-1.7039 -3.5719,-3.1857 -3.5719,-3.2929 0,-0.2682 2.2548,-1.5678 2.7202,-1.5678 0.2074,0 1.9859,1.7562 3.9523,3.9026 5.4057,5.9007 5.5743,6.0659 6.6647,6.5215 0.5751,0.2403 1.7548,0.4238 2.7228,0.4238 1.5348,0 1.786,-0.079 2.481,-0.7736 0.7,-0.6998 0.7712,-0.9326 0.7472,-2.4474 -0.014,-0.9207 -0.1034,-1.9429 -0.1984,-2.2717 -0.1549,-0.5383 -1.8535,-2.5269 -9.3948,-11.0009 -2.1941,-2.4641 -2.334,-2.6927 -2.1942,-3.5538 0.082,-0.5062 0.1946,-0.9656 0.2496,-1.0206 0.055,-0.055 3.3048,3.115 7.2213,7.0451 7.8813,7.9084 7.4205,7.6001 10.1322,6.7892 1.7874,-0.5345 2.4128,-1.286 2.4128,-2.9001 v -1.3472 l -7.9375,-7.9659 c -6.4754,-6.4984 -7.9375,-8.0975 -7.9375,-8.6796 0,-0.3924 0.1057,-0.7131 0.2351,-0.7131 0.1293,0 3.4928,3.224 7.4745,7.1644 3.9816,3.9404 7.4994,7.342 7.8171,7.5593 0.4262,0.2916 0.9117,0.3467 1.8521,0.2098 2.5761,-0.375 3.3975,-1.2272 3.1967,-3.3166 -0.1209,-1.2589 -0.1857,-1.3356 -7.2399,-8.5747 -3.9148,-4.0174 -7.2205,-7.5674 -7.3458,-7.8894 -0.154,-0.3956 -0.087,-0.9236 0.2077,-1.6284 l 0.4357,-1.0428 7.599,7.5959 c 4.1794,4.1776 7.7113,7.5954 7.8481,7.5954 0.1367,0 0.7089,-0.319 1.2717,-0.709 1.9728,-1.3672 2.8414,-3.8782 1.9327,-5.5877 -0.2088,-0.393 -6.787,-7.1064 -14.6182,-14.9185 l -14.2384,-14.2038 -2.773,-1.3405 c -1.5252,-0.7372 -2.866,-1.3405 -2.9796,-1.3405 -0.1135,0 -0.7112,-0.224 -1.3281,-0.4981 -1.9393,-0.8614 -4.2278,-1.452 -6.2177,-1.6041 l -1.9208,-0.1467 -2.9068,-2.7301 c -2.1528,-2.022 -3.0274,-2.6854 -3.3709,-2.5585 -0.2551,0.094 -2.5248,2.5431 -5.0441,5.442 -2.5193,2.8988 -4.7503,5.2705 -4.9579,5.2705 -0.4603,0 -1.3846,-0.7487 -1.7518,-1.419 -0.2333,-0.426 0.7427,-1.5079 7.1727,-7.9525 l 7.4424,-7.4595 -0.1483,-1.0433 c -0.081,-0.5738 -0.2199,-1.6523 -0.3069,-2.3968 -0.087,-0.7445 -0.4709,-1.9946 -0.8527,-2.7781 -0.5925,-1.2157 -0.8136,-1.4363 -1.5105,-1.5043 -0.8882,-0.087 -0.6754,-0.2757 -13.4167,11.9254 -5.0967,4.8804 -5.2522,5.0029 -5.7553,4.5475 -0.2844,-0.2573 -0.5167,-0.5824 -0.5167,-0.7219 0,-0.2389 3.9052,-4.0709 11.7739,-11.5533 1.8917,-1.7989 3.4795,-3.506 3.5285,-3.7936 0.1361,-0.8008 -1.5089,-3.8033 -2.6474,-4.8318 -1.9591,-1.7699 -1.7197,-1.9264 -10.5673,6.9175 -6.4727,6.4699 -7.9317,7.8047 -8.3778,7.6631 -1.249,-0.3964 -0.8889,-0.9818 2.2092,-3.591 4.9917,-4.204 10.4233,-9.4857 11.5641,-11.2448 1.2438,-1.9178 1.2113,-2.3042 -0.3317,-3.9357 -1.5774,-1.6679 -2.7021,-2.282 -4.1781,-2.282 -1.3287,0 -1.4875,0.1334 -10.7724,9.0366 -4.6383,4.4476 -5.5159,5.2509 -5.7366,5.2509 -0.5976,0 0.095,-0.7745 3.9393,-4.4044 8.973,-8.4723 9.0174,-8.5195 9.4573,-10.0325 0.2218,-0.763 0.4036,-1.7001 0.4036,-2.0825 0,-1.1549 -0.7017,-2.4694 -1.5534,-2.9099 -0.4843,-0.2506 -0.9207,-0.3809 -1.4413,-0.3938 z m -0.7989,32.2574 c 0.1007,0 1.213,0.9824 2.4717,2.1829 1.2588,1.2006 3.6398,3.4329 5.2911,4.9609 1.6513,1.5279 3.5336,3.4925 4.1832,4.3656 3.4881,4.6883 4.5474,10.609 2.9828,16.6745 -0.7378,2.8599 -1.2955,4.2466 -3.1827,7.9157 -1.7885,3.4775 -3.8601,9.5226 -4.2618,12.436 -0.5026,3.6449 -0.2211,3.3228 -2.9068,3.3228 -1.5185,0 -2.4126,-0.1101 -2.5378,-0.3127 -0.1819,-0.2943 -0.288,-3.7251 -0.8615,-27.8655 -0.227,-9.5553 -0.5448,-12.8866 -0.9209,-9.651 -0.6312,5.4304 -1.1748,16.4207 -1.3735,27.775 -0.085,4.8749 -0.2094,9.1315 -0.2754,9.4589 -0.1143,0.5644 -0.2451,0.5953 -2.4919,0.5953 -2.2424,0 -2.3786,-0.032 -2.5068,-0.5953 -0.075,-0.3274 -0.4317,-1.9918 -0.7932,-3.6985 -0.7476,-3.5291 -2.2552,-8.0762 -3.7083,-11.1844 -0.5442,-1.164 -1.0841,-2.3548 -1.1995,-2.6458 -1.8385,-4.6338 -2.4682,-7.5116 -2.4892,-11.3771 -0.022,-3.9898 0.3441,-5.8466 1.6356,-8.2982 1.3352,-2.5344 2.6132,-4.1206 5.7846,-7.1794 1.5839,-1.5278 3.8017,-3.7006 4.9284,-4.8286 1.1267,-1.128 2.1311,-2.0511 2.2319,-2.0511 z m 66.1515,9.3896 c -0.1611,0.02 -0.3063,0.1111 -0.4894,0.2393 -1.2789,0.8958 -6.8032,5.8919 -7.1117,6.4317 -0.3119,0.546 0.03,0.9595 5.455,6.6145 3.183,3.3177 6.7421,7.0077 7.9091,8.1995 1.5842,1.6179 2.3018,2.1709 2.8329,2.1829 1.5423,0.034 9.2108,-5.2172 9.2108,-6.3077 0,-0.4332 -6.2669,-6.7978 -14.4885,-14.7148 -2.2097,-2.1279 -2.8349,-2.7058 -3.3182,-2.6454 z m -94.1265,16.5613 c 2.5977,0.071 5.2413,0.8328 7.4124,2.2727 2.9783,1.9754 5.8134,5.4919 7.7494,9.6119 1.6435,3.4977 3.8089,10.6227 3.9801,13.0968 0.055,0.7905 0.048,0.7949 -1.665,0.9653 -0.9459,0.094 -2.268,0.2567 -2.9378,0.3613 l -1.2175,0.1901 -0.3209,-1.2877 c -0.9505,-3.8106 -4.0273,-6.3722 -7.9783,-6.643 -2.6247,-0.1799 -4.1594,0.468 -5.2741,2.2257 -0.8063,1.2714 -1.4072,3.8738 -1.2743,5.5185 h 5e-4 c 0.1003,1.2411 -0.1234,1.3125 -2.4753,0.7912 -4.3146,-0.9565 -7.3825,-3.5881 -8.9514,-7.6776 -0.8916,-2.3239 -0.9142,-6.913 -0.047,-9.5018 1.2671,-3.7823 2.963,-6.1095 5.8621,-8.0455 1.9874,-1.3271 4.5393,-1.9484 7.1371,-1.8779 z m 57.69,0.8279 c 3.5244,0.15 5.1602,0.8677 7.7018,3.3791 4.6245,4.5696 5.9885,12.4281 3.1466,18.1286 -1.3859,2.7799 -3.4961,4.5905 -6.2978,5.4028 -2.262,0.6561 -3.5461,0.8571 -3.9083,0.6123 -0.1665,-0.1126 -0.2852,-1.0827 -0.2852,-2.3109 0,-3.383 -1.2571,-5.5848 -3.9491,-6.9019 -1.2773,-0.6246 -1.6516,-0.6909 -3.08,-0.5416 -1.7854,0.1867 -3.341,1.0246 -4.5191,2.435 -0.6806,0.8146 -2.3431,3.9597 -2.6825,5.0746 -0.1712,0.5618 -0.4654,0.7282 -1.0718,0.6041 -0.1455,-0.03 -1.3198,-0.212 -2.6096,-0.4051 -1.2897,-0.193 -2.4643,-0.4707 -2.6102,-0.6165 -0.3403,-0.3403 0.8106,-5.7928 1.927,-9.1297 2.3085,-6.9007 6.1869,-12.0863 10.6888,-14.2906 2.437,-1.1933 4.4283,-1.5731 7.5494,-1.4402 z m -46.4013,0.3514 c 0.082,0.022 0.1458,0.117 0.2129,0.2919 h -5e-4 c 0.2333,0.608 -0.2121,1.0065 -0.601,0.538 -0.2389,-0.2883 -0.2249,-0.4428 0.06,-0.6796 0.1443,-0.1197 0.2457,-0.1719 0.3282,-0.1503 z m -17.1323,6.2073 c -0.4272,0 -0.4956,0.2193 -0.4956,1.6537 0,1.6025 -0.032,1.6725 -0.9431,2.2629 -1.1467,0.743 -1.0614,1.156 0.3054,1.4743 1.1464,0.267 1.4209,0.5413 1.4309,1.4098 0,0.3206 0.1422,0.886 0.3111,1.2567 0.4314,0.9467 0.7765,0.8336 1.601,-0.525 0.7108,-1.1713 0.731,-1.1824 2.1828,-1.1824 1.6897,0 1.8061,-0.2294 0.8041,-1.5875 -0.7476,-1.0134 -0.8232,-1.7481 -0.2563,-2.4975 0.3757,-0.4968 0.545,-1.7358 0.2372,-1.7358 -0.083,0 -0.6512,0.2932 -1.262,0.6511 l -1.1105,0.6506 -1.1565,-0.9152 c -0.6362,-0.5035 -1.3779,-0.9157 -1.6485,-0.9157 z m 68.0517,0.539 -0.6904,0.6403 c -0.9379,0.8692 -2.0097,1.0686 -2.9978,0.5576 -0.9644,-0.4988 -1.6244,-0.5328 -1.6144,-0.083 0,0.1819 0.237,0.8399 0.5194,1.4619 l 0.5131,1.1312 -0.7829,1.2346 c -0.8999,1.419 -0.7619,1.6483 0.9834,1.6583 0.9491,0 1.19,0.1263 1.6945,0.864 0.3235,0.4729 0.7768,1.013 1.0072,1.1999 0.5598,0.4542 1.0867,-0.2391 1.0867,-1.4299 0,-0.9896 0.5795,-1.6819 1.4077,-1.6919 0.3171,0 0.7474,-0.1126 0.9565,-0.2449 0.3085,-0.1952 0.2277,-0.3832 -0.4299,-0.9974 -0.5585,-0.5218 -0.8721,-1.124 -1.0087,-1.9383 -0.1091,-0.6497 -0.2985,-1.4468 -0.4212,-1.7715 z m -8.1148,14.0384 c 0.1144,0.021 0.2048,0.097 0.2816,0.2212 0.1752,0.2835 -2.4172,3.0011 -4.7681,4.9987 -1.6863,1.4333 -2.9241,1.9063 -3.4887,1.3343 -0.3852,-0.3902 -0.432,-1.3609 -0.097,-2.019 0.1286,-0.2527 0.3927,-0.8166 0.5871,-1.2532 0.6002,-1.3477 1.8451,-3.0615 2.1063,-2.9001 0.1364,0.084 0.248,0.4518 0.248,0.8165 0,0.3648 0.1233,0.8937 0.2739,1.1751 0.4788,0.8947 1.3731,0.6037 2.9011,-0.9436 1.0538,-1.0669 1.6127,-1.4932 1.956,-1.4299 z m -100.0972,1.9844 c -0.2201,-0.015 -0.4569,0.017 -0.7121,0.095 -0.4194,0.1278 -1.2385,0.3792 -1.8206,0.5586 -1.6132,0.4973 -2.249,1.008 -2.249,1.8061 0,0.5749 1.5709,2.2394 8.5856,9.0976 v 6e-4 c 4.722,4.6167 8.7305,8.3938 8.9074,8.3938 0.4449,0 3.8798,-2.6408 4.0659,-3.1259 0.1023,-0.2666 -2.4032,-2.9767 -7.7272,-8.3577 -4.3331,-4.3797 -8.131,-8.1077 -8.4392,-8.2842 -0.1876,-0.1077 -0.3908,-0.1687 -0.6108,-0.1835 z m 67.8873,4.1316 c 2.0096,-0.034 4.4123,-0.024 7.2926,0.021 9.581,0.1507 12.0519,0.3957 14.15,1.4041 1.5239,0.7324 1.9764,1.4985 1.2904,2.1844 -0.4988,0.4988 -1.9578,0.6668 -9.4124,1.0831 -2.8377,0.1585 -5.4328,0.4054 -5.7671,0.5483 -0.7568,0.3235 -0.829,0.3181 -1.6412,-0.1127 -0.4367,-0.2317 -2.1899,-0.4001 -5.1594,-0.4961 -4.0795,-0.1321 -7.2756,-0.5376 -9.988,-1.2671 -1.1098,-0.2986 -1.31,-0.9345 -0.5194,-1.65 1.2346,-1.1173 3.7256,-1.6133 9.7545,-1.7151 z m 3.1905,1.59 c -5.0257,0 -9.485,0.1659 -10.0082,0.4894 -0.3042,0.188 -0.2868,0.3072 0.1003,0.6945 0.4021,0.4021 1.2321,0.4949 5.9531,0.6672 3.0173,0.1101 5.7836,0.2436 6.1474,0.2966 v 5e-4 c 1.5238,0.2214 7.523,0.1544 10.187,-0.1137 4.9581,-0.499 5.3283,-1.0595 1.0273,-1.5559 -2.789,-0.3221 -8.3812,-0.481 -13.4069,-0.4786 z m -10.773,4.5729 c 0.1074,-0.066 1.1929,0.055 2.4128,0.2697 1.22,0.2147 2.2632,0.3905 2.3182,0.3907 0.1864,7e-4 -0.2521,2.2409 -0.802,4.0964 -0.3011,1.0159 -0.908,2.3852 -1.3488,3.0427 -1.0432,1.5562 -3.0505,3.6501 -3.9553,4.1264 -0.7529,0.3963 -2.4507,0.4539 -3.7832,0.1281 -2.294,-0.561 -4.2014,-2.2807 -4.9098,-4.4271 -0.3827,-1.1552 -0.085,-1.5357 0.9152,-1.1555 2.5188,0.9576 6.1961,-0.6779 7.8253,-3.4804 0.4491,-0.7724 0.8876,-1.7341 0.9746,-2.1373 0.087,-0.4032 0.2457,-0.7877 0.353,-0.8537 z m 28.0164,0.4046 c 0.407,0.093 0.5596,0.3195 0.5596,0.7023 0,0.2096 0.3192,1.0333 0.7095,1.8304 1.4875,3.0378 4.2602,4.581 7.5453,4.1997 l 1.6046,-0.1865 -0.1866,1.0226 c -0.3021,1.6503 -1.3336,3.1412 -2.7946,4.0401 -3.0298,1.8643 -6.4287,0.6264 -9.3767,-3.4148 -0.7749,-1.0623 -1.7487,-3.5692 -2.4913,-6.4141 -0.322,-1.2339 -0.222,-1.3058 2.344,-1.6836 1.0175,-0.1498 1.6791,-0.1893 2.0862,-0.096 z m -18.2258,0.2785 c 2.3517,0.024 2.4694,0.1291 2.8226,2.5177 0.17,1.1496 0.4619,4.1459 0.6485,6.6585 0.2077,2.7972 0.4419,4.5339 0.6046,4.4799 0.4395,-0.1465 0.8677,-2.4776 1.2,-6.5345 0.3152,-3.8495 0.7041,-6.2535 1.0459,-6.4647 0.1007,-0.062 1.2112,-0.1968 2.4675,-0.2987 l 2.2841,-0.1856 0.3034,1.1591 c 0.6686,2.5565 2.4396,7.5556 3.4117,9.63 l 1.0299,2.1977 -0.4822,0.7938 c -1.1618,1.9104 -7.5644,7.6689 -9.5555,8.5943 -1.9171,0.8911 -3.9584,0.2372 -6.5592,-2.1012 -1.5729,-1.4141 -6.7076,-7.4392 -6.5795,-7.7204 0.045,-0.099 0.6378,-1.1923 1.3172,-2.4293 1.3091,-2.3837 2.6517,-6.0302 3.1316,-8.5054 0.3294,-1.6992 0.5191,-1.8162 2.9094,-1.7912 z m 25.7612,37.2841 c -0.4903,0 -16.4302,15.4997 -16.6491,16.1892 -0.1525,0.4807 0.044,0.9728 1.1932,2.9931 1.0525,1.8501 3.9771,5.9232 4.4514,6.1996 0.8567,0.4993 1.2209,0.2819 3.6195,-2.1647 12.0731,-12.3146 14.4275,-14.8008 14.4275,-15.2084 -0.01,-0.6108 -6.5111,-8.0088 -7.0425,-8.0088 z" /><path
           style="fill:#e2001a;fill-opacity:1"
           d="m 2493.3781,1929.693 c -1.2522,-0.3048 -2.3045,-0.939 -3.8215,-2.3029 -1.5729,-1.4141 -6.7076,-7.4389 -6.5795,-7.7201 0.045,-0.099 0.638,-1.1926 1.3174,-2.4296 1.3091,-2.3837 2.6516,-6.03 3.1315,-8.5053 0.3294,-1.699 0.5191,-1.8158 2.9094,-1.7912 2.3517,0.024 2.4694,0.1292 2.8226,2.5178 0.17,1.1496 0.4618,4.146 0.6484,6.6586 0.2077,2.7972 0.4423,4.5341 0.605,4.4799 0.4395,-0.1465 0.8675,-2.4779 1.1998,-6.5348 0.3152,-3.8495 0.7042,-6.2536 1.046,-6.4648 0.1007,-0.062 1.2111,-0.1967 2.4674,-0.2986 l 2.2841,-0.1853 0.3033,1.1593 c 0.6686,2.5565 2.4397,7.555 3.4118,9.6294 l 1.0301,2.1983 -0.4825,0.7935 c -1.1618,1.9104 -7.5641,7.6688 -9.5552,8.5942 -1.0268,0.4773 -1.4713,0.51 -2.7381,0.2016 z m 17.0656,-11.2833 c -3.2,-1.818 -4.877,-4.4653 -6.3124,-9.9646 -0.322,-1.2339 -0.2223,-1.3055 2.3437,-1.6833 2.0351,-0.2996 2.6458,-0.1597 2.6458,0.6058 0,0.2096 0.3193,1.0333 0.7096,1.8304 1.4875,3.0378 4.2602,4.5811 7.5453,4.1998 l 1.6048,-0.1862 -0.187,1.0222 c -0.7175,3.9201 -5.0161,6.0699 -8.3498,4.1759 z m -35.0573,-0.095 c -2.294,-0.561 -4.2013,-2.2808 -4.9097,-4.4272 -0.3827,-1.1595 -0.085,-1.5354 0.9151,-1.1552 2.5188,0.9576 6.1963,-0.678 7.8255,-3.4805 0.4491,-0.7724 0.8875,-1.7344 0.9744,-2.1376 0.087,-0.4032 0.2457,-0.7874 0.353,-0.8537 0.1074,-0.066 1.1933,0.055 2.4132,0.2697 1.22,0.2147 2.2631,0.3905 2.3181,0.3907 0.1864,7e-4 -0.2522,2.2411 -0.8021,4.0966 -0.3011,1.0159 -0.9081,2.3852 -1.3489,3.0427 -1.0432,1.5562 -3.0503,3.6503 -3.9551,4.1266 -0.7529,0.3963 -2.451,0.4537 -3.7835,0.1279 z m 18.6531,-13.0884 c -0.4367,-0.2317 -2.1898,-0.4004 -5.1593,-0.4965 -4.0795,-0.1321 -7.2757,-0.5375 -9.9881,-1.267 -1.1098,-0.2986 -1.31,-0.9343 -0.5194,-1.6498 1.6461,-1.4897 5.5263,-1.8753 17.0474,-1.6941 9.5811,0.1507 12.0518,0.3959 14.1499,1.4043 1.5239,0.7324 1.9764,1.4984 1.2904,2.1843 -0.4988,0.4989 -1.9579,0.6668 -9.4125,1.0831 -2.8377,0.1585 -5.4329,0.4051 -5.7672,0.548 -0.7568,0.3235 -0.829,0.3185 -1.6412,-0.1123 z m 9.6582,-1.5044 c 4.9581,-0.499 5.3282,-1.0596 1.0272,-1.556 -5.578,-0.6437 -22.3688,-0.6356 -23.4151,0.011 -0.3042,0.188 -0.287,0.307 0.1001,0.6943 0.4021,0.4021 1.2321,0.4952 5.9531,0.6675 3.0173,0.1101 5.7836,0.2435 6.1474,0.2964 1.5238,0.2214 7.5233,0.1545 10.1873,-0.1136 z m 20.8787,-3.3534 c -0.1665,-0.1126 -0.2863,-1.0826 -0.2852,-2.3108 0,-3.383 -1.2569,-5.585 -3.949,-6.9021 -1.2773,-0.625 -1.652,-0.6909 -3.0804,-0.5416 -1.7854,0.1867 -3.3407,1.0247 -4.5188,2.4351 -0.6806,0.8146 -2.3434,3.9599 -2.6828,5.0748 -0.1712,0.5622 -0.4653,0.7279 -1.0717,0.6038 -0.1455,-0.03 -1.3198,-0.2121 -2.6096,-0.4052 -1.2897,-0.193 -2.4643,-0.4704 -2.6102,-0.6162 -0.3403,-0.3403 0.8105,-5.7929 1.9269,-9.1298 2.3085,-6.9007 6.1872,-12.0862 10.6891,-14.2905 2.437,-1.1933 4.4283,-1.5732 7.5494,-1.4403 2.3852,0.1015 3.0076,0.2278 4.369,0.8864 15.7837,7.6364 3.5,31.5207 -3.7267,26.6364 z m 3.5944,-13.1903 c 0,-0.9896 0.5797,-1.6864 1.4079,-1.6922 0.3171,0 0.7475,-0.1123 0.9566,-0.2446 0.3085,-0.1952 0.2274,-0.3832 -0.4302,-0.9974 -0.5585,-0.5218 -0.8719,-1.124 -1.0085,-1.9383 -0.1091,-0.6497 -0.2987,-1.447 -0.4214,-1.7717 l -0.223,-0.5905 -0.6908,0.6402 c -0.9379,0.8692 -2.0096,1.0685 -2.9977,0.5575 -0.9644,-0.4987 -1.6221,-0.5325 -1.6142,-0.083 0,0.1819 0.2368,0.8397 0.5192,1.4617 l 0.5133,1.1311 -0.7831,1.2349 c -0.8999,1.419 -0.7617,1.6519 0.9836,1.6583 0.9491,0 1.1901,0.1263 1.6946,0.864 0.933,1.3639 1.3616,1.6276 1.7598,1.083 0.1837,-0.2511 0.3339,-0.842 0.3339,-1.3131 z m -65.9276,11.9423 c -4.3146,-0.9565 -7.3825,-3.5878 -8.9514,-7.6773 -0.8914,-2.3239 -0.914,-6.9134 -0.047,-9.5022 1.2671,-3.7823 2.9627,-6.1095 5.8618,-8.0455 3.9748,-2.6542 10.2073,-2.485 14.5495,0.3949 2.9783,1.9754 5.8136,5.4921 7.7496,9.6121 1.6435,3.4977 3.8086,10.6228 3.9798,13.0969 0.055,0.7905 0.048,0.7945 -1.6649,0.9649 -0.9459,0.094 -2.2677,0.2567 -2.9375,0.3613 l -1.2176,0.1902 -0.3212,-1.2874 c -0.9505,-3.8106 -4.0269,-6.3723 -7.9779,-6.6431 -2.6247,-0.1799 -4.1595,0.4677 -5.2742,2.2254 -0.8063,1.2714 -1.4072,3.874 -1.2743,5.5187 0.1003,1.2411 -0.123,1.3125 -2.4749,0.7911 z m 0.3669,-12.1836 c 0.7108,-1.1713 0.731,-1.1823 2.1828,-1.1823 1.6897,0 1.8059,-0.2294 0.8039,-1.5875 -0.7476,-1.0134 -0.823,-1.7485 -0.2561,-2.4979 0.3757,-0.4968 0.5449,-1.7354 0.2371,-1.7354 -0.083,0 -0.651,0.2928 -1.2618,0.6507 l -1.1104,0.6508 -1.1567,-0.9153 c -0.6362,-0.5035 -1.3781,-0.9154 -1.6487,-0.9154 -0.4267,0 -0.4923,0.2193 -0.4952,1.6537 0,1.6025 -0.032,1.6724 -0.9435,2.2628 -1.1467,0.743 -1.0611,1.1561 0.3057,1.4744 1.1464,0.267 1.4248,0.5412 1.4308,1.4097 0.01,0.7815 0.5483,1.9327 0.9064,1.9223 0.1585,0 0.6111,-0.5404 1.0057,-1.1906 z m 25.2185,10.3932 c -0.075,-0.3274 -0.4315,-1.9917 -0.793,-3.6984 -0.7476,-3.5291 -2.2552,-8.0762 -3.7083,-11.1844 -0.5442,-1.1641 -1.084,-2.3548 -1.1994,-2.6458 -1.8385,-4.6338 -2.4681,-7.5116 -2.4893,-11.3771 -0.022,-3.9898 0.3442,-5.847 1.6357,-8.2986 1.3352,-2.5344 2.6129,-4.1203 5.7843,-7.1791 1.5839,-1.5278 3.8017,-3.7007 4.9284,-4.8287 1.1267,-1.128 2.131,-2.0509 2.2318,-2.0509 0.1007,0 1.2131,0.9823 2.4718,2.1828 1.2588,1.2006 3.6397,3.433 5.291,4.961 1.6513,1.5279 3.5339,3.4925 4.1835,4.3656 3.4881,4.6883 4.5471,10.6088 2.9825,16.6743 -0.7378,2.86 -1.2951,4.2464 -3.1823,7.9156 -1.7885,3.4775 -3.8603,9.5227 -4.262,12.4361 -0.5026,3.6449 -0.221,3.323 -2.9067,3.323 -1.5185,0 -2.4127,-0.1102 -2.5379,-0.3128 -0.1819,-0.2943 -0.2879,-3.725 -0.8614,-27.8654 -0.227,-9.5552 -0.5449,-12.887 -0.921,-9.6514 -0.6312,5.4304 -1.1746,16.4211 -1.3733,27.7754 -0.085,4.8749 -0.2094,9.1314 -0.2758,9.4588 -0.1143,0.5641 -0.245,0.5954 -2.4918,0.5954 -2.2424,0 -2.3786,-0.032 -2.5068,-0.5954 z m -10.684,-23.3031 c -0.2392,-0.2883 -0.2256,-0.4426 0.06,-0.6794 0.2885,-0.2394 0.4069,-0.2085 0.5411,0.1414 0.2333,0.6078 -0.2119,1.0065 -0.6008,0.538 z"
           id="path1313"
           sodipodi:nodetypes="sssssssssssscsscssssssssscssssssssssssssssssssssssssssssssscssssssssssssscsssscsscscscssssssssssssscsssssssssssscsscssccsssscssssssssssssssssssssssss" /></g></g></g></svg>
