<?xml version="1.0" encoding="UTF-8" standalone="no"?>
<!-- Created with Inkscape (http://www.inkscape.org/) -->

<svg
   width="258.04007mm"
   height="223.46931mm"
   viewBox="0 0 258.04007 223.46931"
   version="1.1"
   id="svg1"
   xml:space="preserve"
   inkscape:version="1.3.2 (091e20e, 2023-11-25, custom)"
   sodipodi:docname="Especialidades.svg.svg.2024_10_26_11_42_37.0.svg"
   xmlns:inkscape="http://www.inkscape.org/namespaces/inkscape"
   xmlns:sodipodi="http://sodipodi.sourceforge.net/DTD/sodipodi-0.dtd"
   xmlns="http://www.w3.org/2000/svg"
   xmlns:svg="http://www.w3.org/2000/svg"><sodipodi:namedview
     id="namedview1"
     pagecolor="#ffffff"
     bordercolor="#000000"
     borderopacity="0.25"
     inkscape:showpageshadow="2"
     inkscape:pageopacity="0.0"
     inkscape:pagecheckerboard="0"
     inkscape:deskcolor="#d1d1d1"
     inkscape:document-units="mm"
     inkscape:zoom="2.8284271"
     inkscape:cx="6831.3586"
     inkscape:cy="712.23331"
     inkscape:window-width="1291"
     inkscape:window-height="981"
     inkscape:window-x="-8"
     inkscape:window-y="0"
     inkscape:window-maximized="0"
     inkscape:current-layer="g8"
     showguides="true" /><defs
     id="defs1" /><g
     inkscape:groupmode="layer"
     id="layer3"
     inkscape:label="Capa 2"
     transform="translate(-2384.7664,-562.48601)"><g
       id="g547"><g
         id="g579"><g
           id="g577"
           transform="translate(312.73824,-11.641667)"
           style="fill:#7c7200;fill-opacity:1;stroke:#7c7200;stroke-opacity:1"><path
             sodipodi:type="star"
             style="display:inline;fill:#efda00;fill-opacity:1;stroke:#efda00;stroke-width:8;stroke-linecap:round;stroke-linejoin:miter;stroke-miterlimit:29.8;stroke-dasharray:none;stroke-dashoffset:21.9213;stroke-opacity:1;paint-order:fill markers stroke"
             id="path570"
             inkscape:flatsided="true"
             sodipodi:sides="6"
             sodipodi:cx="2183.8708"
             sodipodi:cy="711.20001"
             sodipodi:r1="104.42606"
             sodipodi:r2="66.092422"
             sodipodi:arg1="6.2931178e-09"
             sodipodi:arg2="0.52359879"
             inkscape:rounded="0"
             inkscape:randomized="0"
             d="m 2288.2969,711.20001 -52.213,90.43563 -104.4261,0 -52.213,-90.43563 52.213,-90.43562 104.4261,0 z"
             inkscape:transform-center-x="2.7513333e-05"
             inkscape:transform-center-y="-8.9599999e-06"
             transform="translate(17.177246,-25.337686)" /><path
             sodipodi:type="star"
             style="display:inline;fill:#f4e400;fill-opacity:1;stroke:none;stroke-width:8;stroke-linecap:round;stroke-linejoin:miter;stroke-miterlimit:29.8;stroke-dasharray:none;stroke-dashoffset:21.9213;stroke-opacity:1;paint-order:fill markers stroke"
             id="path572"
             inkscape:flatsided="false"
             sodipodi:sides="30"
             sodipodi:cx="2183.8708"
             sodipodi:cy="711.20001"
             sodipodi:r1="109.02294"
             sodipodi:r2="61.043736"
             sodipodi:arg1="0"
             sodipodi:arg2="0.10471976"
             inkscape:rounded="0"
             inkscape:randomized="0"
             d="m 2292.8938,711.20001 -48.3136,6.38081 45.9312,16.28634 -48.5845,-3.8036 41.5414,25.48008 -46.732,-13.82176 35.336,33.56021 -42.8371,-23.23585 27.5862,40.17361 -37.0699,-31.63442 18.6308,45.03122 -29.6827,-38.65041 8.8612,47.92075 -20.9982,-43.97719 -1.2957,48.71591 -11.3961,-47.38196 -11.396,47.38196 -1.2957,-48.71591 -20.9982,43.97719 8.8612,-47.92075 -29.6827,38.65041 18.6308,-45.03122 -37.0699,31.63442 27.5862,-40.17361 -42.8371,23.23585 35.336,-33.56021 -46.732,13.82176 41.5414,-25.48008 -48.5845,3.8036 45.9312,-16.28634 -48.3136,-6.38081 48.3136,-6.38081 -45.9312,-16.28633 48.5845,3.80359 -41.5414,-25.48007 46.732,13.82175 -35.336,-33.56021 42.8371,23.23585 -27.5862,-40.1736 37.0699,31.63441 -18.6308,-45.03121 29.6827,38.6504 -8.8612,-47.92075 20.9982,43.9772 1.2957,-48.71592 11.396,47.38197 11.3961,-47.38197 1.2957,48.71592 20.9982,-43.9772 -8.8612,47.92076 29.6827,-38.65041 -18.6308,45.03121 37.0699,-31.63441 -27.5862,40.1736 42.8371,-23.23585 -35.336,33.56021 46.732,-13.82175 -41.5414,25.48007 48.5845,-3.80359 -45.9312,16.28633 z"
             inkscape:transform-center-x="2.7513333e-05"
             inkscape:transform-center-y="-8.9599999e-06"
             transform="translate(17.177246,-25.337686)" /><path
             sodipodi:type="star"
             style="fill:none;stroke:#0c8a2d;stroke-width:2;stroke-linecap:round;stroke-linejoin:miter;stroke-miterlimit:29.8;stroke-dasharray:4, 6;stroke-dashoffset:6;stroke-opacity:1;paint-order:fill markers stroke"
             id="path573"
             inkscape:flatsided="true"
             sodipodi:sides="6"
             sodipodi:cx="2183.8708"
             sodipodi:cy="711.20001"
             sodipodi:r1="101.37034"
             sodipodi:r2="66.092422"
             sodipodi:arg1="6.293118e-09"
             sodipodi:arg2="0.52359879"
             inkscape:rounded="0"
             inkscape:randomized="0"
             d="m 2285.2412,711.20001 -50.6852,87.78929 -101.3703,0 -50.6852,-87.78929 50.6852,-87.78929 101.3703,0 z"
             inkscape:transform-center-x="2.7513333e-05"
             inkscape:transform-center-y="-8.9599999e-06"
             transform="translate(17.177246,-26.053936)" /><path
             sodipodi:type="star"
             style="fill:none;stroke:#ffffff;stroke-width:8;stroke-linecap:round;stroke-linejoin:miter;stroke-miterlimit:29.8;stroke-dasharray:none;stroke-dashoffset:21.9213;stroke-opacity:1;paint-order:fill markers stroke"
             id="path574"
             inkscape:flatsided="true"
             sodipodi:sides="6"
             sodipodi:cx="2183.8708"
             sodipodi:cy="711.20001"
             sodipodi:r1="113.64817"
             sodipodi:r2="66.092422"
             sodipodi:arg1="6.2931178e-09"
             sodipodi:arg2="0.52359879"
             inkscape:rounded="0"
             inkscape:randomized="0"
             d="m 2297.519,711.20001 -56.8241,98.42221 -113.6481,-10e-6 -56.8241,-98.4222 56.8241,-98.4222 113.6481,0 z"
             inkscape:transform-center-x="2.7513333e-05"
             inkscape:transform-center-y="-8.9599999e-06"
             transform="translate(17.177246,-25.337686)" /><path
             sodipodi:type="star"
             style="fill:none;stroke:#0c8a2d;stroke-width:8;stroke-linecap:round;stroke-linejoin:miter;stroke-miterlimit:29.8;stroke-dasharray:none;stroke-dashoffset:21.9213;stroke-opacity:1;paint-order:fill markers stroke"
             id="path575"
             inkscape:flatsided="true"
             sodipodi:sides="6"
             sodipodi:cx="2183.8708"
             sodipodi:cy="711.20001"
             sodipodi:r1="115.40091"
             sodipodi:r2="66.092422"
             sodipodi:arg1="6.2931178e-09"
             sodipodi:arg2="0.52359879"
             inkscape:rounded="0"
             inkscape:randomized="0"
             d="m 2299.2718,711.20001 -57.7005,99.94012 -115.4009,0 -57.7005,-99.94012 57.7005,-99.94012 115.4009,0 z"
             inkscape:transform-center-x="2.7513333e-05"
             inkscape:transform-center-y="-8.9599999e-06"
             transform="translate(17.177246,-25.337686)" /><path
             sodipodi:type="star"
             style="fill:none;stroke:#ffffff;stroke-width:8;stroke-linecap:round;stroke-linejoin:miter;stroke-miterlimit:29.8;stroke-dasharray:none;stroke-dashoffset:21.9213;stroke-opacity:1;paint-order:fill markers stroke"
             id="path577"
             inkscape:flatsided="true"
             sodipodi:sides="6"
             sodipodi:cx="2183.8708"
             sodipodi:cy="711.20001"
             sodipodi:r1="124.40124"
             sodipodi:r2="66.092422"
             sodipodi:arg1="6.2931178e-09"
             sodipodi:arg2="0.52359879"
             inkscape:rounded="0"
             inkscape:randomized="0"
             d="m 2308.2721,711.20001 -62.2006,107.73463 -124.4013,0 -62.2006,-107.73463 62.2006,-107.73463 124.4013,0 z"
             inkscape:transform-center-x="2.7513333e-05"
             inkscape:transform-center-y="-8.9599999e-06"
             transform="translate(17.177246,-25.337686)" /></g><g
           id="g569"
           transform="translate(130.45756,-225.66432)"
           style="fill:#000000;fill-opacity:0.5;stroke:#7c7200;stroke-opacity:1"><path
             style="fill:#000000;fill-opacity:0.5;stroke:#7c7200;stroke-width:9;stroke-linecap:round;stroke-linejoin:miter;stroke-miterlimit:29.8;stroke-dasharray:none;stroke-dashoffset:6.00001;stroke-opacity:1;paint-order:fill markers stroke"
             d="m 2332.3975,916.62292 50.2615,-30.49106 51.1108,30.12023"
             id="path565"
             sodipodi:nodetypes="ccc" /><path
             id="path566"
             style="display:inline;fill:#000000;fill-opacity:0.5;stroke:#7c7200;stroke-width:1;stroke-linecap:round;stroke-linejoin:miter;stroke-miterlimit:29.8;stroke-dasharray:none;stroke-dashoffset:22.6772;stroke-opacity:1;paint-order:fill markers stroke"
             d="m 2382.6592,886.13196 -46.2488,28.05668 v 52.82572 h 57.7634 v -23.43268 h 18.2412 v 23.43268 h 17.9684 v -52.82572 z m -29.2995,36.02106 h 10.6526 c 2.2353,0 4.0349,1.79956 4.0349,4.03489 v 14.66836 c 0,2.23532 -1.7996,4.03489 -4.0349,4.03489 h -10.6526 c -2.2353,0 -4.0349,-1.79957 -4.0349,-4.03489 v -14.66836 c 0,-2.23533 1.7996,-4.03489 4.0349,-4.03489 z" /><path
             style="fill:#000000;fill-opacity:0.5;stroke:#7c7200;stroke-width:1;stroke-linecap:round;stroke-linejoin:miter;stroke-miterlimit:29.8;stroke-dasharray:none;stroke-dashoffset:22.6772;stroke-opacity:1;paint-order:fill markers stroke"
             d="m 2377.9437,884.97618 v -2.29185 c -10.458,2.31574 -40.6262,-4.05179 -44.4335,-41.62721 8.5711,9.33696 27.8041,3.66236 41.8528,13.34861 9.8689,6.80443 11.0562,18.72128 5.9016,22.05964 -2.2431,-13.30431 -14.2881,-20.24102 -32.7567,-21.7289 20.7792,5.31474 31.4371,15.97123 31.7499,28.90573"
             id="path567"
             sodipodi:nodetypes="cccsccc" /><path
             style="fill:#000000;fill-opacity:0.5;stroke:#7c7200;stroke-width:1;stroke-linecap:round;stroke-linejoin:miter;stroke-miterlimit:29.8;stroke-dasharray:none;stroke-dashoffset:22.6772;stroke-opacity:1;paint-order:fill markers stroke"
             d="m 2388.4675,885.16327 c 7.8034,-13.74448 20.4847,-20.37535 40.9724,-15.6219 -16.9183,-7.72247 -29.9117,-5.34054 -38.5402,8.27867 1.6817,-29.46992 32.8579,-22.65083 44.5568,-12.16951 3.8316,3.43283 12.9977,1.15755 12.9977,1.15755 -13.7254,21.37515 -36.0812,28.34994 -55.5433,15.36178 l -2.1048,4.25626"
             id="path569"
             sodipodi:nodetypes="cccsccc" /></g><g
           id="g564"
           transform="translate(127.17696,-229.34183)"><path
             style="fill:#ffffff;fill-opacity:1;stroke:#ffffff;stroke-width:9;stroke-linecap:round;stroke-linejoin:miter;stroke-miterlimit:29.8;stroke-dasharray:none;stroke-dashoffset:6.00001;stroke-opacity:1;paint-order:fill markers stroke"
             d="m 2332.3975,916.62292 50.2615,-30.49106 51.1108,30.12023"
             id="path561"
             sodipodi:nodetypes="ccc" /><path
             id="rect562"
             style="display:inline;fill:#ffffff;fill-opacity:1;stroke:#ffffff;stroke-width:1;stroke-linecap:round;stroke-linejoin:miter;stroke-miterlimit:29.8;stroke-dasharray:none;stroke-dashoffset:22.6772;stroke-opacity:1;paint-order:fill markers stroke"
             d="m 2382.6592,886.13196 -46.2488,28.05668 v 52.82572 h 57.7634 v -23.43268 h 18.2412 v 23.43268 h 17.9684 v -52.82572 z m -29.2995,36.02106 h 10.6526 c 2.2353,0 4.0349,1.79956 4.0349,4.03489 v 14.66836 c 0,2.23532 -1.7996,4.03489 -4.0349,4.03489 h -10.6526 c -2.2353,0 -4.0349,-1.79957 -4.0349,-4.03489 v -14.66836 c 0,-2.23533 1.7996,-4.03489 4.0349,-4.03489 z" /><path
             style="fill:#ffffff;fill-opacity:1;stroke:#ffffff;stroke-width:1;stroke-linecap:round;stroke-linejoin:miter;stroke-miterlimit:29.8;stroke-dasharray:none;stroke-dashoffset:22.6772;stroke-opacity:1;paint-order:fill markers stroke"
             d="m 2377.9437,884.97618 v -2.29185 c -10.458,2.31574 -40.6262,-4.05179 -44.4335,-41.62721 8.5711,9.33696 27.8041,3.66236 41.8528,13.34861 9.8689,6.80443 11.0562,18.72128 5.9016,22.05964 -2.2431,-13.30431 -14.2881,-20.24102 -32.7567,-21.7289 20.7792,5.31474 31.4371,15.97123 31.7499,28.90573"
             id="path563"
             sodipodi:nodetypes="cccsccc" /><path
             style="fill:#ffffff;fill-opacity:1;stroke:#ffffff;stroke-width:1;stroke-linecap:round;stroke-linejoin:miter;stroke-miterlimit:29.8;stroke-dasharray:none;stroke-dashoffset:22.6772;stroke-opacity:1;paint-order:fill markers stroke"
             d="m 2388.4675,885.16327 c 7.8034,-13.74448 20.4847,-20.37535 40.9724,-15.6219 -16.9183,-7.72247 -29.9117,-5.34054 -38.5402,8.27867 1.6817,-29.46992 32.8579,-22.65083 44.5568,-12.16951 3.8316,3.43283 12.9977,1.15755 12.9977,1.15755 -13.7254,21.37515 -36.0812,28.34994 -55.5433,15.36178 l -2.1048,4.25626"
             id="path564"
             sodipodi:nodetypes="cccsccc" /></g></g><g
         id="g596"
         transform="translate(283.68323)"><g
           id="g584"
           transform="translate(312.73824,-11.641667)"
           style="fill:#7c7200;fill-opacity:1;stroke:#7c7200;stroke-opacity:1"><path
             sodipodi:type="star"
             style="display:inline;fill:#86b453;fill-opacity:1;stroke:#86b453;stroke-width:8;stroke-linecap:round;stroke-linejoin:miter;stroke-miterlimit:29.8;stroke-dasharray:none;stroke-dashoffset:21.9213;stroke-opacity:1;paint-order:fill markers stroke"
             id="path579"
             inkscape:flatsided="true"
             sodipodi:sides="6"
             sodipodi:cx="2183.8708"
             sodipodi:cy="711.20001"
             sodipodi:r1="104.42606"
             sodipodi:r2="66.092422"
             sodipodi:arg1="6.2931178e-09"
             sodipodi:arg2="0.52359879"
             inkscape:rounded="0"
             inkscape:randomized="0"
             d="m 2288.2969,711.20001 -52.213,90.43563 -104.4261,0 -52.213,-90.43563 52.213,-90.43562 104.4261,0 z"
             inkscape:transform-center-x="2.7513333e-05"
             inkscape:transform-center-y="-8.9599999e-06"
             transform="translate(17.177246,-25.337686)" /><path
             sodipodi:type="star"
             style="display:inline;fill:#a7c956;fill-opacity:1;stroke:none;stroke-width:8;stroke-linecap:round;stroke-linejoin:miter;stroke-miterlimit:29.8;stroke-dasharray:none;stroke-dashoffset:21.9213;stroke-opacity:1;paint-order:fill markers stroke"
             id="path580"
             inkscape:flatsided="false"
             sodipodi:sides="30"
             sodipodi:cx="2183.8708"
             sodipodi:cy="711.20001"
             sodipodi:r1="109.02294"
             sodipodi:r2="61.043736"
             sodipodi:arg1="0"
             sodipodi:arg2="0.10471976"
             inkscape:rounded="0"
             inkscape:randomized="0"
             d="m 2292.8938,711.20001 -48.3136,6.38081 45.9312,16.28634 -48.5845,-3.8036 41.5414,25.48008 -46.732,-13.82176 35.336,33.56021 -42.8371,-23.23585 27.5862,40.17361 -37.0699,-31.63442 18.6308,45.03122 -29.6827,-38.65041 8.8612,47.92075 -20.9982,-43.97719 -1.2957,48.71591 -11.3961,-47.38196 -11.396,47.38196 -1.2957,-48.71591 -20.9982,43.97719 8.8612,-47.92075 -29.6827,38.65041 18.6308,-45.03122 -37.0699,31.63442 27.5862,-40.17361 -42.8371,23.23585 35.336,-33.56021 -46.732,13.82176 41.5414,-25.48008 -48.5845,3.8036 45.9312,-16.28634 -48.3136,-6.38081 48.3136,-6.38081 -45.9312,-16.28633 48.5845,3.80359 -41.5414,-25.48007 46.732,13.82175 -35.336,-33.56021 42.8371,23.23585 -27.5862,-40.1736 37.0699,31.63441 -18.6308,-45.03121 29.6827,38.6504 -8.8612,-47.92075 20.9982,43.9772 1.2957,-48.71592 11.396,47.38197 11.3961,-47.38197 1.2957,48.71592 20.9982,-43.9772 -8.8612,47.92076 29.6827,-38.65041 -18.6308,45.03121 37.0699,-31.63441 -27.5862,40.1736 42.8371,-23.23585 -35.336,33.56021 46.732,-13.82175 -41.5414,25.48007 48.5845,-3.80359 -45.9312,16.28633 z"
             inkscape:transform-center-x="2.7513333e-05"
             inkscape:transform-center-y="-8.9599999e-06"
             transform="translate(17.177246,-25.337686)" /><path
             sodipodi:type="star"
             style="fill:none;stroke:#0c8a2d;stroke-width:2;stroke-linecap:round;stroke-linejoin:miter;stroke-miterlimit:29.8;stroke-dasharray:4, 6;stroke-dashoffset:6;stroke-opacity:1;paint-order:fill markers stroke"
             id="path581"
             inkscape:flatsided="true"
             sodipodi:sides="6"
             sodipodi:cx="2183.8708"
             sodipodi:cy="711.20001"
             sodipodi:r1="101.37034"
             sodipodi:r2="66.092422"
             sodipodi:arg1="6.293118e-09"
             sodipodi:arg2="0.52359879"
             inkscape:rounded="0"
             inkscape:randomized="0"
             d="m 2285.2412,711.20001 -50.6852,87.78929 -101.3703,0 -50.6852,-87.78929 50.6852,-87.78929 101.3703,0 z"
             inkscape:transform-center-x="2.7513333e-05"
             inkscape:transform-center-y="-8.9599999e-06"
             transform="translate(17.177246,-26.053936)" /><path
             sodipodi:type="star"
             style="fill:none;stroke:#ffffff;stroke-width:8;stroke-linecap:round;stroke-linejoin:miter;stroke-miterlimit:29.8;stroke-dasharray:none;stroke-dashoffset:21.9213;stroke-opacity:1;paint-order:fill markers stroke"
             id="path582"
             inkscape:flatsided="true"
             sodipodi:sides="6"
             sodipodi:cx="2183.8708"
             sodipodi:cy="711.20001"
             sodipodi:r1="113.64817"
             sodipodi:r2="66.092422"
             sodipodi:arg1="6.2931178e-09"
             sodipodi:arg2="0.52359879"
             inkscape:rounded="0"
             inkscape:randomized="0"
             d="m 2297.519,711.20001 -56.8241,98.42221 -113.6481,-10e-6 -56.8241,-98.4222 56.8241,-98.4222 113.6481,0 z"
             inkscape:transform-center-x="2.7513333e-05"
             inkscape:transform-center-y="-8.9599999e-06"
             transform="translate(17.177246,-25.337686)" /><path
             sodipodi:type="star"
             style="fill:none;stroke:#0c8a2d;stroke-width:8;stroke-linecap:round;stroke-linejoin:miter;stroke-miterlimit:29.8;stroke-dasharray:none;stroke-dashoffset:21.9213;stroke-opacity:1;paint-order:fill markers stroke"
             id="path583"
             inkscape:flatsided="true"
             sodipodi:sides="6"
             sodipodi:cx="2183.8708"
             sodipodi:cy="711.20001"
             sodipodi:r1="115.40091"
             sodipodi:r2="66.092422"
             sodipodi:arg1="6.2931178e-09"
             sodipodi:arg2="0.52359879"
             inkscape:rounded="0"
             inkscape:randomized="0"
             d="m 2299.2718,711.20001 -57.7005,99.94012 -115.4009,0 -57.7005,-99.94012 57.7005,-99.94012 115.4009,0 z"
             inkscape:transform-center-x="2.7513333e-05"
             inkscape:transform-center-y="-8.9599999e-06"
             transform="translate(17.177246,-25.337686)" /><path
             sodipodi:type="star"
             style="fill:none;stroke:#ffffff;stroke-width:8;stroke-linecap:round;stroke-linejoin:miter;stroke-miterlimit:29.8;stroke-dasharray:none;stroke-dashoffset:21.9213;stroke-opacity:1;paint-order:fill markers stroke"
             id="path584"
             inkscape:flatsided="true"
             sodipodi:sides="6"
             sodipodi:cx="2183.8708"
             sodipodi:cy="711.20001"
             sodipodi:r1="124.40124"
             sodipodi:r2="66.092422"
             sodipodi:arg1="6.2931178e-09"
             sodipodi:arg2="0.52359879"
             inkscape:rounded="0"
             inkscape:randomized="0"
             d="m 2308.2721,711.20001 -62.2006,107.73463 -124.4013,0 -62.2006,-107.73463 62.2006,-107.73463 124.4013,0 z"
             inkscape:transform-center-x="2.7513333e-05"
             inkscape:transform-center-y="-8.9599999e-06"
             transform="translate(17.177246,-25.337686)" /></g><g
           id="g590"
           transform="translate(130.45756,-225.66432)"
           style="fill:#000000;fill-opacity:0.5;stroke:none;stroke-opacity:0.5"><path
             style="fill:#000000;fill-opacity:0.5;stroke:#000000;stroke-width:9;stroke-linecap:round;stroke-linejoin:miter;stroke-miterlimit:29.8;stroke-dasharray:none;stroke-dashoffset:6.00001;stroke-opacity:0.5;paint-order:fill markers stroke"
             d="m 2332.3975,916.62292 50.2615,-30.49106 51.1108,30.12023"
             id="path586"
             sodipodi:nodetypes="ccc" /><path
             id="path588"
             style="display:inline;fill:#000000;fill-opacity:0.5;stroke:none;stroke-width:1;stroke-linecap:round;stroke-linejoin:miter;stroke-miterlimit:29.8;stroke-dasharray:none;stroke-dashoffset:22.6772;stroke-opacity:0.5;paint-order:fill markers stroke"
             d="m 2382.6592,886.13196 -46.2488,28.05668 v 52.82572 h 57.7634 v -23.43268 h 18.2412 v 23.43268 h 17.9684 v -52.82572 z m -29.2995,36.02106 h 10.6526 c 2.2353,0 4.0349,1.79956 4.0349,4.03489 v 14.66836 c 0,2.23532 -1.7996,4.03489 -4.0349,4.03489 h -10.6526 c -2.2353,0 -4.0349,-1.79957 -4.0349,-4.03489 v -14.66836 c 0,-2.23533 1.7996,-4.03489 4.0349,-4.03489 z" /><path
             style="fill:#000000;fill-opacity:0.5;stroke:none;stroke-width:1;stroke-linecap:round;stroke-linejoin:miter;stroke-miterlimit:29.8;stroke-dasharray:none;stroke-dashoffset:22.6772;stroke-opacity:0.5;paint-order:fill markers stroke"
             d="m 2377.9437,884.97618 v -2.29185 c -10.458,2.31574 -40.6262,-4.05179 -44.4335,-41.62721 8.5711,9.33696 27.8041,3.66236 41.8528,13.34861 9.8689,6.80443 11.0562,18.72128 5.9016,22.05964 -2.2431,-13.30431 -14.2881,-20.24102 -32.7567,-21.7289 20.7792,5.31474 31.4371,15.97123 31.7499,28.90573"
             id="path589"
             sodipodi:nodetypes="cccsccc" /><path
             style="fill:#000000;fill-opacity:0.5;stroke:none;stroke-width:1;stroke-linecap:round;stroke-linejoin:miter;stroke-miterlimit:29.8;stroke-dasharray:none;stroke-dashoffset:22.6772;stroke-opacity:0.5;paint-order:fill markers stroke"
             d="m 2388.4675,885.16327 c 7.8034,-13.74448 20.4847,-20.37535 40.9724,-15.6219 -16.9183,-7.72247 -29.9117,-5.34054 -38.5402,8.27867 1.6817,-29.46992 32.8579,-22.65083 44.5568,-12.16951 3.8316,3.43283 12.9977,1.15755 12.9977,1.15755 -13.7254,21.37515 -36.0812,28.34994 -55.5433,15.36178 l -2.1048,4.25626"
             id="path590"
             sodipodi:nodetypes="cccsccc" /></g><g
           id="g595"
           transform="translate(127.17696,-229.34183)"><path
             style="fill:#ffffff;fill-opacity:1;stroke:#ffffff;stroke-width:9;stroke-linecap:round;stroke-linejoin:miter;stroke-miterlimit:29.8;stroke-dasharray:none;stroke-dashoffset:6.00001;stroke-opacity:1;paint-order:fill markers stroke"
             d="m 2332.3975,916.62292 50.2615,-30.49106 51.1108,30.12023"
             id="path591"
             sodipodi:nodetypes="ccc" /><path
             id="path593"
             style="display:inline;fill:#ffffff;fill-opacity:1;stroke:#ffffff;stroke-width:1;stroke-linecap:round;stroke-linejoin:miter;stroke-miterlimit:29.8;stroke-dasharray:none;stroke-dashoffset:22.6772;stroke-opacity:1;paint-order:fill markers stroke"
             d="m 2382.6592,886.13196 -46.2488,28.05668 v 52.82572 h 57.7634 v -23.43268 h 18.2412 v 23.43268 h 17.9684 v -52.82572 z m -29.2995,36.02106 h 10.6526 c 2.2353,0 4.0349,1.79956 4.0349,4.03489 v 14.66836 c 0,2.23532 -1.7996,4.03489 -4.0349,4.03489 h -10.6526 c -2.2353,0 -4.0349,-1.79957 -4.0349,-4.03489 v -14.66836 c 0,-2.23533 1.7996,-4.03489 4.0349,-4.03489 z" /><path
             style="fill:#ffffff;fill-opacity:1;stroke:#ffffff;stroke-width:1;stroke-linecap:round;stroke-linejoin:miter;stroke-miterlimit:29.8;stroke-dasharray:none;stroke-dashoffset:22.6772;stroke-opacity:1;paint-order:fill markers stroke"
             d="m 2377.9437,884.97618 v -2.29185 c -10.458,2.31574 -40.6262,-4.05179 -44.4335,-41.62721 8.5711,9.33696 27.8041,3.66236 41.8528,13.34861 9.8689,6.80443 11.0562,18.72128 5.9016,22.05964 -2.2431,-13.30431 -14.2881,-20.24102 -32.7567,-21.7289 20.7792,5.31474 31.4371,15.97123 31.7499,28.90573"
             id="path594"
             sodipodi:nodetypes="cccsccc" /><path
             style="fill:#ffffff;fill-opacity:1;stroke:#ffffff;stroke-width:1;stroke-linecap:round;stroke-linejoin:miter;stroke-miterlimit:29.8;stroke-dasharray:none;stroke-dashoffset:22.6772;stroke-opacity:1;paint-order:fill markers stroke"
             d="m 2388.4675,885.16327 c 7.8034,-13.74448 20.4847,-20.37535 40.9724,-15.6219 -16.9183,-7.72247 -29.9117,-5.34054 -38.5402,8.27867 1.6817,-29.46992 32.8579,-22.65083 44.5568,-12.16951 3.8316,3.43283 12.9977,1.15755 12.9977,1.15755 -13.7254,21.37515 -36.0812,28.34994 -55.5433,15.36178 l -2.1048,4.25626"
             id="path595"
             sodipodi:nodetypes="cccsccc" /></g></g><g
         id="g614"
         transform="translate(578.11953)"><g
           id="g602"
           transform="translate(312.73824,-11.641667)"
           style="fill:#7c7200;fill-opacity:1;stroke:#7c7200;stroke-opacity:1"><path
             sodipodi:type="star"
             style="display:inline;fill:#236db0;fill-opacity:1;stroke:#236db0;stroke-width:8;stroke-linecap:round;stroke-linejoin:miter;stroke-miterlimit:29.8;stroke-dasharray:none;stroke-dashoffset:21.9213;stroke-opacity:1;paint-order:fill markers stroke"
             id="path596"
             inkscape:flatsided="true"
             sodipodi:sides="6"
             sodipodi:cx="2183.8708"
             sodipodi:cy="711.20001"
             sodipodi:r1="104.42606"
             sodipodi:r2="66.092422"
             sodipodi:arg1="6.2931178e-09"
             sodipodi:arg2="0.52359879"
             inkscape:rounded="0"
             inkscape:randomized="0"
             d="m 2288.2969,711.20001 -52.213,90.43563 -104.4261,0 -52.213,-90.43563 52.213,-90.43562 104.4261,0 z"
             inkscape:transform-center-x="2.7513333e-05"
             inkscape:transform-center-y="-8.9599999e-06"
             transform="translate(17.177246,-25.337686)" /><path
             sodipodi:type="star"
             style="display:inline;fill:#478fb1;fill-opacity:1;stroke:none;stroke-width:8;stroke-linecap:round;stroke-linejoin:miter;stroke-miterlimit:29.8;stroke-dasharray:none;stroke-dashoffset:21.9213;stroke-opacity:1;paint-order:fill markers stroke"
             id="path597"
             inkscape:flatsided="false"
             sodipodi:sides="30"
             sodipodi:cx="2183.8708"
             sodipodi:cy="711.20001"
             sodipodi:r1="109.02294"
             sodipodi:r2="61.043736"
             sodipodi:arg1="0"
             sodipodi:arg2="0.10471976"
             inkscape:rounded="0"
             inkscape:randomized="0"
             d="m 2292.8938,711.20001 -48.3136,6.38081 45.9312,16.28634 -48.5845,-3.8036 41.5414,25.48008 -46.732,-13.82176 35.336,33.56021 -42.8371,-23.23585 27.5862,40.17361 -37.0699,-31.63442 18.6308,45.03122 -29.6827,-38.65041 8.8612,47.92075 -20.9982,-43.97719 -1.2957,48.71591 -11.3961,-47.38196 -11.396,47.38196 -1.2957,-48.71591 -20.9982,43.97719 8.8612,-47.92075 -29.6827,38.65041 18.6308,-45.03122 -37.0699,31.63442 27.5862,-40.17361 -42.8371,23.23585 35.336,-33.56021 -46.732,13.82176 41.5414,-25.48008 -48.5845,3.8036 45.9312,-16.28634 -48.3136,-6.38081 48.3136,-6.38081 -45.9312,-16.28633 48.5845,3.80359 -41.5414,-25.48007 46.732,13.82175 -35.336,-33.56021 42.8371,23.23585 -27.5862,-40.1736 37.0699,31.63441 -18.6308,-45.03121 29.6827,38.6504 -8.8612,-47.92075 20.9982,43.9772 1.2957,-48.71592 11.396,47.38197 11.3961,-47.38197 1.2957,48.71592 20.9982,-43.9772 -8.8612,47.92076 29.6827,-38.65041 -18.6308,45.03121 37.0699,-31.63441 -27.5862,40.1736 42.8371,-23.23585 -35.336,33.56021 46.732,-13.82175 -41.5414,25.48007 48.5845,-3.80359 -45.9312,16.28633 z"
             inkscape:transform-center-x="2.7513333e-05"
             inkscape:transform-center-y="-8.9599999e-06"
             transform="translate(17.177246,-25.337686)" /><path
             sodipodi:type="star"
             style="fill:none;stroke:#0c8a2d;stroke-width:2;stroke-linecap:round;stroke-linejoin:miter;stroke-miterlimit:29.8;stroke-dasharray:4, 6;stroke-dashoffset:6;stroke-opacity:1;paint-order:fill markers stroke"
             id="path598"
             inkscape:flatsided="true"
             sodipodi:sides="6"
             sodipodi:cx="2183.8708"
             sodipodi:cy="711.20001"
             sodipodi:r1="101.37034"
             sodipodi:r2="66.092422"
             sodipodi:arg1="6.293118e-09"
             sodipodi:arg2="0.52359879"
             inkscape:rounded="0"
             inkscape:randomized="0"
             d="m 2285.2412,711.20001 -50.6852,87.78929 -101.3703,0 -50.6852,-87.78929 50.6852,-87.78929 101.3703,0 z"
             inkscape:transform-center-x="2.7513333e-05"
             inkscape:transform-center-y="-8.9599999e-06"
             transform="translate(17.177246,-26.053936)" /><path
             sodipodi:type="star"
             style="fill:none;stroke:#ffffff;stroke-width:8;stroke-linecap:round;stroke-linejoin:miter;stroke-miterlimit:29.8;stroke-dasharray:none;stroke-dashoffset:21.9213;stroke-opacity:1;paint-order:fill markers stroke"
             id="path599"
             inkscape:flatsided="true"
             sodipodi:sides="6"
             sodipodi:cx="2183.8708"
             sodipodi:cy="711.20001"
             sodipodi:r1="113.64817"
             sodipodi:r2="66.092422"
             sodipodi:arg1="6.2931178e-09"
             sodipodi:arg2="0.52359879"
             inkscape:rounded="0"
             inkscape:randomized="0"
             d="m 2297.519,711.20001 -56.8241,98.42221 -113.6481,-10e-6 -56.8241,-98.4222 56.8241,-98.4222 113.6481,0 z"
             inkscape:transform-center-x="2.7513333e-05"
             inkscape:transform-center-y="-8.9599999e-06"
             transform="translate(17.177246,-25.337686)" /><path
             sodipodi:type="star"
             style="fill:none;stroke:#0c8a2d;stroke-width:8;stroke-linecap:round;stroke-linejoin:miter;stroke-miterlimit:29.8;stroke-dasharray:none;stroke-dashoffset:21.9213;stroke-opacity:1;paint-order:fill markers stroke"
             id="path601"
             inkscape:flatsided="true"
             sodipodi:sides="6"
             sodipodi:cx="2183.8708"
             sodipodi:cy="711.20001"
             sodipodi:r1="115.40091"
             sodipodi:r2="66.092422"
             sodipodi:arg1="6.2931178e-09"
             sodipodi:arg2="0.52359879"
             inkscape:rounded="0"
             inkscape:randomized="0"
             d="m 2299.2718,711.20001 -57.7005,99.94012 -115.4009,0 -57.7005,-99.94012 57.7005,-99.94012 115.4009,0 z"
             inkscape:transform-center-x="2.7513333e-05"
             inkscape:transform-center-y="-8.9599999e-06"
             transform="translate(17.177246,-25.337686)" /><path
             sodipodi:type="star"
             style="fill:none;stroke:#ffffff;stroke-width:8;stroke-linecap:round;stroke-linejoin:miter;stroke-miterlimit:29.8;stroke-dasharray:none;stroke-dashoffset:21.9213;stroke-opacity:1;paint-order:fill markers stroke"
             id="path602"
             inkscape:flatsided="true"
             sodipodi:sides="6"
             sodipodi:cx="2183.8708"
             sodipodi:cy="711.20001"
             sodipodi:r1="124.40124"
             sodipodi:r2="66.092422"
             sodipodi:arg1="6.2931178e-09"
             sodipodi:arg2="0.52359879"
             inkscape:rounded="0"
             inkscape:randomized="0"
             d="m 2308.2721,711.20001 -62.2006,107.73463 -124.4013,0 -62.2006,-107.73463 62.2006,-107.73463 124.4013,0 z"
             inkscape:transform-center-x="2.7513333e-05"
             inkscape:transform-center-y="-8.9599999e-06"
             transform="translate(17.177246,-25.337686)" /></g><g
           id="g607"
           transform="translate(130.45756,-225.66432)"
           style="fill:#000000;fill-opacity:0.5;stroke:#7c7200;stroke-opacity:0"><path
             style="fill:#000000;fill-opacity:0.5;stroke:#000000;stroke-width:9;stroke-linecap:round;stroke-linejoin:miter;stroke-miterlimit:29.8;stroke-dasharray:none;stroke-dashoffset:6.00001;stroke-opacity:0.5;paint-order:fill markers stroke"
             d="m 2332.3975,916.62292 50.2615,-30.49106 51.1108,30.12023"
             id="path603"
             sodipodi:nodetypes="ccc" /><path
             id="path604"
             style="display:inline;fill:#000000;fill-opacity:0.5;stroke:#7c7200;stroke-width:1;stroke-linecap:round;stroke-linejoin:miter;stroke-miterlimit:29.8;stroke-dasharray:none;stroke-dashoffset:22.6772;stroke-opacity:0;paint-order:fill markers stroke"
             d="m 2382.6592,886.13196 -46.2488,28.05668 v 52.82572 h 57.7634 v -23.43268 h 18.2412 v 23.43268 h 17.9684 v -52.82572 z m -29.2995,36.02106 h 10.6526 c 2.2353,0 4.0349,1.79956 4.0349,4.03489 v 14.66836 c 0,2.23532 -1.7996,4.03489 -4.0349,4.03489 h -10.6526 c -2.2353,0 -4.0349,-1.79957 -4.0349,-4.03489 v -14.66836 c 0,-2.23533 1.7996,-4.03489 4.0349,-4.03489 z" /><path
             style="fill:#000000;fill-opacity:0.5;stroke:#7c7200;stroke-width:1;stroke-linecap:round;stroke-linejoin:miter;stroke-miterlimit:29.8;stroke-dasharray:none;stroke-dashoffset:22.6772;stroke-opacity:0;paint-order:fill markers stroke"
             d="m 2377.9437,884.97618 v -2.29185 c -10.458,2.31574 -40.6262,-4.05179 -44.4335,-41.62721 8.5711,9.33696 27.8041,3.66236 41.8528,13.34861 9.8689,6.80443 11.0562,18.72128 5.9016,22.05964 -2.2431,-13.30431 -14.2881,-20.24102 -32.7567,-21.7289 20.7792,5.31474 31.4371,15.97123 31.7499,28.90573"
             id="path606"
             sodipodi:nodetypes="cccsccc" /><path
             style="fill:#000000;fill-opacity:0.5;stroke:#7c7200;stroke-width:1;stroke-linecap:round;stroke-linejoin:miter;stroke-miterlimit:29.8;stroke-dasharray:none;stroke-dashoffset:22.6772;stroke-opacity:0;paint-order:fill markers stroke"
             d="m 2388.4675,885.16327 c 7.8034,-13.74448 20.4847,-20.37535 40.9724,-15.6219 -16.9183,-7.72247 -29.9117,-5.34054 -38.5402,8.27867 1.6817,-29.46992 32.8579,-22.65083 44.5568,-12.16951 3.8316,3.43283 12.9977,1.15755 12.9977,1.15755 -13.7254,21.37515 -36.0812,28.34994 -55.5433,15.36178 l -2.1048,4.25626"
             id="path607"
             sodipodi:nodetypes="cccsccc" /></g><g
           id="g613"
           transform="translate(127.17696,-229.34183)"><path
             style="fill:#ffffff;fill-opacity:1;stroke:#ffffff;stroke-width:9;stroke-linecap:round;stroke-linejoin:miter;stroke-miterlimit:29.8;stroke-dasharray:none;stroke-dashoffset:6.00001;stroke-opacity:1;paint-order:fill markers stroke"
             d="m 2332.3975,916.62292 50.2615,-30.49106 51.1108,30.12023"
             id="path608"
             sodipodi:nodetypes="ccc" /><path
             id="path609"
             style="display:inline;fill:#ffffff;fill-opacity:1;stroke:#ffffff;stroke-width:1;stroke-linecap:round;stroke-linejoin:miter;stroke-miterlimit:29.8;stroke-dasharray:none;stroke-dashoffset:22.6772;stroke-opacity:1;paint-order:fill markers stroke"
             d="m 2382.6592,886.13196 -46.2488,28.05668 v 52.82572 h 57.7634 v -23.43268 h 18.2412 v 23.43268 h 17.9684 v -52.82572 z m -29.2995,36.02106 h 10.6526 c 2.2353,0 4.0349,1.79956 4.0349,4.03489 v 14.66836 c 0,2.23532 -1.7996,4.03489 -4.0349,4.03489 h -10.6526 c -2.2353,0 -4.0349,-1.79957 -4.0349,-4.03489 v -14.66836 c 0,-2.23533 1.7996,-4.03489 4.0349,-4.03489 z" /><path
             style="fill:#ffffff;fill-opacity:1;stroke:#ffffff;stroke-width:1;stroke-linecap:round;stroke-linejoin:miter;stroke-miterlimit:29.8;stroke-dasharray:none;stroke-dashoffset:22.6772;stroke-opacity:1;paint-order:fill markers stroke"
             d="m 2377.9437,884.97618 v -2.29185 c -10.458,2.31574 -40.6262,-4.05179 -44.4335,-41.62721 8.5711,9.33696 27.8041,3.66236 41.8528,13.34861 9.8689,6.80443 11.0562,18.72128 5.9016,22.05964 -2.2431,-13.30431 -14.2881,-20.24102 -32.7567,-21.7289 20.7792,5.31474 31.4371,15.97123 31.7499,28.90573"
             id="path610"
             sodipodi:nodetypes="cccsccc" /><path
             style="fill:#ffffff;fill-opacity:1;stroke:#ffffff;stroke-width:1;stroke-linecap:round;stroke-linejoin:miter;stroke-miterlimit:29.8;stroke-dasharray:none;stroke-dashoffset:22.6772;stroke-opacity:1;paint-order:fill markers stroke"
             d="m 2388.4675,885.16327 c 7.8034,-13.74448 20.4847,-20.37535 40.9724,-15.6219 -16.9183,-7.72247 -29.9117,-5.34054 -38.5402,8.27867 1.6817,-29.46992 32.8579,-22.65083 44.5568,-12.16951 3.8316,3.43283 12.9977,1.15755 12.9977,1.15755 -13.7254,21.37515 -36.0812,28.34994 -55.5433,15.36178 l -2.1048,4.25626"
             id="path611"
             sodipodi:nodetypes="cccsccc" /></g></g><g
         id="g630"
         transform="translate(861.80276)"><g
           id="g620"
           transform="translate(312.73824,-11.641667)"
           style="fill:#7c7200;fill-opacity:1;stroke:#7c7200;stroke-opacity:1"><path
             sodipodi:type="star"
             style="display:inline;fill:#e9602b;fill-opacity:1;stroke:#e9602b;stroke-width:8;stroke-linecap:round;stroke-linejoin:miter;stroke-miterlimit:29.8;stroke-dasharray:none;stroke-dashoffset:21.9213;stroke-opacity:1;paint-order:fill markers stroke"
             id="path614"
             inkscape:flatsided="true"
             sodipodi:sides="6"
             sodipodi:cx="2183.8708"
             sodipodi:cy="711.20001"
             sodipodi:r1="104.42606"
             sodipodi:r2="66.092422"
             sodipodi:arg1="6.2931178e-09"
             sodipodi:arg2="0.52359879"
             inkscape:rounded="0"
             inkscape:randomized="0"
             d="m 2288.2969,711.20001 -52.213,90.43563 -104.4261,0 -52.213,-90.43563 52.213,-90.43562 104.4261,0 z"
             inkscape:transform-center-x="2.7513333e-05"
             inkscape:transform-center-y="-8.9599999e-06"
             transform="translate(17.177246,-25.337686)" /><path
             sodipodi:type="star"
             style="display:inline;fill:#f0832e;fill-opacity:1;stroke:none;stroke-width:8;stroke-linecap:round;stroke-linejoin:miter;stroke-miterlimit:29.8;stroke-dasharray:none;stroke-dashoffset:21.9213;stroke-opacity:1;paint-order:fill markers stroke"
             id="path615"
             inkscape:flatsided="false"
             sodipodi:sides="30"
             sodipodi:cx="2183.8708"
             sodipodi:cy="711.20001"
             sodipodi:r1="109.02294"
             sodipodi:r2="61.043736"
             sodipodi:arg1="0"
             sodipodi:arg2="0.10471976"
             inkscape:rounded="0"
             inkscape:randomized="0"
             d="m 2292.8938,711.20001 -48.3136,6.38081 45.9312,16.28634 -48.5845,-3.8036 41.5414,25.48008 -46.732,-13.82176 35.336,33.56021 -42.8371,-23.23585 27.5862,40.17361 -37.0699,-31.63442 18.6308,45.03122 -29.6827,-38.65041 8.8612,47.92075 -20.9982,-43.97719 -1.2957,48.71591 -11.3961,-47.38196 -11.396,47.38196 -1.2957,-48.71591 -20.9982,43.97719 8.8612,-47.92075 -29.6827,38.65041 18.6308,-45.03122 -37.0699,31.63442 27.5862,-40.17361 -42.8371,23.23585 35.336,-33.56021 -46.732,13.82176 41.5414,-25.48008 -48.5845,3.8036 45.9312,-16.28634 -48.3136,-6.38081 48.3136,-6.38081 -45.9312,-16.28633 48.5845,3.80359 -41.5414,-25.48007 46.732,13.82175 -35.336,-33.56021 42.8371,23.23585 -27.5862,-40.1736 37.0699,31.63441 -18.6308,-45.03121 29.6827,38.6504 -8.8612,-47.92075 20.9982,43.9772 1.2957,-48.71592 11.396,47.38197 11.3961,-47.38197 1.2957,48.71592 20.9982,-43.9772 -8.8612,47.92076 29.6827,-38.65041 -18.6308,45.03121 37.0699,-31.63441 -27.5862,40.1736 42.8371,-23.23585 -35.336,33.56021 46.732,-13.82175 -41.5414,25.48007 48.5845,-3.80359 -45.9312,16.28633 z"
             inkscape:transform-center-x="2.7513333e-05"
             inkscape:transform-center-y="-8.9599999e-06"
             transform="translate(17.177246,-25.337686)" /><path
             sodipodi:type="star"
             style="fill:none;stroke:#0c8a2d;stroke-width:2;stroke-linecap:round;stroke-linejoin:miter;stroke-miterlimit:29.8;stroke-dasharray:4, 6;stroke-dashoffset:6;stroke-opacity:1;paint-order:fill markers stroke"
             id="path616"
             inkscape:flatsided="true"
             sodipodi:sides="6"
             sodipodi:cx="2183.8708"
             sodipodi:cy="711.20001"
             sodipodi:r1="101.37034"
             sodipodi:r2="66.092422"
             sodipodi:arg1="6.293118e-09"
             sodipodi:arg2="0.52359879"
             inkscape:rounded="0"
             inkscape:randomized="0"
             d="m 2285.2412,711.20001 -50.6852,87.78929 -101.3703,0 -50.6852,-87.78929 50.6852,-87.78929 101.3703,0 z"
             inkscape:transform-center-x="2.7513333e-05"
             inkscape:transform-center-y="-8.9599999e-06"
             transform="translate(17.177246,-26.053936)" /><path
             sodipodi:type="star"
             style="fill:none;stroke:#ffffff;stroke-width:8;stroke-linecap:round;stroke-linejoin:miter;stroke-miterlimit:29.8;stroke-dasharray:none;stroke-dashoffset:21.9213;stroke-opacity:1;paint-order:fill markers stroke"
             id="path617"
             inkscape:flatsided="true"
             sodipodi:sides="6"
             sodipodi:cx="2183.8708"
             sodipodi:cy="711.20001"
             sodipodi:r1="113.64817"
             sodipodi:r2="66.092422"
             sodipodi:arg1="6.2931178e-09"
             sodipodi:arg2="0.52359879"
             inkscape:rounded="0"
             inkscape:randomized="0"
             d="m 2297.519,711.20001 -56.8241,98.42221 -113.6481,-10e-6 -56.8241,-98.4222 56.8241,-98.4222 113.6481,0 z"
             inkscape:transform-center-x="2.7513333e-05"
             inkscape:transform-center-y="-8.9599999e-06"
             transform="translate(17.177246,-25.337686)" /><path
             sodipodi:type="star"
             style="fill:none;stroke:#0c8a2d;stroke-width:8;stroke-linecap:round;stroke-linejoin:miter;stroke-miterlimit:29.8;stroke-dasharray:none;stroke-dashoffset:21.9213;stroke-opacity:1;paint-order:fill markers stroke"
             id="path619"
             inkscape:flatsided="true"
             sodipodi:sides="6"
             sodipodi:cx="2183.8708"
             sodipodi:cy="711.20001"
             sodipodi:r1="115.40091"
             sodipodi:r2="66.092422"
             sodipodi:arg1="6.2931178e-09"
             sodipodi:arg2="0.52359879"
             inkscape:rounded="0"
             inkscape:randomized="0"
             d="m 2299.2718,711.20001 -57.7005,99.94012 -115.4009,0 -57.7005,-99.94012 57.7005,-99.94012 115.4009,0 z"
             inkscape:transform-center-x="2.7513333e-05"
             inkscape:transform-center-y="-8.9599999e-06"
             transform="translate(17.177246,-25.337686)" /><path
             sodipodi:type="star"
             style="fill:none;stroke:#ffffff;stroke-width:8;stroke-linecap:round;stroke-linejoin:miter;stroke-miterlimit:29.8;stroke-dasharray:none;stroke-dashoffset:21.9213;stroke-opacity:1;paint-order:fill markers stroke"
             id="path620"
             inkscape:flatsided="true"
             sodipodi:sides="6"
             sodipodi:cx="2183.8708"
             sodipodi:cy="711.20001"
             sodipodi:r1="124.40124"
             sodipodi:r2="66.092422"
             sodipodi:arg1="6.2931178e-09"
             sodipodi:arg2="0.52359879"
             inkscape:rounded="0"
             inkscape:randomized="0"
             d="m 2308.2721,711.20001 -62.2006,107.73463 -124.4013,0 -62.2006,-107.73463 62.2006,-107.73463 124.4013,0 z"
             inkscape:transform-center-x="2.7513333e-05"
             inkscape:transform-center-y="-8.9599999e-06"
             transform="translate(17.177246,-25.337686)" /></g><g
           id="g625"
           transform="translate(130.45756,-225.66432)"
           style="fill:#000000;fill-opacity:0.5;stroke:none;stroke-opacity:0.5"><path
             style="fill:#000000;fill-opacity:0.5;stroke:#000000;stroke-width:9;stroke-linecap:round;stroke-linejoin:miter;stroke-miterlimit:29.8;stroke-dasharray:none;stroke-dashoffset:6.00001;stroke-opacity:0.5;paint-order:fill markers stroke"
             d="m 2332.3975,916.62292 50.2615,-30.49106 51.1108,30.12023"
             id="path621"
             sodipodi:nodetypes="ccc" /><path
             id="path622"
             style="display:inline;fill:#000000;fill-opacity:0.5;stroke:none;stroke-width:1;stroke-linecap:round;stroke-linejoin:miter;stroke-miterlimit:29.8;stroke-dasharray:none;stroke-dashoffset:22.6772;stroke-opacity:0.5;paint-order:fill markers stroke"
             d="m 2382.6592,886.13196 -46.2488,28.05668 v 52.82572 h 57.7634 v -23.43268 h 18.2412 v 23.43268 h 17.9684 v -52.82572 z m -29.2995,36.02106 h 10.6526 c 2.2353,0 4.0349,1.79956 4.0349,4.03489 v 14.66836 c 0,2.23532 -1.7996,4.03489 -4.0349,4.03489 h -10.6526 c -2.2353,0 -4.0349,-1.79957 -4.0349,-4.03489 v -14.66836 c 0,-2.23533 1.7996,-4.03489 4.0349,-4.03489 z" /><path
             style="fill:#000000;fill-opacity:0.5;stroke:none;stroke-width:1;stroke-linecap:round;stroke-linejoin:miter;stroke-miterlimit:29.8;stroke-dasharray:none;stroke-dashoffset:22.6772;stroke-opacity:0.5;paint-order:fill markers stroke"
             d="m 2377.9437,884.97618 v -2.29185 c -10.458,2.31574 -40.6262,-4.05179 -44.4335,-41.62721 8.5711,9.33696 27.8041,3.66236 41.8528,13.34861 9.8689,6.80443 11.0562,18.72128 5.9016,22.05964 -2.2431,-13.30431 -14.2881,-20.24102 -32.7567,-21.7289 20.7792,5.31474 31.4371,15.97123 31.7499,28.90573"
             id="path623"
             sodipodi:nodetypes="cccsccc" /><path
             style="fill:#000000;fill-opacity:0.5;stroke:none;stroke-width:1;stroke-linecap:round;stroke-linejoin:miter;stroke-miterlimit:29.8;stroke-dasharray:none;stroke-dashoffset:22.6772;stroke-opacity:0.5;paint-order:fill markers stroke"
             d="m 2388.4675,885.16327 c 7.8034,-13.74448 20.4847,-20.37535 40.9724,-15.6219 -16.9183,-7.72247 -29.9117,-5.34054 -38.5402,8.27867 1.6817,-29.46992 32.8579,-22.65083 44.5568,-12.16951 3.8316,3.43283 12.9977,1.15755 12.9977,1.15755 -13.7254,21.37515 -36.0812,28.34994 -55.5433,15.36178 l -2.1048,4.25626"
             id="path624"
             sodipodi:nodetypes="cccsccc" /></g><g
           id="g629"
           transform="translate(127.17696,-229.34183)"><path
             style="fill:#ffffff;fill-opacity:1;stroke:#ffffff;stroke-width:9;stroke-linecap:round;stroke-linejoin:miter;stroke-miterlimit:29.8;stroke-dasharray:none;stroke-dashoffset:6.00001;stroke-opacity:1;paint-order:fill markers stroke"
             d="m 2332.3975,916.62292 50.2615,-30.49106 51.1108,30.12023"
             id="path625"
             sodipodi:nodetypes="ccc" /><path
             id="path626"
             style="display:inline;fill:#ffffff;fill-opacity:1;stroke:#ffffff;stroke-width:1;stroke-linecap:round;stroke-linejoin:miter;stroke-miterlimit:29.8;stroke-dasharray:none;stroke-dashoffset:22.6772;stroke-opacity:1;paint-order:fill markers stroke"
             d="m 2382.6592,886.13196 -46.2488,28.05668 v 52.82572 h 57.7634 v -23.43268 h 18.2412 v 23.43268 h 17.9684 v -52.82572 z m -29.2995,36.02106 h 10.6526 c 2.2353,0 4.0349,1.79956 4.0349,4.03489 v 14.66836 c 0,2.23532 -1.7996,4.03489 -4.0349,4.03489 h -10.6526 c -2.2353,0 -4.0349,-1.79957 -4.0349,-4.03489 v -14.66836 c 0,-2.23533 1.7996,-4.03489 4.0349,-4.03489 z" /><path
             style="fill:#ffffff;fill-opacity:1;stroke:#ffffff;stroke-width:1;stroke-linecap:round;stroke-linejoin:miter;stroke-miterlimit:29.8;stroke-dasharray:none;stroke-dashoffset:22.6772;stroke-opacity:1;paint-order:fill markers stroke"
             d="m 2377.9437,884.97618 v -2.29185 c -10.458,2.31574 -40.6262,-4.05179 -44.4335,-41.62721 8.5711,9.33696 27.8041,3.66236 41.8528,13.34861 9.8689,6.80443 11.0562,18.72128 5.9016,22.05964 -2.2431,-13.30431 -14.2881,-20.24102 -32.7567,-21.7289 20.7792,5.31474 31.4371,15.97123 31.7499,28.90573"
             id="path627"
             sodipodi:nodetypes="cccsccc" /><path
             style="fill:#ffffff;fill-opacity:1;stroke:#ffffff;stroke-width:1;stroke-linecap:round;stroke-linejoin:miter;stroke-miterlimit:29.8;stroke-dasharray:none;stroke-dashoffset:22.6772;stroke-opacity:1;paint-order:fill markers stroke"
             d="m 2388.4675,885.16327 c 7.8034,-13.74448 20.4847,-20.37535 40.9724,-15.6219 -16.9183,-7.72247 -29.9117,-5.34054 -38.5402,8.27867 1.6817,-29.46992 32.8579,-22.65083 44.5568,-12.16951 3.8316,3.43283 12.9977,1.15755 12.9977,1.15755 -13.7254,21.37515 -36.0812,28.34994 -55.5433,15.36178 l -2.1048,4.25626"
             id="path628"
             sodipodi:nodetypes="cccsccc" /></g></g></g></g></svg>
