<?xml version="1.0" encoding="UTF-8" standalone="no"?>
<!-- Created with Inkscape (http://www.inkscape.org/) -->

<svg
   width="121.00001mm"
   height="121mm"
   viewBox="0 0 121.00001 121"
   version="1.1"
   id="svg1"
   xml:space="preserve"
   inkscape:version="1.3.2 (091e20e, 2023-11-25, custom)"
   sodipodi:docname="Especialidades.svg"
   xmlns:inkscape="http://www.inkscape.org/namespaces/inkscape"
   xmlns:sodipodi="http://sodipodi.sourceforge.net/DTD/sodipodi-0.dtd"
   xmlns="http://www.w3.org/2000/svg"
   xmlns:svg="http://www.w3.org/2000/svg"><sodipodi:namedview
     id="namedview1"
     pagecolor="#ffffff"
     bordercolor="#000000"
     borderopacity="0.25"
     inkscape:showpageshadow="2"
     inkscape:pageopacity="0.0"
     inkscape:pagecheckerboard="0"
     inkscape:deskcolor="#d1d1d1"
     inkscape:document-units="mm"
     inkscape:zoom="0.70710678"
     inkscape:cx="1984.8487"
     inkscape:cy="1511.0872"
     inkscape:window-width="1554"
     inkscape:window-height="981"
     inkscape:window-x="134"
     inkscape:window-y="0"
     inkscape:window-maximized="0"
     inkscape:current-layer="layer1" /><defs
     id="defs1" /><g
     inkscape:label="Capa 1"
     inkscape:groupmode="layer"
     id="layer1"
     transform="translate(-338.09271,31.283783)"><g
       id="g262"
       transform="translate(281.69487,-59.842377)"
       inkscape:export-filename="Antropologia.svg"
       inkscape:export-xdpi="96"
       inkscape:export-ydpi="96"><circle
         style="display:inline;fill:#f9a86f;fill-opacity:1;stroke:#ffffff;stroke-width:1;stroke-linecap:square;stroke-linejoin:round;stroke-opacity:1"
         id="circle242"
         cx="116.89785"
         cy="89.058594"
         r="60" /><circle
         style="display:inline;fill:#ffffff;fill-opacity:1;stroke:#ffffff;stroke-width:1;stroke-linecap:square;stroke-linejoin:round;stroke-opacity:1"
         id="circle243"
         cx="116.89785"
         cy="89.058594"
         r="54.053749" /><path
         id="path244"
         style="display:inline;fill:#f9a86f;fill-opacity:1;stroke:none;stroke-width:1;stroke-linecap:square;stroke-linejoin:round;stroke-opacity:1"
         d="m 117.29465,40.168607 c -22.742213,0.05319 -42.265283,16.19718 -46.588372,38.524781 h 14.346928 c 4.051515,-14.458577 17.225954,-24.457386 32.241444,-24.469825 15.02202,0.0046 28.20574,10.004971 32.25902,24.469825 h 14.43529 C 159.65824,56.326703 140.07674,40.17114 117.29465,40.168607 Z M 69.953353,90.892126 c 1.658666,24.943744 22.342535,44.347224 47.341297,44.410724 24.99876,-0.0635 45.68263,-19.46697 47.3413,-44.410724 H 150.58099 C 148.95574,108.0715 134.55069,121.20832 117.29465,121.24789 100.03861,121.20829 85.633554,108.0715 84.008309,90.892126 Z"
         sodipodi:nodetypes="cccccccccccccc" /><g
         id="g261"
         transform="translate(0.396875,-1.3229167)"><text
           xml:space="preserve"
           style="font-weight:bold;font-size:14.1111px;line-height:1.2;font-family:Arial;-inkscape-font-specification:'Arial Bold';text-align:center;text-anchor:middle;fill:#ffffff;fill-opacity:1;stroke:#ffffff;stroke-width:1;stroke-linecap:square;stroke-linejoin:round;stroke-dasharray:none;stroke-opacity:1"
           x="84.139343"
           y="38.668396"
           id="text250"
           transform="rotate(49.651447,-3.8973156,78.581555)"><tspan
             sodipodi:role="line"
             id="tspan250"
             style="font-size:14.1111px;fill:#ffffff;fill-opacity:1;stroke:#ffffff;stroke-width:1;stroke-dasharray:none;stroke-opacity:1"
             x="84.139343"
             y="38.668396">D</tspan></text><text
           xml:space="preserve"
           style="font-weight:bold;font-size:14.1111px;line-height:1.2;font-family:Arial;-inkscape-font-specification:'Arial Bold';text-align:center;text-anchor:middle;fill:#ffffff;fill-opacity:1;stroke:#ffffff;stroke-width:1;stroke-linecap:square;stroke-linejoin:round;stroke-dasharray:none;stroke-opacity:1"
           x="81.138748"
           y="63.438328"
           id="text251"
           transform="rotate(32.416911,-23.506148,115.98634)"><tspan
             sodipodi:role="line"
             id="tspan251"
             style="font-size:14.1111px;fill:#ffffff;fill-opacity:1;stroke:#ffffff;stroke-width:1;stroke-dasharray:none;stroke-opacity:1"
             x="81.138748"
             y="63.438328">E</tspan></text><text
           xml:space="preserve"
           style="font-weight:bold;font-size:14.1111px;line-height:1.2;font-family:Arial;-inkscape-font-specification:'Arial Bold';text-align:center;text-anchor:middle;fill:#ffffff;fill-opacity:1;stroke:#ffffff;stroke-width:1;stroke-linecap:square;stroke-linejoin:round;stroke-dasharray:none;stroke-opacity:1"
           x="74.167931"
           y="83.492027"
           id="text252"
           transform="rotate(17.580526,-69.929297,204.5407)"><tspan
             sodipodi:role="line"
             id="tspan252"
             style="font-size:14.1111px;fill:#ffffff;fill-opacity:1;stroke:#ffffff;stroke-width:1;stroke-dasharray:none;stroke-opacity:1"
             x="74.167931"
             y="83.492027">L</tspan></text><text
           xml:space="preserve"
           style="font-weight:bold;font-size:14.1111px;line-height:1.2;font-family:Arial;-inkscape-font-specification:'Arial Bold';text-align:center;text-anchor:middle;fill:#ffffff;fill-opacity:1;stroke:#ffffff;stroke-width:1;stroke-linecap:square;stroke-linejoin:round;stroke-dasharray:none;stroke-opacity:1"
           x="58.342377"
           y="105.44102"
           id="text253"
           transform="rotate(-1.2470186,1438.6142,-2673.0762)"><tspan
             sodipodi:role="line"
             id="tspan253"
             style="font-size:14.1111px;fill:#ffffff;fill-opacity:1;stroke:#ffffff;stroke-width:1;stroke-dasharray:none;stroke-opacity:1"
             x="58.342377"
             y="105.44102">P</tspan></text><text
           xml:space="preserve"
           style="font-weight:bold;font-size:14.1111px;line-height:1.2;font-family:Arial;-inkscape-font-specification:'Arial Bold';text-align:center;text-anchor:middle;fill:#ffffff;fill-opacity:1;stroke:#ffffff;stroke-width:1;stroke-linecap:square;stroke-linejoin:round;stroke-dasharray:none;stroke-opacity:1"
           x="36.925251"
           y="119.13938"
           id="text254"
           transform="rotate(-18.271503,124.63216,-166.59454)"><tspan
             sodipodi:role="line"
             id="tspan254"
             style="font-size:14.1111px;fill:#ffffff;fill-opacity:1;stroke:#ffffff;stroke-width:1;stroke-dasharray:none;stroke-opacity:1"
             x="36.925251"
             y="119.13938">E</tspan></text><text
           xml:space="preserve"
           style="font-weight:bold;font-size:14.1111px;line-height:1.2;font-family:Arial;-inkscape-font-specification:'Arial Bold';text-align:center;text-anchor:middle;fill:#ffffff;fill-opacity:1;stroke:#ffffff;stroke-width:1;stroke-linecap:square;stroke-linejoin:round;stroke-dasharray:none;stroke-opacity:1"
           x="14.023943"
           y="126.68509"
           id="text255"
           transform="rotate(-35.071346,77.79661,-77.253487)"><tspan
             sodipodi:role="line"
             id="tspan255"
             style="font-size:14.1111px;fill:#ffffff;fill-opacity:1;stroke:#ffffff;stroke-width:1;stroke-dasharray:none;stroke-opacity:1"
             x="14.023943"
             y="126.68509">R</tspan></text><path
           id="path255"
           style="font-weight:bold;font-size:15.875px;line-height:1.2;font-family:Arial;-inkscape-font-specification:'Arial Bold';text-align:center;text-anchor:middle;fill:#ffffff;fill-opacity:1;stroke:#ffffff;stroke-width:1;stroke-linecap:square;stroke-linejoin:round;stroke-dasharray:none;stroke-opacity:1"
           d="m 89.378044,76.781959 -1.413349,1.807643 0.55695,0.43366 0.875404,-2.228284 z m 1.104679,0.896174 -0.875396,2.22829 1.890529,1.373317 c 0.708292,0.55389 1.194388,0.976469 1.458307,1.268138 0.263919,0.291668 0.399781,0.650875 0.407727,1.076937 0.0039,0.422877 -0.194729,0.89062 -0.59583,1.403531 -0.394734,0.50477 -0.816539,0.817767 -1.265557,0.93896 -0.449907,0.113938 -0.888314,0.06601 -1.315165,-0.143144 -0.26298,-0.13349 -0.778855,-0.500604 -1.548227,-1.102259 l -3.429292,-2.609007 -1.413862,1.807129 3.356422,2.551641 c 1.0014,0.783103 1.804448,1.316339 2.409674,1.599388 0.409679,0.18917 0.873581,0.279457 1.391644,0.271299 0.513997,-0.01134 1.042684,-0.158695 1.585955,-0.442346 0.542373,-0.290913 1.147924,-0.863908 1.816425,-1.71876 0.553901,-0.708305 0.913284,-1.351957 1.07797,-1.931665 0.16062,-0.582886 0.189941,-1.124394 0.08836,-1.623675 -0.09838,-0.503346 -0.331357,-0.976938 -0.698664,-1.421618 -0.367307,-0.44468 -1.087986,-1.087645 -2.162661,-1.92805 z"
           sodipodi:nodetypes="ccccccccscscccccccccsccscc"
           transform="translate(58.514518,30.675262)" /><text
           xml:space="preserve"
           style="font-style:italic;font-variant:normal;font-weight:bold;font-stretch:normal;font-size:14.1111px;line-height:1.2;font-family:Arial;-inkscape-font-specification:'Arial Bold Italic';text-align:center;text-anchor:middle;fill:#ffffff;fill-opacity:1;stroke:#ffffff;stroke-width:1;stroke-linecap:square;stroke-linejoin:round;stroke-dasharray:none;stroke-opacity:1"
           x="3.0038822"
           y="46.686371"
           id="text256"
           transform="rotate(-44.498689,66.748647,-56.178969)"><tspan
             sodipodi:role="line"
             id="tspan256"
             style="font-style:italic;font-variant:normal;font-weight:bold;font-stretch:normal;font-family:Arial;-inkscape-font-specification:'Arial Bold Italic';stroke-width:1"
             x="3.0038824"
             y="46.686371">S</tspan></text><text
           xml:space="preserve"
           style="font-weight:bold;font-size:14.1111px;line-height:1.2;font-family:Arial;-inkscape-font-specification:'Arial Bold';text-align:center;text-anchor:middle;fill:#ffffff;fill-opacity:1;stroke:#ffffff;stroke-width:1;stroke-linecap:square;stroke-linejoin:round;stroke-dasharray:none;stroke-opacity:1"
           x="22.793133"
           y="45.594044"
           id="text257"
           transform="rotate(-33.043386,80.964335,-83.296072)"><tspan
             sodipodi:role="line"
             id="tspan257"
             style="stroke-width:1"
             x="22.793133"
             y="45.594044">C</tspan></text><text
           xml:space="preserve"
           style="font-weight:bold;font-size:14.1111px;line-height:1.2;font-family:Arial;-inkscape-font-specification:'Arial Bold';text-align:center;text-anchor:middle;fill:#ffffff;fill-opacity:1;stroke:#ffffff;stroke-width:1;stroke-linecap:square;stroke-linejoin:round;stroke-dasharray:none;stroke-opacity:1"
           x="95.420288"
           y="81.118217"
           id="text258"
           transform="rotate(-15.019919)"><tspan
             sodipodi:role="line"
             id="tspan258"
             style="stroke-width:1"
             x="95.420288"
             y="81.118217">O</tspan></text><text
           xml:space="preserve"
           style="font-weight:bold;font-size:14.1111px;line-height:1.2;font-family:Arial;-inkscape-font-specification:'Arial Bold';text-align:center;text-anchor:middle;fill:#ffffff;fill-opacity:1;stroke:#ffffff;stroke-width:1;stroke-linecap:square;stroke-linejoin:round;stroke-dasharray:none;stroke-opacity:1"
           x="131.35493"
           y="26.227385"
           id="text259"
           transform="rotate(12.642406)"><tspan
             sodipodi:role="line"
             id="tspan259"
             style="stroke-width:1"
             x="131.35493"
             y="26.227385">U</tspan></text><text
           xml:space="preserve"
           style="font-weight:bold;font-size:14.1111px;line-height:1.2;font-family:Arial;-inkscape-font-specification:'Arial Bold';text-align:center;text-anchor:middle;fill:#ffffff;fill-opacity:1;stroke:#ffffff;stroke-width:1;stroke-linecap:square;stroke-linejoin:round;stroke-dasharray:none;stroke-opacity:1"
           x="143.29329"
           y="-3.814055"
           id="text260"
           transform="rotate(24.880191)"><tspan
             sodipodi:role="line"
             id="tspan260"
             style="stroke-width:1"
             x="143.29329"
             y="-3.814055">T</tspan></text><text
           xml:space="preserve"
           style="font-style:italic;font-variant:normal;font-weight:bold;font-stretch:normal;font-size:14.1111px;line-height:1.2;font-family:Arial;-inkscape-font-specification:'Arial Bold Italic';text-align:center;text-anchor:middle;fill:#ffffff;fill-opacity:1;stroke:#ffffff;stroke-width:1;stroke-linecap:square;stroke-linejoin:round;stroke-dasharray:none;stroke-opacity:1"
           x="153.21227"
           y="-5.6454854"
           id="text261"
           transform="rotate(26.053437)"><tspan
             sodipodi:role="line"
             id="tspan261"
             style="font-style:italic;font-variant:normal;font-weight:bold;font-stretch:normal;font-family:Arial;-inkscape-font-specification:'Arial Bold Italic';stroke-width:1"
             x="153.21227"
             y="-5.6454854">S</tspan></text></g></g><g
       id="g107"><g
         id="g178"
         transform="translate(84.162668,563.94822)"
         inkscape:export-filename="Área de ciencia y tecnologia.svg"
         inkscape:export-xdpi="96"
         inkscape:export-ydpi="96"><circle
           style="display:inline;fill:#f9a86f;fill-opacity:1;stroke:#ffffff;stroke-width:1;stroke-linecap:square;stroke-linejoin:round;stroke-opacity:1"
           id="circle95"
           cx="116.89785"
           cy="89.058594"
           r="60" /><circle
           style="display:inline;fill:#ffffff;fill-opacity:1;stroke:#ffffff;stroke-width:1;stroke-linecap:square;stroke-linejoin:round;stroke-opacity:1"
           id="circle96"
           cx="116.89785"
           cy="89.058594"
           r="54.053749" /><path
           id="path97"
           style="display:inline;fill:#f9a86f;fill-opacity:1;stroke:none;stroke-width:1;stroke-linecap:square;stroke-linejoin:round;stroke-opacity:1"
           d="m 117.29465,40.168607 c -22.742213,0.05319 -42.265283,16.19718 -46.588372,38.524781 h 14.346928 c 4.051515,-14.458577 17.225954,-24.457386 32.241444,-24.469825 15.02202,0.0046 28.20574,10.004971 32.25902,24.469825 h 14.43529 C 159.65824,56.326703 140.07674,40.17114 117.29465,40.168607 Z M 69.953353,90.892126 c 1.658666,24.943744 22.342535,44.347224 47.341297,44.410724 24.99876,-0.0635 45.68263,-19.46697 47.3413,-44.410724 H 150.58099 C 148.95574,108.0715 134.55069,121.20832 117.29465,121.24789 100.03861,121.20829 85.633554,108.0715 84.008309,90.892126 Z"
           sodipodi:nodetypes="cccccccccccccc" /></g><g
         id="g324"
         transform="translate(213.8085,563.94822)"
         inkscape:export-filename="Área de Deportes.svg"
         inkscape:export-xdpi="96"
         inkscape:export-ydpi="96"><circle
           style="display:inline;fill:#006fb4;fill-opacity:1;stroke:#ffffff;stroke-width:1;stroke-linecap:square;stroke-linejoin:round;stroke-opacity:1"
           id="circle227"
           cx="116.89785"
           cy="89.058594"
           r="60" /><circle
           style="display:inline;fill:#ffffff;fill-opacity:1;stroke:#ffffff;stroke-width:1;stroke-linecap:square;stroke-linejoin:round;stroke-opacity:1"
           id="circle228"
           cx="116.89785"
           cy="89.058594"
           r="54.053749" /><path
           id="path232"
           style="display:inline;fill:#006fb4;fill-opacity:1;stroke:none;stroke-width:1;stroke-linecap:square;stroke-linejoin:round;stroke-opacity:1"
           d="m 117.29465,40.168607 c -22.742213,0.05319 -42.265283,16.19718 -46.588372,38.524781 h 14.346928 c 4.051515,-14.458577 17.225954,-24.457386 32.241444,-24.469825 15.02202,0.0046 28.20574,10.004971 32.25902,24.469825 h 14.43529 C 159.65824,56.326703 140.07674,40.17114 117.29465,40.168607 Z M 69.953353,90.892126 c 1.658666,24.943744 22.342535,44.347224 47.341297,44.410724 24.99876,-0.0635 45.68263,-19.46697 47.3413,-44.410724 H 150.58099 C 148.95574,108.0715 134.55069,121.20832 117.29465,121.24789 100.03861,121.20829 85.633554,108.0715 84.008309,90.892126 Z"
           sodipodi:nodetypes="cccccccccccccc" /></g><g
         id="g356"
         transform="translate(341.33767,563.94822)"
         inkscape:export-filename="Área de Espiritualidad, Arte, Expresión y Cultura.svg"
         inkscape:export-xdpi="96"
         inkscape:export-ydpi="96"><circle
           style="display:inline;fill:#d2ab66;fill-opacity:1;stroke:#ffffff;stroke-width:1;stroke-linecap:square;stroke-linejoin:round;stroke-opacity:1"
           id="circle355"
           cx="116.89785"
           cy="89.058594"
           r="60" /><circle
           style="display:inline;fill:#ffffff;fill-opacity:1;stroke:#ffffff;stroke-width:1;stroke-linecap:square;stroke-linejoin:round;stroke-opacity:1"
           id="circle356"
           cx="116.89785"
           cy="89.058594"
           r="54.053749" /><path
           id="path356"
           style="display:inline;fill:#d2ab66;fill-opacity:1;stroke:none;stroke-width:1;stroke-linecap:square;stroke-linejoin:round;stroke-opacity:1"
           d="m 117.29465,40.168607 c -22.742213,0.05319 -42.265283,16.19718 -46.588372,38.524781 h 14.346928 c 4.051515,-14.458577 17.225954,-24.457386 32.241444,-24.469825 15.02202,0.0046 28.20574,10.004971 32.25902,24.469825 h 14.43529 C 159.65824,56.326703 140.07674,40.17114 117.29465,40.168607 Z M 69.953353,90.892126 c 1.658666,24.943744 22.342535,44.347224 47.341297,44.410724 24.99876,-0.0635 45.68263,-19.46697 47.3413,-44.410724 H 150.58099 C 148.95574,108.0715 134.55069,121.20832 117.29465,121.24789 100.03861,121.20829 85.633554,108.0715 84.008309,90.892126 Z"
           sodipodi:nodetypes="cccccccccccccc" /></g><g
         id="g358"
         transform="translate(465.93872,563.94822)"
         inkscape:export-filename="Área de Vida en la Naturaleza.svg"
         inkscape:export-xdpi="96"
         inkscape:export-ydpi="96"><circle
           style="display:inline;fill:#148a4b;fill-opacity:1;stroke:#ffffff;stroke-width:1;stroke-linecap:square;stroke-linejoin:round;stroke-opacity:1"
           id="circle357"
           cx="116.89785"
           cy="89.058594"
           r="60" /><circle
           style="display:inline;fill:#ffffff;fill-opacity:1;stroke:#ffffff;stroke-width:1;stroke-linecap:square;stroke-linejoin:round;stroke-opacity:1"
           id="circle358"
           cx="116.89785"
           cy="89.058594"
           r="54.053749" /><path
           id="path358"
           style="display:inline;fill:#148a4b;fill-opacity:1;stroke:none;stroke-width:1;stroke-linecap:square;stroke-linejoin:round;stroke-opacity:1"
           d="m 117.29465,40.168607 c -22.742213,0.05319 -42.265283,16.19718 -46.588372,38.524781 h 14.346928 c 4.051515,-14.458577 17.225954,-24.457386 32.241444,-24.469825 15.02202,0.0046 28.20574,10.004971 32.25902,24.469825 h 14.43529 C 159.65824,56.326703 140.07674,40.17114 117.29465,40.168607 Z M 69.953353,90.892126 c 1.658666,24.943744 22.342535,44.347224 47.341297,44.410724 24.99876,-0.0635 45.68263,-19.46697 47.3413,-44.410724 H 150.58099 C 148.95574,108.0715 134.55069,121.20832 117.29465,121.24789 100.03861,121.20829 85.633554,108.0715 84.008309,90.892126 Z"
           sodipodi:nodetypes="cccccccccccccc" /></g><g
         id="g360"
         transform="translate(599.28872,563.94822)"
         inkscape:export-filename="Área de Servicios a los Demás.svg"
         inkscape:export-xdpi="96"
         inkscape:export-ydpi="96"><circle
           style="display:inline;fill:#e9252a;fill-opacity:1;stroke:#ffffff;stroke-width:1;stroke-linecap:square;stroke-linejoin:round;stroke-opacity:1"
           id="circle359"
           cx="116.89785"
           cy="89.058594"
           r="60" /><circle
           style="display:inline;fill:#ffffff;fill-opacity:1;stroke:#ffffff;stroke-width:1;stroke-linecap:square;stroke-linejoin:round;stroke-opacity:1"
           id="circle360"
           cx="116.89785"
           cy="89.058594"
           r="54.053749" /><path
           id="path360"
           style="display:inline;fill:#e9252a;fill-opacity:1;stroke:none;stroke-width:1;stroke-linecap:square;stroke-linejoin:round;stroke-opacity:1"
           d="m 117.29465,40.168607 c -22.742213,0.05319 -42.265283,16.19718 -46.588372,38.524781 h 14.346928 c 4.051515,-14.458577 17.225954,-24.457386 32.241444,-24.469825 15.02202,0.0046 28.20574,10.004971 32.25902,24.469825 h 14.43529 C 159.65824,56.326703 140.07674,40.17114 117.29465,40.168607 Z M 69.953353,90.892126 c 1.658666,24.943744 22.342535,44.347224 47.341297,44.410724 24.99876,-0.0635 45.68263,-19.46697 47.3413,-44.410724 H 150.58099 C 148.95574,108.0715 134.55069,121.20832 117.29465,121.24789 100.03861,121.20829 85.633554,108.0715 84.008309,90.892126 Z"
           sodipodi:nodetypes="cccccccccccccc" /></g><g
         id="g362"
         transform="translate(744.46953,563.94822)"
         inkscape:export-filename="Especialidades Institucionales.svg"
         inkscape:export-xdpi="96"
         inkscape:export-ydpi="96"
         inkscape:label="g362"><circle
           style="display:inline;fill:#693692;fill-opacity:1;stroke:#ffffff;stroke-width:1;stroke-linecap:square;stroke-linejoin:round;stroke-opacity:1"
           id="circle361"
           cx="116.89785"
           cy="89.058594"
           r="60" /><circle
           style="display:inline;fill:#ffffff;fill-opacity:1;stroke:#ffffff;stroke-width:1;stroke-linecap:square;stroke-linejoin:round;stroke-opacity:1"
           id="circle362"
           cx="116.89785"
           cy="89.058594"
           r="54.053749" /><path
           id="path362"
           style="display:inline;fill:#693692;fill-opacity:1;stroke:none;stroke-width:1;stroke-linecap:square;stroke-linejoin:round;stroke-opacity:1"
           d="m 117.29465,40.168607 c -22.742213,0.05319 -42.265283,16.19718 -46.588372,38.524781 h 14.346928 c 4.051515,-14.458577 17.225954,-24.457386 32.241444,-24.469825 15.02202,0.0046 28.20574,10.004971 32.25902,24.469825 h 14.43529 C 159.65824,56.326703 140.07674,40.17114 117.29465,40.168607 Z M 69.953353,90.892126 c 1.658666,24.943744 22.342535,44.347224 47.341297,44.410724 24.99876,-0.0635 45.68263,-19.46697 47.3413,-44.410724 H 150.58099 C 148.95574,108.0715 134.55069,121.20832 117.29465,121.24789 100.03861,121.20829 85.633554,108.0715 84.008309,90.892126 Z"
           sodipodi:nodetypes="cccccccccccccc" /></g><path
         style="fill:#e6e7e9;fill-opacity:1;stroke:#99a4b7;stroke-width:1;stroke-linecap:round;stroke-linejoin:round;stroke-dasharray:none;stroke-opacity:1"
         d="m 388.00047,48.086185 h 1.8715 v -1.868312 h 1.40193 v -1.969378 h 1.25728 V 42.49052 h 1.32404 v -1.769102 h 1.40193 v -1.802482 h 1.50208 v -1.691217 h 1.32404 v -1.780228 h 1.29066 v -1.846988 h 1.32405 v -1.813607 h 1.35742 v -1.824734 h 1.53545 v -1.680091 h 1.65784 v -1.858114 h 1.8715 v -1.868311 h 1.40193 v -1.969378 h 1.25728 v -1.757975 h 1.32405 V 19.05919 h 1.40192 v -1.802481 h 1.50208 v -1.691217 h 1.32404 v -1.780229 h 1.29067 v -1.846987 h 1.32404 v -1.813607 h 1.35742 V 8.2999343 h 1.53545 V 6.619843 h 1.65784 L 417.76023,3.8851176 384.93932,29.042484"
         id="path161"
         sodipodi:nodetypes="cccccccccccccccccccccccccccccccccccccccccccccccc" /><path
         style="fill:#834b37;fill-opacity:1;stroke:#77402d;stroke-width:1;stroke-linecap:round;stroke-linejoin:round;stroke-dasharray:none;stroke-opacity:1"
         d="m 384.3755,28.393336 c 0,0 3.47592,3.682688 2.57278,5.698967 -0.28108,0.627512 -1.58331,0.754361 -1.58331,0.754361 0,0 3.12996,2.036584 3.86166,3.649468 0.40174,0.88555 0.44357,2.001251 0.11127,2.915125 -0.39662,1.090721 -2.33655,2.58133 -2.33655,2.58133 0,0 1.81886,2.760978 0.99914,4.0936 -0.53718,0.873281 -3.15767,1.447362 -3.15767,1.447362 v 3.026389 h -5.20718 v -2.247539 c 0,0 1.82268,0.475844 2.0252,-0.289525 0.34617,-1.308313 -4.70414,-2.839876 -5.79142,-5.238401 -0.33076,-0.729636 -0.15028,-2.371838 -0.15028,-2.371838 h -3.80524 c 0,0 2.32421,-2.138034 2.2698,-3.538205 -0.0253,-0.650783 -1.1794,-1.5577 -1.1794,-1.5577 h 2.7371 v -2.803859 z"
         id="path107"
         sodipodi:nodetypes="cscsscsccccssccscccc" /><path
         style="fill:#ffffff;fill-opacity:1;stroke:#77402d;stroke-width:1;stroke-linecap:round;stroke-linejoin:round;stroke-dasharray:none;stroke-opacity:1"
         d="m 378.73977,39.147165 c 0,0 -2.32806,1.438561 0.29896,4.862159 3.03621,3.956866 4.60173,1.596368 4.60173,1.596368 -2.24146,-1.655473 -4.03977,-3.673528 -4.90069,-6.458527 z"
         id="path110"
         sodipodi:nodetypes="cscc" /><circle
         style="fill:#ffffff;fill-opacity:1;stroke:#77402d;stroke-width:1;stroke-linecap:round;stroke-linejoin:round;stroke-dasharray:none;stroke-opacity:1"
         id="path116"
         cx="384.3179"
         cy="37.006218"
         r="1.1894283" /><circle
         style="fill:#ffffff;fill-opacity:1;stroke:#77402d;stroke-width:1;stroke-linecap:round;stroke-linejoin:round;stroke-dasharray:none;stroke-opacity:1"
         id="circle116"
         cx="386.63095"
         cy="40.656773"
         r="1.1894283" /></g></g></svg>
