<?xml version="1.0" encoding="UTF-8" standalone="no"?>
<!-- Created with Inkscape (http://www.inkscape.org/) -->

<svg
   width="121.00001mm"
   height="121.00001mm"
   viewBox="0 0 121.00001 121.00001"
   version="1.1"
   id="svg1"
   xml:space="preserve"
   inkscape:version="1.3.2 (091e20e, 2023-11-25, custom)"
   sodipodi:docname="Especialidades.svg"
   xmlns:inkscape="http://www.inkscape.org/namespaces/inkscape"
   xmlns:sodipodi="http://sodipodi.sourceforge.net/DTD/sodipodi-0.dtd"
   xmlns="http://www.w3.org/2000/svg"
   xmlns:svg="http://www.w3.org/2000/svg"><sodipodi:namedview
     id="namedview1"
     pagecolor="#ffffff"
     bordercolor="#000000"
     borderopacity="0.25"
     inkscape:showpageshadow="2"
     inkscape:pageopacity="0.0"
     inkscape:pagecheckerboard="0"
     inkscape:deskcolor="#d1d1d1"
     inkscape:document-units="mm"
     inkscape:zoom="0.35355339"
     inkscape:cx="1456.64"
     inkscape:cy="1028.1333"
     inkscape:window-width="1920"
     inkscape:window-height="991"
     inkscape:window-x="-9"
     inkscape:window-y="-9"
     inkscape:window-maximized="1"
     inkscape:current-layer="layer1" /><defs
     id="defs1" /><g
     inkscape:label="Capa 1"
     inkscape:groupmode="layer"
     id="layer1"
     transform="translate(-335.67765,-338.06621)"><g
       id="g312"
       transform="translate(279.27979,309.50763)"
       inkscape:export-filename="Arqueologia.svg"
       inkscape:export-xdpi="96"
       inkscape:export-ydpi="96"
       inkscape:label="Cosina de Campamento"><circle
         style="display:inline;fill:#f9a86f;fill-opacity:1;stroke:#ffffff;stroke-width:1;stroke-linecap:square;stroke-linejoin:round;stroke-opacity:1"
         id="circle299"
         cx="116.89785"
         cy="89.058594"
         r="60" /><circle
         style="display:inline;fill:#ffffff;fill-opacity:1;stroke:#ffffff;stroke-width:1;stroke-linecap:square;stroke-linejoin:round;stroke-opacity:1"
         id="circle300"
         cx="116.89785"
         cy="89.058594"
         r="54.053749" /><path
         id="path300"
         style="display:inline;fill:#f9a86f;fill-opacity:1;stroke:none;stroke-width:1;stroke-linecap:square;stroke-linejoin:round;stroke-opacity:1"
         d="m 117.29465,40.168607 c -22.742213,0.05319 -42.265283,16.19718 -46.588372,38.524781 h 14.346928 c 4.051515,-14.458577 17.225954,-24.457386 32.241444,-24.469825 15.02202,0.0046 28.20574,10.004971 32.25902,24.469825 h 14.43529 C 159.65824,56.326703 140.07674,40.17114 117.29465,40.168607 Z M 69.953353,90.892126 c 1.658666,24.943744 22.342535,44.347224 47.341297,44.410724 24.99876,-0.0635 45.68263,-19.46697 47.3413,-44.410724 H 150.58099 C 148.95574,108.0715 134.55069,121.20832 117.29465,121.24789 100.03861,121.20829 85.633554,108.0715 84.008309,90.892126 Z"
         sodipodi:nodetypes="cccccccccccccc" /><g
         id="g311"
         transform="translate(0.396875,-1.3229167)"><text
           xml:space="preserve"
           style="font-weight:bold;font-size:14.1111px;line-height:1.2;font-family:Arial;-inkscape-font-specification:'Arial Bold';text-align:center;text-anchor:middle;fill:#ffffff;fill-opacity:1;stroke:#ffffff;stroke-width:1;stroke-linecap:square;stroke-linejoin:round;stroke-dasharray:none;stroke-opacity:1"
           x="84.139343"
           y="38.668396"
           id="text300"
           transform="rotate(49.651447,-3.8973156,78.581555)"><tspan
             sodipodi:role="line"
             id="tspan300"
             style="font-size:14.1111px;fill:#ffffff;fill-opacity:1;stroke:#ffffff;stroke-width:1;stroke-dasharray:none;stroke-opacity:1"
             x="84.139343"
             y="38.668396">D</tspan></text><text
           xml:space="preserve"
           style="font-weight:bold;font-size:14.1111px;line-height:1.2;font-family:Arial;-inkscape-font-specification:'Arial Bold';text-align:center;text-anchor:middle;fill:#ffffff;fill-opacity:1;stroke:#ffffff;stroke-width:1;stroke-linecap:square;stroke-linejoin:round;stroke-dasharray:none;stroke-opacity:1"
           x="81.138748"
           y="63.438328"
           id="text301"
           transform="rotate(32.416911,-23.506148,115.98634)"><tspan
             sodipodi:role="line"
             id="tspan301"
             style="font-size:14.1111px;fill:#ffffff;fill-opacity:1;stroke:#ffffff;stroke-width:1;stroke-dasharray:none;stroke-opacity:1"
             x="81.138748"
             y="63.438328">E</tspan></text><text
           xml:space="preserve"
           style="font-weight:bold;font-size:14.1111px;line-height:1.2;font-family:Arial;-inkscape-font-specification:'Arial Bold';text-align:center;text-anchor:middle;fill:#ffffff;fill-opacity:1;stroke:#ffffff;stroke-width:1;stroke-linecap:square;stroke-linejoin:round;stroke-dasharray:none;stroke-opacity:1"
           x="74.167931"
           y="83.492027"
           id="text302"
           transform="rotate(17.580526,-69.929297,204.5407)"><tspan
             sodipodi:role="line"
             id="tspan302"
             style="font-size:14.1111px;fill:#ffffff;fill-opacity:1;stroke:#ffffff;stroke-width:1;stroke-dasharray:none;stroke-opacity:1"
             x="74.167931"
             y="83.492027">L</tspan></text><text
           xml:space="preserve"
           style="font-weight:bold;font-size:14.1111px;line-height:1.2;font-family:Arial;-inkscape-font-specification:'Arial Bold';text-align:center;text-anchor:middle;fill:#ffffff;fill-opacity:1;stroke:#ffffff;stroke-width:1;stroke-linecap:square;stroke-linejoin:round;stroke-dasharray:none;stroke-opacity:1"
           x="58.342377"
           y="105.44102"
           id="text303"
           transform="rotate(-1.2470186,1438.6142,-2673.0762)"><tspan
             sodipodi:role="line"
             id="tspan303"
             style="font-size:14.1111px;fill:#ffffff;fill-opacity:1;stroke:#ffffff;stroke-width:1;stroke-dasharray:none;stroke-opacity:1"
             x="58.342377"
             y="105.44102">P</tspan></text><text
           xml:space="preserve"
           style="font-weight:bold;font-size:14.1111px;line-height:1.2;font-family:Arial;-inkscape-font-specification:'Arial Bold';text-align:center;text-anchor:middle;fill:#ffffff;fill-opacity:1;stroke:#ffffff;stroke-width:1;stroke-linecap:square;stroke-linejoin:round;stroke-dasharray:none;stroke-opacity:1"
           x="36.925251"
           y="119.13938"
           id="text304"
           transform="rotate(-18.271503,124.63216,-166.59454)"><tspan
             sodipodi:role="line"
             id="tspan304"
             style="font-size:14.1111px;fill:#ffffff;fill-opacity:1;stroke:#ffffff;stroke-width:1;stroke-dasharray:none;stroke-opacity:1"
             x="36.925251"
             y="119.13938">E</tspan></text><text
           xml:space="preserve"
           style="font-weight:bold;font-size:14.1111px;line-height:1.2;font-family:Arial;-inkscape-font-specification:'Arial Bold';text-align:center;text-anchor:middle;fill:#ffffff;fill-opacity:1;stroke:#ffffff;stroke-width:1;stroke-linecap:square;stroke-linejoin:round;stroke-dasharray:none;stroke-opacity:1"
           x="14.023943"
           y="126.68509"
           id="text305"
           transform="rotate(-35.071346,77.79661,-77.253487)"><tspan
             sodipodi:role="line"
             id="tspan305"
             style="font-size:14.1111px;fill:#ffffff;fill-opacity:1;stroke:#ffffff;stroke-width:1;stroke-dasharray:none;stroke-opacity:1"
             x="14.023943"
             y="126.68509">R</tspan></text><path
           id="path305"
           style="font-weight:bold;font-size:15.875px;line-height:1.2;font-family:Arial;-inkscape-font-specification:'Arial Bold';text-align:center;text-anchor:middle;fill:#ffffff;fill-opacity:1;stroke:#ffffff;stroke-width:1;stroke-linecap:square;stroke-linejoin:round;stroke-dasharray:none;stroke-opacity:1"
           d="m 89.378044,76.781959 -1.413349,1.807643 0.55695,0.43366 0.875404,-2.228284 z m 1.104679,0.896174 -0.875396,2.22829 1.890529,1.373317 c 0.708292,0.55389 1.194388,0.976469 1.458307,1.268138 0.263919,0.291668 0.399781,0.650875 0.407727,1.076937 0.0039,0.422877 -0.194729,0.89062 -0.59583,1.403531 -0.394734,0.50477 -0.816539,0.817767 -1.265557,0.93896 -0.449907,0.113938 -0.888314,0.06601 -1.315165,-0.143144 -0.26298,-0.13349 -0.778855,-0.500604 -1.548227,-1.102259 l -3.429292,-2.609007 -1.413862,1.807129 3.356422,2.551641 c 1.0014,0.783103 1.804448,1.316339 2.409674,1.599388 0.409679,0.18917 0.873581,0.279457 1.391644,0.271299 0.513997,-0.01134 1.042684,-0.158695 1.585955,-0.442346 0.542373,-0.290913 1.147924,-0.863908 1.816425,-1.71876 0.553901,-0.708305 0.913284,-1.351957 1.07797,-1.931665 0.16062,-0.582886 0.189941,-1.124394 0.08836,-1.623675 -0.09838,-0.503346 -0.331357,-0.976938 -0.698664,-1.421618 -0.367307,-0.44468 -1.087986,-1.087645 -2.162661,-1.92805 z"
           sodipodi:nodetypes="ccccccccscscccccccccsccscc"
           transform="translate(58.514518,30.675262)" /><text
           xml:space="preserve"
           style="font-style:italic;font-variant:normal;font-weight:bold;font-stretch:normal;font-size:14.1111px;line-height:1.2;font-family:Arial;-inkscape-font-specification:'Arial Bold Italic';text-align:center;text-anchor:middle;fill:#ffffff;fill-opacity:1;stroke:#ffffff;stroke-width:1;stroke-linecap:square;stroke-linejoin:round;stroke-dasharray:none;stroke-opacity:1"
           x="3.0038822"
           y="46.686371"
           id="text306"
           transform="rotate(-44.498689,66.748647,-56.178969)"><tspan
             sodipodi:role="line"
             id="tspan306"
             style="font-style:italic;font-variant:normal;font-weight:bold;font-stretch:normal;font-family:Arial;-inkscape-font-specification:'Arial Bold Italic';stroke-width:1"
             x="3.0038824"
             y="46.686371">S</tspan></text><text
           xml:space="preserve"
           style="font-weight:bold;font-size:14.1111px;line-height:1.2;font-family:Arial;-inkscape-font-specification:'Arial Bold';text-align:center;text-anchor:middle;fill:#ffffff;fill-opacity:1;stroke:#ffffff;stroke-width:1;stroke-linecap:square;stroke-linejoin:round;stroke-dasharray:none;stroke-opacity:1"
           x="22.793133"
           y="45.594044"
           id="text307"
           transform="rotate(-33.043386,80.964335,-83.296072)"><tspan
             sodipodi:role="line"
             id="tspan307"
             style="stroke-width:1"
             x="22.793133"
             y="45.594044">C</tspan></text><text
           xml:space="preserve"
           style="font-weight:bold;font-size:14.1111px;line-height:1.2;font-family:Arial;-inkscape-font-specification:'Arial Bold';text-align:center;text-anchor:middle;fill:#ffffff;fill-opacity:1;stroke:#ffffff;stroke-width:1;stroke-linecap:square;stroke-linejoin:round;stroke-dasharray:none;stroke-opacity:1"
           x="95.420288"
           y="81.118217"
           id="text308"
           transform="rotate(-15.019919)"><tspan
             sodipodi:role="line"
             id="tspan308"
             style="stroke-width:1"
             x="95.420288"
             y="81.118217">O</tspan></text><text
           xml:space="preserve"
           style="font-weight:bold;font-size:14.1111px;line-height:1.2;font-family:Arial;-inkscape-font-specification:'Arial Bold';text-align:center;text-anchor:middle;fill:#ffffff;fill-opacity:1;stroke:#ffffff;stroke-width:1;stroke-linecap:square;stroke-linejoin:round;stroke-dasharray:none;stroke-opacity:1"
           x="131.35493"
           y="26.227385"
           id="text309"
           transform="rotate(12.642406)"><tspan
             sodipodi:role="line"
             id="tspan309"
             style="stroke-width:1"
             x="131.35493"
             y="26.227385">U</tspan></text><text
           xml:space="preserve"
           style="font-weight:bold;font-size:14.1111px;line-height:1.2;font-family:Arial;-inkscape-font-specification:'Arial Bold';text-align:center;text-anchor:middle;fill:#ffffff;fill-opacity:1;stroke:#ffffff;stroke-width:1;stroke-linecap:square;stroke-linejoin:round;stroke-dasharray:none;stroke-opacity:1"
           x="143.29329"
           y="-3.814055"
           id="text310"
           transform="rotate(24.880191)"><tspan
             sodipodi:role="line"
             id="tspan310"
             style="stroke-width:1"
             x="143.29329"
             y="-3.814055">T</tspan></text><text
           xml:space="preserve"
           style="font-style:italic;font-variant:normal;font-weight:bold;font-stretch:normal;font-size:14.1111px;line-height:1.2;font-family:Arial;-inkscape-font-specification:'Arial Bold Italic';text-align:center;text-anchor:middle;fill:#ffffff;fill-opacity:1;stroke:#ffffff;stroke-width:1;stroke-linecap:square;stroke-linejoin:round;stroke-dasharray:none;stroke-opacity:1"
           x="153.21227"
           y="-5.6454854"
           id="text311"
           transform="rotate(26.053437)"><tspan
             sodipodi:role="line"
             id="tspan311"
             style="font-style:italic;font-variant:normal;font-weight:bold;font-stretch:normal;font-family:Arial;-inkscape-font-specification:'Arial Bold Italic';stroke-width:1"
             x="153.21227"
             y="-5.6454854">S</tspan></text></g><g
         id="g792"
         style="display:inline"
         transform="translate(-279.27979,-309.50763)"><path
           style="fill:#e1e2e4;fill-opacity:1;stroke:#575655;stroke-width:1;stroke-linecap:round;stroke-linejoin:round"
           d="m 398.99077,416.64122 c -0.83088,-0.50572 -1.966,0.0559 -2.91474,-0.13933 -1.0402,-0.21313 -2.59653,-0.46774 -3.66726,-0.27911 -0.65982,0.10897 -1.1747,0.64978 -1.34757,1.28211 -0.14749,0.35337 -0.16158,0.73104 0.0512,1.06143 0.4158,0.96771 1.87778,1.51929 2.90828,1.64769 1.57006,0.20884 3.17006,-0.31109 4.4748,-1.16991 0.45577,-0.32073 1.14887,-0.62537 1.22582,-1.14177 0.077,-0.5164 -0.31555,-1.00853 -0.73053,-1.26111 z"
           id="path747"
           sodipodi:nodetypes="accccccza" /><path
           style="fill:#e1e2e4;fill-opacity:1;stroke:#575655;stroke-width:1;stroke-linecap:round;stroke-linejoin:round"
           d="m 405.04766,414.1666 c -2.40382,-1.50429 -8.26465,3.69136 -3.20399,4.69207 2.38116,0.68831 6.77519,-2.99081 3.20399,-4.69207 z"
           id="path748"
           sodipodi:nodetypes="ccc" /><path
           style="fill:#e1e2e4;fill-opacity:1;stroke:#575655;stroke-width:1;stroke-linecap:round;stroke-linejoin:round"
           d="m 412.02605,413.90202 c -1.18512,-4.10188 -9.42727,-1.30331 -6.12348,2.39375 1.93574,1.88885 6.87617,0.92075 6.12348,-2.39375 z"
           id="path754" /><path
           style="fill:#e1e2e4;fill-opacity:1;stroke:#575655;stroke-width:1;stroke-linecap:round;stroke-linejoin:round"
           d="m 415.43256,410.36322 c -2.63865,-2.62571 -7.1818,3.14863 -2.98466,4.08715 2.08993,1.009 6.12608,-2.6621 2.98466,-4.08715 z"
           id="path755" /><path
           style="fill:#e1e2e4;fill-opacity:1;stroke:#575655;stroke-width:1;stroke-linecap:round;stroke-linejoin:round"
           d="m 417.0879,408.11426 c -2.21657,-2.78051 -5.82338,2.74894 -2.06571,3.41097 2.18398,0.96358 4.68428,-2.01217 2.06571,-3.41097 z"
           id="path756" /><path
           style="fill:#e1e2e4;fill-opacity:1;stroke:#575655;stroke-width:1;stroke-linecap:round;stroke-linejoin:round"
           d="m 415.16797,406.62598 c -0.9392,-2.61684 -6.44721,-2.23287 -5.70382,0.93114 1.06727,1.9888 5.38226,2.2806 5.9785,-0.15771 l -0.0717,-0.38309 z"
           id="path757" /><path
           style="fill:#e1e2e4;fill-opacity:1;stroke:#575655;stroke-width:1;stroke-linecap:round;stroke-linejoin:round"
           d="m 412.05713,404.89719 c -1.05709,-3.86809 -8.87255,-1.27071 -5.48237,2.10863 1.87807,1.23118 4.92897,0.0791 5.48237,-2.10863 z"
           id="path758" /><path
           style="fill:#e1e2e4;fill-opacity:1;stroke:#575655;stroke-width:1;stroke-linecap:round;stroke-linejoin:round"
           d="m 406.89506,404.17858 c -0.97043,-2.34962 -5.02948,-2.9116 -6.29252,-0.55677 0.27634,2.54267 3.78681,2.1132 5.61909,2.08311 0.60821,-0.21573 0.94254,-0.92598 0.67343,-1.52634 z"
           id="path759" /><path
           style="fill:#e1e2e4;fill-opacity:1;stroke:#575655;stroke-width:1;stroke-linecap:round;stroke-linejoin:round"
           d="m 400.60253,403.62179 c -0.91626,-4.75813 -9.36078,0.73493 -3.41634,1.84794 1.33927,0.2863 3.84343,0.1911 3.41634,-1.84794 z"
           id="path760" /><path
           style="fill:#e1e2e4;fill-opacity:1;stroke:#575655;stroke-width:1;stroke-linecap:round;stroke-linejoin:round"
           d="m 391.0612,417.50488 c -1.3844,-2.60506 -5.7805,-3.66612 -7.6645,-1.07558 -1.4982,3.11071 2.83835,4.6918 5.20102,3.54002 1.15186,-0.35828 2.20414,-1.24463 2.46348,-2.46444 z"
           id="path761" /><path
           style="fill:#e1e2e4;fill-opacity:1;stroke:#575655;stroke-width:1;stroke-linecap:round;stroke-linejoin:round"
           d="m 383.3967,416.42929 c -1.37855,-2.17069 -3.98731,-4.12897 -6.67751,-3.32277 -1.86052,0.61907 -1.70051,3.73638 0.39634,3.83278 1.52737,0.19839 2.8799,1.45959 4.44347,1.12049 1.10831,-0.076 0.92035,-1.69537 1.8377,-1.6305 z"
           id="path762" /><path
           style="fill:#e1e2e4;fill-opacity:1;stroke:#575655;stroke-width:1;stroke-linecap:round;stroke-linejoin:round"
           d="m 376.86954,412.51296 c -0.88841,-1.30105 -2.46987,-1.94696 -3.99422,-2.08953 -1.25286,-0.11399 -2.62292,0.1675 -3.52995,1.09423 -0.49574,0.46262 -0.43209,1.21784 -0.26865,1.81578 0.33789,1.08759 1.32236,1.84054 2.36161,2.20963 1.27207,0.47461 2.76209,0.51721 3.99051,-0.10853 1.00923,-0.56447 1.61654,-1.77504 1.4407,-2.92158 z"
           id="path763" /><path
           style="fill:#e1e2e4;fill-opacity:1;stroke:#575655;stroke-width:1;stroke-linecap:round;stroke-linejoin:round"
           d="m 373.26459,407.28744 c -1.09385,-0.61432 -2.44653,-0.45038 -3.55217,0.0422 -1.0886,0.49301 -2.10164,1.32741 -2.51134,2.48171 -0.29794,0.80999 -0.0614,1.74191 0.512,2.37004 0.1766,0.24376 0.42881,0.3983 0.71352,0.48556 0.8571,0.34588 1.89282,0.35262 2.67429,-0.18558 1.02893,-0.69763 1.56478,-1.90074 1.87587,-3.06475 0.17913,-0.69498 0.27775,-1.41141 0.28783,-2.12916 z"
           id="path764" /><path
           style="fill:#e1e2e4;fill-opacity:1;stroke:#575655;stroke-width:1;stroke-linecap:round;stroke-linejoin:round"
           d="m 379.15157,406.38727 c -0.53866,-1.19906 -1.81495,-1.88868 -3.06986,-2.07822 -1.32137,-0.2024 -2.8058,0.0549 -3.79267,1.01304 -0.3254,0.24958 -0.45145,0.62847 -0.36679,1.02606 0.0647,0.80457 0.66081,1.47647 1.38561,1.78264 1.11227,0.4791 2.42053,0.46202 3.54035,0.0156 0.85986,-0.33285 1.65744,-0.86671 2.20417,-1.61901 0.034,-0.046 0.0671,-0.0927 0.0992,-0.14011 z"
           id="path765" /><path
           style="fill:#e1e2e4;fill-opacity:1;stroke:#575655;stroke-width:1;stroke-linecap:round;stroke-linejoin:round"
           d="m 383.28568,403.914 c -0.80875,-3.05591 -6.88326,-1.88203 -5.59481,1.32656 1.15079,2.18054 6.41876,1.23918 5.59481,-1.32656 z"
           id="path766" /><path
           style="fill:#e1e2e4;fill-opacity:1;stroke:#575655;stroke-width:1;stroke-linecap:round;stroke-linejoin:round"
           d="m 387.94896,402.88874 c -1.24335,-0.31489 -2.5247,-0.80219 -3.82354,-0.53553 -0.87545,0.18775 -1.71489,0.89041 -1.76806,1.83123 -0.0607,0.52811 0.26817,1.14451 0.84905,1.17274 0.42659,0.0258 0.83158,-0.15045 1.26204,-0.0762 1.11453,0.042 2.3257,0.18828 3.33047,-0.40944 0.38941,-0.20457 0.67522,-0.62464 0.59878,-1.07573 -0.0406,-0.34142 -0.20951,-0.66276 -0.44874,-0.90703 z"
           id="path767" /><path
           style="fill:#e1e2e4;fill-opacity:1;stroke:#575655;stroke-width:1;stroke-linecap:round;stroke-linejoin:round"
           d="m 394.58183,402.46561 c -2.4767,-1.29464 -6.91391,-1.02851 -6.84531,1.5163 0.24511,1.93449 4.70044,1.02815 7.0802,1.22373 0.87711,-0.47014 0.24523,-1.77717 -0.23489,-2.74003 z"
           id="path769"
           sodipodi:nodetypes="cccc" /></g><g
         id="g791"
         style="display:inline"
         transform="translate(-279.27979,-309.50763)"><rect
           style="fill:#d1ab79;fill-opacity:1;stroke:#575655;stroke-width:0.941069;stroke-linecap:round;stroke-linejoin:round;stroke-opacity:1"
           id="rect772"
           width="7.5091858"
           height="1.3424829"
           x="377.63583"
           y="409.50372"
           ry="0.67124146" /><rect
           style="fill:#b26a35;fill-opacity:1;stroke:#575655;stroke-width:1;stroke-linecap:round;stroke-linejoin:round;stroke-opacity:1"
           id="rect773"
           width="7.9794216"
           height="1.4265511"
           x="391.112"
           y="397.67081"
           ry="0.71327555"
           transform="rotate(1.5898466)" /><rect
           style="fill:#d1ab79;fill-opacity:1;stroke:#575655;stroke-width:1;stroke-linecap:round;stroke-linejoin:round;stroke-opacity:1"
           id="rect774"
           width="7.9794216"
           height="1.4265511"
           x="476.62286"
           y="290.38284"
           ry="0.71327555"
           transform="rotate(15.342802)" /><rect
           style="fill:#b26a35;fill-opacity:1;stroke:#575655;stroke-width:1;stroke-linecap:round;stroke-linejoin:round;stroke-opacity:1"
           id="rect775"
           width="7.9794216"
           height="1.4265511"
           x="486.99219"
           y="275.88492"
           ry="0.71327555"
           transform="rotate(16.932649)" /><rect
           style="fill:#d1ab79;fill-opacity:1;stroke:#575655;stroke-width:1;stroke-linecap:round;stroke-linejoin:round;stroke-opacity:1"
           id="rect776"
           width="7.9794216"
           height="1.4265511"
           x="133.96944"
           y="550.04694"
           ry="0.71327555"
           transform="rotate(-29.486485)" /><rect
           style="fill:#b26a35;fill-opacity:1;stroke:#575655;stroke-width:1;stroke-linecap:round;stroke-linejoin:round;stroke-opacity:1"
           id="rect777"
           width="7.9794216"
           height="1.4265511"
           x="146.6541"
           y="542.03314"
           ry="0.71327555"
           transform="rotate(-27.896638)" /><rect
           style="fill:#d1ab79;fill-opacity:1;stroke:#575655;stroke-width:1;stroke-linecap:round;stroke-linejoin:round;stroke-opacity:1"
           id="rect778"
           width="7.9794216"
           height="1.4265511"
           x="-548.62018"
           y="161.83835"
           ry="0.71327555"
           transform="matrix(-0.86758428,-0.49729018,-0.49729018,0.86758428,0,0)" /><rect
           style="fill:#b26a35;fill-opacity:1;stroke:#575655;stroke-width:1;stroke-linecap:round;stroke-linejoin:round;stroke-opacity:1"
           id="rect779"
           width="7.9794216"
           height="1.4265511"
           x="-546.44336"
           y="172.91209"
           ry="0.71327555"
           transform="matrix(-0.88104731,-0.47302816,-0.47302816,0.88104731,0,0)" /><rect
           style="fill:#d1ab79;fill-opacity:1;stroke:#575655;stroke-width:1;stroke-linecap:round;stroke-linejoin:round;stroke-opacity:1"
           id="rect780"
           width="7.9794216"
           height="1.4265511"
           x="562.01825"
           y="5.3857994"
           ry="0.71327555"
           transform="matrix(0.68280084,0.73060455,0.73060455,-0.68280084,0,0)" /><rect
           style="fill:#b26a35;fill-opacity:1;stroke:#575655;stroke-width:1;stroke-linecap:round;stroke-linejoin:round;stroke-opacity:1"
           id="rect781"
           width="7.9794216"
           height="1.4265511"
           x="559.42694"
           y="-14.29417"
           ry="0.71327555"
           transform="matrix(0.70280817,0.71137942,0.71137942,-0.70280817,0,0)" /><rect
           style="fill:#d1ab79;fill-opacity:1;stroke:#575655;stroke-width:1;stroke-linecap:round;stroke-linejoin:round;stroke-opacity:1"
           id="rect784"
           width="7.9794216"
           height="1.4265511"
           x="-498.53214"
           y="-291.11212"
           ry="0.71327555"
           transform="rotate(-164.6572)" /><rect
           style="fill:#b26a35;fill-opacity:1;stroke:#575655;stroke-width:1;stroke-linecap:round;stroke-linejoin:round;stroke-opacity:1"
           id="rect785"
           width="7.9794216"
           height="1.4265511"
           x="-503.92075"
           y="-278.33102"
           ry="0.71327555"
           transform="rotate(-163.06735)" /><rect
           style="fill:#d1ab79;fill-opacity:1;stroke:#575655;stroke-width:1;stroke-linecap:round;stroke-linejoin:round;stroke-opacity:1"
           id="rect786"
           width="7.9794216"
           height="1.4265511"
           x="-147.66866"
           y="-549.83661"
           ry="0.71327555"
           transform="rotate(150.51351)" /><rect
           style="fill:#b26a35;fill-opacity:1;stroke:#575655;stroke-width:1;stroke-linecap:round;stroke-linejoin:round;stroke-opacity:1"
           id="rect787"
           width="7.9794216"
           height="1.4265511"
           x="-167.87468"
           y="-548.6723"
           ry="0.71327555"
           transform="rotate(152.10336)" /><rect
           style="fill:#d1ab79;fill-opacity:1;stroke:#575655;stroke-width:1;stroke-linecap:round;stroke-linejoin:round;stroke-opacity:1"
           id="rect788"
           width="7.9794216"
           height="1.4265511"
           x="540.94653"
           y="-157.3922"
           ry="0.71327555"
           transform="matrix(0.86758429,0.49729016,0.49729016,-0.86758429,0,0)" /><rect
           style="fill:#b26a35;fill-opacity:1;stroke:#575655;stroke-width:1;stroke-linecap:round;stroke-linejoin:round;stroke-opacity:1"
           id="rect789"
           width="7.9794216"
           height="1.4265511"
           x="541.59723"
           y="-170.05376"
           ry="0.71327555"
           transform="matrix(0.88104732,0.47302814,0.47302814,-0.88104732,0,0)" /><rect
           style="fill:#d1ab79;fill-opacity:1;stroke:#575655;stroke-width:1;stroke-linecap:round;stroke-linejoin:round;stroke-opacity:1"
           id="rect790"
           width="7.9794216"
           height="1.4265511"
           x="-576.42303"
           y="-16.06675"
           ry="0.71327555"
           transform="matrix(-0.68280084,-0.73060456,-0.73060456,0.68280084,0,0)" /><rect
           style="fill:#b26a35;fill-opacity:1;stroke:#575655;stroke-width:1;stroke-linecap:round;stroke-linejoin:round;stroke-opacity:1"
           id="rect791"
           width="7.9794216"
           height="1.4265511"
           x="535.51776"
           y="-175.0591"
           ry="0.71327555"
           transform="matrix(0.88104732,0.47302814,0.47302814,-0.88104732,0,0)" /></g><path
         style="display:inline;fill:#575655;fill-opacity:1;stroke:#575655;stroke-width:3;stroke-linecap:round;stroke-linejoin:round;stroke-dasharray:none;stroke-opacity:1"
         d="m 388.88123,400.99194 c 0.0923,-1.87768 -0.71592,-3.93286 -2.39596,-4.90179 -0.83998,0.65913 -0.36376,1.79959 -0.12459,2.63333 0.35661,0.96903 -0.0267,1.97459 0.0759,2.9708 -0.0103,1.51866 0.46302,3.28777 1.97274,3.964 1.22937,0.76644 2.51867,2.31269 4.08818,2.23741 1.38451,0.11841 2.8609,-0.45104 3.67164,-1.72073 1.40602,-1.88267 2.94138,-3.75476 3.65885,-6.03153 -0.18991,-1.35437 -1.42944,0.31003 -1.89111,0.72697 -0.63866,1.03555 -1.82922,0.3415 -1.38807,-0.72787 0.0792,-0.95224 0.66052,-1.69633 1.15202,-2.46486 0.52398,-1.08359 0.50505,-2.36371 0.15393,-3.49629 -0.73223,-0.37722 -0.49756,-2.31314 -1.45546,-1.96047 0.0972,1.27844 0.29645,2.70729 -0.39622,3.85856 -0.34559,0.51228 -0.99894,0.56983 -0.77145,-0.22294 -0.21562,-2.20963 -1.46607,-4.30787 -0.99302,-6.57447 0.15426,-1.76955 -0.23671,-3.67891 -1.44944,-5.03034 -0.85135,1.1715 -0.89284,2.75515 -1.87966,3.85003 -0.88285,1.3584 -0.92576,3.03789 -1.04814,4.59895 -0.1001,0.68086 0.35758,2.14905 0.37138,2.21432 -1.14078,-1.49232 -2.58915,-3.17563 -2.23395,-5.19872 0.44604,-0.74263 -0.46952,-2.4043 -0.9607,-0.99194 -0.89156,1.48676 -1.59007,3.39774 -0.78846,5.07338 0.42944,1.71898 2.59727,2.27969 2.92042,4.05614 0.25018,1.00689 0.69752,2.37567 -0.28882,3.13806 z"
         id="path770"
         sodipodi:nodetypes="scccccccccccccccccccccccss"
         transform="translate(-279.27979,-309.50763)" /><path
         style="display:inline;fill:#f7c440;fill-opacity:1;stroke:#e51b1b;stroke-width:1;stroke-linecap:round;stroke-linejoin:round;stroke-opacity:1"
         d="m 388.88123,400.99194 c 0.0923,-1.87768 -0.71592,-3.93286 -2.39596,-4.90179 -0.83998,0.65913 -0.36376,1.79959 -0.12459,2.63333 0.35661,0.96903 -0.0267,1.97459 0.0759,2.9708 -0.0103,1.51866 0.46302,3.28777 1.97274,3.964 1.22937,0.76644 2.51867,2.31269 4.08818,2.23741 1.38451,0.11841 2.8609,-0.45104 3.67164,-1.72073 1.40602,-1.88267 2.94138,-3.75476 3.65885,-6.03153 -0.18991,-1.35437 -1.42944,0.31003 -1.89111,0.72697 -0.63866,1.03555 -1.82922,0.3415 -1.38807,-0.72787 0.0792,-0.95224 0.66052,-1.69633 1.15202,-2.46486 0.52398,-1.08359 0.50505,-2.36371 0.15393,-3.49629 -0.73223,-0.37722 -0.49756,-2.31314 -1.45546,-1.96047 0.0972,1.27844 0.29645,2.70729 -0.39622,3.85856 -0.34559,0.51228 -0.99894,0.56983 -0.77145,-0.22294 -0.21562,-2.20963 -1.46607,-4.30787 -0.99302,-6.57447 0.15426,-1.76955 -0.23671,-3.67891 -1.44944,-5.03034 -0.85135,1.1715 -0.89284,2.75515 -1.87966,3.85003 -0.88285,1.3584 -0.92576,3.03789 -1.04814,4.59895 -0.1001,0.68086 0.35758,2.14905 0.37138,2.21432 -1.14078,-1.49232 -2.58915,-3.17563 -2.23395,-5.19872 0.44604,-0.74263 -0.46952,-2.4043 -0.9607,-0.99194 -0.89156,1.48676 -1.59007,3.39774 -0.78846,5.07338 0.42944,1.71898 2.59727,2.27969 2.92042,4.05614 0.25018,1.00689 0.69752,2.37567 -0.28882,3.13806 z"
         id="path793"
         sodipodi:nodetypes="scccccccccccccccccccccccss"
         transform="translate(-279.27979,-309.50763)" /><path
         style="fill:none;fill-opacity:1;stroke:#575655;stroke-width:1;stroke-linecap:round;stroke-linejoin:round;stroke-dasharray:none;stroke-opacity:1"
         d="m 400.58509,392.40462 c 0,0 -0.72523,-0.54905 -1.16517,0.29766 -0.54761,1.05395 1.31174,3.37907 1.31174,3.37907"
         id="path210"
         sodipodi:nodetypes="csc"
         transform="translate(-279.27979,-309.50763)" /><path
         style="fill:none;fill-opacity:1;stroke:#575655;stroke-width:3;stroke-linecap:round;stroke-linejoin:round;stroke-dasharray:none;stroke-opacity:1"
         d="m 420.70816,392.58219 c 0,0 6.85431,-5.13406 4.82582,-7.96357 -1.91911,-2.67694 -5.30605,0.79417 -5.30605,0.79417"
         id="path221"
         sodipodi:nodetypes="csc"
         transform="translate(-279.27979,-309.50763)" /><path
         style="fill:#1a68b3;fill-opacity:1;stroke:#575655;stroke-width:1;stroke-linecap:round;stroke-linejoin:round;stroke-dasharray:none;stroke-opacity:1"
         d="m 400.82798,392.09871 v 4.95266 c 2.56277,1.73238 5.19574,1.66281 7.89079,0 l 0.0165,-4.95265"
         id="path215"
         sodipodi:nodetypes="cccc"
         transform="translate(-279.27979,-309.50763)" /><ellipse
         style="fill:#221e20;fill-opacity:1;stroke:#575655;stroke-width:1;stroke-linecap:round;stroke-linejoin:round;stroke-dasharray:none;stroke-opacity:1"
         id="path214"
         cx="404.78162"
         cy="392.08218"
         ry="1.876888"
         rx="3.9536362"
         transform="translate(-279.27979,-309.50763)" /><path
         style="display:inline;fill:none;fill-opacity:1;stroke:#1968b3;stroke-width:1;stroke-linecap:round;stroke-linejoin:round;stroke-dasharray:none;stroke-opacity:1"
         d="m 420.70816,392.58219 c 0,0 6.85431,-5.13406 4.82582,-7.96357 -1.91911,-2.67694 -5.30605,0.79417 -5.30605,0.79417"
         id="path220"
         sodipodi:nodetypes="csc"
         transform="translate(-279.27979,-309.50763)" /><path
         style="display:inline;fill:#1968b3;fill-opacity:1;stroke:#575655;stroke-width:1;stroke-linecap:round;stroke-linejoin:round;stroke-dasharray:none;stroke-opacity:1"
         d="m 406.89777,383.29987 c 0.2833,0.85459 1.33182,1.2505 2.14901,1.86369 l -0.93543,14.87354 c 4.3654,2.67634 8.7308,2.37121 13.0962,0 l -1.26038,-18.81557 -10.30255,0.32967 c -1.87611,-1.11418 -3.11963,0.62414 -2.74685,1.74867 z"
         id="path216"
         sodipodi:nodetypes="scccccs"
         transform="translate(-279.27979,-309.50763)" /><path
         style="display:inline;fill:#1968b3;fill-opacity:1;stroke:#575655;stroke-width:1;stroke-linecap:round;stroke-linejoin:round;stroke-dasharray:none;stroke-opacity:1"
         d="m 409.04678,381.09437 c 3.43202,2.79548 7.07152,2.75538 10.90039,0.12716 -0.71656,-1.99732 -1.88349,-3.64218 -4.61382,-4.06351 0,0 0.35028,-1.56956 -0.89297,-1.50482 -1.24538,0.0648 -1.14102,1.70326 -1.14102,1.70326 -2.348,0.4869 -3.57572,1.88771 -4.25258,3.73791 z"
         id="path219"
         sodipodi:nodetypes="cccscc"
         transform="translate(-279.27979,-309.50763)" /><path
         style="fill:#221e20;fill-opacity:1;stroke:#1968b3;stroke-width:0.25;stroke-linecap:round;stroke-linejoin:round;stroke-dasharray:none;stroke-opacity:1"
         d="m 407.99115,382.68119 c -0.17632,0.32023 0.33695,0.70933 0.63667,0.89296 0.74178,0.45447 1.06766,0.008 1.28984,-0.38032 l -0.42995,-0.42995 c -0.96127,-0.73316 -1.25558,-0.52035 -1.49656,-0.0827 z"
         id="path222"
         sodipodi:nodetypes="asccaa"
         transform="translate(-279.27979,-309.50763)" /></g></g></svg>
