<?xml version="1.0" encoding="UTF-8" standalone="no"?>
<!-- Created with Inkscape (http://www.inkscape.org/) -->

<svg
   width="120.99998mm"
   height="120.99998mm"
   viewBox="0 0 120.99998 120.99998"
   version="1.1"
   id="svg1"
   xml:space="preserve"
   inkscape:version="1.3.2 (091e20e, 2023-11-25, custom)"
   sodipodi:docname="Especialidades.svg.svg"
   xmlns:inkscape="http://www.inkscape.org/namespaces/inkscape"
   xmlns:sodipodi="http://sodipodi.sourceforge.net/DTD/sodipodi-0.dtd"
   xmlns="http://www.w3.org/2000/svg"
   xmlns:svg="http://www.w3.org/2000/svg"><sodipodi:namedview
     id="namedview1"
     pagecolor="#ffffff"
     bordercolor="#000000"
     borderopacity="0.25"
     inkscape:showpageshadow="2"
     inkscape:pageopacity="0.0"
     inkscape:pagecheckerboard="0"
     inkscape:deskcolor="#d1d1d1"
     inkscape:document-units="mm"
     inkscape:zoom="0.70710678"
     inkscape:cx="4022.0234"
     inkscape:cy="123.74369"
     inkscape:window-width="1920"
     inkscape:window-height="991"
     inkscape:window-x="-9"
     inkscape:window-y="-9"
     inkscape:window-maximized="1"
     inkscape:current-layer="layer1" /><defs
     id="defs1" /><g
     inkscape:label="Capa 1"
     inkscape:groupmode="layer"
     id="layer1"
     transform="translate(-717.85817,-216.69872)"><g
       id="g599"
       transform="translate(661.46029,188.14012)"
       inkscape:export-filename="Electricidad"
       inkscape:export-xdpi="96"
       inkscape:export-ydpi="96"
       inkscape:label="Dibujo Tecnico"><circle
         style="display:inline;fill:#f9a86f;fill-opacity:1;stroke:#ffffff;stroke-width:1;stroke-linecap:square;stroke-linejoin:round;stroke-opacity:1"
         id="circle586"
         cx="116.89785"
         cy="89.058594"
         r="60" /><circle
         style="display:inline;fill:#ffffff;fill-opacity:1;stroke:#ffffff;stroke-width:1;stroke-linecap:square;stroke-linejoin:round;stroke-opacity:1"
         id="circle587"
         cx="116.89785"
         cy="89.058594"
         r="54.053749" /><path
         id="path587"
         style="display:inline;fill:#f9a86f;fill-opacity:1;stroke:none;stroke-width:1;stroke-linecap:square;stroke-linejoin:round;stroke-opacity:1"
         d="m 117.29465,40.168607 c -22.742213,0.05319 -42.265283,16.19718 -46.588372,38.524781 h 14.346928 c 4.051515,-14.458577 17.225954,-24.457386 32.241444,-24.469825 15.02202,0.0046 28.20574,10.004971 32.25902,24.469825 h 14.43529 C 159.65824,56.326703 140.07674,40.17114 117.29465,40.168607 Z M 69.953353,90.892126 c 1.658666,24.943744 22.342535,44.347224 47.341297,44.410724 24.99876,-0.0635 45.68263,-19.46697 47.3413,-44.410724 H 150.58099 C 148.95574,108.0715 134.55069,121.20832 117.29465,121.24789 100.03861,121.20829 85.633554,108.0715 84.008309,90.892126 Z"
         sodipodi:nodetypes="cccccccccccccc" /><g
         id="g598"
         transform="translate(0.396875,-1.3229167)"><text
           xml:space="preserve"
           style="font-weight:bold;font-size:14.1111px;line-height:1.2;font-family:Arial;-inkscape-font-specification:'Arial Bold';text-align:center;text-anchor:middle;fill:#ffffff;fill-opacity:1;stroke:#ffffff;stroke-width:1;stroke-linecap:square;stroke-linejoin:round;stroke-dasharray:none;stroke-opacity:1"
           x="84.139343"
           y="38.668396"
           id="text587"
           transform="rotate(49.651447,-3.8973156,78.581555)"><tspan
             sodipodi:role="line"
             id="tspan587"
             style="font-size:14.1111px;fill:#ffffff;fill-opacity:1;stroke:#ffffff;stroke-width:1;stroke-dasharray:none;stroke-opacity:1"
             x="84.139343"
             y="38.668396">D</tspan></text><text
           xml:space="preserve"
           style="font-weight:bold;font-size:14.1111px;line-height:1.2;font-family:Arial;-inkscape-font-specification:'Arial Bold';text-align:center;text-anchor:middle;fill:#ffffff;fill-opacity:1;stroke:#ffffff;stroke-width:1;stroke-linecap:square;stroke-linejoin:round;stroke-dasharray:none;stroke-opacity:1"
           x="81.138748"
           y="63.438328"
           id="text588"
           transform="rotate(32.416911,-23.506148,115.98634)"><tspan
             sodipodi:role="line"
             id="tspan588"
             style="font-size:14.1111px;fill:#ffffff;fill-opacity:1;stroke:#ffffff;stroke-width:1;stroke-dasharray:none;stroke-opacity:1"
             x="81.138748"
             y="63.438328">E</tspan></text><text
           xml:space="preserve"
           style="font-weight:bold;font-size:14.1111px;line-height:1.2;font-family:Arial;-inkscape-font-specification:'Arial Bold';text-align:center;text-anchor:middle;fill:#ffffff;fill-opacity:1;stroke:#ffffff;stroke-width:1;stroke-linecap:square;stroke-linejoin:round;stroke-dasharray:none;stroke-opacity:1"
           x="74.167931"
           y="83.492027"
           id="text589"
           transform="rotate(17.580526,-69.929297,204.5407)"><tspan
             sodipodi:role="line"
             id="tspan589"
             style="font-size:14.1111px;fill:#ffffff;fill-opacity:1;stroke:#ffffff;stroke-width:1;stroke-dasharray:none;stroke-opacity:1"
             x="74.167931"
             y="83.492027">L</tspan></text><text
           xml:space="preserve"
           style="font-weight:bold;font-size:14.1111px;line-height:1.2;font-family:Arial;-inkscape-font-specification:'Arial Bold';text-align:center;text-anchor:middle;fill:#ffffff;fill-opacity:1;stroke:#ffffff;stroke-width:1;stroke-linecap:square;stroke-linejoin:round;stroke-dasharray:none;stroke-opacity:1"
           x="58.342377"
           y="105.44102"
           id="text590"
           transform="rotate(-1.2470186,1438.6142,-2673.0762)"><tspan
             sodipodi:role="line"
             id="tspan590"
             style="font-size:14.1111px;fill:#ffffff;fill-opacity:1;stroke:#ffffff;stroke-width:1;stroke-dasharray:none;stroke-opacity:1"
             x="58.342377"
             y="105.44102">P</tspan></text><text
           xml:space="preserve"
           style="font-weight:bold;font-size:14.1111px;line-height:1.2;font-family:Arial;-inkscape-font-specification:'Arial Bold';text-align:center;text-anchor:middle;fill:#ffffff;fill-opacity:1;stroke:#ffffff;stroke-width:1;stroke-linecap:square;stroke-linejoin:round;stroke-dasharray:none;stroke-opacity:1"
           x="36.925251"
           y="119.13938"
           id="text591"
           transform="rotate(-18.271503,124.63216,-166.59454)"><tspan
             sodipodi:role="line"
             id="tspan591"
             style="font-size:14.1111px;fill:#ffffff;fill-opacity:1;stroke:#ffffff;stroke-width:1;stroke-dasharray:none;stroke-opacity:1"
             x="36.925251"
             y="119.13938">E</tspan></text><text
           xml:space="preserve"
           style="font-weight:bold;font-size:14.1111px;line-height:1.2;font-family:Arial;-inkscape-font-specification:'Arial Bold';text-align:center;text-anchor:middle;fill:#ffffff;fill-opacity:1;stroke:#ffffff;stroke-width:1;stroke-linecap:square;stroke-linejoin:round;stroke-dasharray:none;stroke-opacity:1"
           x="14.023943"
           y="126.68509"
           id="text592"
           transform="rotate(-35.071346,77.79661,-77.253487)"><tspan
             sodipodi:role="line"
             id="tspan592"
             style="font-size:14.1111px;fill:#ffffff;fill-opacity:1;stroke:#ffffff;stroke-width:1;stroke-dasharray:none;stroke-opacity:1"
             x="14.023943"
             y="126.68509">R</tspan></text><path
           id="path592"
           style="font-weight:bold;font-size:15.875px;line-height:1.2;font-family:Arial;-inkscape-font-specification:'Arial Bold';text-align:center;text-anchor:middle;fill:#ffffff;fill-opacity:1;stroke:#ffffff;stroke-width:1;stroke-linecap:square;stroke-linejoin:round;stroke-dasharray:none;stroke-opacity:1"
           d="m 89.378044,76.781959 -1.413349,1.807643 0.55695,0.43366 0.875404,-2.228284 z m 1.104679,0.896174 -0.875396,2.22829 1.890529,1.373317 c 0.708292,0.55389 1.194388,0.976469 1.458307,1.268138 0.263919,0.291668 0.399781,0.650875 0.407727,1.076937 0.0039,0.422877 -0.194729,0.89062 -0.59583,1.403531 -0.394734,0.50477 -0.816539,0.817767 -1.265557,0.93896 -0.449907,0.113938 -0.888314,0.06601 -1.315165,-0.143144 -0.26298,-0.13349 -0.778855,-0.500604 -1.548227,-1.102259 l -3.429292,-2.609007 -1.413862,1.807129 3.356422,2.551641 c 1.0014,0.783103 1.804448,1.316339 2.409674,1.599388 0.409679,0.18917 0.873581,0.279457 1.391644,0.271299 0.513997,-0.01134 1.042684,-0.158695 1.585955,-0.442346 0.542373,-0.290913 1.147924,-0.863908 1.816425,-1.71876 0.553901,-0.708305 0.913284,-1.351957 1.07797,-1.931665 0.16062,-0.582886 0.189941,-1.124394 0.08836,-1.623675 -0.09838,-0.503346 -0.331357,-0.976938 -0.698664,-1.421618 -0.367307,-0.44468 -1.087986,-1.087645 -2.162661,-1.92805 z"
           sodipodi:nodetypes="ccccccccscscccccccccsccscc"
           transform="translate(58.514518,30.675262)" /><text
           xml:space="preserve"
           style="font-style:italic;font-variant:normal;font-weight:bold;font-stretch:normal;font-size:14.1111px;line-height:1.2;font-family:Arial;-inkscape-font-specification:'Arial Bold Italic';text-align:center;text-anchor:middle;fill:#ffffff;fill-opacity:1;stroke:#ffffff;stroke-width:1;stroke-linecap:square;stroke-linejoin:round;stroke-dasharray:none;stroke-opacity:1"
           x="3.0038822"
           y="46.686371"
           id="text593"
           transform="rotate(-44.498689,66.748647,-56.178969)"><tspan
             sodipodi:role="line"
             id="tspan593"
             style="font-style:italic;font-variant:normal;font-weight:bold;font-stretch:normal;font-family:Arial;-inkscape-font-specification:'Arial Bold Italic';stroke-width:1"
             x="3.0038824"
             y="46.686371">S</tspan></text><text
           xml:space="preserve"
           style="font-weight:bold;font-size:14.1111px;line-height:1.2;font-family:Arial;-inkscape-font-specification:'Arial Bold';text-align:center;text-anchor:middle;fill:#ffffff;fill-opacity:1;stroke:#ffffff;stroke-width:1;stroke-linecap:square;stroke-linejoin:round;stroke-dasharray:none;stroke-opacity:1"
           x="22.793133"
           y="45.594044"
           id="text594"
           transform="rotate(-33.043386,80.964335,-83.296072)"><tspan
             sodipodi:role="line"
             id="tspan594"
             style="stroke-width:1"
             x="22.793133"
             y="45.594044">C</tspan></text><text
           xml:space="preserve"
           style="font-weight:bold;font-size:14.1111px;line-height:1.2;font-family:Arial;-inkscape-font-specification:'Arial Bold';text-align:center;text-anchor:middle;fill:#ffffff;fill-opacity:1;stroke:#ffffff;stroke-width:1;stroke-linecap:square;stroke-linejoin:round;stroke-dasharray:none;stroke-opacity:1"
           x="95.420288"
           y="81.118217"
           id="text595"
           transform="rotate(-15.019919)"><tspan
             sodipodi:role="line"
             id="tspan595"
             style="stroke-width:1"
             x="95.420288"
             y="81.118217">O</tspan></text><text
           xml:space="preserve"
           style="font-weight:bold;font-size:14.1111px;line-height:1.2;font-family:Arial;-inkscape-font-specification:'Arial Bold';text-align:center;text-anchor:middle;fill:#ffffff;fill-opacity:1;stroke:#ffffff;stroke-width:1;stroke-linecap:square;stroke-linejoin:round;stroke-dasharray:none;stroke-opacity:1"
           x="131.35493"
           y="26.227385"
           id="text596"
           transform="rotate(12.642406)"><tspan
             sodipodi:role="line"
             id="tspan596"
             style="stroke-width:1"
             x="131.35493"
             y="26.227385">U</tspan></text><text
           xml:space="preserve"
           style="font-weight:bold;font-size:14.1111px;line-height:1.2;font-family:Arial;-inkscape-font-specification:'Arial Bold';text-align:center;text-anchor:middle;fill:#ffffff;fill-opacity:1;stroke:#ffffff;stroke-width:1;stroke-linecap:square;stroke-linejoin:round;stroke-dasharray:none;stroke-opacity:1"
           x="143.29329"
           y="-3.814055"
           id="text597"
           transform="rotate(24.880191)"><tspan
             sodipodi:role="line"
             id="tspan597"
             style="stroke-width:1"
             x="143.29329"
             y="-3.814055">T</tspan></text><text
           xml:space="preserve"
           style="font-style:italic;font-variant:normal;font-weight:bold;font-stretch:normal;font-size:14.1111px;line-height:1.2;font-family:Arial;-inkscape-font-specification:'Arial Bold Italic';text-align:center;text-anchor:middle;fill:#ffffff;fill-opacity:1;stroke:#ffffff;stroke-width:1;stroke-linecap:square;stroke-linejoin:round;stroke-dasharray:none;stroke-opacity:1"
           x="153.21227"
           y="-5.6454854"
           id="text598"
           transform="rotate(26.053437)"><tspan
             sodipodi:role="line"
             id="tspan598"
             style="font-style:italic;font-variant:normal;font-weight:bold;font-stretch:normal;font-family:Arial;-inkscape-font-specification:'Arial Bold Italic';stroke-width:1"
             x="153.21227"
             y="-5.6454854">S</tspan></text></g><g
         id="g371"
         transform="translate(-666.91769,-188.14012)"><rect
           style="fill:#0075be;fill-opacity:1;stroke:#0075be;stroke-width:1;stroke-linecap:round;stroke-linejoin:round;stroke-miterlimit:29.8;stroke-dasharray:none;stroke-dashoffset:21.9213;stroke-opacity:1;paint-order:fill markers stroke"
           id="rect361"
           width="12.043826"
           height="1.8474765"
           x="779.20166"
           y="293.88766"
           ry="0.8652851" /><rect
           style="fill:#0075be;fill-opacity:1;stroke:#0075be;stroke-width:1;stroke-linecap:round;stroke-linejoin:round;stroke-miterlimit:29.8;stroke-dasharray:none;stroke-dashoffset:21.9213;stroke-opacity:1;paint-order:fill markers stroke"
           id="rect362"
           width="12.043826"
           height="1.8474765"
           x="779.20166"
           y="297.98022"
           ry="0.8652851" /><rect
           style="fill:#0075be;fill-opacity:1;stroke:#0075be;stroke-width:1;stroke-linecap:round;stroke-linejoin:round;stroke-miterlimit:29.8;stroke-dasharray:none;stroke-dashoffset:21.9213;stroke-opacity:1;paint-order:fill markers stroke"
           id="rect363"
           width="12.043826"
           height="1.8474765"
           x="779.20166"
           y="301.96692"
           ry="0.8652851" /><path
           style="fill:#0075be;fill-opacity:1;stroke:#0075be;stroke-width:1;stroke-linecap:round;stroke-linejoin:round;stroke-miterlimit:29.8;stroke-dasharray:none;stroke-dashoffset:21.9213;stroke-opacity:1;paint-order:fill markers stroke"
           d="m 784.00754,305.41701 h 2.53741 c 0,0 -0.25144,1.08662 -1.26226,1.08662 -1.01082,0 -1.27515,-1.08662 -1.27515,-1.08662 z"
           id="path363"
           sodipodi:nodetypes="cczc" /><path
           id="path364"
           style="fill:#f8e022;fill-opacity:1;stroke:#0074bd;stroke-width:1;stroke-linecap:round;stroke-linejoin:round;stroke-miterlimit:29.8;stroke-dasharray:none;stroke-dashoffset:21.9213;stroke-opacity:1;paint-order:fill markers stroke"
           d="m 785.22343,247.98037 c -9.60771,0 -17.39636,7.78864 -17.39636,17.39635 0.0111,6.96118 4.17094,13.24551 10.57455,15.97526 v 7.88169 c 0,1.36035 1.09529,2.45566 2.45567,2.45566 h 8.93847 c 1.36037,0 2.45566,-1.09531 2.45566,-2.45566 v -8.00468 c 0.4552,-0.004 10.36461,-4.56826 10.36836,-15.85227 0,-9.60771 -7.78864,-17.39635 -17.39635,-17.39635 z"
           sodipodi:nodetypes="sccssssccs" /><path
           id="rect365"
           style="fill:#0074bd;fill-opacity:1;stroke:#0074bd;stroke-width:1;stroke-linecap:round;stroke-linejoin:round;stroke-miterlimit:29.8;stroke-dasharray:none;stroke-dashoffset:21.9213;stroke-opacity:1;paint-order:fill markers stroke"
           d="m 782.51403,273.80515 c -0.47937,0 -0.86506,0.3857 -0.86506,0.86506 v 7.00113 c 0,0.47936 0.38569,0.86506 0.86506,0.86506 h 0.38654 c 0.47937,0 0.86506,-0.3857 0.86506,-0.86506 v -7.00113 c 0,-0.47936 -0.38569,-0.86506 -0.86506,-0.86506 z m -1.418,8.78706 c -0.47937,0 -0.86506,0.3857 -0.86506,0.86506 v 5.72989 c 0,0.47936 0.38569,0.86506 0.86506,0.86506 h 8.34884 c 0.47937,0 0.86507,-0.3857 0.86507,-0.86506 v -5.72989 c 0,-0.47936 -0.3857,-0.86506 -0.86507,-0.86506 z" /><path
           id="rect366"
           style="fill:#0074bd;fill-opacity:1;stroke:#0074bd;stroke-width:1;stroke-linecap:round;stroke-linejoin:round;stroke-miterlimit:29.8;stroke-dasharray:none;stroke-dashoffset:21.9213;stroke-opacity:1;paint-order:fill markers stroke"
           d="m 779.80205,271.82078 c -0.47936,0 -0.86506,0.38569 -0.86506,0.86506 v 0.28732 c 0,0.47937 0.3857,0.86506 0.86506,0.86506 h 7.35046 c -0.13187,0.15178 -0.21188,0.34964 -0.21188,0.56741 v 7.36493 c 0,0.47936 0.3857,0.86506 0.86507,0.86506 h 0.38654 c 0.47937,0 0.86506,-0.3857 0.86506,-0.86506 v -7.36493 c 0,-0.21777 -0.08,-0.41563 -0.21187,-0.56741 h 1.46296 c 0.47937,0 0.86558,-0.38569 0.86558,-0.86506 v -0.28732 c 0,-0.47937 -0.38621,-0.86506 -0.86558,-0.86506 z" /><path
           style="fill:#0074bd;fill-opacity:1;stroke:#0074bd;stroke-width:1;stroke-linecap:round;stroke-linejoin:round;stroke-miterlimit:29.8;stroke-dasharray:none;stroke-dashoffset:21.9213;stroke-opacity:1;paint-order:fill markers stroke"
           d="m 778.07708,259.25306 4.43177,12.56771"
           id="path366" /><path
           style="fill:#0074bd;fill-opacity:1;stroke:#0074bd;stroke-width:1;stroke-linecap:round;stroke-linejoin:round;stroke-miterlimit:29.8;stroke-dasharray:none;stroke-dashoffset:21.9213;stroke-opacity:1;paint-order:fill markers stroke"
           d="m 792.26537,259.25306 -4.43177,12.56771"
           id="path367" /><path
           style="fill:none;fill-opacity:1;stroke:#0074bd;stroke-width:1;stroke-linecap:round;stroke-linejoin:round;stroke-miterlimit:29.8;stroke-dasharray:none;stroke-dashoffset:21.9213;stroke-opacity:1;paint-order:fill markers stroke"
           d="m 778.71798,261.07054 c -0.0717,0.0502 2.86271,0.0317 2.94751,-1.30485 0.0848,-1.33653 -1.50562,-1.41843 -1.6867,-0.18192 -0.18108,1.23651 1.05889,1.67236 1.98437,1.73636 1.1988,0.0829 2.90884,-1.01575 2.59622,-2.13321 -0.20364,-0.72794 -1.35204,-0.67349 -1.62056,0.0331 -0.35078,0.92303 1.04128,1.83058 1.9513,1.93475 1.17784,0.13483 3.19505,-0.96768 2.84427,-2.10013 -0.25226,-0.81439 -1.78326,-0.82231 -1.90169,0.0992 -0.13367,1.0401 1.20376,1.89931 2.24896,1.98437 1.13835,0.0926 2.90702,-1.01272 2.64583,-2.05052 -0.26033,-1.03438 -1.60625,-0.84466 -1.7694,0.0496 -0.20677,1.13333 2.51049,2.3753 2.51049,2.3753"
           id="path368"
           sodipodi:nodetypes="czzsssssssssc" /></g></g></g></svg>
