<?xml version="1.0" encoding="UTF-8" standalone="no"?>
<!-- Created with Inkscape (http://www.inkscape.org/) -->

<svg
   width="121.00001mm"
   height="121.00001mm"
   viewBox="0 0 121.00001 121.00001"
   version="1.1"
   id="svg1"
   xml:space="preserve"
   inkscape:version="1.3.2 (091e20e, 2023-11-25, custom)"
   sodipodi:docname="Especialidades.svg"
   xmlns:inkscape="http://www.inkscape.org/namespaces/inkscape"
   xmlns:sodipodi="http://sodipodi.sourceforge.net/DTD/sodipodi-0.dtd"
   xmlns="http://www.w3.org/2000/svg"
   xmlns:svg="http://www.w3.org/2000/svg"><sodipodi:namedview
     id="namedview1"
     pagecolor="#ffffff"
     bordercolor="#000000"
     borderopacity="0.25"
     inkscape:showpageshadow="2"
     inkscape:pageopacity="0.0"
     inkscape:pagecheckerboard="0"
     inkscape:deskcolor="#d1d1d1"
     inkscape:document-units="mm"
     inkscape:zoom="5.6568542"
     inkscape:cx="1645.3491"
     inkscape:cy="665.12232"
     inkscape:window-width="1920"
     inkscape:window-height="991"
     inkscape:window-x="-9"
     inkscape:window-y="-9"
     inkscape:window-maximized="1"
     inkscape:current-layer="layer1" /><defs
     id="defs1" /><g
     inkscape:label="Capa 1"
     inkscape:groupmode="layer"
     id="layer1"
     transform="translate(-335.67765,-91.832885)"><g
       id="g286"
       transform="translate(279.27979,63.274291)"
       inkscape:export-filename="Arqueologia.svg"
       inkscape:export-xdpi="96"
       inkscape:export-ydpi="96"><circle
         style="display:inline;fill:#f9a86f;fill-opacity:1;stroke:#ffffff;stroke-width:1;stroke-linecap:square;stroke-linejoin:round;stroke-opacity:1"
         id="circle263"
         cx="116.89785"
         cy="89.058594"
         r="60" /><circle
         style="display:inline;fill:#ffffff;fill-opacity:1;stroke:#ffffff;stroke-width:1;stroke-linecap:square;stroke-linejoin:round;stroke-opacity:1"
         id="circle264"
         cx="116.89785"
         cy="89.058594"
         r="54.053749" /><path
         id="path264"
         style="display:inline;fill:#f9a86f;fill-opacity:1;stroke:none;stroke-width:1;stroke-linecap:square;stroke-linejoin:round;stroke-opacity:1"
         d="m 117.29465,40.168607 c -22.742213,0.05319 -42.265283,16.19718 -46.588372,38.524781 h 14.346928 c 4.051515,-14.458577 17.225954,-24.457386 32.241444,-24.469825 15.02202,0.0046 28.20574,10.004971 32.25902,24.469825 h 14.43529 C 159.65824,56.326703 140.07674,40.17114 117.29465,40.168607 Z M 69.953353,90.892126 c 1.658666,24.943744 22.342535,44.347224 47.341297,44.410724 24.99876,-0.0635 45.68263,-19.46697 47.3413,-44.410724 H 150.58099 C 148.95574,108.0715 134.55069,121.20832 117.29465,121.24789 100.03861,121.20829 85.633554,108.0715 84.008309,90.892126 Z"
         sodipodi:nodetypes="cccccccccccccc" /><g
         id="g285"
         transform="translate(0.396875,-1.3229167)"><text
           xml:space="preserve"
           style="font-weight:bold;font-size:14.1111px;line-height:1.2;font-family:Arial;-inkscape-font-specification:'Arial Bold';text-align:center;text-anchor:middle;fill:#ffffff;fill-opacity:1;stroke:#ffffff;stroke-width:1;stroke-linecap:square;stroke-linejoin:round;stroke-dasharray:none;stroke-opacity:1"
           x="84.139343"
           y="38.668396"
           id="text274"
           transform="rotate(49.651447,-3.8973156,78.581555)"><tspan
             sodipodi:role="line"
             id="tspan274"
             style="font-size:14.1111px;fill:#ffffff;fill-opacity:1;stroke:#ffffff;stroke-width:1;stroke-dasharray:none;stroke-opacity:1"
             x="84.139343"
             y="38.668396">D</tspan></text><text
           xml:space="preserve"
           style="font-weight:bold;font-size:14.1111px;line-height:1.2;font-family:Arial;-inkscape-font-specification:'Arial Bold';text-align:center;text-anchor:middle;fill:#ffffff;fill-opacity:1;stroke:#ffffff;stroke-width:1;stroke-linecap:square;stroke-linejoin:round;stroke-dasharray:none;stroke-opacity:1"
           x="81.138748"
           y="63.438328"
           id="text275"
           transform="rotate(32.416911,-23.506148,115.98634)"><tspan
             sodipodi:role="line"
             id="tspan275"
             style="font-size:14.1111px;fill:#ffffff;fill-opacity:1;stroke:#ffffff;stroke-width:1;stroke-dasharray:none;stroke-opacity:1"
             x="81.138748"
             y="63.438328">E</tspan></text><text
           xml:space="preserve"
           style="font-weight:bold;font-size:14.1111px;line-height:1.2;font-family:Arial;-inkscape-font-specification:'Arial Bold';text-align:center;text-anchor:middle;fill:#ffffff;fill-opacity:1;stroke:#ffffff;stroke-width:1;stroke-linecap:square;stroke-linejoin:round;stroke-dasharray:none;stroke-opacity:1"
           x="74.167931"
           y="83.492027"
           id="text276"
           transform="rotate(17.580526,-69.929297,204.5407)"><tspan
             sodipodi:role="line"
             id="tspan276"
             style="font-size:14.1111px;fill:#ffffff;fill-opacity:1;stroke:#ffffff;stroke-width:1;stroke-dasharray:none;stroke-opacity:1"
             x="74.167931"
             y="83.492027">L</tspan></text><text
           xml:space="preserve"
           style="font-weight:bold;font-size:14.1111px;line-height:1.2;font-family:Arial;-inkscape-font-specification:'Arial Bold';text-align:center;text-anchor:middle;fill:#ffffff;fill-opacity:1;stroke:#ffffff;stroke-width:1;stroke-linecap:square;stroke-linejoin:round;stroke-dasharray:none;stroke-opacity:1"
           x="58.342377"
           y="105.44102"
           id="text277"
           transform="rotate(-1.2470186,1438.6142,-2673.0762)"><tspan
             sodipodi:role="line"
             id="tspan277"
             style="font-size:14.1111px;fill:#ffffff;fill-opacity:1;stroke:#ffffff;stroke-width:1;stroke-dasharray:none;stroke-opacity:1"
             x="58.342377"
             y="105.44102">P</tspan></text><text
           xml:space="preserve"
           style="font-weight:bold;font-size:14.1111px;line-height:1.2;font-family:Arial;-inkscape-font-specification:'Arial Bold';text-align:center;text-anchor:middle;fill:#ffffff;fill-opacity:1;stroke:#ffffff;stroke-width:1;stroke-linecap:square;stroke-linejoin:round;stroke-dasharray:none;stroke-opacity:1"
           x="36.925251"
           y="119.13938"
           id="text278"
           transform="rotate(-18.271503,124.63216,-166.59454)"><tspan
             sodipodi:role="line"
             id="tspan278"
             style="font-size:14.1111px;fill:#ffffff;fill-opacity:1;stroke:#ffffff;stroke-width:1;stroke-dasharray:none;stroke-opacity:1"
             x="36.925251"
             y="119.13938">E</tspan></text><text
           xml:space="preserve"
           style="font-weight:bold;font-size:14.1111px;line-height:1.2;font-family:Arial;-inkscape-font-specification:'Arial Bold';text-align:center;text-anchor:middle;fill:#ffffff;fill-opacity:1;stroke:#ffffff;stroke-width:1;stroke-linecap:square;stroke-linejoin:round;stroke-dasharray:none;stroke-opacity:1"
           x="14.023943"
           y="126.68509"
           id="text279"
           transform="rotate(-35.071346,77.79661,-77.253487)"><tspan
             sodipodi:role="line"
             id="tspan279"
             style="font-size:14.1111px;fill:#ffffff;fill-opacity:1;stroke:#ffffff;stroke-width:1;stroke-dasharray:none;stroke-opacity:1"
             x="14.023943"
             y="126.68509">R</tspan></text><path
           id="path279"
           style="font-weight:bold;font-size:15.875px;line-height:1.2;font-family:Arial;-inkscape-font-specification:'Arial Bold';text-align:center;text-anchor:middle;fill:#ffffff;fill-opacity:1;stroke:#ffffff;stroke-width:1;stroke-linecap:square;stroke-linejoin:round;stroke-dasharray:none;stroke-opacity:1"
           d="m 89.378044,76.781959 -1.413349,1.807643 0.55695,0.43366 0.875404,-2.228284 z m 1.104679,0.896174 -0.875396,2.22829 1.890529,1.373317 c 0.708292,0.55389 1.194388,0.976469 1.458307,1.268138 0.263919,0.291668 0.399781,0.650875 0.407727,1.076937 0.0039,0.422877 -0.194729,0.89062 -0.59583,1.403531 -0.394734,0.50477 -0.816539,0.817767 -1.265557,0.93896 -0.449907,0.113938 -0.888314,0.06601 -1.315165,-0.143144 -0.26298,-0.13349 -0.778855,-0.500604 -1.548227,-1.102259 l -3.429292,-2.609007 -1.413862,1.807129 3.356422,2.551641 c 1.0014,0.783103 1.804448,1.316339 2.409674,1.599388 0.409679,0.18917 0.873581,0.279457 1.391644,0.271299 0.513997,-0.01134 1.042684,-0.158695 1.585955,-0.442346 0.542373,-0.290913 1.147924,-0.863908 1.816425,-1.71876 0.553901,-0.708305 0.913284,-1.351957 1.07797,-1.931665 0.16062,-0.582886 0.189941,-1.124394 0.08836,-1.623675 -0.09838,-0.503346 -0.331357,-0.976938 -0.698664,-1.421618 -0.367307,-0.44468 -1.087986,-1.087645 -2.162661,-1.92805 z"
           sodipodi:nodetypes="ccccccccscscccccccccsccscc"
           transform="translate(58.514518,30.675262)" /><text
           xml:space="preserve"
           style="font-style:italic;font-variant:normal;font-weight:bold;font-stretch:normal;font-size:14.1111px;line-height:1.2;font-family:Arial;-inkscape-font-specification:'Arial Bold Italic';text-align:center;text-anchor:middle;fill:#ffffff;fill-opacity:1;stroke:#ffffff;stroke-width:1;stroke-linecap:square;stroke-linejoin:round;stroke-dasharray:none;stroke-opacity:1"
           x="3.0038822"
           y="46.686371"
           id="text280"
           transform="rotate(-44.498689,66.748647,-56.178969)"><tspan
             sodipodi:role="line"
             id="tspan280"
             style="font-style:italic;font-variant:normal;font-weight:bold;font-stretch:normal;font-family:Arial;-inkscape-font-specification:'Arial Bold Italic';stroke-width:1"
             x="3.0038824"
             y="46.686371">S</tspan></text><text
           xml:space="preserve"
           style="font-weight:bold;font-size:14.1111px;line-height:1.2;font-family:Arial;-inkscape-font-specification:'Arial Bold';text-align:center;text-anchor:middle;fill:#ffffff;fill-opacity:1;stroke:#ffffff;stroke-width:1;stroke-linecap:square;stroke-linejoin:round;stroke-dasharray:none;stroke-opacity:1"
           x="22.793133"
           y="45.594044"
           id="text281"
           transform="rotate(-33.043386,80.964335,-83.296072)"><tspan
             sodipodi:role="line"
             id="tspan281"
             style="stroke-width:1"
             x="22.793133"
             y="45.594044">C</tspan></text><text
           xml:space="preserve"
           style="font-weight:bold;font-size:14.1111px;line-height:1.2;font-family:Arial;-inkscape-font-specification:'Arial Bold';text-align:center;text-anchor:middle;fill:#ffffff;fill-opacity:1;stroke:#ffffff;stroke-width:1;stroke-linecap:square;stroke-linejoin:round;stroke-dasharray:none;stroke-opacity:1"
           x="95.420288"
           y="81.118217"
           id="text282"
           transform="rotate(-15.019919)"><tspan
             sodipodi:role="line"
             id="tspan282"
             style="stroke-width:1"
             x="95.420288"
             y="81.118217">O</tspan></text><text
           xml:space="preserve"
           style="font-weight:bold;font-size:14.1111px;line-height:1.2;font-family:Arial;-inkscape-font-specification:'Arial Bold';text-align:center;text-anchor:middle;fill:#ffffff;fill-opacity:1;stroke:#ffffff;stroke-width:1;stroke-linecap:square;stroke-linejoin:round;stroke-dasharray:none;stroke-opacity:1"
           x="131.35493"
           y="26.227385"
           id="text283"
           transform="rotate(12.642406)"><tspan
             sodipodi:role="line"
             id="tspan283"
             style="stroke-width:1"
             x="131.35493"
             y="26.227385">U</tspan></text><text
           xml:space="preserve"
           style="font-weight:bold;font-size:14.1111px;line-height:1.2;font-family:Arial;-inkscape-font-specification:'Arial Bold';text-align:center;text-anchor:middle;fill:#ffffff;fill-opacity:1;stroke:#ffffff;stroke-width:1;stroke-linecap:square;stroke-linejoin:round;stroke-dasharray:none;stroke-opacity:1"
           x="143.29329"
           y="-3.814055"
           id="text284"
           transform="rotate(24.880191)"><tspan
             sodipodi:role="line"
             id="tspan284"
             style="stroke-width:1"
             x="143.29329"
             y="-3.814055">T</tspan></text><text
           xml:space="preserve"
           style="font-style:italic;font-variant:normal;font-weight:bold;font-stretch:normal;font-size:14.1111px;line-height:1.2;font-family:Arial;-inkscape-font-specification:'Arial Bold Italic';text-align:center;text-anchor:middle;fill:#ffffff;fill-opacity:1;stroke:#ffffff;stroke-width:1;stroke-linecap:square;stroke-linejoin:round;stroke-dasharray:none;stroke-opacity:1"
           x="153.21227"
           y="-5.6454854"
           id="text285"
           transform="rotate(26.053437)"><tspan
             sodipodi:role="line"
             id="tspan285"
             style="font-style:italic;font-variant:normal;font-weight:bold;font-stretch:normal;font-family:Arial;-inkscape-font-specification:'Arial Bold Italic';stroke-width:1"
             x="153.21227"
             y="-5.6454854">S</tspan></text></g></g><g
       id="g107"><g
         id="g178"
         transform="translate(84.162668,563.94822)"
         inkscape:export-filename="Área de ciencia y tecnologia.svg"
         inkscape:export-xdpi="96"
         inkscape:export-ydpi="96"><circle
           style="display:inline;fill:#f9a86f;fill-opacity:1;stroke:#ffffff;stroke-width:1;stroke-linecap:square;stroke-linejoin:round;stroke-opacity:1"
           id="circle95"
           cx="116.89785"
           cy="89.058594"
           r="60" /><circle
           style="display:inline;fill:#ffffff;fill-opacity:1;stroke:#ffffff;stroke-width:1;stroke-linecap:square;stroke-linejoin:round;stroke-opacity:1"
           id="circle96"
           cx="116.89785"
           cy="89.058594"
           r="54.053749" /><path
           id="path97"
           style="display:inline;fill:#f9a86f;fill-opacity:1;stroke:none;stroke-width:1;stroke-linecap:square;stroke-linejoin:round;stroke-opacity:1"
           d="m 117.29465,40.168607 c -22.742213,0.05319 -42.265283,16.19718 -46.588372,38.524781 h 14.346928 c 4.051515,-14.458577 17.225954,-24.457386 32.241444,-24.469825 15.02202,0.0046 28.20574,10.004971 32.25902,24.469825 h 14.43529 C 159.65824,56.326703 140.07674,40.17114 117.29465,40.168607 Z M 69.953353,90.892126 c 1.658666,24.943744 22.342535,44.347224 47.341297,44.410724 24.99876,-0.0635 45.68263,-19.46697 47.3413,-44.410724 H 150.58099 C 148.95574,108.0715 134.55069,121.20832 117.29465,121.24789 100.03861,121.20829 85.633554,108.0715 84.008309,90.892126 Z"
           sodipodi:nodetypes="cccccccccccccc" /></g><g
         id="g324"
         transform="translate(213.8085,563.94822)"
         inkscape:export-filename="Área de Deportes.svg"
         inkscape:export-xdpi="96"
         inkscape:export-ydpi="96"><circle
           style="display:inline;fill:#006fb4;fill-opacity:1;stroke:#ffffff;stroke-width:1;stroke-linecap:square;stroke-linejoin:round;stroke-opacity:1"
           id="circle227"
           cx="116.89785"
           cy="89.058594"
           r="60" /><circle
           style="display:inline;fill:#ffffff;fill-opacity:1;stroke:#ffffff;stroke-width:1;stroke-linecap:square;stroke-linejoin:round;stroke-opacity:1"
           id="circle228"
           cx="116.89785"
           cy="89.058594"
           r="54.053749" /><path
           id="path232"
           style="display:inline;fill:#006fb4;fill-opacity:1;stroke:none;stroke-width:1;stroke-linecap:square;stroke-linejoin:round;stroke-opacity:1"
           d="m 117.29465,40.168607 c -22.742213,0.05319 -42.265283,16.19718 -46.588372,38.524781 h 14.346928 c 4.051515,-14.458577 17.225954,-24.457386 32.241444,-24.469825 15.02202,0.0046 28.20574,10.004971 32.25902,24.469825 h 14.43529 C 159.65824,56.326703 140.07674,40.17114 117.29465,40.168607 Z M 69.953353,90.892126 c 1.658666,24.943744 22.342535,44.347224 47.341297,44.410724 24.99876,-0.0635 45.68263,-19.46697 47.3413,-44.410724 H 150.58099 C 148.95574,108.0715 134.55069,121.20832 117.29465,121.24789 100.03861,121.20829 85.633554,108.0715 84.008309,90.892126 Z"
           sodipodi:nodetypes="cccccccccccccc" /></g><g
         id="g356"
         transform="translate(341.33767,563.94822)"
         inkscape:export-filename="Área de Espiritualidad, Arte, Expresión y Cultura.svg"
         inkscape:export-xdpi="96"
         inkscape:export-ydpi="96"><circle
           style="display:inline;fill:#d2ab66;fill-opacity:1;stroke:#ffffff;stroke-width:1;stroke-linecap:square;stroke-linejoin:round;stroke-opacity:1"
           id="circle355"
           cx="116.89785"
           cy="89.058594"
           r="60" /><circle
           style="display:inline;fill:#ffffff;fill-opacity:1;stroke:#ffffff;stroke-width:1;stroke-linecap:square;stroke-linejoin:round;stroke-opacity:1"
           id="circle356"
           cx="116.89785"
           cy="89.058594"
           r="54.053749" /><path
           id="path356"
           style="display:inline;fill:#d2ab66;fill-opacity:1;stroke:none;stroke-width:1;stroke-linecap:square;stroke-linejoin:round;stroke-opacity:1"
           d="m 117.29465,40.168607 c -22.742213,0.05319 -42.265283,16.19718 -46.588372,38.524781 h 14.346928 c 4.051515,-14.458577 17.225954,-24.457386 32.241444,-24.469825 15.02202,0.0046 28.20574,10.004971 32.25902,24.469825 h 14.43529 C 159.65824,56.326703 140.07674,40.17114 117.29465,40.168607 Z M 69.953353,90.892126 c 1.658666,24.943744 22.342535,44.347224 47.341297,44.410724 24.99876,-0.0635 45.68263,-19.46697 47.3413,-44.410724 H 150.58099 C 148.95574,108.0715 134.55069,121.20832 117.29465,121.24789 100.03861,121.20829 85.633554,108.0715 84.008309,90.892126 Z"
           sodipodi:nodetypes="cccccccccccccc" /></g><g
         id="g358"
         transform="translate(465.93872,563.94822)"
         inkscape:export-filename="Área de Vida en la Naturaleza.svg"
         inkscape:export-xdpi="96"
         inkscape:export-ydpi="96"><circle
           style="display:inline;fill:#148a4b;fill-opacity:1;stroke:#ffffff;stroke-width:1;stroke-linecap:square;stroke-linejoin:round;stroke-opacity:1"
           id="circle357"
           cx="116.89785"
           cy="89.058594"
           r="60" /><circle
           style="display:inline;fill:#ffffff;fill-opacity:1;stroke:#ffffff;stroke-width:1;stroke-linecap:square;stroke-linejoin:round;stroke-opacity:1"
           id="circle358"
           cx="116.89785"
           cy="89.058594"
           r="54.053749" /><path
           id="path358"
           style="display:inline;fill:#148a4b;fill-opacity:1;stroke:none;stroke-width:1;stroke-linecap:square;stroke-linejoin:round;stroke-opacity:1"
           d="m 117.29465,40.168607 c -22.742213,0.05319 -42.265283,16.19718 -46.588372,38.524781 h 14.346928 c 4.051515,-14.458577 17.225954,-24.457386 32.241444,-24.469825 15.02202,0.0046 28.20574,10.004971 32.25902,24.469825 h 14.43529 C 159.65824,56.326703 140.07674,40.17114 117.29465,40.168607 Z M 69.953353,90.892126 c 1.658666,24.943744 22.342535,44.347224 47.341297,44.410724 24.99876,-0.0635 45.68263,-19.46697 47.3413,-44.410724 H 150.58099 C 148.95574,108.0715 134.55069,121.20832 117.29465,121.24789 100.03861,121.20829 85.633554,108.0715 84.008309,90.892126 Z"
           sodipodi:nodetypes="cccccccccccccc" /></g><g
         id="g360"
         transform="translate(599.28872,563.94822)"
         inkscape:export-filename="Área de Servicios a los Demás.svg"
         inkscape:export-xdpi="96"
         inkscape:export-ydpi="96"><circle
           style="display:inline;fill:#e9252a;fill-opacity:1;stroke:#ffffff;stroke-width:1;stroke-linecap:square;stroke-linejoin:round;stroke-opacity:1"
           id="circle359"
           cx="116.89785"
           cy="89.058594"
           r="60" /><circle
           style="display:inline;fill:#ffffff;fill-opacity:1;stroke:#ffffff;stroke-width:1;stroke-linecap:square;stroke-linejoin:round;stroke-opacity:1"
           id="circle360"
           cx="116.89785"
           cy="89.058594"
           r="54.053749" /><path
           id="path360"
           style="display:inline;fill:#e9252a;fill-opacity:1;stroke:none;stroke-width:1;stroke-linecap:square;stroke-linejoin:round;stroke-opacity:1"
           d="m 117.29465,40.168607 c -22.742213,0.05319 -42.265283,16.19718 -46.588372,38.524781 h 14.346928 c 4.051515,-14.458577 17.225954,-24.457386 32.241444,-24.469825 15.02202,0.0046 28.20574,10.004971 32.25902,24.469825 h 14.43529 C 159.65824,56.326703 140.07674,40.17114 117.29465,40.168607 Z M 69.953353,90.892126 c 1.658666,24.943744 22.342535,44.347224 47.341297,44.410724 24.99876,-0.0635 45.68263,-19.46697 47.3413,-44.410724 H 150.58099 C 148.95574,108.0715 134.55069,121.20832 117.29465,121.24789 100.03861,121.20829 85.633554,108.0715 84.008309,90.892126 Z"
           sodipodi:nodetypes="cccccccccccccc" /></g><g
         id="g362"
         transform="translate(744.46953,563.94822)"
         inkscape:export-filename="Especialidades Institucionales.svg"
         inkscape:export-xdpi="96"
         inkscape:export-ydpi="96"
         inkscape:label="g362"><circle
           style="display:inline;fill:#693692;fill-opacity:1;stroke:#ffffff;stroke-width:1;stroke-linecap:square;stroke-linejoin:round;stroke-opacity:1"
           id="circle361"
           cx="116.89785"
           cy="89.058594"
           r="60" /><circle
           style="display:inline;fill:#ffffff;fill-opacity:1;stroke:#ffffff;stroke-width:1;stroke-linecap:square;stroke-linejoin:round;stroke-opacity:1"
           id="circle362"
           cx="116.89785"
           cy="89.058594"
           r="54.053749" /><path
           id="path362"
           style="display:inline;fill:#693692;fill-opacity:1;stroke:none;stroke-width:1;stroke-linecap:square;stroke-linejoin:round;stroke-opacity:1"
           d="m 117.29465,40.168607 c -22.742213,0.05319 -42.265283,16.19718 -46.588372,38.524781 h 14.346928 c 4.051515,-14.458577 17.225954,-24.457386 32.241444,-24.469825 15.02202,0.0046 28.20574,10.004971 32.25902,24.469825 h 14.43529 C 159.65824,56.326703 140.07674,40.17114 117.29465,40.168607 Z M 69.953353,90.892126 c 1.658666,24.943744 22.342535,44.347224 47.341297,44.410724 24.99876,-0.0635 45.68263,-19.46697 47.3413,-44.410724 H 150.58099 C 148.95574,108.0715 134.55069,121.20832 117.29465,121.24789 100.03861,121.20829 85.633554,108.0715 84.008309,90.892126 Z"
           sodipodi:nodetypes="cccccccccccccc" /></g><path
         style="fill:#e6e7e9;fill-opacity:1;stroke:#99a4b7;stroke-width:1;stroke-linecap:round;stroke-linejoin:round;stroke-dasharray:none;stroke-opacity:1"
         d="m 388.00047,48.086185 h 1.8715 v -1.868312 h 1.40193 v -1.969378 h 1.25728 V 42.49052 h 1.32404 v -1.769102 h 1.40193 v -1.802482 h 1.50208 v -1.691217 h 1.32404 v -1.780228 h 1.29066 v -1.846988 h 1.32405 v -1.813607 h 1.35742 v -1.824734 h 1.53545 v -1.680091 h 1.65784 v -1.858114 h 1.8715 v -1.868311 h 1.40193 v -1.969378 h 1.25728 v -1.757975 h 1.32405 V 19.05919 h 1.40192 v -1.802481 h 1.50208 v -1.691217 h 1.32404 v -1.780229 h 1.29067 v -1.846987 h 1.32404 v -1.813607 h 1.35742 V 8.2999343 h 1.53545 V 6.619843 h 1.65784 L 417.76023,3.8851176 384.93932,29.042484"
         id="path161"
         sodipodi:nodetypes="cccccccccccccccccccccccccccccccccccccccccccccccc" /><path
         style="fill:#834b37;fill-opacity:1;stroke:#77402d;stroke-width:1;stroke-linecap:round;stroke-linejoin:round;stroke-dasharray:none;stroke-opacity:1"
         d="m 384.3755,28.393336 c 0,0 3.47592,3.682688 2.57278,5.698967 -0.28108,0.627512 -1.58331,0.754361 -1.58331,0.754361 0,0 3.12996,2.036584 3.86166,3.649468 0.40174,0.88555 0.44357,2.001251 0.11127,2.915125 -0.39662,1.090721 -2.33655,2.58133 -2.33655,2.58133 0,0 1.81886,2.760978 0.99914,4.0936 -0.53718,0.873281 -3.15767,1.447362 -3.15767,1.447362 v 3.026389 h -5.20718 v -2.247539 c 0,0 1.82268,0.475844 2.0252,-0.289525 0.34617,-1.308313 -4.70414,-2.839876 -5.79142,-5.238401 -0.33076,-0.729636 -0.15028,-2.371838 -0.15028,-2.371838 h -3.80524 c 0,0 2.32421,-2.138034 2.2698,-3.538205 -0.0253,-0.650783 -1.1794,-1.5577 -1.1794,-1.5577 h 2.7371 v -2.803859 z"
         id="path107"
         sodipodi:nodetypes="cscsscsccccssccscccc" /><path
         style="fill:#ffffff;fill-opacity:1;stroke:#77402d;stroke-width:1;stroke-linecap:round;stroke-linejoin:round;stroke-dasharray:none;stroke-opacity:1"
         d="m 378.73977,39.147165 c 0,0 -2.32806,1.438561 0.29896,4.862159 3.03621,3.956866 4.60173,1.596368 4.60173,1.596368 -2.24146,-1.655473 -4.03977,-3.673528 -4.90069,-6.458527 z"
         id="path110"
         sodipodi:nodetypes="cscc" /><circle
         style="fill:#ffffff;fill-opacity:1;stroke:#77402d;stroke-width:1;stroke-linecap:round;stroke-linejoin:round;stroke-dasharray:none;stroke-opacity:1"
         id="path116"
         cx="384.3179"
         cy="37.006218"
         r="1.1894283" /><circle
         style="fill:#ffffff;fill-opacity:1;stroke:#77402d;stroke-width:1;stroke-linecap:round;stroke-linejoin:round;stroke-dasharray:none;stroke-opacity:1"
         id="circle116"
         cx="386.63095"
         cy="40.656773"
         r="1.1894283" /></g><g
       id="g195"
       style="display:inline;fill:none;fill-opacity:1;stroke:#99a4b7;stroke-opacity:1"
       transform="matrix(0.94803319,0,0,0.92711964,18.88059,9.5156981)"><path
         style="fill:none;fill-opacity:1;stroke:#99a4b7;stroke-width:1;stroke-linecap:round;stroke-linejoin:round;stroke-opacity:1"
         d="M 375.94349,178.6765 C 366.4633,163.88555 365.37686,147.31899 374.2381,128.64812"
         id="path100"
         sodipodi:nodetypes="cc" /><path
         style="fill:none;fill-opacity:1;stroke:#99a4b7;stroke-width:1;stroke-linecap:round;stroke-linejoin:round;stroke-opacity:1"
         d="m 390.90383,179.24968 c -8.21979,-16.38981 -7.9345,-33.15412 -0.34211,-50.27083"
         id="path101"
         sodipodi:nodetypes="cc" /><path
         style="fill:none;fill-opacity:1;stroke:#99a4b7;stroke-width:1;stroke-linecap:round;stroke-linejoin:round;stroke-opacity:1"
         d="m 406.8336,128.58197 c -3.40797,17.55433 -2.38913,34.30378 3.9026,50.09453"
         id="path102"
         sodipodi:nodetypes="cc" /><path
         style="fill:none;fill-opacity:1;stroke:#99a4b7;stroke-width:1;stroke-linecap:round;stroke-linejoin:round;stroke-opacity:1"
         d="m 422.10143,129.30668 c -5.68488,19.79611 -6.71282,34.52095 -11.36523,49.36982"
         id="path103"
         sodipodi:nodetypes="cc" /><path
         style="fill:none;fill-opacity:1;stroke:#99a4b7;stroke-width:1;stroke-linecap:round;stroke-linejoin:round;stroke-opacity:1"
         d="m 375.94349,178.6765 c -5.85,-14.79095 -6.44227,-31.35751 -1.70539,-50.02838"
         id="path104"
         sodipodi:nodetypes="cc" /><path
         style="fill:none;fill-opacity:1;stroke:#99a4b7;stroke-width:1;stroke-linecap:round;stroke-linejoin:round;stroke-opacity:1"
         d="m 375.94349,178.6765 c -1.10624,-14.87274 -0.96643,-31.45192 -1.70539,-50.02838"
         id="path105"
         sodipodi:nodetypes="cc" /><path
         style="fill:none;fill-opacity:1;stroke:#99a4b7;stroke-width:1;stroke-linecap:round;stroke-linejoin:round;stroke-opacity:1"
         d="m 375.94349,178.6765 c 3.97375,-14.87274 4.70651,-31.45192 -1.70539,-50.02838"
         id="path163"
         sodipodi:nodetypes="cc" /><path
         style="fill:none;fill-opacity:1;stroke:#99a4b7;stroke-width:1;stroke-linecap:round;stroke-linejoin:round;stroke-opacity:1"
         d="m 375.94349,178.6765 c 8.87749,-15.5989 10.40428,-32.91591 -1.70539,-50.02838"
         id="path164"
         sodipodi:nodetypes="cc" /><path
         style="fill:none;fill-opacity:1;stroke:#99a4b7;stroke-width:1;stroke-linecap:round;stroke-linejoin:round;stroke-opacity:1"
         d="m 390.90383,179.24968 c -2.19702,-16.94422 -2.38055,-33.67915 -0.34211,-50.27083"
         id="path166"
         sodipodi:nodetypes="cc" /><path
         style="fill:none;fill-opacity:1;stroke:#99a4b7;stroke-width:1;stroke-linecap:round;stroke-linejoin:round;stroke-opacity:1"
         d="m 390.90383,179.24968 c 4.40788,-17.416 3.3488,-34.08839 -0.34211,-50.27083"
         id="path167"
         sodipodi:nodetypes="cc" /><path
         style="fill:none;fill-opacity:1;stroke:#99a4b7;stroke-width:1;stroke-linecap:round;stroke-linejoin:round;stroke-opacity:1"
         d="m 390.90383,179.24968 c 10.78628,-21.88531 7.9363,-37.43177 -0.34211,-50.27083"
         id="path168"
         sodipodi:nodetypes="cc" /><path
         style="fill:none;fill-opacity:1;stroke:#99a4b7;stroke-width:1;stroke-linecap:round;stroke-linejoin:round;stroke-opacity:1"
         d="m 406.8336,128.58197 c -7.78875,17.10762 -7.86751,33.86794 3.9026,50.09453"
         id="path169"
         sodipodi:nodetypes="cc" /><path
         style="fill:none;fill-opacity:1;stroke:#99a4b7;stroke-width:1;stroke-linecap:round;stroke-linejoin:round;stroke-opacity:1"
         d="m 406.8336,128.58197 c 3.36161,17.55433 4.40823,34.30378 3.9026,50.09453"
         id="path170"
         sodipodi:nodetypes="cc" /><path
         style="fill:none;fill-opacity:1;stroke:#99a4b7;stroke-width:1;stroke-linecap:round;stroke-linejoin:round;stroke-opacity:1"
         d="m 406.8336,128.58197 c 7.89867,13.33798 8.70422,28.5281 3.9026,50.09453"
         id="path171"
         sodipodi:nodetypes="cc" /><path
         style="fill:none;fill-opacity:1;stroke:#99a4b7;stroke-width:1;stroke-linecap:round;stroke-linejoin:round;stroke-opacity:1"
         d="m 422.10143,129.30668 c 0.63495,19.08186 -2.63826,35.58033 -11.36523,49.36982"
         id="path172"
         sodipodi:nodetypes="cc" /><path
         style="fill:none;fill-opacity:1;stroke:#99a4b7;stroke-width:1;stroke-linecap:round;stroke-linejoin:round;stroke-opacity:1"
         d="m 422.10143,129.30668 c 6.25405,19.91091 2.49787,36.33812 -11.36523,49.36982"
         id="path173"
         sodipodi:nodetypes="cc" /><path
         style="fill:none;fill-opacity:1;stroke:#99a4b7;stroke-width:1;stroke-linecap:round;stroke-linejoin:round;stroke-opacity:1"
         d="m 422.10143,129.30668 c 11.60607,18.43449 7.37178,34.99359 -11.36523,49.36982"
         id="path174"
         sodipodi:nodetypes="cc" /></g><g
       id="g194"
       style="display:inline;fill:none;fill-opacity:1;stroke:#99a4b7;stroke-opacity:1"
       transform="matrix(0.94803319,0,0,0.92711964,18.88059,9.5156981)"><path
         style="fill:none;fill-opacity:1;stroke:#99a4b7;stroke-width:1;stroke-linecap:round;stroke-linejoin:round;stroke-opacity:1"
         d="m 403.14822,170.22842 h 17.81661"
         id="path175" /><path
         style="fill:none;fill-opacity:1;stroke:#99a4b7;stroke-width:1;stroke-linecap:round;stroke-linejoin:round;stroke-opacity:1"
         d="m 400.37107,165.39998 h 24.9524"
         id="path176" /><path
         style="fill:none;fill-opacity:1;stroke:#99a4b7;stroke-width:1;stroke-linecap:round;stroke-linejoin:round;stroke-opacity:1"
         d="M 428.80584,159.92749 H 398.57198"
         id="path177" /><path
         style="fill:none;fill-opacity:1;stroke:#99a4b7;stroke-width:1;stroke-linecap:round;stroke-linejoin:round;stroke-opacity:1"
         d="M 431.06938,154.50603 H 364.57475"
         id="path178" /><path
         style="fill:none;fill-opacity:1;stroke:#99a4b7;stroke-width:1;stroke-linecap:round;stroke-linejoin:round;stroke-opacity:1"
         d="m 364.63846,149.1538 h 67.14283"
         id="path179" /><path
         style="fill:none;fill-opacity:1;stroke:#99a4b7;stroke-width:1;stroke-linecap:round;stroke-linejoin:round;stroke-opacity:1"
         d="M 431.28007,144.60272 H 414.19161"
         id="path180" /><path
         style="fill:none;fill-opacity:1;stroke:#99a4b7;stroke-width:1;stroke-linecap:round;stroke-linejoin:round;stroke-opacity:1"
         d="m 415.97278,138.91932 h 13.24674"
         id="path182" /><path
         style="fill:none;fill-opacity:1;stroke:#99a4b7;stroke-width:1;stroke-linecap:round;stroke-linejoin:round;stroke-opacity:1"
         d="m 398.46768,144.32052 h 14.56683"
         id="path183" /><path
         style="fill:none;fill-opacity:1;stroke:#99a4b7;stroke-width:1;stroke-linecap:round;stroke-linejoin:round;stroke-opacity:1"
         d="m 400.05055,138.60189 h 11.67964"
         id="path184" /><path
         style="fill:none;fill-opacity:1;stroke:#99a4b7;stroke-width:1;stroke-linecap:round;stroke-linejoin:round;stroke-opacity:1"
         d="m 383.69925,144.09688 h 13.31606"
         id="path185" /><path
         style="fill:none;fill-opacity:1;stroke:#99a4b7;stroke-width:1;stroke-linecap:round;stroke-linejoin:round;stroke-opacity:1"
         d="m 385.24513,138.86613 h 10.7595"
         id="path187" /><path
         style="fill:none;fill-opacity:1;stroke:#99a4b7;stroke-width:1;stroke-linecap:round;stroke-linejoin:round;stroke-opacity:1"
         d="m 387.154,170.44497 h 8.26296"
         id="path188" /><path
         style="fill:none;fill-opacity:1;stroke:#99a4b7;stroke-width:1;stroke-linecap:round;stroke-linejoin:round;stroke-opacity:1"
         d="m 385.851,165.19645 h 10.40892"
         id="path189" /><path
         style="fill:none;fill-opacity:1;stroke:#99a4b7;stroke-width:1;stroke-linecap:round;stroke-linejoin:round;stroke-opacity:1"
         d="m 365.42622,159.67052 h 31.97403"
         id="path190"
         sodipodi:nodetypes="cc" /><path
         style="fill:none;fill-opacity:1;stroke:#99a4b7;stroke-width:1;stroke-linecap:round;stroke-linejoin:round;stroke-opacity:1"
         d="m 367.26011,165.08873 h 16.8312"
         id="path191" /><path
         style="fill:none;fill-opacity:1;stroke:#99a4b7;stroke-width:1;stroke-linecap:round;stroke-linejoin:round;stroke-opacity:1"
         d="m 369.91139,170.30055 h 12.51686"
         id="path192" /><path
         style="fill:none;fill-opacity:1;stroke:#99a4b7;stroke-width:1;stroke-linecap:round;stroke-linejoin:round;stroke-opacity:1"
         d="m 365.62707,144.01834 h 16.18676"
         id="path193" /><path
         style="fill:none;fill-opacity:1;stroke:#99a4b7;stroke-width:1;stroke-linecap:round;stroke-linejoin:round;stroke-opacity:1"
         d="m 367.43666,139.1205 h 12.7824"
         id="path194" /></g><g
       id="g205"
       transform="matrix(0.94803319,0,0,0.92711964,18.88059,9.5156981)"
       style="fill:#000000;fill-opacity:1;stroke:#000000;stroke-opacity:1"><path
         style="display:inline;fill:#000000;fill-opacity:1;stroke:#000000;stroke-width:1;stroke-linecap:round;stroke-linejoin:round;stroke-opacity:1"
         d="m 364.48731,152.69294 c 0,0 0.70745,-1.51785 1.53431,-1.45602 1.3838,0.10348 1.76136,3.5804 2.97657,2.91042 0.69114,-0.38104 -0.7822,-1.57957 -0.49609,-2.3151 0.3726,-0.95789 2.1548,-0.82277 2.51354,-1.78594 0.37237,-0.99976 -1.61788,-2.47373 -0.76068,-3.10886 0.60765,-0.45023 1.30958,1.55774 1.9513,1.15756 0.46922,-0.29261 -0.24641,-1.11258 -0.13229,-1.65365 0.19138,-0.90739 1.52325,-1.54194 1.32292,-2.4474 -0.12765,-0.57696 -1.41043,-0.46754 -1.42214,-1.05833 -0.0146,-0.73675 1.13261,-0.94382 1.71979,-1.38906 0.48506,-0.36781 0.88476,-0.97885 1.48829,-1.05834 0.50147,-0.0661 1.65409,0.0797 1.42213,0.52917 l -1.05832,2.05052 c -0.27086,0.52479 2.93671,-2.67396 2.34817,-4.20025 -0.74747,-1.93843 -3.52671,-1.35421 -5.39089,-1.356 -0.81312,-7.8e-4 -1.61136,0.78467 -2.4474,0.66146 -0.57804,-0.0852 -1.48828,-0.92604 -1.48828,-0.92604 -2.30119,4.7588 -3.8401,9.83186 -4.08093,15.44586 z"
         id="path195"
         sodipodi:nodetypes="csssssssssssssssscc" /><path
         style="fill:#000000;fill-opacity:1;stroke:#000000;stroke-width:1;stroke-linecap:round;stroke-linejoin:round;stroke-opacity:1"
         d="m 368.20444,156.19786 c 0.0399,1.40606 -0.40346,1.4505 1.12447,2.05052"
         id="path196"
         sodipodi:nodetypes="cc" /><path
         style="fill:#000000;fill-opacity:1;stroke:#000000;stroke-width:1;stroke-linecap:round;stroke-linejoin:round;stroke-opacity:1"
         d="m 370.16356,156.36438 c 0.18658,0.15424 0.59554,0.15588 0.68371,-0.10706 0.038,-0.0977 -0.21126,-0.43641 -0.0835,-0.47033 -0.24316,-0.0259 -0.79491,0.30166 -0.6002,0.57739 z"
         id="path197"
         sodipodi:nodetypes="ccccc" /><path
         style="fill:#000000;fill-opacity:1;stroke:#000000;stroke-width:1;stroke-linecap:round;stroke-linejoin:round;stroke-opacity:1"
         d="m 373.78056,156.79844 c -0.2637,1.24524 2.65971,2.06317 1.87705,0.63781 -0.60594,-0.27117 -1.35665,-0.1714 -1.87705,-0.63781 z"
         id="path198"
         sodipodi:nodetypes="ccc" /><path
         style="fill:#000000;fill-opacity:1;stroke:#000000;stroke-width:1;stroke-linecap:round;stroke-linejoin:round;stroke-opacity:1"
         d="m 372.73542,159.91856 c -0.73612,0.28381 -0.69173,1.29811 -1.31665,1.63605 -0.77818,-0.0399 -1.33774,0.56099 -1.17775,1.3434 0.0221,0.63909 0.58413,1.50937 1.29428,1.0361 0.50271,-0.32263 1.2744,-1.07914 1.83438,-0.48412 0.35335,0.70611 0.85707,1.40571 1.68029,1.56242 0.84998,0.098 0.86274,-0.94625 1.22656,-1.46089 0.35585,-0.68681 -0.10537,-1.36554 -0.52524,-1.89055 -0.33779,-0.66802 -1.1453,-0.71114 -1.68049,-1.14804 -0.37242,-0.42095 -0.70204,-0.80453 -1.33538,-0.59437 z"
         id="path199"
         sodipodi:nodetypes="cccccccccc" /><path
         style="fill:#000000;fill-opacity:1;stroke:#000000;stroke-width:1;stroke-linecap:round;stroke-linejoin:round;stroke-opacity:1"
         d="m 395.84699,138.42175 c -1.05682,-0.064 -2.11363,-0.12791 -3.17045,-0.19186 -0.22997,0.74836 -0.45993,1.49671 -0.6899,2.24507 -1.02462,0.48635 -0.49742,1.83381 0.56124,1.20454 0.47945,-1.26107 2.17453,-1.0634 2.40887,0.2456 1.20064,1.25858 1.08179,3.13465 1.60682,4.69854 0.39297,1.18058 0.17718,2.74426 1.27298,3.54978 0.81985,0.49763 1.00357,1.49999 1.87899,2.02175 1.02752,0.38627 1.79161,0.99868 1.93273,2.09522 0.60475,0.19424 1.13212,0.56942 1.6456,0.80086 -0.52603,0.92528 -0.96235,2.32537 -0.13348,3.16159 0.62666,0.80733 1.59944,1.57654 1.63024,2.54455 -0.10022,2.70255 -0.13523,5.40756 -0.20598,8.11122 0.18729,0.42481 1.87087,1.75754 0.95943,0.5484 -0.26539,-0.90926 -0.16095,-0.0383 -0.33105,-1.08832 -0.61253,-1.36195 0.62019,-2.43032 1.58748,-3.1089 0.18077,-0.71265 0.55122,-1.66987 0.85997,-2.14979 0.34724,-1.02923 1.53308,-1.34734 1.73335,-2.44518 0.16738,-1.0616 0.19761,-1.95724 0.95664,-2.78491 -0.19409,-1.16325 -2.08971,-0.91318 -2.57803,-2.09065 -0.50968,-0.76483 -2.00127,-0.91896 -2.26016,-1.19874 -1.17122,-0.6343 -3.5125,0.91808 -4.06957,-0.67471 -0.11632,-1.34902 -0.67418,-1.17045 -1.72717,-1.72064 -0.53871,-0.8603 0.66986,-3.33421 1.67319,-3.18594 1.14341,0.27492 1.82866,-0.49836 2.10457,-1.50122 0.40509,-0.89733 1.28141,-1.7897 2.28175,-1.87865 1.57174,-0.4576 -2.00588,-1.01293 -0.099,-1.51951 0.90617,-0.30177 1.3095,0.54605 1.9513,0.71102 0.72661,-1.36655 -1.02665,-2.19404 -1.85461,-2.92558 -0.56677,-0.37856 -1.23905,-1.08707 -1.21998,0.0725 -0.33438,0.94996 -0.82221,2.6784 -1.8941,1.18826 -0.90259,-0.87475 -2.21302,-2.16568 -0.71978,-3.26322 0.35847,-0.48944 2.49868,-0.59458 0.91789,-0.80234 -0.94362,-0.008 -1.86713,0.524 -3.00069,0.041 -1.11137,3.23316 -1.78359,6.61158 -2.01836,10.02184 -0.0441,-3.6664 -0.82884,-7.26693 -1.99078,-10.73158 z"
         id="path200"
         sodipodi:nodetypes="sccccccccccccccccccccccccccccccccccss" /><path
         style="fill:#000000;fill-opacity:1;stroke:#000000;stroke-width:1;stroke-linecap:round;stroke-linejoin:round;stroke-opacity:1"
         d="m 402.9806,137.61088 c 0.37218,0.78837 1.42453,-0.0183 2.03736,0.46269 0.81591,0.27227 0.56893,1.19794 0.80678,1.75149 0.86077,0.14615 0.5781,-0.97622 0.19554,-1.36928 -0.35792,-0.7006 -1.06048,-1.3049 -1.86132,-1.3657 -0.40906,0.0176 -0.97118,0.11945 -1.17836,0.5208 z"
         id="path201" /><path
         style="fill:#000000;fill-opacity:1;stroke:#000000;stroke-width:1;stroke-linecap:round;stroke-linejoin:round;stroke-opacity:1"
         d="m 407.09818,133.74135 c -0.91747,0.4843 -4.21589,-0.54636 -3.11189,1.27671 1.19798,0.11485 2.89126,-1.71321 3.19402,0.2994 2.0027,0.41853 2.0539,2.69507 1.66223,4.29659 0.29582,2.12693 1.43506,-0.58582 2.36189,-0.61775 1.13425,-0.87628 -1.56013,-2.91443 -1.53696,-4.20578 -0.35103,-1.97534 -1.02169,-1.56805 -2.56929,-1.04917 z"
         id="path202"
         sodipodi:nodetypes="ccccccc" /><path
         style="fill:#000000;fill-opacity:1;stroke:#000000;stroke-width:1;stroke-linecap:round;stroke-linejoin:round;stroke-opacity:1"
         d="m 428.72914,137.98706 c -0.83716,0.68793 -1.77917,1.20945 -2.71655,1.71822 -0.65106,0.57155 -2.36105,1.65867 -2.35554,0.0462 -0.38948,-1.18244 -1.93759,-0.961 -2.68951,-0.27654 -0.64984,0.63153 -1.72832,1.41372 -1.93551,2.17923 1.00187,0.77464 2.25518,0.33391 2.27554,-0.97881 0.12297,-0.99989 1.93803,-0.59375 0.87802,0.31855 -0.46138,0.83203 0.45605,1.34854 -0.16597,2.12809 -0.41873,1.5956 -2.49752,0.0626 -3.24605,1.46712 -1.16127,0.61565 -0.75149,2.04944 -1.91451,2.55886 -0.12945,1.5924 1.73895,0.5908 1.95408,-0.37354 0.53607,-0.93199 1.69069,-0.6702 2.48866,-0.34522 1.02357,0.22409 1.568,1.2913 2.21405,1.93523 0.70529,0.0973 1.25427,0.42509 0.73768,1.1436 -0.191,1.22619 1.18974,1.98815 1.29083,3.15667 0.94814,0.67887 2.14564,0.15341 2.77251,-0.66009 -1.00732,-0.20627 -1.85405,-0.8218 -1.68456,-1.89531 -0.63095,-1.11556 0.9255,0.23436 1.34126,0.41951 1.13973,-0.0561 1.91863,0.43174 2.3014,1.51607 0.53021,0.5283 1.46184,1.00807 1.02576,-0.069 0.78387,-3.17012 0.89481,-6.95238 -2.57159,-13.98892 z"
         id="path203"
         sodipodi:nodetypes="sccccccccccccccccccccs" /><path
         style="fill:#000000;fill-opacity:1;stroke:#000000;stroke-width:1;stroke-linecap:round;stroke-linejoin:round;stroke-opacity:1"
         d="m 419.87454,149.36166 c -1.08695,-0.41286 -2.34609,-0.87601 -2.85263,0.24159 -0.55602,0.69382 -1.00552,1.53045 -1.01344,2.44627 0.007,0.75056 0.24658,1.43689 0.15447,2.18547 0.0483,0.89304 0.96359,1.70327 1.85727,1.42016 0.71276,-0.3258 1.66594,-0.22107 2.03599,0.54936 0.49656,1.1384 0.52314,2.42251 0.96714,3.58225 -0.53179,1.25926 0.16739,2.55426 0.32461,3.8119 -0.27463,0.95205 0.94739,1.17722 1.50202,0.64163 0.89256,-0.42691 0.50425,-1.38148 0.70192,-2.11355 0.31002,-0.97935 1.30597,-1.66846 1.36155,-2.73281 -0.0671,-0.95603 -0.32083,-2.14271 0.49308,-2.86668 0.66542,-0.29384 1.48846,-1.08316 0.80747,-1.81389 -0.39375,-0.52912 -1.28665,-0.38772 -1.12047,-1.2154 -0.20587,-0.9062 -0.81256,-1.643 -1.39314,-2.34059 -0.35014,-0.96611 -1.46417,-1.14026 -2.34337,-1.31204 z"
         id="path204"
         sodipodi:nodetypes="ccccccccccccccccc" /><path
         style="fill:#000000;fill-opacity:1;stroke:#000000;stroke-width:1;stroke-linecap:round;stroke-linejoin:round;stroke-opacity:1"
         d="m 426.09524,161.42889 c -0.0465,0.11714 -0.24485,0.25346 -0.13033,0.37843 0.13626,0.0614 0.29976,0.0212 0.43349,-0.0306 0.20837,-0.0942 0.0839,-0.36131 0.0613,-0.52934 -0.0632,-0.21612 -0.0846,-0.44166 -0.0593,-0.6656 -0.0452,-0.15531 0.0321,-0.27294 0.12929,-0.37752 0.0134,-0.0551 -0.0542,0.14706 -0.0711,0.19632 -0.11675,0.34424 -0.22791,0.69084 -0.36338,1.02827 z"
         id="path205" /></g><path
       style="display:inline;fill:none;fill-opacity:1;stroke:#99a4b7;stroke-width:0.937518;stroke-linecap:round;stroke-linejoin:round;stroke-dasharray:none;stroke-opacity:1"
       d="m 373.67072,128.78789 c -13.07057,15.12804 -12.06662,30.60016 1.61675,46.38229 4.80475,-3.0569 7.52644,-9.16949 8.65379,-17.62082 0.72585,7.59851 2.80233,13.32584 5.52912,18.15223 4.43707,-6.45609 6.67242,-13.74031 6.76173,-21.83173 0.45894,9.28503 5.79387,15.57273 12.04002,21.30032 20.74779,-14.46267 26.94466,-29.59925 10.77462,-45.77173 -4.84457,5.39576 -7.8084,11.6771 -8.14085,19.19745 -0.15943,-7.33889 -2.16142,-14.00204 -6.33357,-19.86934 -5.00896,4.32046 -7.86716,10.66332 -8.52834,19.07211 -0.22161,-7.55987 -2.83563,-13.59386 -6.89793,-18.70415 -4.66917,6.36738 -6.84465,12.92987 -7.33689,19.62403 -0.59704,-7.33325 -3.53059,-13.90485 -8.13845,-19.93066 z"
       id="path162"
       sodipodi:nodetypes="ccccccccccccc" /></g></svg>
