<?xml version="1.0" encoding="UTF-8" standalone="no"?>
<!-- Created with Inkscape (http://www.inkscape.org/) -->

<svg
   width="121.00001mm"
   height="121.00001mm"
   viewBox="0 0 121.00001 121.00001"
   version="1.1"
   id="svg1"
   xml:space="preserve"
   inkscape:version="1.3.2 (091e20e, 2023-11-25, custom)"
   sodipodi:docname="Especialidades.svg"
   xmlns:inkscape="http://www.inkscape.org/namespaces/inkscape"
   xmlns:sodipodi="http://sodipodi.sourceforge.net/DTD/sodipodi-0.dtd"
   xmlns="http://www.w3.org/2000/svg"
   xmlns:svg="http://www.w3.org/2000/svg"><sodipodi:namedview
     id="namedview1"
     pagecolor="#ffffff"
     bordercolor="#000000"
     borderopacity="0.25"
     inkscape:showpageshadow="2"
     inkscape:pageopacity="0.0"
     inkscape:pagecheckerboard="0"
     inkscape:deskcolor="#d1d1d1"
     inkscape:document-units="mm"
     inkscape:zoom="0.35355339"
     inkscape:cx="1456.64"
     inkscape:cy="1028.1333"
     inkscape:window-width="1920"
     inkscape:window-height="991"
     inkscape:window-x="-9"
     inkscape:window-y="-9"
     inkscape:window-maximized="1"
     inkscape:current-layer="layer1" /><defs
     id="defs1" /><g
     inkscape:label="Capa 1"
     inkscape:groupmode="layer"
     id="layer1"
     transform="translate(-469.03229,31.623235)"><g
       id="g237"
       transform="translate(412.63444,-60.181829)"
       inkscape:label="Cocina sin Utensilios"><circle
         style="display:inline;fill:#f9a86f;fill-opacity:1;stroke:#ffffff;stroke-width:1;stroke-linecap:square;stroke-linejoin:round;stroke-opacity:1"
         id="circle3"
         cx="116.89785"
         cy="89.058594"
         r="60" /><circle
         style="display:inline;fill:#ffffff;fill-opacity:1;stroke:#ffffff;stroke-width:1;stroke-linecap:square;stroke-linejoin:round;stroke-opacity:1"
         id="circle4"
         cx="116.89785"
         cy="89.058594"
         r="54.053749" /><path
         id="path208"
         style="display:inline;fill:#f9a86f;fill-opacity:1;stroke:none;stroke-width:1;stroke-linecap:square;stroke-linejoin:round;stroke-opacity:1"
         d="M 116.89777,41.491524 C 94.155562,41.544718 74.632492,57.688704 70.309403,80.016305 H 84.656331 C 88.707846,65.557728 101.88228,55.558919 116.89777,55.54648 c 15.02202,0.0046 28.20574,10.004971 32.25902,24.469825 h 14.43529 C 159.26136,57.64962 139.67986,41.494057 116.89777,41.491524 Z M 69.556478,92.215043 c 1.658666,24.943747 22.342535,44.347227 47.341292,44.410727 24.99876,-0.0635 45.68263,-19.46697 47.3413,-44.410727 h -14.05496 c -1.62525,17.179377 -16.0303,30.316197 -33.28634,30.355767 -17.256036,-0.0396 -31.661091,-13.17639 -33.286336,-30.355767 z"
         sodipodi:nodetypes="cccccccccccccc" /><g
         id="g231"><text
           xml:space="preserve"
           style="font-weight:bold;font-size:14.1111px;line-height:1.2;font-family:Arial;-inkscape-font-specification:'Arial Bold';text-align:center;text-anchor:middle;fill:#ffffff;fill-opacity:1;stroke:#ffffff;stroke-width:1;stroke-linecap:square;stroke-linejoin:round;stroke-dasharray:none;stroke-opacity:1"
           x="84.139343"
           y="38.668396"
           id="text208"
           transform="rotate(49.651447,-3.8973156,78.581555)"><tspan
             sodipodi:role="line"
             id="tspan208"
             style="font-size:14.1111px;fill:#ffffff;fill-opacity:1;stroke:#ffffff;stroke-width:1;stroke-dasharray:none;stroke-opacity:1"
             x="84.139343"
             y="38.668396">D</tspan></text><text
           xml:space="preserve"
           style="font-weight:bold;font-size:14.1111px;line-height:1.2;font-family:Arial;-inkscape-font-specification:'Arial Bold';text-align:center;text-anchor:middle;fill:#ffffff;fill-opacity:1;stroke:#ffffff;stroke-width:1;stroke-linecap:square;stroke-linejoin:round;stroke-dasharray:none;stroke-opacity:1"
           x="81.138748"
           y="63.438328"
           id="text209"
           transform="rotate(32.416911,-23.506148,115.98634)"><tspan
             sodipodi:role="line"
             id="tspan209"
             style="font-size:14.1111px;fill:#ffffff;fill-opacity:1;stroke:#ffffff;stroke-width:1;stroke-dasharray:none;stroke-opacity:1"
             x="81.138748"
             y="63.438328">E</tspan></text><text
           xml:space="preserve"
           style="font-weight:bold;font-size:14.1111px;line-height:1.2;font-family:Arial;-inkscape-font-specification:'Arial Bold';text-align:center;text-anchor:middle;fill:#ffffff;fill-opacity:1;stroke:#ffffff;stroke-width:1;stroke-linecap:square;stroke-linejoin:round;stroke-dasharray:none;stroke-opacity:1"
           x="74.167931"
           y="83.492027"
           id="text210"
           transform="rotate(17.580526,-69.929297,204.5407)"><tspan
             sodipodi:role="line"
             id="tspan210"
             style="font-size:14.1111px;fill:#ffffff;fill-opacity:1;stroke:#ffffff;stroke-width:1;stroke-dasharray:none;stroke-opacity:1"
             x="74.167931"
             y="83.492027">L</tspan></text><text
           xml:space="preserve"
           style="font-weight:bold;font-size:14.1111px;line-height:1.2;font-family:Arial;-inkscape-font-specification:'Arial Bold';text-align:center;text-anchor:middle;fill:#ffffff;fill-opacity:1;stroke:#ffffff;stroke-width:1;stroke-linecap:square;stroke-linejoin:round;stroke-dasharray:none;stroke-opacity:1"
           x="58.342377"
           y="105.44102"
           id="text211"
           transform="rotate(-1.2470186,1438.6142,-2673.0762)"><tspan
             sodipodi:role="line"
             id="tspan211"
             style="font-size:14.1111px;fill:#ffffff;fill-opacity:1;stroke:#ffffff;stroke-width:1;stroke-dasharray:none;stroke-opacity:1"
             x="58.342377"
             y="105.44102">P</tspan></text><text
           xml:space="preserve"
           style="font-weight:bold;font-size:14.1111px;line-height:1.2;font-family:Arial;-inkscape-font-specification:'Arial Bold';text-align:center;text-anchor:middle;fill:#ffffff;fill-opacity:1;stroke:#ffffff;stroke-width:1;stroke-linecap:square;stroke-linejoin:round;stroke-dasharray:none;stroke-opacity:1"
           x="36.925251"
           y="119.13938"
           id="text212"
           transform="rotate(-18.271503,124.63216,-166.59454)"><tspan
             sodipodi:role="line"
             id="tspan212"
             style="font-size:14.1111px;fill:#ffffff;fill-opacity:1;stroke:#ffffff;stroke-width:1;stroke-dasharray:none;stroke-opacity:1"
             x="36.925251"
             y="119.13938">E</tspan></text><text
           xml:space="preserve"
           style="font-weight:bold;font-size:14.1111px;line-height:1.2;font-family:Arial;-inkscape-font-specification:'Arial Bold';text-align:center;text-anchor:middle;fill:#ffffff;fill-opacity:1;stroke:#ffffff;stroke-width:1;stroke-linecap:square;stroke-linejoin:round;stroke-dasharray:none;stroke-opacity:1"
           x="14.023943"
           y="126.68509"
           id="text225"
           transform="rotate(-35.071346,77.79661,-77.253487)"><tspan
             sodipodi:role="line"
             id="tspan225"
             style="font-size:14.1111px;fill:#ffffff;fill-opacity:1;stroke:#ffffff;stroke-width:1;stroke-dasharray:none;stroke-opacity:1"
             x="14.023943"
             y="126.68509">R</tspan></text><path
           id="path225"
           style="font-weight:bold;font-size:15.875px;line-height:1.2;font-family:Arial;-inkscape-font-specification:'Arial Bold';text-align:center;text-anchor:middle;fill:#ffffff;fill-opacity:1;stroke:#ffffff;stroke-width:1;stroke-linecap:square;stroke-linejoin:round;stroke-dasharray:none;stroke-opacity:1"
           d="m 89.378044,76.781959 -1.413349,1.807643 0.55695,0.43366 0.875404,-2.228284 z m 1.104679,0.896174 -0.875396,2.22829 1.890529,1.373317 c 0.708292,0.55389 1.194388,0.976469 1.458307,1.268138 0.263919,0.291668 0.399781,0.650875 0.407727,1.076937 0.0039,0.422877 -0.194729,0.89062 -0.59583,1.403531 -0.394734,0.50477 -0.816539,0.817767 -1.265557,0.93896 -0.449907,0.113938 -0.888314,0.06601 -1.315165,-0.143144 -0.26298,-0.13349 -0.778855,-0.500604 -1.548227,-1.102259 l -3.429292,-2.609007 -1.413862,1.807129 3.356422,2.551641 c 1.0014,0.783103 1.804448,1.316339 2.409674,1.599388 0.409679,0.18917 0.873581,0.279457 1.391644,0.271299 0.513997,-0.01134 1.042684,-0.158695 1.585955,-0.442346 0.542373,-0.290913 1.147924,-0.863908 1.816425,-1.71876 0.553901,-0.708305 0.913284,-1.351957 1.07797,-1.931665 0.16062,-0.582886 0.189941,-1.124394 0.08836,-1.623675 -0.09838,-0.503346 -0.331357,-0.976938 -0.698664,-1.421618 -0.367307,-0.44468 -1.087986,-1.087645 -2.162661,-1.92805 z"
           sodipodi:nodetypes="ccccccccscscccccccccsccscc"
           transform="translate(58.514518,30.675262)" /><text
           xml:space="preserve"
           style="font-style:italic;font-variant:normal;font-weight:bold;font-stretch:normal;font-size:14.1111px;line-height:1.2;font-family:Arial;-inkscape-font-specification:'Arial Bold Italic';text-align:center;text-anchor:middle;fill:#ffffff;fill-opacity:1;stroke:#ffffff;stroke-width:1;stroke-linecap:square;stroke-linejoin:round;stroke-dasharray:none;stroke-opacity:1"
           x="3.0038822"
           y="46.686371"
           id="text226"
           transform="rotate(-44.498689,66.748647,-56.178969)"><tspan
             sodipodi:role="line"
             id="tspan226"
             style="font-style:italic;font-variant:normal;font-weight:bold;font-stretch:normal;font-family:Arial;-inkscape-font-specification:'Arial Bold Italic';stroke-width:1"
             x="3.0038824"
             y="46.686371">S</tspan></text><text
           xml:space="preserve"
           style="font-weight:bold;font-size:14.1111px;line-height:1.2;font-family:Arial;-inkscape-font-specification:'Arial Bold';text-align:center;text-anchor:middle;fill:#ffffff;fill-opacity:1;stroke:#ffffff;stroke-width:1;stroke-linecap:square;stroke-linejoin:round;stroke-dasharray:none;stroke-opacity:1"
           x="22.793133"
           y="45.594044"
           id="text227"
           transform="rotate(-33.043386,80.964335,-83.296072)"><tspan
             sodipodi:role="line"
             id="tspan227"
             style="stroke-width:1"
             x="22.793133"
             y="45.594044">C</tspan></text><text
           xml:space="preserve"
           style="font-weight:bold;font-size:14.1111px;line-height:1.2;font-family:Arial;-inkscape-font-specification:'Arial Bold';text-align:center;text-anchor:middle;fill:#ffffff;fill-opacity:1;stroke:#ffffff;stroke-width:1;stroke-linecap:square;stroke-linejoin:round;stroke-dasharray:none;stroke-opacity:1"
           x="97.050377"
           y="79.026672"
           id="text228"
           transform="rotate(-13.775032)"><tspan
             sodipodi:role="line"
             id="tspan228"
             style="stroke-width:1"
             x="97.050377"
             y="79.026672">O</tspan></text><text
           xml:space="preserve"
           style="font-weight:bold;font-size:14.1111px;line-height:1.2;font-family:Arial;-inkscape-font-specification:'Arial Bold';text-align:center;text-anchor:middle;fill:#ffffff;fill-opacity:1;stroke:#ffffff;stroke-width:1;stroke-linecap:square;stroke-linejoin:round;stroke-dasharray:none;stroke-opacity:1"
           x="131.35493"
           y="26.227385"
           id="text229"
           transform="rotate(12.642406)"><tspan
             sodipodi:role="line"
             id="tspan229"
             style="stroke-width:1"
             x="131.35493"
             y="26.227385">U</tspan></text><text
           xml:space="preserve"
           style="font-weight:bold;font-size:14.1111px;line-height:1.2;font-family:Arial;-inkscape-font-specification:'Arial Bold';text-align:center;text-anchor:middle;fill:#ffffff;fill-opacity:1;stroke:#ffffff;stroke-width:1;stroke-linecap:square;stroke-linejoin:round;stroke-dasharray:none;stroke-opacity:1"
           x="143.29329"
           y="-3.814055"
           id="text230"
           transform="rotate(24.880191)"><tspan
             sodipodi:role="line"
             id="tspan230"
             style="stroke-width:1"
             x="143.29329"
             y="-3.814055">T</tspan></text><text
           xml:space="preserve"
           style="font-style:italic;font-variant:normal;font-weight:bold;font-stretch:normal;font-size:14.1111px;line-height:1.2;font-family:Arial;-inkscape-font-specification:'Arial Bold Italic';text-align:center;text-anchor:middle;fill:#ffffff;fill-opacity:1;stroke:#ffffff;stroke-width:1;stroke-linecap:square;stroke-linejoin:round;stroke-dasharray:none;stroke-opacity:1"
           x="153.21227"
           y="-5.6454854"
           id="text231"
           transform="rotate(26.053437)"><tspan
             sodipodi:role="line"
             id="tspan231"
             style="font-style:italic;font-variant:normal;font-weight:bold;font-stretch:normal;font-family:Arial;-inkscape-font-specification:'Arial Bold Italic';stroke-width:1"
             x="153.21227"
             y="-5.6454854">S</tspan></text></g><g
         id="g808"
         style="display:inline;stroke-width:1.05677;stroke-dasharray:none"
         transform="matrix(0.94628137,0,0,0.94628137,-385.82045,62.821119)"><path
           style="fill:#974f32;fill-opacity:1;stroke:#74412c;stroke-width:1.05677;stroke-linecap:round;stroke-linejoin:round;stroke-dasharray:none;stroke-opacity:1"
           d="m 516.39504,12.023643 c -2.21086,0.857461 -3.5861,3.497233 -5.05245,5.419886 -2.01741,2.645187 -3.91199,4.818845 -5.71311,7.164076 -0.37585,2.265152 0.69439,4.102521 1.56639,5.90114 0.89106,1.837939 2.66205,2.240928 4.25221,3.364918 1.44937,1.024478 2.65897,2.187975 4.68529,2.26156 1.91726,1.239994 4.14689,1.819698 6.24789,1.761591 4.27636,-0.118271 8.01976,-2.878901 7.51137,-8.092335 0.21611,-8.059562 -5.70454,-15.793037 -13.49759,-17.780836 z"
           id="path808"
           sodipodi:nodetypes="cscsscscc" /><path
           style="fill:#793b31;fill-opacity:1;stroke:#6e3127;stroke-width:1.05677;stroke-linecap:round;stroke-linejoin:round;stroke-dasharray:none;stroke-opacity:1"
           d="m 550.81417,8.8271697 c -5.40578,-2.8481763 -2.05698,-4.0094114 -18.29135,-4.0094114 -5.69025,1.174793 -9.7439,2.5369846 -14.91587,5.5091417 -1.72355,1.555777 -1.278,2.181983 -0.95081,3.934946 0.089,0.477093 2.37325,0.964892 2.28405,1.46525 -0.1028,0.576707 -2.61987,1.170098 -3.16144,1.78301 -2.35935,4.16793 5.08578,4.434128 1.47752,7.329315 -3.16468,4.489119 3.13244,7.939705 0.92056,12.104909 8.48885,-1.218138 17.2578,0.154921 25.82077,-0.973966 5.15379,-1.882569 7.70953,-7.05698 8.15684,-12.21928 0.33152,-4.331689 1.56981,-11.314636 -1.34027,-14.9239143 z"
           id="path807"
           sodipodi:nodetypes="cccsscccccc" /><path
           style="display:inline;fill:#f8ebc4;fill-opacity:1;stroke:#f4db8f;stroke-width:1.05677;stroke-linecap:round;stroke-linejoin:round;stroke-dasharray:none;stroke-opacity:1"
           d="m 558.67096,19.077794 c -1.04078,-3.03335 -2.53059,-5.833794 -5.47045,-7.274205 -1.36218,-2.9227848 -4.03633,-4.5408233 -7.25684,-4.3171831 -4.26457,-0.079209 -8.64011,-0.5648554 -12.82405,0.4773744 -2.94923,1.2902497 -7.05727,1.8880444 -8.20021,5.3912807 -2.3601,3.193151 -5.79795,6.291888 -5.91928,10.570611 0.12921,1.178595 3.70324,0.259044 0.91011,1.738358 -1.46735,2.3299 -1.85589,6.33466 -0.68714,8.777486 3.24521,1.637107 7.16516,0.161381 10.54275,1.679512 4.42087,1.135618 9.03351,-0.11231 13.49072,0.755576 2.86169,-0.37589 5.92735,-0.748391 8.44067,-2.223561 2.84472,-2.548167 5.65288,-5.560714 6.41735,-9.440364 0.40331,-2.00487 1.20181,-4.092057 0.55637,-6.134885 z"
           id="path805" /><path
           style="fill:#c5252d;fill-opacity:1;stroke:#c53425;stroke-width:1.05677;stroke-linecap:round;stroke-linejoin:round;stroke-dasharray:none;stroke-opacity:1"
           d="m 530.92318,14.943431 c 2.06382,0.691268 4.17738,-0.340693 5.91424,-1.399117 1.82028,-0.272964 3.11817,2.189581 5.01802,0.99451 2.69295,-0.09618 5.3938,0.178329 8.08098,0.07677 2.27048,0.331204 3.20571,2.582907 4.28997,4.271269 1.11052,1.442701 2.06345,3.411315 1.24408,5.217516 -0.28518,1.789332 0.37554,4.368684 -1.70321,5.27736 -0.74008,0.237434 -2.40045,1.815353 -2.42032,1.176162 1.67813,-0.864284 1.97388,-2.821916 2.98758,-4.18765 1.06574,-1.595891 -0.27227,-3.389166 -0.002,-5.114482 -0.40518,-2.249097 -2.40747,-3.672697 -4.23913,-4.77143 -2.40258,-1.202357 -5.41383,-1.769016 -7.83476,-0.278969 -1.57554,0.484456 -1.47678,1.866909 -0.97713,3.050848 -1.83104,0.767486 -1.94214,-2.380802 -3.62834,-2.467066 -1.43072,-0.38791 -2.91391,-0.752567 -4.42484,-0.698703 -1.38739,-0.111319 -2.70728,0.186183 -4.05496,0.443031 -1.97001,0.20539 -4.96307,-0.0078 -5.42469,2.532508 -0.53674,2.076752 -0.14354,4.924207 2.12234,5.780677 0.7729,1.455962 0.99883,3.627259 3.16869,3.417481 3.02229,0.989311 5.76795,2.977259 9.05386,3.00164 2.37185,-0.0244 4.74349,-0.07792 7.11867,-0.03867 1.53977,0.107909 3.20694,1.258549 4.75295,-0.04281 0.15602,1.121284 0.17054,3.361016 0.25078,3.792398 -0.68446,-2.271303 -3.73147,-1.73556 -5.46351,-2.740067 -3.09027,-0.755811 -6.31193,-0.03538 -9.41334,-0.517187 -2.00297,-0.780916 -3.94007,-1.726319 -5.97644,-2.409874 -1.93773,-0.775515 -3.92047,-1.479737 -5.91403,-2.073763 -1.57599,-0.296143 -2.45381,1.470335 -1.65511,2.434526 -1.38121,1.243358 -1.04958,3.120025 0.82946,3.506387 3.43786,1.777489 7.45291,1.372027 11.07663,2.517989 3.17725,0.80029 6.36952,2.274262 9.71769,1.809637 1.64339,-0.497139 3.39945,-0.614338 4.96474,-1.397219 1.5648,-0.631259 2.95635,-1.64537 4.55732,-2.15566 1.50237,-1.440929 2.80375,-3.206315 3.7737,-5.056349 1.13597,-2.843595 1.01255,-6.00271 0.73821,-8.991837 -0.71618,-2.845134 -2.21945,-5.730023 -4.76958,-7.313738 -2.40273,-1.252561 -5.07052,-1.862501 -7.6201,-2.734309 -3.14209,-0.8237897 -6.42206,0.165175 -9.30768,1.421956 -1.90063,0.912703 -3.72785,2.025112 -5.37102,3.337819 -0.0757,0.273261 0.38567,0.261995 0.54001,0.32842 z"
           id="path806" /><path
           style="fill:#f8ebc4;fill-opacity:1;stroke:#f4db8f;stroke-width:1.05677;stroke-linecap:round;stroke-linejoin:round;stroke-dasharray:none;stroke-opacity:1"
           d="m 512.89844,18.283795 c -2.29475,1.313167 -3.56422,3.334418 -4.16075,6.120587 0.36477,2.113726 1.38411,2.694958 2.35506,0.444342 1.80452,-1.124143 5.0741,-1.260103 3.87847,-4.05789 -0.5612,-2.63136 3.76829,-4.249928 3.90838,-6.680724 -1.4424,-1.055494 -4.365,3.802849 -5.98116,4.173685 z"
           id="path809"
           sodipodi:nodetypes="cccccc" /></g><g
         id="g809"
         style="display:inline;stroke-width:1.05677;stroke-dasharray:none"
         transform="matrix(0.94628137,0,0,0.94628137,-385.82045,62.821119)"><path
           style="display:inline;fill:#d1d2d4;fill-opacity:1;stroke:#575655;stroke-width:1.05677;stroke-linecap:round;stroke-linejoin:round;stroke-dasharray:none;stroke-opacity:1"
           d="m 514.47126,43.913816 c 2.0736,-0.02927 4.16442,-0.24292 6.14811,-0.873764 0.88986,-0.944094 0.84784,-2.402749 0.42982,-3.551673 -0.27723,-0.793293 -0.75837,-1.533352 -1.48929,-1.976503 -1.61712,-1.09513 -3.74925,-1.332435 -5.59672,-0.738158 -1.31703,0.780264 -2.70172,1.690767 -3.3609,3.130099 -0.30316,0.70782 -0.41673,1.628042 0.13708,2.246973 0.77693,0.881444 2.00736,1.051782 3.05133,1.455928 0.23324,0.08714 0.46373,0.184061 0.68057,0.307098 z"
           id="path796" /><path
           style="display:inline;fill:#d1d2d4;fill-opacity:1;stroke:#575655;stroke-width:1.05677;stroke-linecap:round;stroke-linejoin:round;stroke-dasharray:none;stroke-opacity:1"
           d="m 534.58329,35.448052 c -2.12527,-1.476615 -4.36436,-3.114656 -7.036,-3.306136 -1.80141,-0.142328 -3.41916,1.142264 -4.16373,2.70865 -1.22237,2.098714 -2.32889,4.438731 -2.20306,6.926769 0.10284,1.141948 0.70404,2.323893 1.78433,2.817278 1.97207,-0.150216 3.95011,-0.150539 5.92433,-0.247563 1.44446,-0.104914 2.9271,-0.267057 4.27083,-0.825891 1.43956,-1.03176 1.8394,-2.95601 1.67784,-4.627425 -0.11267,-1.145253 -0.29712,-2.29157 -0.25454,-3.445682 z"
           id="path797" /><path
           style="display:inline;fill:#d1d2d4;fill-opacity:1;stroke:#575655;stroke-width:1.05677;stroke-linecap:round;stroke-linejoin:round;stroke-dasharray:none;stroke-opacity:1"
           d="m 539.68144,46.720146 c 0.33996,-3.2769 -1.48266,-6.770635 -4.56837,-8.068883 -1.22924,-0.537654 -2.60178,-0.601693 -3.92177,-0.526939 -1.78008,0.164643 -3.24286,1.46506 -4.04468,3.000944 -0.89406,1.665543 -1.3009,3.562455 -1.35668,5.442644 0.57269,1.207171 1.85715,1.926063 3.16184,2.023423 2.1222,0.200231 4.20161,-0.424744 6.30375,-0.583716 1.50971,-0.295375 2.99821,-0.712011 4.42591,-1.287473 z"
           id="path798" /><path
           style="display:inline;fill:#d1d2d4;fill-opacity:1;stroke:#575655;stroke-width:1.05677;stroke-linecap:round;stroke-linejoin:round;stroke-dasharray:none;stroke-opacity:1"
           d="m 539.86853,33.390078 c 1.4544,-0.580157 3.20023,-0.33398 4.40011,0.68872 1.77175,1.47958 2.65627,3.848592 2.60766,6.124852 -0.0195,1.654226 -0.80127,3.449919 -2.40573,4.120553 -3.01293,1.041001 -6.64343,0.582572 -8.86837,-1.799294 -1.41988,-1.62181 -2.1333,-4.080834 -1.16326,-6.102866 0.77531,-1.632662 2.50686,-2.520264 4.20686,-2.866358 0.39676,-0.117964 0.81466,-0.113301 1.22273,-0.165607 z"
           id="path799"
           sodipodi:nodetypes="cccccccc" /><path
           style="display:inline;fill:#d1d2d4;fill-opacity:1;stroke:#575655;stroke-width:1.05677;stroke-linecap:round;stroke-linejoin:round;stroke-dasharray:none;stroke-opacity:1"
           d="m 557.17424,37.217881 c 0.61973,-3.366896 6.22853,1.979957 5.63791,-2.465987 -0.18047,-2.42828 -1.42254,-6.491029 -4.56645,-5.770753 -3.28575,0.938554 -4.2522,5.973174 -1.3804,7.963014 z"
           id="path802" /><path
           style="display:inline;fill:#d1d2d4;fill-opacity:1;stroke:#575655;stroke-width:1.05677;stroke-linecap:round;stroke-linejoin:round;stroke-dasharray:none;stroke-opacity:1"
           d="m 556.80006,41.481663 c 3.49601,2.020089 5.00854,-3.909309 2.20236,-5.558614 -1.6077,-2.451265 -5.11386,-5.011801 -7.56185,-2.035742 -2.8362,2.286209 0.251,5.604686 2.35391,7.070941 0.8939,0.539679 1.982,0.720288 3.00558,0.523415 z"
           id="path801" /><path
           style="display:inline;fill:#d1d2d4;fill-opacity:1;stroke:#575655;stroke-width:1.05677;stroke-linecap:round;stroke-linejoin:round;stroke-dasharray:none;stroke-opacity:1"
           d="m 553.66631,36.617357 c -3.63932,-3.817367 -10.39817,1.014824 -8.95876,5.781757 1.46009,4.659146 7.87229,4.970097 11.76082,3.79359 3.63392,-2.818265 -1.31092,-7.028755 -2.80206,-9.575347 z"
           id="path800" /><path
           style="display:inline;fill:#d1d2d4;fill-opacity:1;stroke:#575655;stroke-width:1.05677;stroke-linecap:round;stroke-linejoin:round;stroke-dasharray:none;stroke-opacity:1"
           d="m 506.1458,29.36767 c -2.49353,-1.053243 -5.5233,2.141831 -6.32047,4.976531 -0.89485,2.580104 1.71959,3.941614 3.90913,3.445676 2.58815,0.412934 3.69218,-2.255598 3.55246,-4.403072 -0.11826,-1.228526 0.69929,-3.241761 -1.14112,-4.019135 z"
           id="path804"
           sodipodi:nodetypes="scccs" /><path
           style="display:inline;fill:#d1d2d4;fill-opacity:1;stroke:#575655;stroke-width:1.05677;stroke-linecap:round;stroke-linejoin:round;stroke-dasharray:none;stroke-opacity:1"
           d="m 503.66689,32.735267 c -3.44573,3.505242 1.6066,9.414101 6.44441,8.260899 5.25624,-0.448561 3.8372,-7.897389 -1.11686,-7.646219 -1.89614,-0.475796 -3.95685,-2.009049 -5.32755,-0.61468 z"
           id="path803"
           sodipodi:nodetypes="sccs" /><path
           style="display:inline;fill:#d1d2d4;fill-opacity:1;stroke:#575655;stroke-width:1.05677;stroke-linecap:round;stroke-linejoin:round;stroke-dasharray:none;stroke-opacity:1"
           d="m 514.47126,43.913816 c -3.89575,0.970334 -7.93178,0.45464 -11.88875,0.324905 -4.00846,-1.170954 -2.25087,-7.753139 1.92558,-6.682753 3.87148,-0.09807 6.30996,3.281583 9.13075,5.360231 l 0.43824,0.475767 z"
           id="path795" /></g></g></g></svg>
