<?xml version="1.0" encoding="UTF-8" standalone="no"?>
<!-- Created with Inkscape (http://www.inkscape.org/) -->

<svg
   width="121.00001mm"
   height="120.99998mm"
   viewBox="0 0 121.00001 120.99998"
   version="1.1"
   id="svg1"
   xml:space="preserve"
   inkscape:version="1.3.2 (091e20e, 2023-11-25, custom)"
   sodipodi:docname="Especialidades.svg"
   xmlns:inkscape="http://www.inkscape.org/namespaces/inkscape"
   xmlns:sodipodi="http://sodipodi.sourceforge.net/DTD/sodipodi-0.dtd"
   xmlns="http://www.w3.org/2000/svg"
   xmlns:svg="http://www.w3.org/2000/svg"><sodipodi:namedview
     id="namedview1"
     pagecolor="#ffffff"
     bordercolor="#000000"
     borderopacity="0.25"
     inkscape:showpageshadow="2"
     inkscape:pageopacity="0.0"
     inkscape:pagecheckerboard="0"
     inkscape:deskcolor="#d1d1d1"
     inkscape:document-units="mm"
     inkscape:zoom="22.627417"
     inkscape:cx="2636.8012"
     inkscape:cy="1554.1102"
     inkscape:window-width="1920"
     inkscape:window-height="991"
     inkscape:window-x="-9"
     inkscape:window-y="-9"
     inkscape:window-maximized="1"
     inkscape:current-layer="layer1" /><defs
     id="defs1" /><g
     inkscape:label="Capa 1"
     inkscape:groupmode="layer"
     id="layer1"
     transform="translate(-467.10883,-343.57747)"><g
       id="g455"
       transform="translate(410.71097,315.01887)"
       inkscape:export-filename="Contramaestre"
       inkscape:export-xdpi="96"
       inkscape:export-ydpi="96"
       inkscape:label="Contramaestre"><circle
         style="display:inline;fill:#f9a86f;fill-opacity:1;stroke:#ffffff;stroke-width:1;stroke-linecap:square;stroke-linejoin:round;stroke-opacity:1"
         id="circle442"
         cx="116.89785"
         cy="89.058594"
         r="60" /><circle
         style="display:inline;fill:#ffffff;fill-opacity:1;stroke:#ffffff;stroke-width:1;stroke-linecap:square;stroke-linejoin:round;stroke-opacity:1"
         id="circle443"
         cx="116.89785"
         cy="89.058594"
         r="54.053749" /><path
         id="path443"
         style="display:inline;fill:#f9a86f;fill-opacity:1;stroke:none;stroke-width:1;stroke-linecap:square;stroke-linejoin:round;stroke-opacity:1"
         d="m 117.29465,40.168607 c -22.742213,0.05319 -42.265283,16.19718 -46.588372,38.524781 h 14.346928 c 4.051515,-14.458577 17.225954,-24.457386 32.241444,-24.469825 15.02202,0.0046 28.20574,10.004971 32.25902,24.469825 h 14.43529 C 159.65824,56.326703 140.07674,40.17114 117.29465,40.168607 Z M 69.953353,90.892126 c 1.658666,24.943744 22.342535,44.347224 47.341297,44.410724 24.99876,-0.0635 45.68263,-19.46697 47.3413,-44.410724 H 150.58099 C 148.95574,108.0715 134.55069,121.20832 117.29465,121.24789 100.03861,121.20829 85.633554,108.0715 84.008309,90.892126 Z"
         sodipodi:nodetypes="cccccccccccccc" /><g
         id="g454"
         transform="translate(0.396875,-1.3229167)"><text
           xml:space="preserve"
           style="font-weight:bold;font-size:14.1111px;line-height:1.2;font-family:Arial;-inkscape-font-specification:'Arial Bold';text-align:center;text-anchor:middle;fill:#ffffff;fill-opacity:1;stroke:#ffffff;stroke-width:1;stroke-linecap:square;stroke-linejoin:round;stroke-dasharray:none;stroke-opacity:1"
           x="84.139343"
           y="38.668396"
           id="text443"
           transform="rotate(49.651447,-3.8973156,78.581555)"><tspan
             sodipodi:role="line"
             id="tspan443"
             style="font-size:14.1111px;fill:#ffffff;fill-opacity:1;stroke:#ffffff;stroke-width:1;stroke-dasharray:none;stroke-opacity:1"
             x="84.139343"
             y="38.668396">D</tspan></text><text
           xml:space="preserve"
           style="font-weight:bold;font-size:14.1111px;line-height:1.2;font-family:Arial;-inkscape-font-specification:'Arial Bold';text-align:center;text-anchor:middle;fill:#ffffff;fill-opacity:1;stroke:#ffffff;stroke-width:1;stroke-linecap:square;stroke-linejoin:round;stroke-dasharray:none;stroke-opacity:1"
           x="81.138748"
           y="63.438328"
           id="text444"
           transform="rotate(32.416911,-23.506148,115.98634)"><tspan
             sodipodi:role="line"
             id="tspan444"
             style="font-size:14.1111px;fill:#ffffff;fill-opacity:1;stroke:#ffffff;stroke-width:1;stroke-dasharray:none;stroke-opacity:1"
             x="81.138748"
             y="63.438328">E</tspan></text><text
           xml:space="preserve"
           style="font-weight:bold;font-size:14.1111px;line-height:1.2;font-family:Arial;-inkscape-font-specification:'Arial Bold';text-align:center;text-anchor:middle;fill:#ffffff;fill-opacity:1;stroke:#ffffff;stroke-width:1;stroke-linecap:square;stroke-linejoin:round;stroke-dasharray:none;stroke-opacity:1"
           x="74.167931"
           y="83.492027"
           id="text445"
           transform="rotate(17.580526,-69.929297,204.5407)"><tspan
             sodipodi:role="line"
             id="tspan445"
             style="font-size:14.1111px;fill:#ffffff;fill-opacity:1;stroke:#ffffff;stroke-width:1;stroke-dasharray:none;stroke-opacity:1"
             x="74.167931"
             y="83.492027">L</tspan></text><text
           xml:space="preserve"
           style="font-weight:bold;font-size:14.1111px;line-height:1.2;font-family:Arial;-inkscape-font-specification:'Arial Bold';text-align:center;text-anchor:middle;fill:#ffffff;fill-opacity:1;stroke:#ffffff;stroke-width:1;stroke-linecap:square;stroke-linejoin:round;stroke-dasharray:none;stroke-opacity:1"
           x="58.342377"
           y="105.44102"
           id="text446"
           transform="rotate(-1.2470186,1438.6142,-2673.0762)"><tspan
             sodipodi:role="line"
             id="tspan446"
             style="font-size:14.1111px;fill:#ffffff;fill-opacity:1;stroke:#ffffff;stroke-width:1;stroke-dasharray:none;stroke-opacity:1"
             x="58.342377"
             y="105.44102">P</tspan></text><text
           xml:space="preserve"
           style="font-weight:bold;font-size:14.1111px;line-height:1.2;font-family:Arial;-inkscape-font-specification:'Arial Bold';text-align:center;text-anchor:middle;fill:#ffffff;fill-opacity:1;stroke:#ffffff;stroke-width:1;stroke-linecap:square;stroke-linejoin:round;stroke-dasharray:none;stroke-opacity:1"
           x="36.925251"
           y="119.13938"
           id="text447"
           transform="rotate(-18.271503,124.63216,-166.59454)"><tspan
             sodipodi:role="line"
             id="tspan447"
             style="font-size:14.1111px;fill:#ffffff;fill-opacity:1;stroke:#ffffff;stroke-width:1;stroke-dasharray:none;stroke-opacity:1"
             x="36.925251"
             y="119.13938">E</tspan></text><text
           xml:space="preserve"
           style="font-weight:bold;font-size:14.1111px;line-height:1.2;font-family:Arial;-inkscape-font-specification:'Arial Bold';text-align:center;text-anchor:middle;fill:#ffffff;fill-opacity:1;stroke:#ffffff;stroke-width:1;stroke-linecap:square;stroke-linejoin:round;stroke-dasharray:none;stroke-opacity:1"
           x="14.023943"
           y="126.68509"
           id="text448"
           transform="rotate(-35.071346,77.79661,-77.253487)"><tspan
             sodipodi:role="line"
             id="tspan448"
             style="font-size:14.1111px;fill:#ffffff;fill-opacity:1;stroke:#ffffff;stroke-width:1;stroke-dasharray:none;stroke-opacity:1"
             x="14.023943"
             y="126.68509">R</tspan></text><path
           id="path448"
           style="font-weight:bold;font-size:15.875px;line-height:1.2;font-family:Arial;-inkscape-font-specification:'Arial Bold';text-align:center;text-anchor:middle;fill:#ffffff;fill-opacity:1;stroke:#ffffff;stroke-width:1;stroke-linecap:square;stroke-linejoin:round;stroke-dasharray:none;stroke-opacity:1"
           d="m 89.378044,76.781959 -1.413349,1.807643 0.55695,0.43366 0.875404,-2.228284 z m 1.104679,0.896174 -0.875396,2.22829 1.890529,1.373317 c 0.708292,0.55389 1.194388,0.976469 1.458307,1.268138 0.263919,0.291668 0.399781,0.650875 0.407727,1.076937 0.0039,0.422877 -0.194729,0.89062 -0.59583,1.403531 -0.394734,0.50477 -0.816539,0.817767 -1.265557,0.93896 -0.449907,0.113938 -0.888314,0.06601 -1.315165,-0.143144 -0.26298,-0.13349 -0.778855,-0.500604 -1.548227,-1.102259 l -3.429292,-2.609007 -1.413862,1.807129 3.356422,2.551641 c 1.0014,0.783103 1.804448,1.316339 2.409674,1.599388 0.409679,0.18917 0.873581,0.279457 1.391644,0.271299 0.513997,-0.01134 1.042684,-0.158695 1.585955,-0.442346 0.542373,-0.290913 1.147924,-0.863908 1.816425,-1.71876 0.553901,-0.708305 0.913284,-1.351957 1.07797,-1.931665 0.16062,-0.582886 0.189941,-1.124394 0.08836,-1.623675 -0.09838,-0.503346 -0.331357,-0.976938 -0.698664,-1.421618 -0.367307,-0.44468 -1.087986,-1.087645 -2.162661,-1.92805 z"
           sodipodi:nodetypes="ccccccccscscccccccccsccscc"
           transform="translate(58.514518,30.675262)" /><text
           xml:space="preserve"
           style="font-style:italic;font-variant:normal;font-weight:bold;font-stretch:normal;font-size:14.1111px;line-height:1.2;font-family:Arial;-inkscape-font-specification:'Arial Bold Italic';text-align:center;text-anchor:middle;fill:#ffffff;fill-opacity:1;stroke:#ffffff;stroke-width:1;stroke-linecap:square;stroke-linejoin:round;stroke-dasharray:none;stroke-opacity:1"
           x="3.0038822"
           y="46.686371"
           id="text449"
           transform="rotate(-44.498689,66.748647,-56.178969)"><tspan
             sodipodi:role="line"
             id="tspan449"
             style="font-style:italic;font-variant:normal;font-weight:bold;font-stretch:normal;font-family:Arial;-inkscape-font-specification:'Arial Bold Italic';stroke-width:1"
             x="3.0038824"
             y="46.686371">S</tspan></text><text
           xml:space="preserve"
           style="font-weight:bold;font-size:14.1111px;line-height:1.2;font-family:Arial;-inkscape-font-specification:'Arial Bold';text-align:center;text-anchor:middle;fill:#ffffff;fill-opacity:1;stroke:#ffffff;stroke-width:1;stroke-linecap:square;stroke-linejoin:round;stroke-dasharray:none;stroke-opacity:1"
           x="22.793133"
           y="45.594044"
           id="text450"
           transform="rotate(-33.043386,80.964335,-83.296072)"><tspan
             sodipodi:role="line"
             id="tspan450"
             style="stroke-width:1"
             x="22.793133"
             y="45.594044">C</tspan></text><text
           xml:space="preserve"
           style="font-weight:bold;font-size:14.1111px;line-height:1.2;font-family:Arial;-inkscape-font-specification:'Arial Bold';text-align:center;text-anchor:middle;fill:#ffffff;fill-opacity:1;stroke:#ffffff;stroke-width:1;stroke-linecap:square;stroke-linejoin:round;stroke-dasharray:none;stroke-opacity:1"
           x="95.420288"
           y="81.118217"
           id="text451"
           transform="rotate(-15.019919)"><tspan
             sodipodi:role="line"
             id="tspan451"
             style="stroke-width:1"
             x="95.420288"
             y="81.118217">O</tspan></text><text
           xml:space="preserve"
           style="font-weight:bold;font-size:14.1111px;line-height:1.2;font-family:Arial;-inkscape-font-specification:'Arial Bold';text-align:center;text-anchor:middle;fill:#ffffff;fill-opacity:1;stroke:#ffffff;stroke-width:1;stroke-linecap:square;stroke-linejoin:round;stroke-dasharray:none;stroke-opacity:1"
           x="131.35493"
           y="26.227385"
           id="text452"
           transform="rotate(12.642406)"><tspan
             sodipodi:role="line"
             id="tspan452"
             style="stroke-width:1"
             x="131.35493"
             y="26.227385">U</tspan></text><text
           xml:space="preserve"
           style="font-weight:bold;font-size:14.1111px;line-height:1.2;font-family:Arial;-inkscape-font-specification:'Arial Bold';text-align:center;text-anchor:middle;fill:#ffffff;fill-opacity:1;stroke:#ffffff;stroke-width:1;stroke-linecap:square;stroke-linejoin:round;stroke-dasharray:none;stroke-opacity:1"
           x="143.29329"
           y="-3.814055"
           id="text453"
           transform="rotate(24.880191)"><tspan
             sodipodi:role="line"
             id="tspan453"
             style="stroke-width:1"
             x="143.29329"
             y="-3.814055">T</tspan></text><text
           xml:space="preserve"
           style="font-style:italic;font-variant:normal;font-weight:bold;font-stretch:normal;font-size:14.1111px;line-height:1.2;font-family:Arial;-inkscape-font-specification:'Arial Bold Italic';text-align:center;text-anchor:middle;fill:#ffffff;fill-opacity:1;stroke:#ffffff;stroke-width:1;stroke-linecap:square;stroke-linejoin:round;stroke-dasharray:none;stroke-opacity:1"
           x="153.21227"
           y="-5.6454854"
           id="text454"
           transform="rotate(26.053437)"><tspan
             sodipodi:role="line"
             id="tspan454"
             style="font-style:italic;font-variant:normal;font-weight:bold;font-stretch:normal;font-family:Arial;-inkscape-font-specification:'Arial Bold Italic';stroke-width:1"
             x="153.21227"
             y="-5.6454854">S</tspan></text></g><g
         id="g960"
         transform="translate(-410.71097,-315.01887)"><path
           id="path953"
           style="display:inline;fill:#445863;fill-opacity:1;stroke:#5e6c73;stroke-width:1;stroke-linecap:round;stroke-linejoin:round;stroke-miterlimit:10;stroke-opacity:1"
           d="m 541.81193,374.28687 c -1.76972,-0.0384 -3.5892,0.64759 -4.96869,2.50734 -2.61663,3.52761 -1.15187,6.68538 -1.15187,6.68538 l -7.29464,-4.29069 -2.02262,3.50314 8.81703,5.09065 -17.86867,29.99403 c -3.01608,5.06272 -12.39677,-0.9588 -9.8671,-9.92859 l 1.91771,1.0759 -1.82418,-6.40787 -4.8643,4.49016 h 1.82418 c -2.47596,3.78823 -3.17576,11.18817 4.26537,18.37614 2.06011,1.99001 3.01026,3.64931 3.8654,5.91747 3.56134,-0.82625 5.59571,-0.0367 9.4201,0.91571 7.07237,1.76117 13.72409,-1.99081 16.03157,-5.84564 l 1.56683,1.70687 0.74208,-6.70708 -6.35465,1.70274 1.37976,1.45004 c -4.68602,5.34452 -16.67888,1.88667 -12.59407,-5.18108 l 16.77521,-29.02511 8.847,5.1077 2.01952,-3.49746 -7.4781,-4.31756 c 0,0 4.12592,-1.03533 5.2586,-4.72943 1.34974,-4.40203 -1.08233,-6.70321 -3.41582,-7.83828 -0.91998,-0.44751 -1.96382,-0.73142 -3.02565,-0.75448 z m 0.24856,3.23495 a 3.3817058,3.3817058 0 0 1 3.38171,3.3817 3.3817058,3.3817058 0 0 1 -3.38171,3.38171 3.3817058,3.3817058 0 0 1 -3.3817,-3.38171 3.3817058,3.3817058 0 0 1 3.3817,-3.3817 z" /><path
           style="fill:none;fill-opacity:1;stroke:#a4bac4;stroke-width:1;stroke-linecap:round;stroke-linejoin:round;stroke-miterlimit:10;stroke-opacity:1"
           d="m 505.13348,406.16307 1.8016,-1.66508"
           id="path954"
           sodipodi:nodetypes="cc" /><path
           style="fill:none;fill-opacity:1;stroke:#a4bac4;stroke-width:1;stroke-linecap:round;stroke-linejoin:round;stroke-miterlimit:10;stroke-opacity:1"
           d="m 505.66926,419.07335 c -1.69729,-3.54992 -1.69206,-7.27009 -0.27181,-11.13176"
           id="path955"
           sodipodi:nodetypes="cc" /><path
           style="fill:none;fill-opacity:1;stroke:#a4bac4;stroke-width:1;stroke-linecap:round;stroke-linejoin:round;stroke-miterlimit:10;stroke-opacity:1"
           d="m 512.2028,420.40638 c 0,0 3.97104,1.33186 5.8156,-1.76637 l 18.03528,-30.29312"
           id="path956"
           sodipodi:nodetypes="csc" /><path
           style="fill:none;fill-opacity:1;stroke:#a4bac4;stroke-width:1;stroke-linecap:round;stroke-linejoin:round;stroke-miterlimit:10;stroke-opacity:1"
           d="m 521.62739,424.99005 c 3.80877,4.80761 8.13235,5.24223 13.1677,1.47566 -4.48396,2.35716 -8.96811,2.37663 -13.1677,-1.47566 z"
           id="path957"
           sodipodi:nodetypes="ccc" /><path
           style="fill:none;fill-opacity:1;stroke:#a4bac4;stroke-width:1;stroke-linecap:round;stroke-linejoin:round;stroke-miterlimit:10;stroke-opacity:1"
           d="m 536.2554,423.51088 2.30351,-0.6899"
           id="path958" /><path
           style="fill:none;fill-opacity:1;stroke:#a4bac4;stroke-width:1;stroke-linecap:round;stroke-linejoin:round;stroke-miterlimit:10;stroke-opacity:1"
           d="m 528.87266,380.69681 20.27108,11.7035"
           id="path959" /><path
           style="fill:none;fill-opacity:1;stroke:#a4bac4;stroke-width:1;stroke-linecap:round;stroke-linejoin:round;stroke-miterlimit:0.6;stroke-opacity:1"
           d="m 546.97791,378.69553 c -4.54957,-5.67578 -10.53723,-2.33754 -10.19635,3.47459 0.49029,-7.11647 6.47333,-7.91672 10.19635,-3.47459 z"
           id="path960"
           sodipodi:nodetypes="ccc" /></g></g></g></svg>
