<?xml version="1.0" encoding="UTF-8" standalone="no"?>
<!-- Created with Inkscape (http://www.inkscape.org/) -->

<svg
   width="121.00001mm"
   height="121mm"
   viewBox="0 0 121.00001 121"
   version="1.1"
   id="svg1"
   xml:space="preserve"
   inkscape:version="1.3.2 (091e20e, 2023-11-25, custom)"
   sodipodi:docname="Especialidades.svg"
   xmlns:inkscape="http://www.inkscape.org/namespaces/inkscape"
   xmlns:sodipodi="http://sodipodi.sourceforge.net/DTD/sodipodi-0.dtd"
   xmlns="http://www.w3.org/2000/svg"
   xmlns:svg="http://www.w3.org/2000/svg"><sodipodi:namedview
     id="namedview1"
     pagecolor="#ffffff"
     bordercolor="#000000"
     borderopacity="0.25"
     inkscape:showpageshadow="2"
     inkscape:pageopacity="0.0"
     inkscape:pagecheckerboard="0"
     inkscape:deskcolor="#d1d1d1"
     inkscape:document-units="mm"
     inkscape:zoom="0.35355339"
     inkscape:cx="1456.64"
     inkscape:cy="1028.1333"
     inkscape:window-width="1920"
     inkscape:window-height="991"
     inkscape:window-x="-9"
     inkscape:window-y="-9"
     inkscape:window-maximized="1"
     inkscape:current-layer="layer1" /><defs
     id="defs1" /><g
     inkscape:label="Capa 1"
     inkscape:groupmode="layer"
     id="layer1"
     transform="translate(-467.10883,-216.62822)"><g
       id="g442"
       transform="translate(410.71097,188.06963)"
       inkscape:export-filename="Agrimensor.svg"
       inkscape:export-xdpi="96"
       inkscape:export-ydpi="96"
       inkscape:label="Contabilidad"><circle
         style="display:inline;fill:#f9a86f;fill-opacity:1;stroke:#ffffff;stroke-width:1;stroke-linecap:square;stroke-linejoin:round;stroke-opacity:1"
         id="circle400"
         cx="116.89785"
         cy="89.058594"
         r="60" /><circle
         style="display:inline;fill:#ffffff;fill-opacity:1;stroke:#ffffff;stroke-width:1;stroke-linecap:square;stroke-linejoin:round;stroke-opacity:1"
         id="circle401"
         cx="116.89785"
         cy="89.058594"
         r="54.053749" /><path
         id="path401"
         style="display:inline;fill:#f9a86f;fill-opacity:1;stroke:none;stroke-width:1;stroke-linecap:square;stroke-linejoin:round;stroke-opacity:1"
         d="m 117.29465,40.168607 c -22.742213,0.05319 -42.265283,16.19718 -46.588372,38.524781 h 14.346928 c 4.051515,-14.458577 17.225954,-24.457386 32.241444,-24.469825 15.02202,0.0046 28.20574,10.004971 32.25902,24.469825 h 14.43529 C 159.65824,56.326703 140.07674,40.17114 117.29465,40.168607 Z M 69.953353,90.892126 c 1.658666,24.943744 22.342535,44.347224 47.341297,44.410724 24.99876,-0.0635 45.68263,-19.46697 47.3413,-44.410724 H 150.58099 C 148.95574,108.0715 134.55069,121.20832 117.29465,121.24789 100.03861,121.20829 85.633554,108.0715 84.008309,90.892126 Z"
         sodipodi:nodetypes="cccccccccccccc" /><g
         id="g412"
         transform="translate(0.396875,-1.3229167)"><text
           xml:space="preserve"
           style="font-weight:bold;font-size:14.1111px;line-height:1.2;font-family:Arial;-inkscape-font-specification:'Arial Bold';text-align:center;text-anchor:middle;fill:#ffffff;fill-opacity:1;stroke:#ffffff;stroke-width:1;stroke-linecap:square;stroke-linejoin:round;stroke-dasharray:none;stroke-opacity:1"
           x="84.139343"
           y="38.668396"
           id="text401"
           transform="rotate(49.651447,-3.8973156,78.581555)"><tspan
             sodipodi:role="line"
             id="tspan401"
             style="font-size:14.1111px;fill:#ffffff;fill-opacity:1;stroke:#ffffff;stroke-width:1;stroke-dasharray:none;stroke-opacity:1"
             x="84.139343"
             y="38.668396">D</tspan></text><text
           xml:space="preserve"
           style="font-weight:bold;font-size:14.1111px;line-height:1.2;font-family:Arial;-inkscape-font-specification:'Arial Bold';text-align:center;text-anchor:middle;fill:#ffffff;fill-opacity:1;stroke:#ffffff;stroke-width:1;stroke-linecap:square;stroke-linejoin:round;stroke-dasharray:none;stroke-opacity:1"
           x="81.138748"
           y="63.438328"
           id="text402"
           transform="rotate(32.416911,-23.506148,115.98634)"><tspan
             sodipodi:role="line"
             id="tspan402"
             style="font-size:14.1111px;fill:#ffffff;fill-opacity:1;stroke:#ffffff;stroke-width:1;stroke-dasharray:none;stroke-opacity:1"
             x="81.138748"
             y="63.438328">E</tspan></text><text
           xml:space="preserve"
           style="font-weight:bold;font-size:14.1111px;line-height:1.2;font-family:Arial;-inkscape-font-specification:'Arial Bold';text-align:center;text-anchor:middle;fill:#ffffff;fill-opacity:1;stroke:#ffffff;stroke-width:1;stroke-linecap:square;stroke-linejoin:round;stroke-dasharray:none;stroke-opacity:1"
           x="74.167931"
           y="83.492027"
           id="text403"
           transform="rotate(17.580526,-69.929297,204.5407)"><tspan
             sodipodi:role="line"
             id="tspan403"
             style="font-size:14.1111px;fill:#ffffff;fill-opacity:1;stroke:#ffffff;stroke-width:1;stroke-dasharray:none;stroke-opacity:1"
             x="74.167931"
             y="83.492027">L</tspan></text><text
           xml:space="preserve"
           style="font-weight:bold;font-size:14.1111px;line-height:1.2;font-family:Arial;-inkscape-font-specification:'Arial Bold';text-align:center;text-anchor:middle;fill:#ffffff;fill-opacity:1;stroke:#ffffff;stroke-width:1;stroke-linecap:square;stroke-linejoin:round;stroke-dasharray:none;stroke-opacity:1"
           x="58.342377"
           y="105.44102"
           id="text404"
           transform="rotate(-1.2470186,1438.6142,-2673.0762)"><tspan
             sodipodi:role="line"
             id="tspan404"
             style="font-size:14.1111px;fill:#ffffff;fill-opacity:1;stroke:#ffffff;stroke-width:1;stroke-dasharray:none;stroke-opacity:1"
             x="58.342377"
             y="105.44102">P</tspan></text><text
           xml:space="preserve"
           style="font-weight:bold;font-size:14.1111px;line-height:1.2;font-family:Arial;-inkscape-font-specification:'Arial Bold';text-align:center;text-anchor:middle;fill:#ffffff;fill-opacity:1;stroke:#ffffff;stroke-width:1;stroke-linecap:square;stroke-linejoin:round;stroke-dasharray:none;stroke-opacity:1"
           x="36.925251"
           y="119.13938"
           id="text405"
           transform="rotate(-18.271503,124.63216,-166.59454)"><tspan
             sodipodi:role="line"
             id="tspan405"
             style="font-size:14.1111px;fill:#ffffff;fill-opacity:1;stroke:#ffffff;stroke-width:1;stroke-dasharray:none;stroke-opacity:1"
             x="36.925251"
             y="119.13938">E</tspan></text><text
           xml:space="preserve"
           style="font-weight:bold;font-size:14.1111px;line-height:1.2;font-family:Arial;-inkscape-font-specification:'Arial Bold';text-align:center;text-anchor:middle;fill:#ffffff;fill-opacity:1;stroke:#ffffff;stroke-width:1;stroke-linecap:square;stroke-linejoin:round;stroke-dasharray:none;stroke-opacity:1"
           x="14.023943"
           y="126.68509"
           id="text406"
           transform="rotate(-35.071346,77.79661,-77.253487)"><tspan
             sodipodi:role="line"
             id="tspan406"
             style="font-size:14.1111px;fill:#ffffff;fill-opacity:1;stroke:#ffffff;stroke-width:1;stroke-dasharray:none;stroke-opacity:1"
             x="14.023943"
             y="126.68509">R</tspan></text><path
           id="path406"
           style="font-weight:bold;font-size:15.875px;line-height:1.2;font-family:Arial;-inkscape-font-specification:'Arial Bold';text-align:center;text-anchor:middle;fill:#ffffff;fill-opacity:1;stroke:#ffffff;stroke-width:1;stroke-linecap:square;stroke-linejoin:round;stroke-dasharray:none;stroke-opacity:1"
           d="m 89.378044,76.781959 -1.413349,1.807643 0.55695,0.43366 0.875404,-2.228284 z m 1.104679,0.896174 -0.875396,2.22829 1.890529,1.373317 c 0.708292,0.55389 1.194388,0.976469 1.458307,1.268138 0.263919,0.291668 0.399781,0.650875 0.407727,1.076937 0.0039,0.422877 -0.194729,0.89062 -0.59583,1.403531 -0.394734,0.50477 -0.816539,0.817767 -1.265557,0.93896 -0.449907,0.113938 -0.888314,0.06601 -1.315165,-0.143144 -0.26298,-0.13349 -0.778855,-0.500604 -1.548227,-1.102259 l -3.429292,-2.609007 -1.413862,1.807129 3.356422,2.551641 c 1.0014,0.783103 1.804448,1.316339 2.409674,1.599388 0.409679,0.18917 0.873581,0.279457 1.391644,0.271299 0.513997,-0.01134 1.042684,-0.158695 1.585955,-0.442346 0.542373,-0.290913 1.147924,-0.863908 1.816425,-1.71876 0.553901,-0.708305 0.913284,-1.351957 1.07797,-1.931665 0.16062,-0.582886 0.189941,-1.124394 0.08836,-1.623675 -0.09838,-0.503346 -0.331357,-0.976938 -0.698664,-1.421618 -0.367307,-0.44468 -1.087986,-1.087645 -2.162661,-1.92805 z"
           sodipodi:nodetypes="ccccccccscscccccccccsccscc"
           transform="translate(58.514518,30.675262)" /><text
           xml:space="preserve"
           style="font-style:italic;font-variant:normal;font-weight:bold;font-stretch:normal;font-size:14.1111px;line-height:1.2;font-family:Arial;-inkscape-font-specification:'Arial Bold Italic';text-align:center;text-anchor:middle;fill:#ffffff;fill-opacity:1;stroke:#ffffff;stroke-width:1;stroke-linecap:square;stroke-linejoin:round;stroke-dasharray:none;stroke-opacity:1"
           x="3.0038822"
           y="46.686371"
           id="text407"
           transform="rotate(-44.498689,66.748647,-56.178969)"><tspan
             sodipodi:role="line"
             id="tspan407"
             style="font-style:italic;font-variant:normal;font-weight:bold;font-stretch:normal;font-family:Arial;-inkscape-font-specification:'Arial Bold Italic';stroke-width:1"
             x="3.0038824"
             y="46.686371">S</tspan></text><text
           xml:space="preserve"
           style="font-weight:bold;font-size:14.1111px;line-height:1.2;font-family:Arial;-inkscape-font-specification:'Arial Bold';text-align:center;text-anchor:middle;fill:#ffffff;fill-opacity:1;stroke:#ffffff;stroke-width:1;stroke-linecap:square;stroke-linejoin:round;stroke-dasharray:none;stroke-opacity:1"
           x="22.793133"
           y="45.594044"
           id="text408"
           transform="rotate(-33.043386,80.964335,-83.296072)"><tspan
             sodipodi:role="line"
             id="tspan408"
             style="stroke-width:1"
             x="22.793133"
             y="45.594044">C</tspan></text><text
           xml:space="preserve"
           style="font-weight:bold;font-size:14.1111px;line-height:1.2;font-family:Arial;-inkscape-font-specification:'Arial Bold';text-align:center;text-anchor:middle;fill:#ffffff;fill-opacity:1;stroke:#ffffff;stroke-width:1;stroke-linecap:square;stroke-linejoin:round;stroke-dasharray:none;stroke-opacity:1"
           x="95.420288"
           y="81.118217"
           id="text409"
           transform="rotate(-15.019919)"><tspan
             sodipodi:role="line"
             id="tspan409"
             style="stroke-width:1"
             x="95.420288"
             y="81.118217">O</tspan></text><text
           xml:space="preserve"
           style="font-weight:bold;font-size:14.1111px;line-height:1.2;font-family:Arial;-inkscape-font-specification:'Arial Bold';text-align:center;text-anchor:middle;fill:#ffffff;fill-opacity:1;stroke:#ffffff;stroke-width:1;stroke-linecap:square;stroke-linejoin:round;stroke-dasharray:none;stroke-opacity:1"
           x="131.35493"
           y="26.227385"
           id="text410"
           transform="rotate(12.642406)"><tspan
             sodipodi:role="line"
             id="tspan410"
             style="stroke-width:1"
             x="131.35493"
             y="26.227385">U</tspan></text><text
           xml:space="preserve"
           style="font-weight:bold;font-size:14.1111px;line-height:1.2;font-family:Arial;-inkscape-font-specification:'Arial Bold';text-align:center;text-anchor:middle;fill:#ffffff;fill-opacity:1;stroke:#ffffff;stroke-width:1;stroke-linecap:square;stroke-linejoin:round;stroke-dasharray:none;stroke-opacity:1"
           x="143.29329"
           y="-3.814055"
           id="text411"
           transform="rotate(24.880191)"><tspan
             sodipodi:role="line"
             id="tspan411"
             style="stroke-width:1"
             x="143.29329"
             y="-3.814055">T</tspan></text><text
           xml:space="preserve"
           style="font-style:italic;font-variant:normal;font-weight:bold;font-stretch:normal;font-size:14.1111px;line-height:1.2;font-family:Arial;-inkscape-font-specification:'Arial Bold Italic';text-align:center;text-anchor:middle;fill:#ffffff;fill-opacity:1;stroke:#ffffff;stroke-width:1;stroke-linecap:square;stroke-linejoin:round;stroke-dasharray:none;stroke-opacity:1"
           x="153.21227"
           y="-5.6454854"
           id="text412"
           transform="rotate(26.053437)"><tspan
             sodipodi:role="line"
             id="tspan412"
             style="font-style:italic;font-variant:normal;font-weight:bold;font-stretch:normal;font-family:Arial;-inkscape-font-specification:'Arial Bold Italic';stroke-width:1"
             x="153.21227"
             y="-5.6454854">S</tspan></text></g><path
         style="display:inline;fill:#ffffff;fill-opacity:1;stroke:#2e3092;stroke-width:1;stroke-linecap:round;stroke-linejoin:round;stroke-dasharray:none;stroke-opacity:1"
         d="m 555.79446,271.36687 c -9.1441,1.92837 -8.24982,5.11768 -9.63508,7.81094 -1.39505,2.71228 -0.53884,4.08932 2.92327,3.9453 4.66476,-0.19405 10.29985,-3.45169 10.1935,-8.67374 -0.0224,-1.09873 -1.5455,-2.20371 -3.48169,-3.0825 l -16.48719,-7.34323 c -3.95648,0.70303 -5.93669,2.50909 -7.2263,4.7006 l 15.09883,7.67669"
         id="path233"
         sodipodi:nodetypes="csssccc"
         transform="translate(-410.71097,-188.06963)" /><path
         style="display:inline;fill:#bab6d9;fill-opacity:1;stroke:#2e3092;stroke-width:1;stroke-linecap:round;stroke-linejoin:round;stroke-dasharray:none;stroke-opacity:1"
         d="m 555.79446,271.36687 c -9.1441,1.92837 -8.24982,5.11768 -9.63508,7.81094 -1.39505,2.71228 -0.53884,4.08932 2.92327,3.9453 4.66476,-0.19405 10.29985,-3.45169 10.1935,-8.67374 -0.0224,-1.09873 -1.5455,-2.20371 -3.48169,-3.0825 -5.10721,0.88742 -7.442,2.75526 -8.61466,5.03406"
         id="path352"
         sodipodi:nodetypes="cssscc"
         transform="translate(-410.71097,-188.06963)" /><path
         style="display:inline;fill:#ffffff;fill-opacity:1;stroke:#2e3092;stroke-width:2;stroke-linecap:round;stroke-linejoin:round;stroke-dasharray:none;stroke-opacity:1"
         d="m 516.83413,296.43574 c -4.98374,-4.74121 -10.45754,-8.55131 -16.32298,-11.6173 5.25968,-8.69538 12.12121,-16.62891 27.49447,-20.51417 l 21.14075,13.33734 -5.81669,11.31159 -26.26404,12.98877 -15.55449,-12.15919 -1,-4.96434 c 6.19233,3.21501 11.54048,7.16868 16.32298,11.6173 l 0.23151,5.50623 -0.23151,-5.50623 c 9.70511,-10.20758 20.86175,-15.04447 32.31224,-18.79413 l -7.45371,10.89064"
         id="path223"
         sodipodi:nodetypes="ccccccccccccc"
         transform="translate(-410.71097,-188.06963)" /><path
         style="display:inline;fill:#bab6d9;fill-opacity:1;stroke:#2e3092;stroke-width:2;stroke-linecap:round;stroke-linejoin:round;stroke-dasharray:none;stroke-opacity:1"
         d="m 516.83413,296.43574 c -4.98374,-4.74121 -10.45754,-8.55131 -16.32298,-11.6173 m 48.63522,-7.17683 c -11.45049,3.74966 -22.60713,8.58655 -32.31224,18.79413 l 0.23151,5.50623 -0.23151,-5.50623 c -4.7825,-4.44862 -10.13065,-8.40229 -16.32298,-11.6173 l 1,4.96434 15.55449,12.15919 26.26404,-12.98877 5.81669,-11.31159 -7.45371,10.89064"
         id="path351"
         sodipodi:nodetypes="ccccccccccc"
         transform="translate(-410.71097,-188.06963)" /><path
         style="fill:#2e3092;fill-opacity:1;stroke:#2e3092;stroke-width:1;stroke-linecap:round;stroke-linejoin:round;stroke-miterlimit:4.2;stroke-dasharray:none;stroke-opacity:1"
         d="m 546.46342,279.83261 -6.01022,2.73619 4.58367,-0.28067 -8.39561,3.01684 6.68842,-1.30962 -11.43579,4.91108 10.52374,-2.71278 -11.50596,5.94006 10.78099,-3.60146"
         id="path224"
         sodipodi:nodetypes="ccccccccc"
         transform="translate(-410.71097,-188.06963)" /><ellipse
         style="fill:#2e3092;fill-opacity:1;stroke:#2e3092;stroke-width:1;stroke-linecap:round;stroke-linejoin:round;stroke-dasharray:none;stroke-opacity:1"
         id="path234"
         cx="360.41763"
         cy="501.84024"
         rx="2.0763006"
         ry="1.3687714"
         transform="rotate(-27.721286,-586.45494,738.21934)" /><path
         style="fill:none;fill-opacity:1;stroke:#2e3092;stroke-width:1;stroke-linecap:round;stroke-linejoin:round;stroke-dasharray:none;stroke-opacity:1"
         d="m 551.81881,280.40557 c 1.85511,-0.55692 3.1044,-1.59287 3.61899,-3.20974"
         id="path235"
         sodipodi:nodetypes="cc"
         transform="translate(-410.71097,-188.06963)" /><path
         style="fill:#bab6d9;fill-opacity:1;stroke:#2e3092;stroke-width:1;stroke-linecap:round;stroke-linejoin:round;stroke-dasharray:none;stroke-opacity:1"
         d="m 515.95761,291.51603 1.93034,-1.67 -1.81274,-1.61688 -1.95475,1.69456 1.9957,1.7142 1.93255,-1.67083 -0.39079,-0.28639"
         id="path236"
         sodipodi:nodetypes="ccccccc"
         transform="translate(-410.71097,-188.06963)" /><path
         style="fill:#bab6d9;fill-opacity:1;stroke:#2e3092;stroke-width:1;stroke-linecap:round;stroke-linejoin:round;stroke-dasharray:none;stroke-opacity:1"
         d="m 511.02942,287.77426 1.93034,-1.67 -1.81274,-1.61688 -1.95475,1.69456 1.9957,1.7142 1.93255,-1.67083 -0.39079,-0.28639"
         id="path237"
         sodipodi:nodetypes="ccccccc"
         transform="translate(-410.71097,-188.06963)" /><path
         style="fill:#bab6d9;fill-opacity:1;stroke:#2e3092;stroke-width:1;stroke-linecap:round;stroke-linejoin:round;stroke-dasharray:none;stroke-opacity:1"
         d="m 506.10123,284.50021 1.93034,-1.67 -1.81274,-1.61688 -1.95475,1.69456 1.9957,1.7142 1.93255,-1.67083 -0.39079,-0.28639"
         id="path239"
         sodipodi:nodetypes="ccccccc"
         transform="translate(-410.71097,-188.06963)" /><path
         style="fill:#bab6d9;fill-opacity:1;stroke:#2e3092;stroke-width:1;stroke-linecap:round;stroke-linejoin:round;stroke-dasharray:none;stroke-opacity:1"
         d="m 520.0034,287.77426 1.93034,-1.67 -1.81274,-1.61688 -1.95475,1.69456 1.9957,1.7142 1.93255,-1.67083 -0.39079,-0.28639"
         id="path241"
         sodipodi:nodetypes="ccccccc"
         transform="translate(-410.71097,-188.06963)" /><path
         style="fill:#bab6d9;fill-opacity:1;stroke:#2e3092;stroke-width:1;stroke-linecap:round;stroke-linejoin:round;stroke-dasharray:none;stroke-opacity:1"
         d="m 515.07521,284.03249 1.93034,-1.67 -1.81274,-1.61688 -1.95475,1.69456 1.9957,1.7142 1.93255,-1.67083 -0.39079,-0.28639"
         id="path242"
         sodipodi:nodetypes="ccccccc"
         transform="translate(-410.71097,-188.06963)" /><path
         style="fill:#bab6d9;fill-opacity:1;stroke:#2e3092;stroke-width:1;stroke-linecap:round;stroke-linejoin:round;stroke-dasharray:none;stroke-opacity:1"
         d="m 510.14702,280.75844 1.93034,-1.67 -1.81274,-1.61688 -1.95475,1.69456 1.9957,1.7142 1.93255,-1.67083 -0.39079,-0.28639"
         id="path245"
         sodipodi:nodetypes="ccccccc"
         transform="translate(-410.71097,-188.06963)" /><path
         style="fill:#bab6d9;fill-opacity:1;stroke:#2e3092;stroke-width:1;stroke-linecap:round;stroke-linejoin:round;stroke-dasharray:none;stroke-opacity:1"
         d="m 524.19523,283.82201 1.93034,-1.67 -1.81274,-1.61688 -1.95475,1.69456 1.9957,1.7142 1.93255,-1.67083 -0.39079,-0.28639"
         id="path246"
         sodipodi:nodetypes="ccccccc"
         transform="translate(-410.71097,-188.06963)" /><path
         style="fill:#bab6d9;fill-opacity:1;stroke:#2e3092;stroke-width:1;stroke-linecap:round;stroke-linejoin:round;stroke-dasharray:none;stroke-opacity:1"
         d="m 519.26704,280.08024 1.93034,-1.67 -1.81274,-1.61688 -1.95475,1.69456 1.9957,1.7142 1.93255,-1.67083 -0.39079,-0.28639"
         id="path247"
         sodipodi:nodetypes="ccccccc"
         transform="translate(-410.71097,-188.06963)" /><path
         style="fill:#bab6d9;fill-opacity:1;stroke:#2e3092;stroke-width:1;stroke-linecap:round;stroke-linejoin:round;stroke-dasharray:none;stroke-opacity:1"
         d="m 514.33885,276.80619 1.93034,-1.67 -1.81274,-1.61688 -1.95475,1.69456 1.9957,1.7142 1.93255,-1.67083 -0.39079,-0.28639"
         id="path248"
         sodipodi:nodetypes="ccccccc"
         transform="translate(-410.71097,-188.06963)" /><path
         style="display:inline;fill:#2e3092;fill-opacity:1;stroke:#2e3092;stroke-width:1;stroke-linecap:round;stroke-linejoin:round;stroke-dasharray:none;stroke-opacity:1"
         d="m 527.28517,267.25671 12.40234,7.96698 -10.51719,6.15661 -11.50404,-8.36097 z"
         id="path249"
         transform="translate(-410.71097,-188.06963)" /><path
         style="display:inline;fill:#bab6d9;fill-opacity:1;stroke:#2e3092;stroke-width:1;stroke-linecap:round;stroke-linejoin:round;stroke-dasharray:none;stroke-opacity:1"
         d="m 548.38105,265.37677 -10.03131,-5.29937 c 0,0 7.07612,-5.12837 10.77969,-2.41478 2.25907,1.65521 -0.74835,7.71415 -0.74835,7.71415 z"
         id="path251"
         sodipodi:nodetypes="ccscc"
         transform="translate(-410.71097,-188.06963)" /><path
         style="display:inline;fill:#ffffff;fill-opacity:1;stroke:#2e3092;stroke-width:1;stroke-linecap:round;stroke-linejoin:round;stroke-dasharray:none;stroke-opacity:1"
         d="m 548.51999,257.29831 -16.13501,-6.09025 c -2.46247,-0.92947 -5.66263,0.46373 -7.55622,2.29184 -1.32769,1.28178 -1.68945,2.91563 -1.79228,5.23824 -0.10282,2.32261 1.50461,6.81847 1.00509,8.64983 -0.71466,2.62009 -4.26172,4.36513 -4.26172,4.36513 5.10052,1.82642 9.16075,3.61551 11.9164,6.74464 0,0 4.55193,-3.81266 5.41273,-6.42929 1.0046,-3.05375 -2.43983,-7.04161 -0.74836,-9.77539 2.21805,-3.58482 9.1683,-6.97591 12.76881,-4.63044 2.25941,1.47183 -0.74836,7.71415 -0.74836,7.71415 l 2.93774,1.07902 5.52802,-2.66602 -6.94398,-3.15989"
         id="path252"
         sodipodi:nodetypes="cssssccssscccc"
         transform="translate(-410.71097,-188.06963)" /><path
         style="fill:#ffffff;fill-opacity:1;stroke:#2e3092;stroke-width:1;stroke-linecap:round;stroke-linejoin:round;stroke-dasharray:none;stroke-opacity:1"
         d="m 538.72262,266.75673 c 0.20494,-0.0756 0.68577,0.0263 1.26283,0.19015"
         id="path253"
         sodipodi:nodetypes="cc"
         transform="translate(-410.71097,-188.06963)" /><path
         style="fill:#ffffff;fill-opacity:1;stroke:#2e3092;stroke-width:1;stroke-linecap:round;stroke-linejoin:round;stroke-dasharray:none;stroke-opacity:1"
         d="m 541.50556,268.06943 c 0.8541,0.0226 1.5881,0.12935 1.82412,0.58465"
         id="path254"
         sodipodi:nodetypes="cc"
         transform="translate(-410.71097,-188.06963)" /><path
         style="fill:#ffffff;fill-opacity:1;stroke:#2e3092;stroke-width:1;stroke-linecap:round;stroke-linejoin:round;stroke-dasharray:none;stroke-opacity:1"
         d="m 543.82966,269.68307 c 0.78139,0.0539 0.88578,-0.0275 1.06688,-0.0936"
         id="path256"
         sodipodi:nodetypes="cc"
         transform="translate(-410.71097,-188.06963)" /><path
         style="fill:#ffffff;fill-opacity:1;stroke:#2e3092;stroke-width:1;stroke-linecap:round;stroke-linejoin:round;stroke-dasharray:none;stroke-opacity:1"
         d="m 546.34648,270.75881 0.65479,-0.0701"
         id="path257"
         transform="translate(-410.71097,-188.06963)" /><path
         style="fill:#ffffff;fill-opacity:1;stroke:#2e3092;stroke-width:1;stroke-linecap:round;stroke-linejoin:round;stroke-dasharray:none;stroke-opacity:1"
         d="m 548.35769,271.83458 0.70157,0.0233"
         id="path259"
         transform="translate(-410.71097,-188.06963)" /><path
         style="fill:none;fill-opacity:1;stroke:#f06dac;stroke-width:1;stroke-linecap:round;stroke-linejoin:round;stroke-dasharray:none;stroke-opacity:1"
         d="m 526.78629,268.31504 0.82253,-0.39687 v 2.67891"
         id="path336"
         transform="translate(-410.71097,-188.06963)" /><path
         style="fill:none;fill-opacity:1;stroke:#2e3092;stroke-width:1;stroke-linecap:round;stroke-linejoin:round;stroke-dasharray:none;stroke-opacity:1"
         d="m 531.1299,271.62233 h 1.37252 l -0.74414,1.08315 c 1.55727,0.76102 0.0546,1.80313 -0.86816,0.75241"
         id="path337"
         sodipodi:nodetypes="cccc"
         transform="translate(-410.71097,-188.06963)" /><path
         style="fill:none;fill-opacity:1;stroke:#4cc8f4;stroke-width:1;stroke-linecap:round;stroke-linejoin:round;stroke-dasharray:none;stroke-opacity:1"
         d="m 531.50195,266.71102 c -0.63521,0.1181 -0.73023,1.02873 -0.11331,1.36055 0.57297,0.30818 0.95284,-0.62219 0.63891,-1.16632 -0.0746,-0.1293 -0.19803,-0.25513 -0.5256,-0.19423 z"
         id="path338"
         sodipodi:nodetypes="ssss"
         transform="translate(-410.71097,-188.06963)" /><path
         style="fill:none;fill-opacity:1;stroke:#f38667;stroke-width:1;stroke-linecap:round;stroke-linejoin:round;stroke-dasharray:none;stroke-opacity:1"
         d="m 528.86022,264.20248 -1.42095,-0.34726 -0.23827,0.61867 c 1.5684,0.81241 0.99158,2.18878 -0.67651,0.95555"
         id="path339"
         sodipodi:nodetypes="cccc"
         transform="translate(-410.71097,-188.06963)" /><path
         style="fill:none;fill-opacity:1;stroke:#2e3092;stroke-width:1;stroke-linecap:round;stroke-linejoin:round;stroke-dasharray:none;stroke-opacity:1"
         d="m 533.03395,260.59172 c -1.44544,-0.90285 -2.87529,-0.31958 -2.81217,1.42656 0.0417,1.15442 2.18161,1.67694 2.59586,0.37417 0.29041,-0.91333 -1.64786,-1.16282 -2.59586,-0.37417"
         id="path340"
         sodipodi:nodetypes="cssc"
         transform="translate(-410.71097,-188.06963)" /><path
         style="fill:none;fill-opacity:1;stroke:#83c696;stroke-width:1;stroke-linecap:round;stroke-linejoin:round;stroke-dasharray:none;stroke-opacity:1"
         d="m 527.13782,256.35157 1.18209,-0.69749 -0.0905,1.31103 c 1.72793,-0.13594 0.96333,1.5252 -0.36535,1.08919"
         id="path341"
         sodipodi:nodetypes="cccc"
         transform="translate(-410.71097,-188.06963)" /><path
         style="fill:none;fill-opacity:1;stroke:#2e3092;stroke-width:1;stroke-linecap:round;stroke-linejoin:round;stroke-dasharray:none;stroke-opacity:1"
         d="m 535.31722,255.02342 1.33336,0.32552 -0.97983,0.87574 c 1.33234,1.10864 -0.37461,1.76463 -1.02184,0.52503"
         id="path342"
         sodipodi:nodetypes="cccc"
         transform="translate(-410.71097,-188.06963)" /><path
         style="fill:none;fill-opacity:1;stroke:#f38667;stroke-width:1;stroke-linecap:round;stroke-linejoin:round;stroke-dasharray:none;stroke-opacity:1"
         d="m 539.29508,255.67046 c -0.63521,0.1181 -0.73023,1.02873 -0.11331,1.36055 0.57297,0.30818 0.95284,-0.62219 0.63891,-1.16632 -0.0746,-0.1293 -0.19803,-0.25513 -0.5256,-0.19423 z"
         id="path343"
         sodipodi:nodetypes="ssss"
         transform="translate(-410.71097,-188.06963)" /><path
         style="fill:none;fill-opacity:1;stroke:#f38667;stroke-width:1;stroke-linecap:round;stroke-linejoin:round;stroke-dasharray:none;stroke-opacity:1"
         d="m 531.98287,254.39623 c -0.0703,0.23103 -1.55507,0.0912 -1.41523,-0.70767 0.0963,-0.5499 0.77585,-0.63537 1.08316,-0.50436 0.73428,0.31301 0.47389,2.79761 -1.31487,2.10839"
         id="path344"
         sodipodi:nodetypes="cssc"
         transform="translate(-410.71097,-188.06963)" /><path
         style="fill:none;fill-opacity:1;stroke:#2e3092;stroke-width:1;stroke-linecap:round;stroke-linejoin:round;stroke-dasharray:none;stroke-opacity:1"
         d="m 514.46581,258.62923 c 0,0 1.49563,-3.09089 3.47625,-1.83677 1.8009,1.14033 -2.13319,5.81751 -2.13319,5.81751 1.52235,-0.75918 4.33165,-0.17625 4.43177,-1.95131 l -0.41342,1.81901"
         id="path345"
         sodipodi:nodetypes="csccc"
         transform="translate(-410.71097,-188.06963)" /><path
         style="fill:none;fill-opacity:1;stroke:#ed1d23;stroke-width:1;stroke-linecap:round;stroke-linejoin:round;stroke-dasharray:none;stroke-opacity:1"
         d="m 519.84229,246.89421 -0.0562,1.19861 c 0,0 -0.0916,-0.18921 -0.24339,-0.34647 -0.58201,-0.60284 -2.28402,-0.46883 -2.28402,-0.46883 l -1.28375,-1.07625 c 0,0 0.12487,0.99233 1.28375,1.07625 -0.95781,0.099 -1.45448,0.28492 -1.47706,0.65107 -0.14438,2.3418 5.32613,1.37615 5.93352,3.61023 0.16084,0.59161 -0.31182,1.36841 -0.87091,1.61999 -0.89202,0.40141 -2.25361,0.13021 -2.85602,-0.67421 -0.16092,-0.21489 0.1311,-0.79596 0.1311,-0.79596 l -0.89895,1.10497"
         id="path346"
         sodipodi:nodetypes="ccscccsaascc"
         transform="translate(-410.71097,-188.06963)" /><path
         style="fill:none;fill-opacity:1;stroke:#a969aa;stroke-width:1;stroke-linecap:round;stroke-linejoin:round;stroke-dasharray:none;stroke-opacity:1"
         d="m 529.00569,244.80028 -2.4906,1.56686 v 0 l 3.23897,0.5 2.12813,-2.92046 -2.12813,2.92046 0.94713,0.14312 -1.65841,-0.25292 -0.86144,1.71455 -2.20414,-0.38588"
         id="path347"
         sodipodi:nodetypes="ccccccccc"
         transform="translate(-410.71097,-188.06963)" /><path
         style="fill:none;fill-opacity:1;stroke:#16b7ec;stroke-width:1;stroke-linecap:round;stroke-linejoin:round;stroke-dasharray:none;stroke-opacity:1"
         d="m 535.3667,246.29697 h 2.04629 l -1.69548,3.57808"
         id="path348"
         transform="translate(-410.71097,-188.06963)" /><ellipse
         style="fill:none;fill-opacity:1;stroke:#83c696;stroke-width:1;stroke-linecap:round;stroke-linejoin:round;stroke-dasharray:none;stroke-opacity:1"
         id="path349"
         cx="513.7749"
         cy="265.87592"
         rx="0.59531248"
         ry="0.68626302"
         transform="translate(-410.71097,-188.06963)" /><ellipse
         style="fill:none;fill-opacity:1;stroke:#83c696;stroke-width:1;stroke-linecap:round;stroke-linejoin:round;stroke-dasharray:none;stroke-opacity:1"
         id="path350"
         cx="540.57593"
         cy="251.00945"
         rx="0.60219169"
         ry="0.73684132"
         transform="translate(-410.71097,-188.06963)" /></g></g></svg>
