<?xml version="1.0" encoding="UTF-8" standalone="no"?>
<!-- Created with Inkscape (http://www.inkscape.org/) -->

<svg
   width="121.00004mm"
   height="121mm"
   viewBox="0 0 121.00004 121"
   version="1.1"
   id="svg1"
   xml:space="preserve"
   inkscape:version="1.3.2 (091e20e, 2023-11-25, custom)"
   sodipodi:docname="Especialidades.svg.svg"
   xmlns:inkscape="http://www.inkscape.org/namespaces/inkscape"
   xmlns:sodipodi="http://sodipodi.sourceforge.net/DTD/sodipodi-0.dtd"
   xmlns="http://www.w3.org/2000/svg"
   xmlns:svg="http://www.w3.org/2000/svg"><sodipodi:namedview
     id="namedview1"
     pagecolor="#ffffff"
     bordercolor="#000000"
     borderopacity="0.25"
     inkscape:showpageshadow="2"
     inkscape:pageopacity="0.0"
     inkscape:pagecheckerboard="0"
     inkscape:deskcolor="#d1d1d1"
     inkscape:document-units="mm"
     inkscape:zoom="0.70710678"
     inkscape:cx="4022.0234"
     inkscape:cy="123.74369"
     inkscape:window-width="1920"
     inkscape:window-height="991"
     inkscape:window-x="-9"
     inkscape:window-y="-9"
     inkscape:window-maximized="1"
     inkscape:current-layer="layer1" /><defs
     id="defs1" /><g
     inkscape:label="Capa 1"
     inkscape:groupmode="layer"
     id="layer1"
     transform="translate(-720.2732,31.283782)"><g
       id="g612"
       transform="translate(663.87536,-59.842376)"
       inkscape:export-filename="Dactiloscopía"
       inkscape:export-xdpi="96"
       inkscape:export-ydpi="96"
       inkscape:label="Dactiloscopia"><circle
         style="display:inline;fill:#f9a86f;fill-opacity:1;stroke:#ffffff;stroke-width:1;stroke-linecap:square;stroke-linejoin:round;stroke-opacity:1"
         id="circle599"
         cx="116.89785"
         cy="89.058594"
         r="60" /><circle
         style="display:inline;fill:#ffffff;fill-opacity:1;stroke:#ffffff;stroke-width:1;stroke-linecap:square;stroke-linejoin:round;stroke-opacity:1"
         id="circle600"
         cx="116.89785"
         cy="89.058594"
         r="54.053749" /><path
         id="path600"
         style="display:inline;fill:#f9a86f;fill-opacity:1;stroke:none;stroke-width:1;stroke-linecap:square;stroke-linejoin:round;stroke-opacity:1"
         d="m 117.29465,40.168607 c -22.742213,0.05319 -42.265283,16.19718 -46.588372,38.524781 h 14.346928 c 4.051515,-14.458577 17.225954,-24.457386 32.241444,-24.469825 15.02202,0.0046 28.20574,10.004971 32.25902,24.469825 h 14.43529 C 159.65824,56.326703 140.07674,40.17114 117.29465,40.168607 Z M 69.953353,90.892126 c 1.658666,24.943744 22.342535,44.347224 47.341297,44.410724 24.99876,-0.0635 45.68263,-19.46697 47.3413,-44.410724 H 150.58099 C 148.95574,108.0715 134.55069,121.20832 117.29465,121.24789 100.03861,121.20829 85.633554,108.0715 84.008309,90.892126 Z"
         sodipodi:nodetypes="cccccccccccccc" /><g
         id="g611"
         transform="translate(0.396875,-1.3229167)"><text
           xml:space="preserve"
           style="font-weight:bold;font-size:14.1111px;line-height:1.2;font-family:Arial;-inkscape-font-specification:'Arial Bold';text-align:center;text-anchor:middle;fill:#ffffff;fill-opacity:1;stroke:#ffffff;stroke-width:1;stroke-linecap:square;stroke-linejoin:round;stroke-dasharray:none;stroke-opacity:1"
           x="84.139343"
           y="38.668396"
           id="text600"
           transform="rotate(49.651447,-3.8973156,78.581555)"><tspan
             sodipodi:role="line"
             id="tspan600"
             style="font-size:14.1111px;fill:#ffffff;fill-opacity:1;stroke:#ffffff;stroke-width:1;stroke-dasharray:none;stroke-opacity:1"
             x="84.139343"
             y="38.668396">D</tspan></text><text
           xml:space="preserve"
           style="font-weight:bold;font-size:14.1111px;line-height:1.2;font-family:Arial;-inkscape-font-specification:'Arial Bold';text-align:center;text-anchor:middle;fill:#ffffff;fill-opacity:1;stroke:#ffffff;stroke-width:1;stroke-linecap:square;stroke-linejoin:round;stroke-dasharray:none;stroke-opacity:1"
           x="81.138748"
           y="63.438328"
           id="text601"
           transform="rotate(32.416911,-23.506148,115.98634)"><tspan
             sodipodi:role="line"
             id="tspan601"
             style="font-size:14.1111px;fill:#ffffff;fill-opacity:1;stroke:#ffffff;stroke-width:1;stroke-dasharray:none;stroke-opacity:1"
             x="81.138748"
             y="63.438328">E</tspan></text><text
           xml:space="preserve"
           style="font-weight:bold;font-size:14.1111px;line-height:1.2;font-family:Arial;-inkscape-font-specification:'Arial Bold';text-align:center;text-anchor:middle;fill:#ffffff;fill-opacity:1;stroke:#ffffff;stroke-width:1;stroke-linecap:square;stroke-linejoin:round;stroke-dasharray:none;stroke-opacity:1"
           x="74.167931"
           y="83.492027"
           id="text602"
           transform="rotate(17.580526,-69.929297,204.5407)"><tspan
             sodipodi:role="line"
             id="tspan602"
             style="font-size:14.1111px;fill:#ffffff;fill-opacity:1;stroke:#ffffff;stroke-width:1;stroke-dasharray:none;stroke-opacity:1"
             x="74.167931"
             y="83.492027">L</tspan></text><text
           xml:space="preserve"
           style="font-weight:bold;font-size:14.1111px;line-height:1.2;font-family:Arial;-inkscape-font-specification:'Arial Bold';text-align:center;text-anchor:middle;fill:#ffffff;fill-opacity:1;stroke:#ffffff;stroke-width:1;stroke-linecap:square;stroke-linejoin:round;stroke-dasharray:none;stroke-opacity:1"
           x="58.342377"
           y="105.44102"
           id="text603"
           transform="rotate(-1.2470186,1438.6142,-2673.0762)"><tspan
             sodipodi:role="line"
             id="tspan603"
             style="font-size:14.1111px;fill:#ffffff;fill-opacity:1;stroke:#ffffff;stroke-width:1;stroke-dasharray:none;stroke-opacity:1"
             x="58.342377"
             y="105.44102">P</tspan></text><text
           xml:space="preserve"
           style="font-weight:bold;font-size:14.1111px;line-height:1.2;font-family:Arial;-inkscape-font-specification:'Arial Bold';text-align:center;text-anchor:middle;fill:#ffffff;fill-opacity:1;stroke:#ffffff;stroke-width:1;stroke-linecap:square;stroke-linejoin:round;stroke-dasharray:none;stroke-opacity:1"
           x="36.925251"
           y="119.13938"
           id="text604"
           transform="rotate(-18.271503,124.63216,-166.59454)"><tspan
             sodipodi:role="line"
             id="tspan604"
             style="font-size:14.1111px;fill:#ffffff;fill-opacity:1;stroke:#ffffff;stroke-width:1;stroke-dasharray:none;stroke-opacity:1"
             x="36.925251"
             y="119.13938">E</tspan></text><text
           xml:space="preserve"
           style="font-weight:bold;font-size:14.1111px;line-height:1.2;font-family:Arial;-inkscape-font-specification:'Arial Bold';text-align:center;text-anchor:middle;fill:#ffffff;fill-opacity:1;stroke:#ffffff;stroke-width:1;stroke-linecap:square;stroke-linejoin:round;stroke-dasharray:none;stroke-opacity:1"
           x="14.023943"
           y="126.68509"
           id="text605"
           transform="rotate(-35.071346,77.79661,-77.253487)"><tspan
             sodipodi:role="line"
             id="tspan605"
             style="font-size:14.1111px;fill:#ffffff;fill-opacity:1;stroke:#ffffff;stroke-width:1;stroke-dasharray:none;stroke-opacity:1"
             x="14.023943"
             y="126.68509">R</tspan></text><path
           id="path605"
           style="font-weight:bold;font-size:15.875px;line-height:1.2;font-family:Arial;-inkscape-font-specification:'Arial Bold';text-align:center;text-anchor:middle;fill:#ffffff;fill-opacity:1;stroke:#ffffff;stroke-width:1;stroke-linecap:square;stroke-linejoin:round;stroke-dasharray:none;stroke-opacity:1"
           d="m 89.378044,76.781959 -1.413349,1.807643 0.55695,0.43366 0.875404,-2.228284 z m 1.104679,0.896174 -0.875396,2.22829 1.890529,1.373317 c 0.708292,0.55389 1.194388,0.976469 1.458307,1.268138 0.263919,0.291668 0.399781,0.650875 0.407727,1.076937 0.0039,0.422877 -0.194729,0.89062 -0.59583,1.403531 -0.394734,0.50477 -0.816539,0.817767 -1.265557,0.93896 -0.449907,0.113938 -0.888314,0.06601 -1.315165,-0.143144 -0.26298,-0.13349 -0.778855,-0.500604 -1.548227,-1.102259 l -3.429292,-2.609007 -1.413862,1.807129 3.356422,2.551641 c 1.0014,0.783103 1.804448,1.316339 2.409674,1.599388 0.409679,0.18917 0.873581,0.279457 1.391644,0.271299 0.513997,-0.01134 1.042684,-0.158695 1.585955,-0.442346 0.542373,-0.290913 1.147924,-0.863908 1.816425,-1.71876 0.553901,-0.708305 0.913284,-1.351957 1.07797,-1.931665 0.16062,-0.582886 0.189941,-1.124394 0.08836,-1.623675 -0.09838,-0.503346 -0.331357,-0.976938 -0.698664,-1.421618 -0.367307,-0.44468 -1.087986,-1.087645 -2.162661,-1.92805 z"
           sodipodi:nodetypes="ccccccccscscccccccccsccscc"
           transform="translate(58.514518,30.675262)" /><text
           xml:space="preserve"
           style="font-style:italic;font-variant:normal;font-weight:bold;font-stretch:normal;font-size:14.1111px;line-height:1.2;font-family:Arial;-inkscape-font-specification:'Arial Bold Italic';text-align:center;text-anchor:middle;fill:#ffffff;fill-opacity:1;stroke:#ffffff;stroke-width:1;stroke-linecap:square;stroke-linejoin:round;stroke-dasharray:none;stroke-opacity:1"
           x="3.0038822"
           y="46.686371"
           id="text606"
           transform="rotate(-44.498689,66.748647,-56.178969)"><tspan
             sodipodi:role="line"
             id="tspan606"
             style="font-style:italic;font-variant:normal;font-weight:bold;font-stretch:normal;font-family:Arial;-inkscape-font-specification:'Arial Bold Italic';stroke-width:1"
             x="3.0038824"
             y="46.686371">S</tspan></text><text
           xml:space="preserve"
           style="font-weight:bold;font-size:14.1111px;line-height:1.2;font-family:Arial;-inkscape-font-specification:'Arial Bold';text-align:center;text-anchor:middle;fill:#ffffff;fill-opacity:1;stroke:#ffffff;stroke-width:1;stroke-linecap:square;stroke-linejoin:round;stroke-dasharray:none;stroke-opacity:1"
           x="22.793133"
           y="45.594044"
           id="text607"
           transform="rotate(-33.043386,80.964335,-83.296072)"><tspan
             sodipodi:role="line"
             id="tspan607"
             style="stroke-width:1"
             x="22.793133"
             y="45.594044">C</tspan></text><text
           xml:space="preserve"
           style="font-weight:bold;font-size:14.1111px;line-height:1.2;font-family:Arial;-inkscape-font-specification:'Arial Bold';text-align:center;text-anchor:middle;fill:#ffffff;fill-opacity:1;stroke:#ffffff;stroke-width:1;stroke-linecap:square;stroke-linejoin:round;stroke-dasharray:none;stroke-opacity:1"
           x="95.420288"
           y="81.118217"
           id="text608"
           transform="rotate(-15.019919)"><tspan
             sodipodi:role="line"
             id="tspan608"
             style="stroke-width:1"
             x="95.420288"
             y="81.118217">O</tspan></text><text
           xml:space="preserve"
           style="font-weight:bold;font-size:14.1111px;line-height:1.2;font-family:Arial;-inkscape-font-specification:'Arial Bold';text-align:center;text-anchor:middle;fill:#ffffff;fill-opacity:1;stroke:#ffffff;stroke-width:1;stroke-linecap:square;stroke-linejoin:round;stroke-dasharray:none;stroke-opacity:1"
           x="131.35493"
           y="26.227385"
           id="text609"
           transform="rotate(12.642406)"><tspan
             sodipodi:role="line"
             id="tspan609"
             style="stroke-width:1"
             x="131.35493"
             y="26.227385">U</tspan></text><text
           xml:space="preserve"
           style="font-weight:bold;font-size:14.1111px;line-height:1.2;font-family:Arial;-inkscape-font-specification:'Arial Bold';text-align:center;text-anchor:middle;fill:#ffffff;fill-opacity:1;stroke:#ffffff;stroke-width:1;stroke-linecap:square;stroke-linejoin:round;stroke-dasharray:none;stroke-opacity:1"
           x="143.29329"
           y="-3.814055"
           id="text610"
           transform="rotate(24.880191)"><tspan
             sodipodi:role="line"
             id="tspan610"
             style="stroke-width:1"
             x="143.29329"
             y="-3.814055">T</tspan></text><text
           xml:space="preserve"
           style="font-style:italic;font-variant:normal;font-weight:bold;font-stretch:normal;font-size:14.1111px;line-height:1.2;font-family:Arial;-inkscape-font-specification:'Arial Bold Italic';text-align:center;text-anchor:middle;fill:#ffffff;fill-opacity:1;stroke:#ffffff;stroke-width:1;stroke-linecap:square;stroke-linejoin:round;stroke-dasharray:none;stroke-opacity:1"
           x="153.21227"
           y="-5.6454854"
           id="text611"
           transform="rotate(26.053437)"><tspan
             sodipodi:role="line"
             id="tspan611"
             style="font-style:italic;font-variant:normal;font-weight:bold;font-stretch:normal;font-family:Arial;-inkscape-font-specification:'Arial Bold Italic';stroke-width:1"
             x="153.21227"
             y="-5.6454854">S</tspan></text></g><path
         style="fill:#000000"
         d="m 786.19737,56.853478 c -0.65484,-0.116824 -2.19182,-0.47881 -3.4155,-0.804413 -1.22368,-0.325602 -2.5929,-0.820184 -3.04271,-1.099071 -0.81783,-0.507067 -0.81783,-0.507067 1.69571,-0.301261 1.38245,0.113194 4.18042,0.205807 6.21771,0.205807 3.13073,0 3.8462,-0.07734 4.62163,-0.499584 0.5046,-0.274771 1.31698,-0.910984 1.80529,-1.413806 0.48831,-0.502821 0.9632,-0.838855 1.05531,-0.746742 0.0921,0.09211 -0.0423,0.556969 -0.29864,1.03301 -0.25636,0.476042 -0.72739,1.162034 -1.04673,1.524427 -0.31933,0.362393 -1.01989,0.988872 -1.55679,1.392176 -0.81628,0.613169 -1.293,0.748724 -2.91042,0.827573 -1.06383,0.05186 -2.47001,-0.0013 -3.12486,-0.118116 z m -3.02624,-3.081759 c -1.44615,-0.19744 -3.59963,-0.540795 -4.78552,-0.763011 -1.18589,-0.222215 -2.95985,-0.656294 -3.94213,-0.964621 -1.19171,-0.374063 -2.08317,-0.857786 -2.67915,-1.453768 -0.49125,-0.491246 -1.53944,-2.233074 -2.32932,-3.870728 -0.78988,-1.637653 -1.8856,-4.108646 -2.43493,-5.491094 -0.54933,-1.382448 -1.219,-3.345925 -1.48816,-4.363282 -0.26916,-1.017357 -0.54299,-2.684232 -0.60851,-3.704167 -0.11238,-1.749247 -0.10359,-1.786253 0.15498,-0.65245 0.15077,0.661088 0.79894,2.268431 1.44038,3.571875 1.16625,2.369899 1.16625,2.369899 1.0312,0.91469 -0.0743,-0.800364 -0.20147,-4.479287 -0.28263,-8.175384 -0.12809,-5.833298 -0.0879,-6.933205 0.30429,-8.334376 0.24852,-0.88781 0.87729,-2.256106 1.39726,-3.040657 0.51998,-0.784552 1.99213,-2.451427 3.27146,-3.704167 1.27933,-1.25274 3.06411,-2.724194 3.96617,-3.269897 1.35729,-0.8210957 1.88613,-0.9921879 3.06685,-0.9921879 0.81989,0 2.26458,0.2812515 3.39652,0.6612339 1.08338,0.363679 2.4736,0.972858 3.08936,1.353731 0.61577,0.380873 1.56606,1.119513 2.11177,1.641421 0.5457,0.521909 0.99218,1.043824 0.99218,1.159811 0,0.115988 -0.17497,0.210887 -0.38882,0.210887 -0.21386,0 -0.7794,-0.218135 -1.25677,-0.484745 -0.47737,-0.266609 -2.08079,-0.980984 -3.56316,-1.5875 -1.89773,-0.776464 -3.07203,-1.101036 -3.96875,-1.096944 -0.70045,0.0032 -1.74979,0.22528 -2.33187,0.493522 -0.58208,0.268241 -1.61028,0.978148 -2.28488,1.57757 -0.6746,0.599423 -1.62319,1.716791 -2.10799,2.483041 -0.48479,0.76625 -0.94487,1.452713 -1.02241,1.525473 -0.0775,0.07276 -0.62297,0.727604 -1.21208,1.455208 -0.58912,0.727605 -1.34263,1.711645 -1.67447,2.186756 -0.45919,0.65742 -0.67337,1.507983 -0.89634,3.559511 -0.21692,1.995825 -0.21365,3.736387 0.0126,6.704288 0.23699,3.109064 0.46242,4.447745 1.00462,5.965489 0.38448,1.076281 1.24798,3.028437 1.91888,4.338125 0.8053,1.572043 1.71692,2.875766 2.68263,3.836459 0.80454,0.800364 1.7603,1.693333 2.12391,1.984375 0.3636,0.291042 0.83985,0.610095 1.05833,0.709008 0.32437,0.146854 0.31177,0.183252 -0.0687,0.198437 -0.25624,0.01023 -0.98831,-0.226967 -1.62682,-0.5271 -0.6385,-0.300133 -1.89385,-1.208961 -2.78966,-2.019619 -0.8958,-0.810658 -2.03897,-2.11522 -2.54036,-2.899025 -0.50139,-0.783806 -0.91163,-1.594357 -0.91163,-1.801224 0,-0.206868 -0.11906,-0.449708 -0.26458,-0.539644 -0.14843,-0.09173 -0.26458,0.116383 -0.26458,0.474069 0,0.350676 0.13637,1.042312 0.30305,1.53697 0.16667,0.494657 0.87062,1.673284 1.56431,2.619169 0.6937,0.945886 2.13491,2.564296 3.20269,3.596468 1.06777,1.032171 2.19956,2.013413 2.51507,2.180537 0.31552,0.167123 1.26802,0.492044 2.11667,0.722046 0.84865,0.230001 3.11851,0.573228 5.04413,0.762725 2.2492,0.22134 3.95218,0.261798 4.7625,0.113144 0.69375,-0.127267 1.59261,-0.366433 1.99746,-0.531479 0.40485,-0.165046 0.81211,-0.224057 0.90503,-0.131135 0.0929,0.09292 -0.11925,0.477448 -0.4715,0.854502 -0.35225,0.377055 -0.96196,0.852836 -1.35492,1.057291 -0.39295,0.204454 -1.28592,0.3577 -1.98437,0.340546 -0.69845,-0.01715 -2.45313,-0.192732 -3.89928,-0.390173 z M 768.12447,38.918428 c -0.0671,-0.257431 -0.12638,-0.110869 -0.13177,0.325694 -0.005,0.436562 0.0495,0.647188 0.12197,0.468056 0.0725,-0.179131 0.0769,-0.536319 0.01,-0.79375 z m 24.02045,12.841975 c -0.076,-0.19811 0.22594,-1.11197 0.67102,-2.0308 0.5373,-1.109179 1.5907,-2.490885 3.13457,-4.111491 1.46715,-1.540074 2.51323,-2.89776 2.83452,-3.678844 0.28007,-0.680875 0.61326,-1.2384 0.74042,-1.238946 0.12716,-5.45e-4 0.17933,0.624086 0.11592,1.388071 -0.0634,0.763984 -0.42039,2.043906 -0.79332,2.844271 -0.37665,0.808359 -1.5187,2.358885 -2.56926,3.488197 -1.04016,1.118144 -2.36471,2.408009 -2.94343,2.866366 -0.77818,0.616331 -1.08822,0.739566 -1.19044,0.473176 z m 3.31287,-0.213155 c 0,-0.194028 0.0794,-0.273403 0.17639,-0.176389 0.097,0.09701 0.097,0.255764 0,0.352778 -0.097,0.09701 -0.17639,0.01764 -0.17639,-0.176389 z m -9.39271,-0.976717 c -0.29104,-0.06687 -1.42214,-0.416504 -2.51354,-0.776962 -1.09141,-0.360459 -2.15963,-0.71506 -2.37384,-0.788001 -0.33462,-0.113946 -0.3364,-0.165413 -0.0126,-0.365512 0.20725,-0.128091 0.46223,-0.18011 0.56661,-0.115599 0.10438,0.06451 1.85971,0.122624 3.90072,0.129139 2.9908,0.0095 3.88061,-0.07547 4.58534,-0.438116 0.48093,-0.247478 1.68532,-1.236181 2.67641,-2.197118 0.9911,-0.960936 1.92655,-1.791083 2.07879,-1.844771 0.15223,-0.05369 -0.16472,0.601156 -0.70434,1.455208 -0.53962,0.854053 -1.47337,2.062173 -2.075,2.684711 -0.60162,0.622539 -1.68449,1.426211 -2.40637,1.785938 -0.73382,0.36568 -1.72706,0.640518 -2.25275,0.623358 -0.51713,-0.01688 -1.17836,-0.0854 -1.4694,-0.152275 z m -3.175,-3.693045 c -0.58208,-0.20611 -1.55515,-0.605235 -2.16236,-0.886943 -0.60722,-0.281709 -1.18364,-0.763011 -1.28093,-1.069561 -0.0973,-0.30655 -0.10169,-0.632578 -0.01,-0.724508 0.0919,-0.09193 0.48976,0.04054 0.88406,0.294387 0.3943,0.253843 1.46403,0.814281 2.37718,1.245418 1.0336,0.488008 2.08762,0.783885 2.79247,0.783885 0.795,0 1.49282,-0.228697 2.34302,-0.767881 0.66595,-0.422334 1.28694,-0.891045 1.37998,-1.041579 0.093,-0.150534 0.54226,-0.459831 0.99829,-0.687327 0.45603,-0.227496 0.99359,-0.41363 1.19457,-0.41363 0.20099,0 -0.0257,0.332654 -0.50367,0.739231 -0.478,0.406577 -1.19254,0.942493 -1.58785,1.190924 -0.39532,0.248432 -1.25167,0.749216 -1.903,1.112853 -0.7979,0.445459 -1.55608,0.651097 -2.32396,0.630318 -0.62684,-0.01696 -1.61596,-0.199476 -2.19804,-0.405587 z m -8.81446,-2.650432 c -0.69011,-0.720239 -1.59665,-2.125969 -2.17548,-3.373438 -0.5458,-1.176263 -1.29807,-3.388817 -1.67171,-4.916786 -0.37364,-1.527969 -0.82558,-4.285404 -1.00431,-6.127633 -0.25807,-2.66009 -0.2573,-3.716674 0.004,-5.133371 0.18078,-0.981124 0.51188,-2.138119 0.73578,-2.571099 0.2239,-0.43298 0.77576,-1.192365 1.22634,-1.687522 0.45058,-0.495157 1.3922,-1.25283 2.09248,-1.683718 0.70028,-0.430889 1.27324,-0.687469 1.27324,-0.570178 0,0.117291 -0.62922,1.455643 -1.39828,2.974117 -0.76906,1.518474 -1.54296,3.395023 -1.71979,4.170109 -0.18915,0.829083 -0.32151,3.39979 -0.32151,6.244373 0,2.761754 0.12362,5.220791 0.28829,5.734503 0.15855,0.494657 0.7051,1.792346 1.21454,2.883753 0.50944,1.091406 1.35994,2.520156 1.89,3.175 0.53005,0.654844 1.05507,1.230312 1.1667,1.278819 0.11164,0.04851 0.20297,0.256867 0.20297,0.463021 0,0.206155 -0.13947,0.374827 -0.30994,0.374827 -0.17046,0 -0.84234,-0.55565 -1.49306,-1.234777 z m 8.43279,0.169799 c -0.64649,-0.298247 -1.71805,-0.984101 -2.38125,-1.524122 -0.66321,-0.54002 -1.42926,-1.160656 -1.70233,-1.37919 -0.27307,-0.218535 -0.9499,-0.859707 -1.50406,-1.424827 -0.68923,-0.70286 -1.06804,-1.371611 -1.19896,-2.116667 -0.10527,-0.599046 -0.1811,-2.636988 -0.16852,-4.528759 0.0126,-1.891771 0.14683,-4.419456 0.29831,-5.617078 0.15148,-1.197622 0.52088,-2.65863 0.82088,-3.246683 0.3,-0.588054 0.90156,-1.409494 1.33679,-1.825423 0.43523,-0.415928 1.27117,-1.088764 1.85764,-1.49519 0.73958,-0.512532 1.49966,-0.774893 2.48058,-0.856238 1.36437,-0.113145 1.45793,-0.07703 2.65238,1.023983 0.68097,0.627695 1.40715,1.468105 1.61372,1.867577 0.24618,0.476059 0.2822,0.78403 0.10455,0.893827 -0.14908,0.09213 -1.33318,-0.272732 -2.63134,-0.810812 -1.62205,-0.672328 -2.56896,-0.925957 -3.02742,-0.810891 -0.36691,0.09209 -0.97798,0.493478 -1.35793,0.891974 -0.37995,0.398495 -0.97235,1.327882 -1.31645,2.065304 -0.34409,0.737422 -0.88936,2.344766 -1.21169,3.571875 -0.44158,1.681042 -0.58252,2.948654 -0.57166,5.141525 0.0106,2.152996 0.1379,3.220271 0.48895,4.101042 0.261,0.654844 0.77969,1.579638 1.15264,2.055098 0.37295,0.475459 1.26413,1.171933 1.98041,1.547718 0.71628,0.375785 1.84737,0.848687 2.51354,1.050893 0.66617,0.202206 1.81646,0.368936 2.55619,0.370511 0.73973,0.0016 1.42391,0.08181 1.5204,0.178303 0.0965,0.09649 -0.17265,0.387126 -0.5981,0.645856 -0.42544,0.258729 -1.16916,0.538421 -1.65269,0.621538 -0.59262,0.101867 -1.26226,-0.02562 -2.05458,-0.391144 z m -7.20567,-2.705335 c -0.92019,-1.200547 -1.99585,-2.785694 -2.39035,-3.522549 -0.46442,-0.867464 -0.79996,-2.032079 -0.95184,-3.30377 -0.15921,-1.333015 -0.1252,-2.98525 0.10585,-5.142556 0.18724,-1.748187 0.58362,-4.131022 0.88086,-5.295189 0.4796,-1.878428 0.67469,-2.237139 1.73328,-3.187018 0.65607,-0.588693 2.06985,-1.569324 3.14174,-2.17918 1.07188,-0.609856 2.22079,-1.140229 2.55313,-1.178607 0.33234,-0.03838 0.65547,0.07426 0.71806,0.250295 0.0626,0.176041 -0.40004,0.652292 -1.02809,1.058334 -0.62805,0.406042 -2.03536,1.640613 -3.12735,2.74349 -1.092,1.102877 -2.34264,2.650689 -2.7792,3.439583 -0.72428,1.308808 -0.79178,1.642777 -0.77124,3.815603 0.0124,1.309688 0.23185,3.333751 0.4877,4.497917 0.25585,1.164167 0.57221,2.473855 0.70302,2.910417 0.13081,0.436563 0.40608,1.329532 0.61173,1.984375 0.20564,0.654844 0.52819,1.547813 0.71677,1.984376 0.18859,0.436562 0.53894,1.091406 0.77856,1.455208 0.23962,0.363802 0.50217,0.929349 0.58344,1.256771 0.0813,0.327422 0.0486,0.595313 -0.0726,0.595313 -0.12121,0 -0.97327,-0.982266 -1.89346,-2.182813 z m 20.10663,1.781615 c -0.0712,-0.07123 0.1655,-1.230491 0.52607,-2.576135 0.55375,-2.066607 0.654,-3.021972 0.64543,-6.150793 -0.006,-2.309387 -0.1741,-4.550998 -0.44555,-5.953126 -0.23946,-1.236927 -0.56213,-2.78474 -0.71705,-3.439583 -0.15491,-0.654844 -0.5826,-2.024063 -0.95041,-3.042709 -0.36782,-1.018646 -0.7718,-1.965193 -0.89775,-2.103438 -0.12594,-0.138244 -0.22899,-0.367358 -0.22899,-0.509141 0,-0.141783 0.31383,0.03086 0.6974,0.383646 0.38357,0.352788 1.08064,1.236745 1.54905,1.96435 0.59942,0.931112 0.97651,1.988983 1.27323,3.571875 0.23187,1.236927 0.56554,3.141927 0.7415,4.233334 0.17596,1.091406 0.33098,3.770313 0.34448,5.953125 0.0223,3.599438 -0.0289,4.067234 -0.55025,5.027084 -0.31615,0.582083 -0.86345,1.443688 -1.21623,1.914677 -0.35278,0.470989 -0.6997,0.798064 -0.77093,0.726834 z m -14.72854,-2.553451 c -1.04049,-0.751932 -1.89179,-1.474621 -1.89179,-1.605975 0,-0.131354 -0.37164,-0.778975 -0.82585,-1.439158 -0.70273,-1.021376 -0.80336,-1.363779 -0.67496,-2.29663 0.083,-0.602964 0.36533,-1.513016 0.62742,-2.022339 0.47651,-0.926042 0.47651,-0.926042 0.61356,1.354122 0.0825,1.372752 0.28759,2.478332 0.51536,2.778125 0.20808,0.273879 0.74172,0.895348 1.18587,1.381042 0.44416,0.485695 1.27085,1.121771 1.83711,1.413502 0.76978,0.396587 1.30602,0.488961 2.12528,0.366105 0.60266,-0.09037 1.44905,-0.377982 1.88087,-0.639129 0.43182,-0.261147 1.17208,-0.608728 1.64503,-0.772401 0.6726,-0.232772 0.85989,-0.224981 0.85989,0.03577 0,0.183344 -0.38515,0.618111 -0.8559,0.966148 -0.47074,0.348036 -1.42266,0.906208 -2.11537,1.240382 -0.69271,0.334174 -1.6589,0.607588 -2.1471,0.607588 -0.64852,0 -1.39724,-0.368283 -2.77942,-1.367148 z m 11.9724,0.467634 c -0.0782,-0.203691 0.0446,-0.999207 0.27289,-1.767814 0.22825,-0.768606 0.415,-2.156789 0.415,-3.084851 0,-1.057548 -0.0988,-1.626348 -0.26458,-1.523863 -0.14552,0.08994 -0.26458,0.374783 -0.26458,0.632991 0,0.258209 -0.40668,0.935791 -0.90373,1.50574 -0.61984,0.710748 -0.99103,0.951815 -1.18166,0.767416 -0.19377,-0.187433 -0.1487,-0.748319 0.14884,-1.852083 0.23473,-0.870777 0.43906,-2.427398 0.45406,-3.459158 0.0255,-1.75237 -0.0588,-2.043876 -1.2795,-4.425862 -0.71873,-1.402464 -1.21365,-2.64189 -1.09983,-2.754281 0.11382,-0.112391 0.60811,0.271903 1.0984,0.853986 0.4903,0.582084 1.21873,1.683412 1.61872,2.447396 0.39999,0.763985 0.82118,1.389063 0.93598,1.389063 0.11479,0 0.22655,0.506016 0.24836,1.124479 0.0316,0.89733 0.0631,0.965105 0.15579,0.335512 0.0639,-0.433931 -0.0211,-1.267369 -0.18875,-1.852083 -0.16769,-0.584714 -0.61699,-1.71796 -0.99845,-2.518325 -0.38145,-0.800365 -1.11041,-2.110052 -1.61991,-2.910417 -0.50949,-0.800364 -1.50622,-2.069115 -2.21495,-2.819446 -0.70873,-0.750331 -1.1739,-1.435122 -1.03372,-1.521759 0.14018,-0.08664 1.01009,0.199663 1.93313,0.63622 0.99873,0.472355 1.71623,0.679989 1.77204,0.512803 0.0516,-0.154516 -0.12701,-0.454423 -0.39687,-0.666462 -0.26987,-0.212038 -1.88711,-1.330314 -3.59389,-2.485059 -1.70677,-1.154744 -3.60516,-2.234694 -4.21865,-2.399889 -0.6531,-0.175861 -1.72468,-0.226996 -2.58532,-0.12337 -0.80844,0.09734 -2.21832,0.361845 -3.13307,0.587785 -0.91475,0.22594 -1.74208,0.3319 -1.83851,0.235466 -0.0964,-0.09643 0.17574,-0.522283 0.60484,-0.946332 0.4291,-0.424049 1.48756,-1.194139 2.35212,-1.711311 1.02034,-0.610357 1.9049,-0.940313 2.52082,-0.940313 0.52188,0 1.24326,0.202836 1.60306,0.450747 0.3598,0.247912 1.33825,1.016224 2.17434,1.707361 0.83608,0.691137 2.53862,1.823726 3.78341,2.516865 1.24479,0.693139 2.67753,1.674521 3.18386,2.180848 0.61488,0.614886 1.0537,1.40862 1.32144,2.390201 0.22047,0.808282 0.61776,2.124447 0.88287,2.924812 0.26511,0.800365 0.74119,2.151246 1.05795,3.001959 0.31677,0.850713 0.76219,2.874776 0.98984,4.497917 0.25485,1.817151 0.35089,3.643816 0.24994,4.753719 -0.0902,0.991404 -0.32703,2.182029 -0.52633,2.645834 -0.19931,0.463804 -0.61914,1.111171 -0.93296,1.438593 -0.31382,0.327422 -0.74827,0.595313 -0.96545,0.595313 -0.21718,0 -0.45882,-0.166657 -0.53699,-0.370348 z m -9.11714,-2.261788 c -0.3723,-0.112971 -0.96762,-0.355149 -1.32292,-0.538173 -0.3553,-0.183025 -1.03296,-0.699029 -1.5059,-1.146676 -0.69501,-0.657838 -0.8599,-1.019671 -0.8599,-1.887005 0,-0.590205 0.2317,-2.289084 0.5149,-3.775285 0.28319,-1.486202 0.64182,-2.939358 0.79696,-3.229236 0.15514,-0.289879 0.67797,-0.601323 1.16184,-0.692098 0.48388,-0.09078 1.574,-0.03671 2.42251,0.120143 0.8485,0.156855 1.76173,0.483381 2.02939,0.725614 0.26767,0.242233 0.67745,0.808123 0.91062,1.257533 0.23317,0.44941 0.51644,1.199776 0.62948,1.667479 0.13749,0.568843 0.0928,1.004504 -0.1349,1.315939 -0.29655,0.405554 -0.36551,0.264882 -0.53495,-1.091268 -0.13789,-1.10362 -0.38939,-1.775547 -0.86392,-2.308126 -0.53592,-0.601482 -0.89262,-0.75129 -1.78888,-0.75129 -0.94926,0 -1.24376,0.141548 -1.93682,0.930894 -0.44953,0.511992 -0.90622,1.256133 -1.01486,1.653646 -0.10864,0.397514 -0.19966,1.635895 -0.20226,2.751957 -0.004,1.789434 0.0714,2.110234 0.63949,2.714953 0.35433,0.377161 1.10929,0.810975 1.6777,0.964033 0.81036,0.218207 1.2955,0.189005 2.24718,-0.135265 0.66754,-0.227453 1.43336,-0.41355 1.70184,-0.41355 0.46659,0 0.46797,0.03077 0.0311,0.697556 -0.25138,0.383655 -0.84561,0.859906 -1.32051,1.058333 -0.47491,0.198428 -1.25424,0.350544 -1.73186,0.338036 -0.47762,-0.01251 -1.173,-0.115173 -1.5453,-0.228144 z m 16.06228,-3.850157 c 0.1284,-2.947114 0.0688,-4.154734 -0.29167,-5.908739 -0.24917,-1.212514 -0.93087,-3.355639 -1.51487,-4.7625 -0.584,-1.406861 -1.36249,-3.212772 -1.72997,-4.013137 -0.36748,-0.800364 -0.89548,-2.110052 -1.17332,-2.910417 -0.27785,-0.800364 -1.06683,-2.377943 -1.7533,-3.505729 -0.68648,-1.127787 -1.3377,-2.050521 -1.44717,-2.050521 -0.10947,0 -0.19903,-0.168672 -0.19903,-0.374827 0,-0.206154 -0.14883,-0.434879 -0.33073,-0.508278 -0.24865,-0.100334 -0.25106,-0.138636 -0.01,-0.15434 0.17658,-0.01149 1.11931,0.723252 2.09496,1.632757 0.97566,0.909506 2.2192,2.339746 2.76344,3.178312 0.64686,0.996697 1.05365,1.990966 1.17472,2.87125 0.10186,0.740622 0.45829,2.197648 0.79206,3.237835 0.33377,1.040188 0.86942,2.486563 1.19032,3.214167 0.32091,0.727604 0.81312,1.977761 1.09381,2.778125 0.28069,0.800365 0.68461,2.288646 0.89759,3.307292 0.21298,1.018646 0.38734,2.277358 0.38746,2.797139 1.2e-4,0.51978 -0.17963,1.47228 -0.39945,2.116667 -0.21982,0.644386 -0.69372,1.528799 -1.05311,1.965361 -0.65344,0.79375 -0.65344,0.79375 -0.49206,-2.910417 z m -36.06746,2.176134 c -0.44936,-0.511793 -1.11211,-1.56798 -1.47278,-2.347083 -0.36067,-0.779103 -0.80965,-2.167717 -0.99773,-3.085809 -0.24127,-1.17772 -0.2894,-2.716604 -0.16347,-5.226026 0.0982,-1.956222 0.31172,-3.883962 0.47454,-4.283867 0.26892,-0.660497 0.34061,-0.472623 0.78269,2.051026 0.26767,1.527968 0.59452,4.266406 0.72635,6.085417 0.18033,2.488364 0.415,3.785743 0.94772,5.239548 0.38943,1.062741 0.66567,2.059397 0.61387,2.214791 -0.0518,0.155394 -0.46183,-0.136204 -0.91119,-0.647997 z m 19.40018,-1.469363 c -0.28355,-0.313318 -0.43789,-0.946332 -0.43789,-1.796021 0,-0.834586 0.21668,-1.74184 0.59532,-2.492708 0.45589,-0.904068 0.7642,-1.200003 1.31649,-1.263642 0.57635,-0.06641 0.82854,0.09299 1.25578,0.79375 0.29403,0.482268 0.53028,1.114975 0.525,1.406017 -0.008,0.455155 -0.0625,0.431788 -0.3879,-0.167065 -0.20806,-0.382927 -0.54929,-0.761851 -0.7583,-0.842053 -0.209,-0.0802 -0.58386,0.07944 -0.83303,0.354766 -0.24916,0.275323 -0.51152,1.019641 -0.58303,1.65404 -0.0983,0.872243 -0.0166,1.2669 0.33532,1.618781 0.28859,0.288598 0.67644,0.407228 1.02119,0.312351 0.30573,-0.08414 1.00038,-0.227346 1.54366,-0.31824 0.78917,-0.132034 1.02302,-0.07344 1.16303,0.291428 0.10323,0.269004 0.0235,0.552787 -0.19403,0.690519 -0.20311,0.128606 -1.21404,0.235652 -2.24651,0.23788 -1.48607,0.0032 -1.96846,-0.09677 -2.3151,-0.479803 z m 7.03016,-3.021875 c -0.16187,-0.327422 -0.37094,-1.100704 -0.46461,-1.718405 -0.0937,-0.617701 -0.27902,-1.190275 -0.41187,-1.272386 -0.13286,-0.08211 -0.24157,-0.311702 -0.24157,-0.510201 0,-0.198499 -0.37927,-0.740178 -0.84282,-1.203732 -0.46355,-0.463553 -1.31806,-1.157321 -1.89891,-1.541707 -0.87359,-0.578117 -1.35771,-0.698882 -2.80166,-0.698882 -1.40681,0 -1.89167,0.114915 -2.49833,0.59211 -0.41401,0.325661 -1.00434,1.099567 -1.31185,1.719792 -0.39037,0.78736 -0.58656,0.986628 -0.65009,0.66029 -0.05,-0.257065 0.0662,-0.822612 0.25843,-1.256771 0.19217,-0.434159 0.43941,-0.789379 0.54941,-0.789379 0.10999,0 0.19999,-0.127567 0.19999,-0.283482 0,-0.155916 0.14883,-0.428679 0.33073,-0.606141 0.1819,-0.177462 0.62511,-0.526145 0.98491,-0.774851 0.43027,-0.297415 1.17152,-0.452193 2.16559,-0.452193 0.83127,0 1.84305,0.126089 2.24838,0.280198 0.40534,0.154109 1.30606,0.889546 2.0016,1.634304 0.69554,0.744759 1.26462,1.511638 1.26462,1.704177 0,0.192539 0.097,0.350071 0.21558,0.350071 0.11857,0 0.41548,0.419185 0.6598,0.931522 0.24431,0.512338 0.52088,1.5839 0.61459,2.381251 0.0937,0.79735 0.11459,1.449728 0.0464,1.449728 -0.0682,0 -0.25644,-0.267891 -0.4183,-0.595313 z m -25.18759,-5.688542 c -0.33577,-1.418828 -0.66813,-3.62426 -0.73855,-4.90096 -0.0817,-1.481025 -0.003,-2.773963 0.21703,-3.571876 0.1898,-0.687831 0.57499,-1.667321 0.85599,-2.176644 0.281,-0.509323 0.90628,-1.461823 1.38952,-2.116667 0.48323,-0.654844 1.69031,-1.97901 2.68239,-2.942591 0.99208,-0.963581 2.51653,-2.3221728 3.38765,-3.0190916 0.87113,-0.6969189 2.10371,-1.4970761 2.73907,-1.7781272 0.81628,-0.3610782 1.43089,-0.459284 2.09484,-0.3347257 0.93963,0.1762762 0.93963,0.1762762 -0.21097,0.9380069 -0.63283,0.4189519 -2.55228,2.1365272 -4.26544,3.8168346 -1.71316,1.680307 -3.60348,3.702307 -4.20071,4.493333 -0.59723,0.791027 -1.32297,2.062215 -1.61276,2.824862 -0.40294,1.060459 -0.58742,2.505467 -0.78428,6.143043 -0.14158,2.616025 -0.31969,4.857183 -0.39581,4.98035 -0.0761,0.123168 -0.23044,0.223941 -0.34293,0.223941 -0.11249,0 -0.47926,-1.16086 -0.81504,-2.579688 z m -3.7999,-7.386285 c -0.097,-0.09701 -0.17639,-0.941893 -0.17639,-1.877508 0,-0.935616 0.18419,-2.334731 0.40932,-3.109144 0.22513,-0.774414 0.86303,-2.102426 1.41755,-2.951138 0.55453,-0.848713 1.32283,-1.831759 1.70735,-2.1845473 0.56008,-0.5138685 0.69911,-0.5556929 0.69911,-0.2103056 0,0.2371201 -0.45665,1.4782649 -1.01479,2.7580999 -0.55813,1.279835 -1.2012,2.922285 -1.42904,3.649889 -0.22783,0.727605 -0.49444,1.739636 -0.59246,2.248959 -0.098,0.509323 -0.23688,1.134401 -0.30858,1.389063 -0.0717,0.254661 -0.22157,0.463021 -0.33303,0.463021 -0.11146,0 -0.28203,-0.07938 -0.37904,-0.176389 z m 31.8382,-1.014237 c 0,-0.07276 0.0595,-0.132291 0.13229,-0.132291 0.0728,0 0.13229,0.05953 0.13229,0.132291 0,0.07276 -0.0595,0.132292 -0.13229,0.132292 -0.0728,0 -0.13229,-0.05953 -0.13229,-0.132292 z m 4.78711,-2.645833 c -0.6413,-1.309688 -1.62003,-3.095625 -2.17493,-3.96875 -0.55491,-0.873126 -1.85012,-2.3433654 -2.87823,-3.2672 -1.24849,-1.1218535 -2.12265,-2.1815752 -2.63214,-3.1908715 -0.41957,-0.8311449 -1.24169,-1.9437793 -1.82694,-2.472521 -0.58525,-0.5287416 -1.44187,-1.1567027 -1.90359,-1.3954689 -0.46173,-0.2387663 -1.51064,-0.6250454 -2.33091,-0.858398 -1.08053,-0.30738957 -2.6577,-0.42654087 -5.72475,-0.43249293 -3.42255,-0.006642 -4.50336,0.0842807 -5.64321,0.47473023 -1.18671,0.4065042 -1.62644,0.7586529 -2.77812,2.2248259 -0.75254,0.9580342 -1.79191,2.1657462 -2.30971,2.6838044 -0.5178,0.5180582 -1.3282,1.0829504 -1.80089,1.255316 -0.72786,0.2654091 -0.88378,0.249962 -1.01842,-0.10089 -0.0874,-0.2278551 0.12765,-0.9577646 0.47798,-1.6220212 0.35032,-0.6642566 1.36387,-1.9432955 2.25233,-2.8423088 1.08105,-1.0938884 2.26255,-1.95377785 3.57188,-2.59958966 1.45872,-0.71949707 2.50162,-1.02679383 4.09912,-1.20781954 1.28757,-0.1459056 3.13534,-0.1474279 4.63021,-0.00381 1.36817,0.13144155 3.14242,0.36321925 3.94279,0.51506148 0.80036,0.15184223 2.31662,0.53008614 3.36946,0.84054201 1.21424,0.3580481 2.29186,0.88767851 2.94684,1.44831941 0.56792,0.4861199 2.21962,2.6421974 3.67044,4.7912834 1.45082,2.1490861 3.00194,4.5622727 3.44692,5.3626367 0.44499,0.800365 1.06447,2.325682 1.37663,3.389594 0.31217,1.063912 0.5306,2.254537 0.48541,2.645834 -0.0683,0.591418 -0.27888,0.309702 -1.24817,-1.669802 z m -6.24232,-1.224595 c -0.87313,-0.862424 -2.18282,-2.031933 -2.91042,-2.598911 -0.7276,-0.566977 -2.03729,-1.431415 -2.91042,-1.920973 -1.08456,-0.6081079 -1.61428,-1.0755396 -1.67204,-1.4754176 -0.0465,-0.321922 0.0553,-0.5853128 0.22615,-0.5853128 0.17089,0 0.91975,0.3059053 1.66414,0.6797895 0.74439,0.3738842 2.09596,1.2096509 3.00351,1.8572589 0.90754,0.647607 2.17277,1.859749 2.81161,2.693648 0.63885,0.833899 1.29919,1.776844 1.46741,2.095435 0.16822,0.31859 0.21624,0.633991 0.10671,0.70089 -0.10953,0.0669 -0.91353,-0.583984 -1.78665,-1.446407 z m -23.9448,-4.396532 c 0,-0.125619 0.33647,-0.7577241 0.74771,-1.4046778 0.41124,-0.6469538 1.40079,-1.7715921 2.19899,-2.4991964 0.79821,-0.7276042 2.12972,-1.6545477 2.95891,-2.0598745 0.82919,-0.4053267 2.17066,-0.8701146 2.98104,-1.0328618 1.1058,-0.2220771 1.81083,-0.2180195 2.82579,0.016263 0.74382,0.1716921 2.43116,0.8264398 3.74966,1.454995 1.31851,0.6285552 2.6134,1.3875318 2.87754,1.6866148 0.26414,0.299083 0.37292,0.6101234 0.24173,0.6912008 -0.13118,0.081078 -1.00214,-0.086809 -1.93546,-0.37308 -0.93332,-0.2862715 -2.91568,-0.8170374 -4.40523,-1.1794798 -1.48956,-0.3624424 -3.1168,-0.6589862 -3.61609,-0.6589862 -0.49929,0 -1.46985,0.2409243 -2.15681,0.5353873 -0.68695,0.294463 -2.00059,1.133438 -2.91918,1.8643889 -0.9186,0.7309509 -1.94543,1.6561135 -2.28184,2.0559169 -0.33641,0.3998028 -0.75906,0.8180108 -0.93921,0.9293508 -0.18015,0.11134 -0.32755,0.09966 -0.32755,-0.02596 z m 18.52084,-5.6548588 c -1.38245,-0.8723896 -2.84097,-1.6538596 -3.24115,-1.7365998 -0.40018,-0.08274 -0.7276,-0.2546164 -0.7276,-0.3819472 0,-0.1273307 0.68461,-0.2288955 1.52135,-0.2256996 0.89454,0.00342 1.95781,0.2040897 2.58067,0.4870543 0.60994,0.2770938 1.37731,0.9401235 1.80894,1.5629636 0.4123,0.594946 0.70952,1.2614212 0.66048,1.4810559 -0.0668,0.2993552 -0.71846,0.00221 -2.60269,-1.1868272 z M 772.09494,3.1393905 c 0.0641,-0.2452307 0.60834,-0.764723 1.20935,-1.1544273 0.78992,-0.5121956 1.42636,-0.7054744 2.29656,-0.6974435 0.6621,0.00611 2.09678,0.2264874 3.18819,0.4897269 1.5894,0.3833539 1.86282,0.5173192 1.37368,0.673061 -0.33589,0.1069439 -1.16932,0.1223731 -1.85209,0.034287 -0.68276,-0.088086 -1.8367,-0.051948 -2.5643,0.080306 -0.72761,0.1322547 -1.87306,0.4159407 -2.54545,0.6304134 -1.12859,0.359983 -1.21358,0.3556853 -1.10594,-0.055924 z"
         id="path275"
         transform="translate(-663.87537,59.842377)" /></g></g></svg>
