<?xml version="1.0" encoding="UTF-8" standalone="no"?>
<!-- Created with Inkscape (http://www.inkscape.org/) -->

<svg
   width="120.99998mm"
   height="121.00001mm"
   viewBox="0 0 120.99998 121.00001"
   version="1.1"
   id="svg1"
   xml:space="preserve"
   inkscape:version="1.3.2 (091e20e, 2023-11-25, custom)"
   sodipodi:docname="Especialidades.svg.svg"
   xmlns:inkscape="http://www.inkscape.org/namespaces/inkscape"
   xmlns:sodipodi="http://sodipodi.sourceforge.net/DTD/sodipodi-0.dtd"
   xmlns="http://www.w3.org/2000/svg"
   xmlns:svg="http://www.w3.org/2000/svg"><sodipodi:namedview
     id="namedview1"
     pagecolor="#ffffff"
     bordercolor="#000000"
     borderopacity="0.25"
     inkscape:showpageshadow="2"
     inkscape:pageopacity="0.0"
     inkscape:pagecheckerboard="0"
     inkscape:deskcolor="#d1d1d1"
     inkscape:document-units="mm"
     inkscape:zoom="0.70710678"
     inkscape:cx="4022.0234"
     inkscape:cy="123.74369"
     inkscape:window-width="1920"
     inkscape:window-height="991"
     inkscape:window-x="-9"
     inkscape:window-y="-9"
     inkscape:window-maximized="1"
     inkscape:current-layer="layer1" /><defs
     id="defs1" /><g
     inkscape:label="Capa 1"
     inkscape:groupmode="layer"
     id="layer1"
     transform="translate(-1480.4857,-91.832885)"><g
       id="g823"
       transform="translate(1424.0879,63.274291)"
       inkscape:export-filename="Oceanografía.svg"
       inkscape:export-xdpi="96"
       inkscape:export-ydpi="96"
       inkscape:label="Energia Atomica"><circle
         style="display:inline;fill:#f9a86f;fill-opacity:1;stroke:#ffffff;stroke-width:1;stroke-linecap:square;stroke-linejoin:round;stroke-opacity:1"
         id="circle794"
         cx="116.89785"
         cy="89.058594"
         r="60" /><circle
         style="display:inline;fill:#ffffff;fill-opacity:1;stroke:#ffffff;stroke-width:1;stroke-linecap:square;stroke-linejoin:round;stroke-opacity:1"
         id="circle795"
         cx="116.89785"
         cy="89.058594"
         r="54.053749" /><path
         id="path811"
         style="display:inline;fill:#f9a86f;fill-opacity:1;stroke:none;stroke-width:1;stroke-linecap:square;stroke-linejoin:round;stroke-opacity:1"
         d="m 117.29465,40.168607 c -22.742213,0.05319 -42.265283,16.19718 -46.588372,38.524781 h 14.346928 c 4.051515,-14.458577 17.225954,-24.457386 32.241444,-24.469825 15.02202,0.0046 28.20574,10.004971 32.25902,24.469825 h 14.43529 C 159.65824,56.326703 140.07674,40.17114 117.29465,40.168607 Z M 69.953353,90.892126 c 1.658666,24.943744 22.342535,44.347224 47.341297,44.410724 24.99876,-0.0635 45.68263,-19.46697 47.3413,-44.410724 H 150.58099 C 148.95574,108.0715 134.55069,121.20832 117.29465,121.24789 100.03861,121.20829 85.633554,108.0715 84.008309,90.892126 Z"
         sodipodi:nodetypes="cccccccccccccc" /><g
         id="g822"
         transform="translate(0.396875,-1.3229167)"><text
           xml:space="preserve"
           style="font-weight:bold;font-size:14.1111px;line-height:1.2;font-family:Arial;-inkscape-font-specification:'Arial Bold';text-align:center;text-anchor:middle;fill:#ffffff;fill-opacity:1;stroke:#ffffff;stroke-width:1;stroke-linecap:square;stroke-linejoin:round;stroke-dasharray:none;stroke-opacity:1"
           x="84.139343"
           y="38.668396"
           id="text811"
           transform="rotate(49.651447,-3.8973156,78.581555)"><tspan
             sodipodi:role="line"
             id="tspan811"
             style="font-size:14.1111px;fill:#ffffff;fill-opacity:1;stroke:#ffffff;stroke-width:1;stroke-dasharray:none;stroke-opacity:1"
             x="84.139343"
             y="38.668396">D</tspan></text><text
           xml:space="preserve"
           style="font-weight:bold;font-size:14.1111px;line-height:1.2;font-family:Arial;-inkscape-font-specification:'Arial Bold';text-align:center;text-anchor:middle;fill:#ffffff;fill-opacity:1;stroke:#ffffff;stroke-width:1;stroke-linecap:square;stroke-linejoin:round;stroke-dasharray:none;stroke-opacity:1"
           x="81.138748"
           y="63.438328"
           id="text812"
           transform="rotate(32.416911,-23.506148,115.98634)"><tspan
             sodipodi:role="line"
             id="tspan812"
             style="font-size:14.1111px;fill:#ffffff;fill-opacity:1;stroke:#ffffff;stroke-width:1;stroke-dasharray:none;stroke-opacity:1"
             x="81.138748"
             y="63.438328">E</tspan></text><text
           xml:space="preserve"
           style="font-weight:bold;font-size:14.1111px;line-height:1.2;font-family:Arial;-inkscape-font-specification:'Arial Bold';text-align:center;text-anchor:middle;fill:#ffffff;fill-opacity:1;stroke:#ffffff;stroke-width:1;stroke-linecap:square;stroke-linejoin:round;stroke-dasharray:none;stroke-opacity:1"
           x="74.167931"
           y="83.492027"
           id="text813"
           transform="rotate(17.580526,-69.929297,204.5407)"><tspan
             sodipodi:role="line"
             id="tspan813"
             style="font-size:14.1111px;fill:#ffffff;fill-opacity:1;stroke:#ffffff;stroke-width:1;stroke-dasharray:none;stroke-opacity:1"
             x="74.167931"
             y="83.492027">L</tspan></text><text
           xml:space="preserve"
           style="font-weight:bold;font-size:14.1111px;line-height:1.2;font-family:Arial;-inkscape-font-specification:'Arial Bold';text-align:center;text-anchor:middle;fill:#ffffff;fill-opacity:1;stroke:#ffffff;stroke-width:1;stroke-linecap:square;stroke-linejoin:round;stroke-dasharray:none;stroke-opacity:1"
           x="58.342377"
           y="105.44102"
           id="text814"
           transform="rotate(-1.2470186,1438.6142,-2673.0762)"><tspan
             sodipodi:role="line"
             id="tspan814"
             style="font-size:14.1111px;fill:#ffffff;fill-opacity:1;stroke:#ffffff;stroke-width:1;stroke-dasharray:none;stroke-opacity:1"
             x="58.342377"
             y="105.44102">P</tspan></text><text
           xml:space="preserve"
           style="font-weight:bold;font-size:14.1111px;line-height:1.2;font-family:Arial;-inkscape-font-specification:'Arial Bold';text-align:center;text-anchor:middle;fill:#ffffff;fill-opacity:1;stroke:#ffffff;stroke-width:1;stroke-linecap:square;stroke-linejoin:round;stroke-dasharray:none;stroke-opacity:1"
           x="36.925251"
           y="119.13938"
           id="text815"
           transform="rotate(-18.271503,124.63216,-166.59454)"><tspan
             sodipodi:role="line"
             id="tspan815"
             style="font-size:14.1111px;fill:#ffffff;fill-opacity:1;stroke:#ffffff;stroke-width:1;stroke-dasharray:none;stroke-opacity:1"
             x="36.925251"
             y="119.13938">E</tspan></text><text
           xml:space="preserve"
           style="font-weight:bold;font-size:14.1111px;line-height:1.2;font-family:Arial;-inkscape-font-specification:'Arial Bold';text-align:center;text-anchor:middle;fill:#ffffff;fill-opacity:1;stroke:#ffffff;stroke-width:1;stroke-linecap:square;stroke-linejoin:round;stroke-dasharray:none;stroke-opacity:1"
           x="14.023943"
           y="126.68509"
           id="text816"
           transform="rotate(-35.071346,77.79661,-77.253487)"><tspan
             sodipodi:role="line"
             id="tspan816"
             style="font-size:14.1111px;fill:#ffffff;fill-opacity:1;stroke:#ffffff;stroke-width:1;stroke-dasharray:none;stroke-opacity:1"
             x="14.023943"
             y="126.68509">R</tspan></text><path
           id="path816"
           style="font-weight:bold;font-size:15.875px;line-height:1.2;font-family:Arial;-inkscape-font-specification:'Arial Bold';text-align:center;text-anchor:middle;fill:#ffffff;fill-opacity:1;stroke:#ffffff;stroke-width:1;stroke-linecap:square;stroke-linejoin:round;stroke-dasharray:none;stroke-opacity:1"
           d="m 89.378044,76.781959 -1.413349,1.807643 0.55695,0.43366 0.875404,-2.228284 z m 1.104679,0.896174 -0.875396,2.22829 1.890529,1.373317 c 0.708292,0.55389 1.194388,0.976469 1.458307,1.268138 0.263919,0.291668 0.399781,0.650875 0.407727,1.076937 0.0039,0.422877 -0.194729,0.89062 -0.59583,1.403531 -0.394734,0.50477 -0.816539,0.817767 -1.265557,0.93896 -0.449907,0.113938 -0.888314,0.06601 -1.315165,-0.143144 -0.26298,-0.13349 -0.778855,-0.500604 -1.548227,-1.102259 l -3.429292,-2.609007 -1.413862,1.807129 3.356422,2.551641 c 1.0014,0.783103 1.804448,1.316339 2.409674,1.599388 0.409679,0.18917 0.873581,0.279457 1.391644,0.271299 0.513997,-0.01134 1.042684,-0.158695 1.585955,-0.442346 0.542373,-0.290913 1.147924,-0.863908 1.816425,-1.71876 0.553901,-0.708305 0.913284,-1.351957 1.07797,-1.931665 0.16062,-0.582886 0.189941,-1.124394 0.08836,-1.623675 -0.09838,-0.503346 -0.331357,-0.976938 -0.698664,-1.421618 -0.367307,-0.44468 -1.087986,-1.087645 -2.162661,-1.92805 z"
           sodipodi:nodetypes="ccccccccscscccccccccsccscc"
           transform="translate(58.514518,30.675262)" /><text
           xml:space="preserve"
           style="font-style:italic;font-variant:normal;font-weight:bold;font-stretch:normal;font-size:14.1111px;line-height:1.2;font-family:Arial;-inkscape-font-specification:'Arial Bold Italic';text-align:center;text-anchor:middle;fill:#ffffff;fill-opacity:1;stroke:#ffffff;stroke-width:1;stroke-linecap:square;stroke-linejoin:round;stroke-dasharray:none;stroke-opacity:1"
           x="3.0038822"
           y="46.686371"
           id="text817"
           transform="rotate(-44.498689,66.748647,-56.178969)"><tspan
             sodipodi:role="line"
             id="tspan817"
             style="font-style:italic;font-variant:normal;font-weight:bold;font-stretch:normal;font-family:Arial;-inkscape-font-specification:'Arial Bold Italic';stroke-width:1"
             x="3.0038824"
             y="46.686371">S</tspan></text><text
           xml:space="preserve"
           style="font-weight:bold;font-size:14.1111px;line-height:1.2;font-family:Arial;-inkscape-font-specification:'Arial Bold';text-align:center;text-anchor:middle;fill:#ffffff;fill-opacity:1;stroke:#ffffff;stroke-width:1;stroke-linecap:square;stroke-linejoin:round;stroke-dasharray:none;stroke-opacity:1"
           x="22.793133"
           y="45.594044"
           id="text818"
           transform="rotate(-33.043386,80.964335,-83.296072)"><tspan
             sodipodi:role="line"
             id="tspan818"
             style="stroke-width:1"
             x="22.793133"
             y="45.594044">C</tspan></text><text
           xml:space="preserve"
           style="font-weight:bold;font-size:14.1111px;line-height:1.2;font-family:Arial;-inkscape-font-specification:'Arial Bold';text-align:center;text-anchor:middle;fill:#ffffff;fill-opacity:1;stroke:#ffffff;stroke-width:1;stroke-linecap:square;stroke-linejoin:round;stroke-dasharray:none;stroke-opacity:1"
           x="95.420288"
           y="81.118217"
           id="text819"
           transform="rotate(-15.019919)"><tspan
             sodipodi:role="line"
             id="tspan819"
             style="stroke-width:1"
             x="95.420288"
             y="81.118217">O</tspan></text><text
           xml:space="preserve"
           style="font-weight:bold;font-size:14.1111px;line-height:1.2;font-family:Arial;-inkscape-font-specification:'Arial Bold';text-align:center;text-anchor:middle;fill:#ffffff;fill-opacity:1;stroke:#ffffff;stroke-width:1;stroke-linecap:square;stroke-linejoin:round;stroke-dasharray:none;stroke-opacity:1"
           x="131.35493"
           y="26.227385"
           id="text820"
           transform="rotate(12.642406)"><tspan
             sodipodi:role="line"
             id="tspan820"
             style="stroke-width:1"
             x="131.35493"
             y="26.227385">U</tspan></text><text
           xml:space="preserve"
           style="font-weight:bold;font-size:14.1111px;line-height:1.2;font-family:Arial;-inkscape-font-specification:'Arial Bold';text-align:center;text-anchor:middle;fill:#ffffff;fill-opacity:1;stroke:#ffffff;stroke-width:1;stroke-linecap:square;stroke-linejoin:round;stroke-dasharray:none;stroke-opacity:1"
           x="143.29329"
           y="-3.814055"
           id="text821"
           transform="rotate(24.880191)"><tspan
             sodipodi:role="line"
             id="tspan821"
             style="stroke-width:1"
             x="143.29329"
             y="-3.814055">T</tspan></text><text
           xml:space="preserve"
           style="font-style:italic;font-variant:normal;font-weight:bold;font-stretch:normal;font-size:14.1111px;line-height:1.2;font-family:Arial;-inkscape-font-specification:'Arial Bold Italic';text-align:center;text-anchor:middle;fill:#ffffff;fill-opacity:1;stroke:#ffffff;stroke-width:1;stroke-linecap:square;stroke-linejoin:round;stroke-dasharray:none;stroke-opacity:1"
           x="153.21227"
           y="-5.6454854"
           id="text822"
           transform="rotate(26.053437)"><tspan
             sodipodi:role="line"
             id="tspan822"
             style="font-style:italic;font-variant:normal;font-weight:bold;font-stretch:normal;font-family:Arial;-inkscape-font-specification:'Arial Bold Italic';stroke-width:1"
             x="153.21227"
             y="-5.6454854">S</tspan></text></g><g
         id="g482"
         transform="translate(-1424.0879,-63.274291)"><circle
           style="fill:#fff101;fill-opacity:1;stroke:#f58b28;stroke-width:1;stroke-linecap:square;stroke-linejoin:round;stroke-miterlimit:29.8;stroke-dasharray:none;stroke-dashoffset:21.9213;stroke-opacity:1;paint-order:fill markers stroke"
           id="path482"
           cx="1525.2617"
           cy="140.53888"
           r="8.25" /><path
           style="display:inline;fill:#8cd7f7;fill-opacity:1;stroke:none;stroke-width:1;stroke-linecap:square;stroke-linejoin:round;stroke-miterlimit:29.8;stroke-dasharray:none;stroke-dashoffset:21.9213;stroke-opacity:1;paint-order:fill markers stroke"
           d="m 1525.3643,142.67265 c -5.7068,-0.33621 -12.0524,2.8995 -7.9375,11.77395 -4.2431,3.80937 -4.0104,6.8154 -1.3891,9.39271 -10.9666,3.66417 9.811,14.49023 14.6183,8.86355 0,0 12.8499,3.73352 19.2484,2.71198 1.3827,-0.22075 2.2801,-1.98136 3.5718,-1.7198 16.7107,3.38369 16.4007,-2.92907 7.4084,-15.21354 8.3062,-2.90362 13.4197,-12.53983 8.2682,-13.22917 z"
           id="path427"
           sodipodi:nodetypes="scccsscss" /><path
           style="display:inline;fill:#231f20;fill-opacity:1;stroke:#36393d;stroke-width:1;stroke-linecap:square;stroke-linejoin:round;stroke-miterlimit:29.8;stroke-dasharray:none;stroke-dashoffset:21.9213;stroke-opacity:0;paint-order:fill markers stroke"
           d="m 1545.9946,154.54661 -1.0289,-7.88049 c -0.9443,-7.23244 9.6612,5.45609 14.9162,-1.95996 -4.5684,-0.33973 -6.113,-1.47372 -6.8714,-4.88602 -0.6819,-3.068 -1.6656,-2.02062 -1.7306,-2.40876 -0.1096,-0.65824 1.4499,-1.30962 1.4499,-1.30962 -1.5213,-5.1177 2.2901,-7.90234 4.4434,-11.41241 -8.0269,-0.19188 -10.0556,6.24578 -13.6575,10.94468 -8.6744,3.51847 -10.887,12.69096 -14.9304,20.26154 2.3537,-0.6576 4.8244,-1.07762 6.5067,-3.09948 2.9733,2.86334 6.5161,3.76225 10.9026,1.75052 z"
           id="path468"
           sodipodi:nodetypes="cccssccsccc" /><path
           style="display:inline;fill:none;fill-opacity:1;stroke:#36393d;stroke-width:1;stroke-linecap:square;stroke-linejoin:round;stroke-miterlimit:29.8;stroke-dasharray:none;stroke-dashoffset:21.9213;stroke-opacity:1;paint-order:fill markers stroke"
           d="m 1521.7667,153.54777 c 0.9541,1.47602 6.123,5.48055 12.8623,-0.42095 5.0798,5.21655 10.6893,1.96853 15.5283,-0.28066 2.9986,2.97375 4.5774,2.55747 6.9691,2.01123"
           id="path419"
           sodipodi:nodetypes="cccc" /><path
           style="fill:none;fill-opacity:1;stroke:#36393d;stroke-width:1;stroke-linecap:square;stroke-linejoin:round;stroke-miterlimit:29.8;stroke-dasharray:none;stroke-dashoffset:21.9213;stroke-opacity:1;paint-order:fill markers stroke"
           d="m 1526.8648,162.15385 c 6.1499,0.61284 11.9806,-0.37066 17.2589,-4.11595 2.3781,3.89596 7.6497,4.75378 15.0139,3.41437"
           id="path420"
           sodipodi:nodetypes="ccc" /><path
           style="display:inline;fill:none;fill-opacity:1;stroke:#36393d;stroke-width:1;stroke-linecap:square;stroke-linejoin:round;stroke-miterlimit:29.8;stroke-dasharray:none;stroke-dashoffset:21.9213;stroke-opacity:1;paint-order:fill markers stroke"
           d="m 1522.3279,167.48588 c 5.351,1.08603 10.7098,1.86561 16.1832,-1.82412 1.5346,2.54782 4.3933,4.04475 13.7042,0.42095 2.8541,3.18692 6.5543,2.89541 10.5238,1.49671"
           id="path424"
           sodipodi:nodetypes="cccc" /><path
           style="display:inline;fill:none;fill-opacity:1;stroke:#36393d;stroke-width:1;stroke-linecap:square;stroke-linejoin:round;stroke-miterlimit:29.8;stroke-dasharray:none;stroke-dashoffset:21.9213;stroke-opacity:1;paint-order:fill markers stroke"
           d="m 1520.4102,147.18676 c 1.4619,0.5747 2.8216,0.76635 3.7886,-0.5145 2.0385,1.28618 3.9785,0.79984 5.8933,-0.14031"
           id="path425"
           sodipodi:nodetypes="ccc" /><path
           style="fill:none;fill-opacity:1;stroke:#36393d;stroke-width:1;stroke-linecap:square;stroke-linejoin:round;stroke-miterlimit:29.8;stroke-dasharray:none;stroke-dashoffset:21.9213;stroke-opacity:1;paint-order:fill markers stroke"
           d="m 1556.1552,151.13931 c 1.9683,0.0712 3.5137,-0.21019 3.9026,-1.45521 1.3052,0.80678 2.1371,2.42497 5.1924,0.23152"
           id="path426"
           sodipodi:nodetypes="ccc" /><path
           style="fill:none;fill-opacity:1;stroke:#0090cc;stroke-width:1;stroke-linecap:square;stroke-linejoin:round;stroke-miterlimit:29.8;stroke-dasharray:none;stroke-dashoffset:21.9213;stroke-opacity:1;paint-order:fill markers stroke"
           d="m 1522.2297,153.21704 c 0.9541,1.47602 6.123,5.48055 12.8623,-0.42095 5.0798,5.21655 10.6893,1.96853 15.5283,-0.28066 2.9986,2.97375 4.5774,2.55747 6.9691,2.01123"
           id="path428"
           sodipodi:nodetypes="cccc" /><path
           style="fill:none;fill-opacity:1;stroke:#0090cc;stroke-width:1;stroke-linecap:square;stroke-linejoin:round;stroke-miterlimit:29.8;stroke-dasharray:none;stroke-dashoffset:21.9213;stroke-opacity:1;paint-order:fill markers stroke"
           d="m 1527.3278,161.82312 c 6.1499,0.61284 11.9806,-0.37066 17.2589,-4.11595 2.3781,3.89596 7.6497,4.75378 15.0139,3.41437"
           id="path429"
           sodipodi:nodetypes="ccc" /><path
           style="fill:none;fill-opacity:1;stroke:#0090cc;stroke-width:1;stroke-linecap:square;stroke-linejoin:round;stroke-miterlimit:29.8;stroke-dasharray:none;stroke-dashoffset:21.9213;stroke-opacity:1;paint-order:fill markers stroke"
           d="m 1522.7909,167.15515 c 5.351,1.08603 10.7098,1.86561 16.1832,-1.82412 1.5346,2.54782 4.3933,4.04475 13.7042,0.42095 2.8541,3.18692 6.5543,2.89541 10.5238,1.49671"
           id="path431"
           sodipodi:nodetypes="cccc" /><path
           style="fill:none;fill-opacity:1;stroke:#0090cc;stroke-width:1;stroke-linecap:square;stroke-linejoin:round;stroke-miterlimit:29.8;stroke-dasharray:none;stroke-dashoffset:21.9213;stroke-opacity:1;paint-order:fill markers stroke"
           d="m 1520.8732,146.85603 c 1.4619,0.5747 2.8216,0.76635 3.7886,-0.5145 2.0385,1.28618 3.9785,0.79984 5.8933,-0.14031"
           id="path432"
           sodipodi:nodetypes="ccc" /><path
           style="fill:none;fill-opacity:1;stroke:#0090cc;stroke-width:1;stroke-linecap:square;stroke-linejoin:round;stroke-miterlimit:29.8;stroke-dasharray:none;stroke-dashoffset:21.9213;stroke-opacity:1;paint-order:fill markers stroke"
           d="m 1556.6182,150.80858 c 1.9683,0.0712 3.5137,-0.21019 3.9026,-1.45521 1.3052,0.80678 2.1371,2.42497 5.1924,0.23152"
           id="path433"
           sodipodi:nodetypes="ccc" /><path
           style="fill:#36393d;fill-opacity:1;stroke:#ffffff;stroke-width:1;stroke-linecap:square;stroke-linejoin:round;stroke-miterlimit:29.8;stroke-dasharray:none;stroke-dashoffset:21.9213;stroke-opacity:1;paint-order:fill markers stroke"
           d="m 1538.932,141.71441 c -0.6669,0.35292 -1.1471,0.81779 -1.1927,1.54349"
           id="path469"
           sodipodi:nodetypes="cc" /><path
           style="fill:#36393d;fill-opacity:1;stroke:#ffffff;stroke-width:1;stroke-linecap:square;stroke-linejoin:round;stroke-miterlimit:29.8;stroke-dasharray:none;stroke-dashoffset:21.9213;stroke-opacity:1;paint-order:fill markers stroke"
           d="m 1539.6334,140.31125 c 0.527,-0.95216 0.9234,-1.75243 2.0115,-1.70718"
           id="path477"
           sodipodi:nodetypes="cc" /><path
           style="fill:none;fill-opacity:1;stroke:#ffffff;stroke-width:1;stroke-linecap:square;stroke-linejoin:round;stroke-miterlimit:29.8;stroke-dasharray:none;stroke-dashoffset:21.9213;stroke-opacity:1;paint-order:fill markers stroke"
           d="m 1548.7074,136.359 c 1.4033,-2.05389 3.0413,-3.22712 3.2273,-4.93446"
           id="path478"
           sodipodi:nodetypes="cc" /><path
           style="fill:#36393d;fill-opacity:1;stroke:#ffffff;stroke-width:1;stroke-linecap:square;stroke-linejoin:round;stroke-miterlimit:29.8;stroke-dasharray:none;stroke-dashoffset:21.9213;stroke-opacity:1;paint-order:fill markers stroke"
           d="m 1550.6719,139.84353 c 0.3967,0.17543 0.609,0.48583 0.7015,0.93544"
           id="path479"
           sodipodi:nodetypes="cc" /><path
           style="fill:#36393d;fill-opacity:1;stroke:#ffffff;stroke-width:1;stroke-linecap:square;stroke-linejoin:round;stroke-miterlimit:29.8;stroke-dasharray:none;stroke-dashoffset:21.9213;stroke-opacity:1;paint-order:fill markers stroke"
           d="m 1554.5121,145.73682 c 0.7906,-0.3512 1.7077,-0.51272 2.8716,-0.30402"
           id="path481"
           sodipodi:nodetypes="cc" /></g></g></g></svg>
