<?xml version="1.0" encoding="UTF-8" standalone="no"?>
<!-- Created with Inkscape (http://www.inkscape.org/) -->

<svg
   width="258.04007mm"
   height="223.46925mm"
   viewBox="0 0 258.04007 223.46925"
   version="1.1"
   id="svg1"
   xml:space="preserve"
   inkscape:version="1.3.2 (091e20e, 2023-11-25, custom)"
   sodipodi:docname="Especialidades.svg"
   xmlns:inkscape="http://www.inkscape.org/namespaces/inkscape"
   xmlns:sodipodi="http://sodipodi.sourceforge.net/DTD/sodipodi-0.dtd"
   xmlns="http://www.w3.org/2000/svg"
   xmlns:svg="http://www.w3.org/2000/svg"><sodipodi:namedview
     id="namedview1"
     pagecolor="#ffffff"
     bordercolor="#000000"
     borderopacity="0.25"
     inkscape:showpageshadow="2"
     inkscape:pageopacity="0.0"
     inkscape:pagecheckerboard="0"
     inkscape:deskcolor="#d1d1d1"
     inkscape:document-units="mm"
     inkscape:zoom="0.5"
     inkscape:cx="8226"
     inkscape:cy="2653"
     inkscape:window-width="1920"
     inkscape:window-height="991"
     inkscape:window-x="-9"
     inkscape:window-y="-9"
     inkscape:window-maximized="1"
     inkscape:current-layer="layer3"
     showguides="true" /><defs
     id="defs1" /><g
     inkscape:groupmode="layer"
     id="layer3"
     inkscape:label="Capa 2"
     transform="translate(-3232.2694,-872.43906)"><g
       id="g923"
       inkscape:export-filename="CaminantesyRovers\asd.svg"
       inkscape:export-xdpi="96"
       inkscape:export-ydpi="96"
       transform="translate(1160.2412,298.31134)"><path
         sodipodi:type="star"
         style="display:inline;fill:#e9602b;fill-opacity:1;stroke:#e9602b;stroke-width:8;stroke-linecap:round;stroke-linejoin:miter;stroke-miterlimit:29.8;stroke-dasharray:none;stroke-dashoffset:21.9213;stroke-opacity:1;paint-order:fill markers stroke"
         id="path883"
         inkscape:flatsided="true"
         sodipodi:sides="6"
         sodipodi:cx="2183.8708"
         sodipodi:cy="711.20001"
         sodipodi:r1="104.42606"
         sodipodi:r2="66.092422"
         sodipodi:arg1="6.2931178e-09"
         sodipodi:arg2="0.52359879"
         inkscape:rounded="0"
         inkscape:randomized="0"
         d="m 2288.2969,711.20001 -52.213,90.43563 -104.4261,0 -52.213,-90.43563 52.213,-90.43562 104.4261,0 z"
         inkscape:transform-center-x="2.7513333e-05"
         inkscape:transform-center-y="-8.9599999e-06"
         transform="translate(17.177246,-25.337686)" /><path
         sodipodi:type="star"
         style="display:inline;fill:#f0832e;fill-opacity:1;stroke:none;stroke-width:8;stroke-linecap:round;stroke-linejoin:miter;stroke-miterlimit:29.8;stroke-dasharray:none;stroke-dashoffset:21.9213;stroke-opacity:1;paint-order:fill markers stroke"
         id="path884"
         inkscape:flatsided="false"
         sodipodi:sides="38"
         sodipodi:cx="2183.8708"
         sodipodi:cy="711.20001"
         sodipodi:r1="109.02294"
         sodipodi:r2="65.413765"
         sodipodi:arg1="0"
         sodipodi:arg2="0.1051533"
         inkscape:rounded="0"
         inkscape:randomized="0"
         d="m 2292.8938,711.20001 -43.9705,6.86581 42.4836,11.07878 -44.5009,-0.46514 40.0806,17.92024 -43.8173,-7.7834 36.5844,24.2729 -41.9387,-14.88935 32.0903,29.96344 -38.916,-21.58915 26.7208,34.83666 -34.8318,-27.70006 20.6224,38.75962 -29.7974,-33.05538 13.9616,41.62533 -23.9503,-37.50904 6.9198,43.35561 -17.4498,-40.93955 -0.3107,43.90326 -10.4734,-43.25334 -7.5327,43.25334 -3.2113,-44.38729 -14.5492,41.42358 4.1384,-44.31046 -21.1689,38.46389 11.3753,-43.02496 -27.2111,34.45501 18.3017,-40.56586 -32.5111,29.5063 24.7291,-37.00023 -36.9243,23.75272 30.4819,-32.42532 -40.3303,17.35123 35.4032,-26.96594 -42.6361,10.47644 39.3587,-20.77099 -43.779,3.31589 42.2408,-14.00947 -43.7277,-3.93512 43.9705,-6.8658 -42.4836,-11.07878 44.5009,0.46514 -40.0806,-17.92025 43.8173,7.7834 -36.5844,-24.27289 41.9387,14.88934 -32.0903,-29.96343 38.916,21.58915 -26.7208,-34.83666 34.8318,27.70006 -20.6224,-38.75963 29.7974,33.05538 -13.9616,-41.62533 23.9503,37.50904 -6.9198,-43.35561 17.4498,40.93955 0.3107,-43.90325 10.4734,43.25333 7.5327,-43.25333 3.2113,44.38728 14.5492,-41.42358 -4.1384,44.31046 21.1689,-38.46389 -11.3753,43.02496 27.2111,-34.45501 -18.3017,40.56586 32.5111,-29.50629 -24.7291,37.00022 36.9243,-23.75271 -30.4819,32.42531 40.3303,-17.35122 -35.4032,26.96593 42.6361,-10.47644 -39.3587,20.77099 43.779,-3.31588 -42.2408,14.00946 z"
         inkscape:transform-center-x="2.7513333e-05"
         inkscape:transform-center-y="-8.9599999e-06"
         transform="translate(17.177246,-25.337686)" /><path
         sodipodi:type="star"
         style="fill:none;stroke:#f19100;stroke-width:2;stroke-linecap:round;stroke-linejoin:miter;stroke-miterlimit:29.8;stroke-dasharray:4, 6;stroke-dashoffset:6;stroke-opacity:1;paint-order:fill markers stroke"
         id="path885"
         inkscape:flatsided="true"
         sodipodi:sides="6"
         sodipodi:cx="2183.8708"
         sodipodi:cy="711.20001"
         sodipodi:r1="101.37034"
         sodipodi:r2="66.092422"
         sodipodi:arg1="6.293118e-09"
         sodipodi:arg2="0.52359879"
         inkscape:rounded="0"
         inkscape:randomized="0"
         d="m 2285.2412,711.20001 -50.6852,87.78929 -101.3703,0 -50.6852,-87.78929 50.6852,-87.78929 101.3703,0 z"
         inkscape:transform-center-x="2.7513333e-05"
         inkscape:transform-center-y="-8.9599999e-06"
         transform="translate(17.177246,-26.053936)" /><path
         sodipodi:type="star"
         style="fill:none;stroke:#ffffff;stroke-width:8;stroke-linecap:round;stroke-linejoin:miter;stroke-miterlimit:29.8;stroke-dasharray:none;stroke-dashoffset:21.9213;stroke-opacity:1;paint-order:fill markers stroke"
         id="path886"
         inkscape:flatsided="true"
         sodipodi:sides="6"
         sodipodi:cx="2183.8708"
         sodipodi:cy="711.20001"
         sodipodi:r1="113.64817"
         sodipodi:r2="66.092422"
         sodipodi:arg1="6.2931178e-09"
         sodipodi:arg2="0.52359879"
         inkscape:rounded="0"
         inkscape:randomized="0"
         d="m 2297.519,711.20001 -56.8241,98.42221 -113.6481,-10e-6 -56.8241,-98.4222 56.8241,-98.4222 113.6481,0 z"
         inkscape:transform-center-x="2.7513333e-05"
         inkscape:transform-center-y="-8.9599999e-06"
         transform="translate(17.177246,-25.337686)" /><path
         sodipodi:type="star"
         style="fill:none;stroke:#f29400;stroke-width:8;stroke-linecap:round;stroke-linejoin:miter;stroke-miterlimit:29.8;stroke-dasharray:none;stroke-dashoffset:21.9213;stroke-opacity:1;paint-order:fill markers stroke"
         id="path887"
         inkscape:flatsided="true"
         sodipodi:sides="6"
         sodipodi:cx="2183.8708"
         sodipodi:cy="711.20001"
         sodipodi:r1="115.40091"
         sodipodi:r2="66.092422"
         sodipodi:arg1="6.2931178e-09"
         sodipodi:arg2="0.52359879"
         inkscape:rounded="0"
         inkscape:randomized="0"
         d="m 2299.2718,711.20001 -57.7005,99.94012 -115.4009,0 -57.7005,-99.94012 57.7005,-99.94012 115.4009,0 z"
         inkscape:transform-center-x="2.7513333e-05"
         inkscape:transform-center-y="-8.9599999e-06"
         transform="translate(17.177246,-25.337686)" /><path
         sodipodi:type="star"
         style="fill:none;stroke:#ffffff;stroke-width:8;stroke-linecap:round;stroke-linejoin:miter;stroke-miterlimit:29.8;stroke-dasharray:none;stroke-dashoffset:21.9213;stroke-opacity:1;paint-order:fill markers stroke"
         id="path888"
         inkscape:flatsided="true"
         sodipodi:sides="6"
         sodipodi:cx="2183.8708"
         sodipodi:cy="711.20001"
         sodipodi:r1="124.40124"
         sodipodi:r2="66.092422"
         sodipodi:arg1="6.2931178e-09"
         sodipodi:arg2="0.52359879"
         inkscape:rounded="0"
         inkscape:randomized="0"
         d="m 2308.2721,711.20001 -62.2006,107.73463 -124.4013,0 -62.2006,-107.73463 62.2006,-107.73463 124.4013,0 z"
         inkscape:transform-center-x="2.7513333e-05"
         inkscape:transform-center-y="-8.9599999e-06"
         transform="translate(17.177246,-25.337686)" /><g
         id="g905"
         transform="translate(100.33668,-214.00833)"
         style="fill:#000000;fill-opacity:0.5;stroke:none;stroke-width:1.7;stroke-dasharray:none;stroke-opacity:0.5"><g
           id="g894"
           style="display:inline;fill:#000000;fill-opacity:0.5;stroke:none;stroke-width:1.7;stroke-dasharray:none;stroke-opacity:0.5"><path
             id="path890"
             style="display:inline;fill:#000000;fill-opacity:0.5;stroke:none;stroke-width:1.7;stroke-linecap:round;stroke-linejoin:round;stroke-miterlimit:29.8;stroke-dasharray:none;stroke-dashoffset:21.9213;stroke-opacity:0.5;paint-order:fill markers stroke"
             d="m 2105.9485,833.6778 c -4.016,0.0571 -8.3114,1.82891 -11.2102,4.47931 -8.4613,7.73612 -12.8888,20.71755 -14.9671,31.99236 -4.682,25.40127 -3.4634,51.78768 3.4613,76.79996 2.7878,10.06937 6.907,21.06038 17.0248,23.66678 6.4143,1.65237 12.0736,-2.51465 16.5572,-7.39025 6.7727,-7.36486 9.6876,-19.00923 11.6933,-28.81168 3.9515,-19.31207 4.2282,-39.62497 1.3095,-59.1199 -1.8294,-12.21895 -3.9919,-24.33597 -11.5058,-34.14366 -2.8191,-3.67969 -6.0589,-6.85934 -10.6639,-7.39024 -0.5574,-0.0643 -1.1254,-0.0909 -1.6991,-0.0827 z m -2.3952,1.95802 c 2.8451,0.16854 5.0753,2.25129 7.3292,4.66999 6.5792,7.05986 11.0038,22.36722 12.6199,32.65641 3.6405,23.18074 3.0202,47.35445 -2.3642,70.18021 -2.1676,9.18912 -6.6333,23.10104 -14.5004,25.47958 -4.9875,1.50792 -10.5109,-5.94295 -13.4359,-10.81329 -4.396,-7.31973 -6.0358,-17.25389 -7.5954,-26.19943 -3.0723,-17.62385 -3.2874,-36.16104 -1.018,-53.95175 1.4225,-11.15079 3.8528,-21.78754 8.292,-31.34589 1.6892,-3.63703 5.8333,-10.14174 9.4139,-10.62623 0.4335,-0.0586 0.8524,-0.0737 1.2589,-0.0496 z" /><path
             id="path891"
             style="display:inline;fill:#000000;fill-opacity:0.5;stroke:none;stroke-width:1.7;stroke-linecap:round;stroke-linejoin:round;stroke-miterlimit:29.8;stroke-dasharray:none;stroke-dashoffset:21.9213;stroke-opacity:0.5;paint-order:fill markers stroke"
             d="m 2166.8731,925.42077 c -2.8085,-11.11546 -13.999,-21.22717 -22.9463,-28.39554 -20.1579,-16.14955 -41.3312,-26.50967 -66.6412,-32.25145 -10.1892,-2.31145 -26.1202,-3.55572 -34.5288,5.3131 -4.5573,4.80676 -3.2352,7.39323 -1.0624,13.65126 3.2819,9.45196 14.1421,20.17838 21.8269,26.58574 15.1401,12.62335 32.1077,21.42528 50.6613,28.08366 11.629,4.17329 23.4317,7.16647 35.2575,5.76496 5.5992,-0.66358 9.3513,-0.065 15.593,-6.55593 3.889,-4.04437 2.8576,-7.3699 1.84,-12.1958 z m -5.7888,10.08269 c -1.8786,2.79269 -5.3118,4.59533 -8.5093,5.43559 -9.3334,2.45292 -26.8957,-2.61633 -36.7239,-6.06391 -22.142,-7.76754 -38.9742,-19.62595 -56.5309,-35.17489 -7.0679,-6.25962 -14.5418,-18.97764 -12.9125,-27.03332 1.0329,-5.10706 8.3386,-6.4294 14.0133,-6.70013 8.5286,-0.40688 19.246,2.25645 27.8639,5.1177 16.9783,5.63729 34.2019,16.00964 48.7983,26.43108 9.1486,6.53199 14.3908,12.7823 20.7085,21.21762 2.4039,3.20977 3.807,8.0087 4.1095,12.33058 0.1051,1.50106 0.023,3.19114 -0.8169,4.43968 z"
             sodipodi:nodetypes="sssssssassassssssssaa" /><path
             id="path892"
             style="fill:#000000;fill-opacity:0.5;stroke:none;stroke-width:1.7;stroke-linecap:round;stroke-linejoin:round;stroke-miterlimit:29.8;stroke-dasharray:none;stroke-dashoffset:21.9213;stroke-opacity:0.5;paint-order:fill markers stroke"
             d="m 2042.6262,929.49779 c 2.1569,-11.26006 12.6739,-22.07203 21.1888,-29.74895 19.1839,-17.2953 39.7184,-28.87007 64.6514,-36.07506 10.0374,-2.90051 25.6706,-5.9297 34.5811,2.43474 4.8293,4.5334 5.0489,8.44921 3.244,14.82308 -2.7263,9.62693 -13.3406,21.56251 -20.6395,28.40623 -14.3798,13.48306 -35.7473,26.54412 -56.4818,33.6302 -11.015,3.76442 -23.2053,6.28614 -34.6637,4.23517 -3.4696,-0.62103 -7.287,-2.02223 -9.3997,-4.84362 -2.6172,-3.49497 -3.2156,-7.98485 -2.4806,-12.86179 z m 6.895,8.4058 c 1.8891,2.86107 4.9749,5.53518 8.2159,6.18794 9.4603,1.90559 26.9625,-0.93598 36.5734,-4.94968 21.6524,-9.04296 38.7582,-21.13325 55.3802,-37.67757 6.6917,-6.66034 13.737,-20.28903 11.5158,-28.20198 -1.9898,-7.08881 -8.7338,-8.43867 -14.3795,-9.44512 -12.3465,-2.20102 -25.0789,3.67263 -36.6469,8.51653 -14.5477,6.09162 -26.0024,14.07033 -39.9675,25.32357 -8.753,7.05333 -12.9612,14.06114 -18.7772,22.84983 -2.2131,3.34423 -3.4278,6.8944 -3.5834,10.63061 -0.097,2.3209 0.3892,4.8274 1.6692,6.76587 z"
             sodipodi:nodetypes="ssssssaaasassssaassaa" /><circle
             style="display:inline;fill:#000000;fill-opacity:0.5;stroke:none;stroke-width:1.7;stroke-linecap:round;stroke-linejoin:round;stroke-miterlimit:29.8;stroke-dasharray:none;stroke-dashoffset:21.9213;stroke-opacity:0.5;paint-order:fill markers stroke"
             id="circle892"
             cx="2050.3984"
             cy="893.11456"
             r="7.7174077" /><circle
             style="display:inline;fill:#000000;fill-opacity:0.5;stroke:none;stroke-width:1.7;stroke-linecap:round;stroke-linejoin:round;stroke-miterlimit:29.8;stroke-dasharray:none;stroke-dashoffset:21.9213;stroke-opacity:0.5;paint-order:fill markers stroke"
             id="circle893"
             cx="2085.9919"
             cy="954.57318"
             r="7.7174077" /><circle
             style="display:inline;fill:#000000;fill-opacity:0.5;stroke:none;stroke-width:1.7;stroke-linecap:round;stroke-linejoin:round;stroke-miterlimit:29.8;stroke-dasharray:none;stroke-dashoffset:21.9213;stroke-opacity:0.5;paint-order:fill markers stroke"
             id="circle894"
             cx="2157.4922"
             cy="894.61823"
             r="7.7174077" /></g><path
           id="path895"
           style="fill:#000000;fill-opacity:0.5;stroke:none;stroke-width:1.7;stroke-linecap:round;stroke-linejoin:miter;stroke-miterlimit:10;stroke-dasharray:none;stroke-dashoffset:21.9213;stroke-opacity:0.5;paint-order:fill markers stroke"
           d="m 2104.6727,872.06706 c 0,0 -9.843,8.00053 -10.7577,13.51713 -0.9845,5.93702 5.2582,13.25583 6.2674,19.73574 l 0.5612,3.6034 3.2742,-18.65313 1.6061,5.55625 3.5388,13.09688 c 0,0 0.2598,-2.16843 0.5612,-3.6034 1.3478,-6.41803 6.223,-13.79872 5.2385,-19.73574 -0.9147,-5.5166 -10.2897,-13.51713 -10.2897,-13.51713 z m -28.5498,27.4553 c -0.7129,9.86744 8.2206,11.34052 8.2206,11.34052 -0.8716,-8.92396 9.3624,-8.82017 10.6072,-1.88425 l 3.7982,0.015 c 0,0 -3.5505,-19.21172 -11.5795,-19.20873 -8.029,0.003 -10.7169,5.17495 -11.0465,9.73746 z m 35.0728,9.47125 3.7987,-0.015 c 1.2448,-6.93592 11.2911,-5.80839 10.4195,3.11557 0,0 9.1207,-2.7044 8.4078,-12.57184 -0.3296,-4.56251 -3.7318,-10.29338 -11.7608,-10.29617 -8.029,-0.003 -10.8652,19.76744 -10.8652,19.76744 z m -6.2425,1.18959 c -10.3904,0 -31.4456,-3.89816 -11.344,1.7694 0.9406,0.26518 0.9536,1.76941 11.344,1.76941 10.3904,0 10.3668,-1.76786 11.344,-1.76941 14.7841,-0.0234 -0.9536,-1.7694 -11.344,-1.7694 z m 0,0.98341 c 8.4734,0 9.1074,0.35199 9.1074,0.78599 0,0.43401 -0.6574,0.786 -9.1074,0.786 -8.45,0 -9.154,-0.35199 -9.154,-0.786 0,-0.434 0.6806,-0.78599 9.154,-0.78599 z m -10.0025,3.34553 c -1.2225,4.25654 -3.5098,5.40701 -6.7598,4.02197 0,0 0.9363,5.48661 5.4901,4.26641 4.5539,-1.22021 5.0844,-8.02225 5.0844,-8.02225 z m 20.0969,0 -3.8152,0.26613 c 0,0 0.531,6.80204 5.0849,8.02225 4.5538,1.2202 5.4901,-4.26641 5.4901,-4.26641 -3.25,1.38504 -5.5373,0.23457 -6.7598,-4.02197 z m -14.4864,0.60875 c 0,0 -3.2975,7.54569 -3.2975,8.74623 0,7.46074 15.6223,7.46134 15.6223,0 0,-1.20054 -3.2975,-8.74623 -3.2975,-8.74623 l -4.3165,6.87917 -1.7172,-6.87917 z"
           sodipodi:nodetypes="sssccccssssccccsccssccssssscsscccccccscccscsccccc" /><g
           id="g903"
           style="fill:#000000;fill-opacity:0.5;stroke:none;stroke-width:1.7;stroke-dasharray:none;stroke-opacity:0.5"><path
             style="fill:#000000;fill-opacity:0.5;stroke:none;stroke-width:1.7;stroke-linecap:square;stroke-linejoin:miter;stroke-miterlimit:29.8;stroke-dasharray:none;stroke-dashoffset:21.9213;stroke-opacity:0.5;paint-order:fill markers stroke"
             d="m 2084.5306,909.64683 c 0,0 -9.1206,-0.25707 -8.4077,-10.12452 0.3296,-4.56251 4.327,-8.70604 9.2329,-8.70764 11.1521,-0.004 13.3932,18.17902 13.3932,18.17902 l -3.7985,-0.015 c -1.2448,-6.93592 -11.2915,-8.25581 -10.4199,0.66816 z"
             id="path896"
             sodipodi:nodetypes="csscccc" /><path
             style="fill:#000000;fill-opacity:0.5;stroke:none;stroke-width:1.7;stroke-linecap:square;stroke-linejoin:miter;stroke-miterlimit:29.8;stroke-dasharray:none;stroke-dashoffset:21.9213;stroke-opacity:0.5;paint-order:fill markers stroke"
             d="m 2125.4141,909.64683 c 0,0 9.1206,-0.25707 8.4077,-10.12452 -0.3296,-4.56251 -4.327,-8.70604 -9.2329,-8.70764 -11.1521,-0.004 -13.3932,18.17902 -13.3932,18.17902 l 3.7985,-0.015 c 1.2448,-6.93592 11.2915,-8.25581 10.4199,0.66816 z"
             id="path897"
             sodipodi:nodetypes="csscccc" /><path
             style="fill:#000000;fill-opacity:0.5;stroke:none;stroke-width:1.7;stroke-linecap:square;stroke-linejoin:miter;stroke-miterlimit:29.8;stroke-dasharray:none;stroke-dashoffset:21.9213;stroke-opacity:0.5;paint-order:fill markers stroke"
             d="m 2104.9533,872.62833 c 0,1.40231 -9.0945,7.43929 -10.0092,12.95589 -0.9845,5.93703 3.8906,13.31777 5.2384,19.73581 0.3014,1.43497 0.5613,3.60348 0.5613,3.60348 h 3.2741 c -0.055,-8.99001 -0.6268,-17.97902 0.9354,-26.8472 1.5622,8.86818 0.9902,17.85719 0.9354,26.8472 h 3.2741 c 0,0 0.2599,-2.16851 0.5613,-3.60348 1.3478,-6.41804 6.2229,-13.79878 5.2384,-19.73581 -0.9147,-5.5166 -10.0092,-11.55358 -10.0092,-12.95589"
             id="path898"
             sodipodi:nodetypes="csscccccssc" /><path
             id="path899"
             style="fill:#000000;fill-opacity:0.5;stroke:none;stroke-width:1.7;stroke-linecap:square;stroke-linejoin:miter;stroke-miterlimit:29.8;stroke-dasharray:none;stroke-dashoffset:21.9213;stroke-opacity:0.5;paint-order:fill markers stroke"
             d="m 2104.9532,910.1832 c -10.3904,0 -11.344,0.7922 -11.344,1.7694 0,0.97722 0.9536,1.76941 11.344,1.76941 10.3904,0 11.344,-0.79219 11.344,-1.76941 0,-0.9772 -0.9536,-1.7694 -11.344,-1.7694 z m 0,0.98341 c 8.4734,0 9.1074,0.35199 9.1074,0.78599 0,0.43401 -0.6574,0.786 -9.1074,0.786 -8.45,0 -9.154,-0.35199 -9.154,-0.786 0,-0.434 0.6806,-0.78599 9.154,-0.78599 z" /><path
             style="fill:#000000;fill-opacity:0.5;stroke:none;stroke-width:1.7;stroke-linecap:square;stroke-linejoin:miter;stroke-miterlimit:29.8;stroke-dasharray:none;stroke-dashoffset:21.9213;stroke-opacity:0.5;paint-order:fill markers stroke"
             d="m 2098.7655,914.77833 -3.815,-0.26609 c -1.2225,4.25655 -3.5096,5.40692 -6.7596,4.02188 0,0 0.9362,5.48661 5.49,4.26641 4.5539,-1.22021 5.0846,-8.0222 5.0846,-8.0222 z"
             id="path900"
             sodipodi:nodetypes="ccczc" /><path
             style="fill:#000000;fill-opacity:0.5;stroke:none;stroke-width:1.7;stroke-linecap:square;stroke-linejoin:miter;stroke-miterlimit:29.8;stroke-dasharray:none;stroke-dashoffset:21.9213;stroke-opacity:0.5;paint-order:fill markers stroke"
             d="m 2111.2326,914.77833 3.815,-0.26609 c 1.2225,4.25655 3.5096,5.40692 6.7596,4.02188 0,0 -0.9362,5.48661 -5.49,4.26641 -4.5539,-1.22021 -5.0846,-8.0222 -5.0846,-8.0222 z"
             id="path901"
             sodipodi:nodetypes="ccczc" /><path
             style="fill:#000000;fill-opacity:0.5;stroke:none;stroke-width:1.7;stroke-linecap:square;stroke-linejoin:miter;stroke-miterlimit:29.8;stroke-dasharray:none;stroke-dashoffset:21.9213;stroke-opacity:0.5;paint-order:fill markers stroke"
             d="m 2106.595,915.12082 h 2.9934 c 0,0 3.2975,7.54587 3.2975,8.74641 0,2.88793 -6.4339,6.63743 -7.811,6.68843 -1.3771,-0.051 -7.811,-3.8005 -7.811,-6.68843 0,-1.20054 3.2975,-8.74641 3.2975,-8.74641 h 2.9934 c 0.6184,3.27536 0.9945,6.4295 1.5201,9.51816 0.5256,-3.08866 0.9017,-6.2428 1.5201,-9.51816 z"
             id="path903"
             sodipodi:nodetypes="ccscscccc" /></g><path
           sodipodi:type="star"
           style="fill:#000000;fill-opacity:0.5;stroke:none;stroke-width:1.7;stroke-linecap:square;stroke-linejoin:miter;stroke-miterlimit:29.8;stroke-dasharray:none;stroke-dashoffset:21.9213;stroke-opacity:0.5;paint-order:fill markers stroke"
           id="path904"
           inkscape:flatsided="false"
           sodipodi:sides="5"
           sodipodi:cx="2082.8"
           sodipodi:cy="898.57458"
           sodipodi:r1="0.42899281"
           sodipodi:r2="0.22981399"
           sodipodi:arg1="0.48088728"
           sodipodi:arg2="1.1092058"
           inkscape:rounded="0"
           inkscape:randomized="0"
           d="m 2083.1804,898.77302 -0.278,0.007 -0.1735,0.21728 -0.093,-0.26212 -0.2603,-0.0979 0.2206,-0.16932 0.013,-0.27779 0.2292,0.15747 0.2681,-0.0738 -0.079,0.26665 z"
           inkscape:transform-center-x="0.022026459"
           inkscape:transform-center-y="0.019462336" /><path
           sodipodi:type="star"
           style="fill:#000000;fill-opacity:0.5;stroke:none;stroke-width:1.7;stroke-linecap:square;stroke-linejoin:miter;stroke-miterlimit:29.8;stroke-dasharray:none;stroke-dashoffset:21.9213;stroke-opacity:0.5;paint-order:fill markers stroke"
           id="path905"
           inkscape:flatsided="false"
           sodipodi:sides="5"
           sodipodi:cx="2082.8"
           sodipodi:cy="898.57458"
           sodipodi:r1="0.42899281"
           sodipodi:r2="0.22981399"
           sodipodi:arg1="0.48088728"
           sodipodi:arg2="1.1092058"
           inkscape:rounded="0"
           inkscape:randomized="0"
           d="m 2083.1804,898.77302 -0.278,0.007 -0.1735,0.21728 -0.093,-0.26212 -0.2603,-0.0979 0.2206,-0.16932 0.013,-0.27779 0.2292,0.15747 0.2681,-0.0738 -0.079,0.26665 z"
           inkscape:transform-center-x="-0.022076321"
           inkscape:transform-center-y="0.019462336"
           transform="matrix(-1,0,0,1,4209.6533,0)" /></g><g
         id="g922"
         transform="translate(97.161681,-217.18335)"><g
           id="g911"
           style="display:inline"><path
             id="path906"
             style="display:inline;fill:#ffffff;fill-opacity:1;stroke:#ffffff;stroke-width:1;stroke-linecap:round;stroke-linejoin:round;stroke-miterlimit:29.8;stroke-dasharray:none;stroke-dashoffset:21.9213;stroke-opacity:1;paint-order:fill markers stroke"
             d="m 2105.9485,833.6778 c -4.016,0.0571 -8.3114,1.82891 -11.2102,4.47931 -8.4613,7.73612 -12.8888,20.71755 -14.9671,31.99236 -4.682,25.40127 -3.4634,51.78768 3.4613,76.79996 2.7878,10.06937 6.907,21.06038 17.0248,23.66678 6.4143,1.65237 12.0736,-2.51465 16.5572,-7.39025 6.7727,-7.36486 9.6876,-19.00923 11.6933,-28.81168 3.9515,-19.31207 4.2282,-39.62497 1.3095,-59.1199 -1.8294,-12.21895 -3.9919,-24.33597 -11.5058,-34.14366 -2.8191,-3.67969 -6.0589,-6.85934 -10.6639,-7.39024 -0.5574,-0.0643 -1.1254,-0.0909 -1.6991,-0.0827 z m -2.3952,1.95802 c 2.8451,0.16854 5.0753,2.25129 7.3292,4.66999 6.5792,7.05986 11.0038,22.36722 12.6199,32.65641 3.6405,23.18074 3.0202,47.35445 -2.3642,70.18021 -2.1676,9.18912 -6.6333,23.10104 -14.5004,25.47958 -4.9875,1.50792 -10.5109,-5.94295 -13.4359,-10.81329 -4.396,-7.31973 -6.0358,-17.25389 -7.5954,-26.19943 -3.0723,-17.62385 -3.2874,-36.16104 -1.018,-53.95175 1.4225,-11.15079 3.8528,-21.78754 8.292,-31.34589 1.6892,-3.63703 5.8333,-10.14174 9.4139,-10.62623 0.4335,-0.0586 0.8524,-0.0737 1.2589,-0.0496 z" /><path
             id="path908"
             style="display:inline;fill:#ffffff;fill-opacity:1;stroke:#ffffff;stroke-width:1;stroke-linecap:round;stroke-linejoin:round;stroke-miterlimit:29.8;stroke-dasharray:none;stroke-dashoffset:21.9213;stroke-opacity:1;paint-order:fill markers stroke"
             d="m 2166.8731,925.42077 c -2.8085,-11.11546 -13.999,-21.22717 -22.9463,-28.39554 -20.1579,-16.14955 -41.3312,-26.50967 -66.6412,-32.25145 -10.1892,-2.31145 -26.1202,-3.55572 -34.5288,5.3131 -4.5573,4.80676 -3.2352,7.39323 -1.0624,13.65126 3.2819,9.45196 14.1421,20.17838 21.8269,26.58574 15.1401,12.62335 32.1077,21.42528 50.6613,28.08366 11.629,4.17329 23.4317,7.16647 35.2575,5.76496 5.5992,-0.66358 9.3513,-0.065 15.593,-6.55593 3.889,-4.04437 2.8576,-7.3699 1.84,-12.1958 z m -5.7888,10.08269 c -1.8786,2.79269 -5.3118,4.59533 -8.5093,5.43559 -9.3334,2.45292 -26.8957,-2.61633 -36.7239,-6.06391 -22.142,-7.76754 -38.9742,-19.62595 -56.5309,-35.17489 -7.0679,-6.25962 -14.5418,-18.97764 -12.9125,-27.03332 1.0329,-5.10706 8.3386,-6.4294 14.0133,-6.70013 8.5286,-0.40688 19.246,2.25645 27.8639,5.1177 16.9783,5.63729 34.2019,16.00964 48.7983,26.43108 9.1486,6.53199 14.3908,12.7823 20.7085,21.21762 2.4039,3.20977 3.807,8.0087 4.1095,12.33058 0.1051,1.50106 0.023,3.19114 -0.8169,4.43968 z"
             sodipodi:nodetypes="sssssssassassssssssaa" /><path
             id="path909"
             style="fill:#ffffff;fill-opacity:1;stroke:#ffffff;stroke-width:1;stroke-linecap:round;stroke-linejoin:round;stroke-miterlimit:29.8;stroke-dasharray:none;stroke-dashoffset:21.9213;stroke-opacity:1;paint-order:fill markers stroke"
             d="m 2042.6262,929.49779 c 2.1569,-11.26006 12.6739,-22.07203 21.1888,-29.74895 19.1839,-17.2953 39.7184,-28.87007 64.6514,-36.07506 10.0374,-2.90051 25.6706,-5.9297 34.5811,2.43474 4.8293,4.5334 5.0489,8.44921 3.244,14.82308 -2.7263,9.62693 -13.3406,21.56251 -20.6395,28.40623 -14.3798,13.48306 -35.7473,26.54412 -56.4818,33.6302 -11.015,3.76442 -23.2053,6.28614 -34.6637,4.23517 -3.4696,-0.62103 -7.287,-2.02223 -9.3997,-4.84362 -2.6172,-3.49497 -3.2156,-7.98485 -2.4806,-12.86179 z m 6.895,8.4058 c 1.8891,2.86107 4.9749,5.53518 8.2159,6.18794 9.4603,1.90559 26.9625,-0.93598 36.5734,-4.94968 21.6524,-9.04296 38.7582,-21.13325 55.3802,-37.67757 6.6917,-6.66034 13.737,-20.28903 11.5158,-28.20198 -1.9898,-7.08881 -8.7338,-8.43867 -14.3795,-9.44512 -12.3465,-2.20102 -25.0789,3.67263 -36.6469,8.51653 -14.5477,6.09162 -26.0024,14.07033 -39.9675,25.32357 -8.753,7.05333 -12.9612,14.06114 -18.7772,22.84983 -2.2131,3.34423 -3.4278,6.8944 -3.5834,10.63061 -0.097,2.3209 0.3892,4.8274 1.6692,6.76587 z"
             sodipodi:nodetypes="ssssssaaasassssaassaa" /><circle
             style="display:inline;fill:#fcee9e;fill-opacity:1;stroke:#fefefe;stroke-width:3;stroke-linecap:round;stroke-linejoin:round;stroke-miterlimit:29.8;stroke-dasharray:none;stroke-dashoffset:21.9213;stroke-opacity:1;paint-order:fill markers stroke"
             id="circle909"
             cx="2050.3984"
             cy="893.11456"
             r="7.7174077" /><circle
             style="display:inline;fill:#e95c1b;fill-opacity:1;stroke:#fefefe;stroke-width:3;stroke-linecap:round;stroke-linejoin:round;stroke-miterlimit:29.8;stroke-dasharray:none;stroke-dashoffset:21.9213;stroke-opacity:1;paint-order:fill markers stroke"
             id="circle910"
             cx="2085.9919"
             cy="954.57318"
             r="7.7174077" /><circle
             style="display:inline;fill:#8ac8ea;fill-opacity:1;stroke:#fefefe;stroke-width:3;stroke-linecap:round;stroke-linejoin:round;stroke-miterlimit:29.8;stroke-dasharray:none;stroke-dashoffset:21.9213;stroke-opacity:1;paint-order:fill markers stroke"
             id="circle911"
             cx="2157.4922"
             cy="894.61823"
             r="7.7174077" /></g><path
           id="path911"
           style="fill:none;fill-opacity:1;stroke:#ffffff;stroke-width:8;stroke-linecap:round;stroke-linejoin:miter;stroke-miterlimit:10;stroke-dasharray:none;stroke-dashoffset:21.9213;stroke-opacity:1;paint-order:fill markers stroke"
           d="m 2104.6727,872.06706 c 0,0 -9.843,8.00053 -10.7577,13.51713 -0.9845,5.93702 5.2582,13.25583 6.2674,19.73574 l 0.5612,3.6034 3.2742,-18.65313 1.6061,5.55625 3.5388,13.09688 c 0,0 0.2598,-2.16843 0.5612,-3.6034 1.3478,-6.41803 6.223,-13.79872 5.2385,-19.73574 -0.9147,-5.5166 -10.2897,-13.51713 -10.2897,-13.51713 z m -28.5498,27.4553 c -0.7129,9.86744 8.2206,11.34052 8.2206,11.34052 -0.8716,-8.92396 9.3624,-8.82017 10.6072,-1.88425 l 3.7982,0.015 c 0,0 -3.5505,-19.21172 -11.5795,-19.20873 -8.029,0.003 -10.7169,5.17495 -11.0465,9.73746 z m 35.0728,9.47125 3.7987,-0.015 c 1.2448,-6.93592 11.2911,-5.80839 10.4195,3.11557 0,0 9.1207,-2.7044 8.4078,-12.57184 -0.3296,-4.56251 -3.7318,-10.29338 -11.7608,-10.29617 -8.029,-0.003 -10.8652,19.76744 -10.8652,19.76744 z m -6.2425,1.18959 c -10.3904,0 -31.4456,-3.89816 -11.344,1.7694 0.9406,0.26518 0.9536,1.76941 11.344,1.76941 10.3904,0 10.3668,-1.76786 11.344,-1.76941 14.7841,-0.0234 -0.9536,-1.7694 -11.344,-1.7694 z m 0,0.98341 c 8.4734,0 9.1074,0.35199 9.1074,0.78599 0,0.43401 -0.6574,0.786 -9.1074,0.786 -8.45,0 -9.154,-0.35199 -9.154,-0.786 0,-0.434 0.6806,-0.78599 9.154,-0.78599 z m -10.0025,3.34553 c -1.2225,4.25654 -3.5098,5.40701 -6.7598,4.02197 0,0 0.9363,5.48661 5.4901,4.26641 4.5539,-1.22021 5.0844,-8.02225 5.0844,-8.02225 z m 20.0969,0 -3.8152,0.26613 c 0,0 0.531,6.80204 5.0849,8.02225 4.5538,1.2202 5.4901,-4.26641 5.4901,-4.26641 -3.25,1.38504 -5.5373,0.23457 -6.7598,-4.02197 z m -14.4864,0.60875 c 0,0 -3.2975,7.54569 -3.2975,8.74623 0,7.46074 15.6223,7.46134 15.6223,0 0,-1.20054 -3.2975,-8.74623 -3.2975,-8.74623 l -4.3165,6.87917 -1.7172,-6.87917 z"
           sodipodi:nodetypes="sssccccssssccccsccssccssssscsscccccccscccscsccccc" /><g
           id="g919"><path
             style="fill:#f29400;fill-opacity:1;stroke:#f29400;stroke-width:0.5;stroke-linecap:square;stroke-linejoin:miter;stroke-miterlimit:29.8;stroke-dasharray:none;stroke-dashoffset:21.9213;stroke-opacity:1;paint-order:fill markers stroke"
             d="m 2084.5306,909.64683 c 0,0 -9.1206,-0.25707 -8.4077,-10.12452 0.3296,-4.56251 4.327,-8.70604 9.2329,-8.70764 11.1521,-0.004 13.3932,18.17902 13.3932,18.17902 l -3.7985,-0.015 c -1.2448,-6.93592 -11.2915,-8.25581 -10.4199,0.66816 z"
             id="path912"
             sodipodi:nodetypes="csscccc" /><path
             style="fill:#f29400;fill-opacity:1;stroke:#f29400;stroke-width:0.5;stroke-linecap:square;stroke-linejoin:miter;stroke-miterlimit:29.8;stroke-dasharray:none;stroke-dashoffset:21.9213;stroke-opacity:1;paint-order:fill markers stroke"
             d="m 2125.4141,909.64683 c 0,0 9.1206,-0.25707 8.4077,-10.12452 -0.3296,-4.56251 -4.327,-8.70604 -9.2329,-8.70764 -11.1521,-0.004 -13.3932,18.17902 -13.3932,18.17902 l 3.7985,-0.015 c 1.2448,-6.93592 11.2915,-8.25581 10.4199,0.66816 z"
             id="path913"
             sodipodi:nodetypes="csscccc" /><path
             style="fill:#f29400;fill-opacity:1;stroke:#f29400;stroke-width:0.499999;stroke-linecap:square;stroke-linejoin:miter;stroke-miterlimit:29.8;stroke-dasharray:none;stroke-dashoffset:21.9213;stroke-opacity:1;paint-order:fill markers stroke"
             d="m 2104.9533,872.62833 c 0,1.40231 -9.0945,7.43929 -10.0092,12.95589 -0.9845,5.93703 3.8906,13.31777 5.2384,19.73581 0.3014,1.43497 0.5613,3.60348 0.5613,3.60348 h 3.2741 c -0.055,-8.99001 -0.6268,-17.97902 0.9354,-26.8472 1.5622,8.86818 0.9902,17.85719 0.9354,26.8472 h 3.2741 c 0,0 0.2599,-2.16851 0.5613,-3.60348 1.3478,-6.41804 6.2229,-13.79878 5.2384,-19.73581 -0.9147,-5.5166 -10.0092,-11.55358 -10.0092,-12.95589"
             id="path914"
             sodipodi:nodetypes="csscccccssc" /><path
             id="path916"
             style="fill:#f29400;fill-opacity:1;stroke:#f29400;stroke-width:0.499999;stroke-linecap:square;stroke-linejoin:miter;stroke-miterlimit:29.8;stroke-dasharray:none;stroke-dashoffset:21.9213;stroke-opacity:1;paint-order:fill markers stroke"
             d="m 2104.9532,910.1832 c -10.3904,0 -11.344,0.7922 -11.344,1.7694 0,0.97722 0.9536,1.76941 11.344,1.76941 10.3904,0 11.344,-0.79219 11.344,-1.76941 0,-0.9772 -0.9536,-1.7694 -11.344,-1.7694 z m 0,0.98341 c 8.4734,0 9.1074,0.35199 9.1074,0.78599 0,0.43401 -0.6574,0.786 -9.1074,0.786 -8.45,0 -9.154,-0.35199 -9.154,-0.786 0,-0.434 0.6806,-0.78599 9.154,-0.78599 z" /><path
             style="fill:#f29400;fill-opacity:1;stroke:#f29400;stroke-width:0.499999;stroke-linecap:square;stroke-linejoin:miter;stroke-miterlimit:29.8;stroke-dasharray:none;stroke-dashoffset:21.9213;stroke-opacity:1;paint-order:fill markers stroke"
             d="m 2098.7655,914.77833 -3.815,-0.26609 c -1.2225,4.25655 -3.5096,5.40692 -6.7596,4.02188 0,0 0.9362,5.48661 5.49,4.26641 4.5539,-1.22021 5.0846,-8.0222 5.0846,-8.0222 z"
             id="path917"
             sodipodi:nodetypes="ccczc" /><path
             style="fill:#f29400;fill-opacity:1;stroke:#f29400;stroke-width:0.499999;stroke-linecap:square;stroke-linejoin:miter;stroke-miterlimit:29.8;stroke-dasharray:none;stroke-dashoffset:21.9213;stroke-opacity:1;paint-order:fill markers stroke"
             d="m 2111.2326,914.77833 3.815,-0.26609 c 1.2225,4.25655 3.5096,5.40692 6.7596,4.02188 0,0 -0.9362,5.48661 -5.49,4.26641 -4.5539,-1.22021 -5.0846,-8.0222 -5.0846,-8.0222 z"
             id="path918"
             sodipodi:nodetypes="ccczc" /><path
             style="fill:#f29400;fill-opacity:1;stroke:#f29400;stroke-width:0.499999;stroke-linecap:square;stroke-linejoin:miter;stroke-miterlimit:29.8;stroke-dasharray:none;stroke-dashoffset:21.9213;stroke-opacity:1;paint-order:fill markers stroke"
             d="m 2106.595,915.12082 h 2.9934 c 0,0 3.2975,7.54587 3.2975,8.74641 0,2.88793 -6.4339,6.63743 -7.811,6.68843 -1.3771,-0.051 -7.811,-3.8005 -7.811,-6.68843 0,-1.20054 3.2975,-8.74641 3.2975,-8.74641 h 2.9934 c 0.6184,3.27536 0.9945,6.4295 1.5201,9.51816 0.5256,-3.08866 0.9017,-6.2428 1.5201,-9.51816 z"
             id="path919"
             sodipodi:nodetypes="ccscscccc" /></g><path
           sodipodi:type="star"
           style="fill:#8ac8ea;fill-opacity:1;stroke:#fefefe;stroke-width:3;stroke-linecap:square;stroke-linejoin:miter;stroke-miterlimit:29.8;stroke-dasharray:none;stroke-dashoffset:21.9213;stroke-opacity:1;paint-order:fill markers stroke"
           id="path921"
           inkscape:flatsided="false"
           sodipodi:sides="5"
           sodipodi:cx="2082.8"
           sodipodi:cy="898.57458"
           sodipodi:r1="0.42899281"
           sodipodi:r2="0.22981399"
           sodipodi:arg1="0.48088728"
           sodipodi:arg2="1.1092058"
           inkscape:rounded="0"
           inkscape:randomized="0"
           d="m 2083.1804,898.77302 -0.278,0.007 -0.1735,0.21728 -0.093,-0.26212 -0.2603,-0.0979 0.2206,-0.16932 0.013,-0.27779 0.2292,0.15747 0.2681,-0.0738 -0.079,0.26665 z"
           inkscape:transform-center-x="0.022026459"
           inkscape:transform-center-y="0.019462336" /><path
           sodipodi:type="star"
           style="fill:#8ac8ea;fill-opacity:1;stroke:#fefefe;stroke-width:3;stroke-linecap:square;stroke-linejoin:miter;stroke-miterlimit:29.8;stroke-dasharray:none;stroke-dashoffset:21.9213;stroke-opacity:1;paint-order:fill markers stroke"
           id="path922"
           inkscape:flatsided="false"
           sodipodi:sides="5"
           sodipodi:cx="2082.8"
           sodipodi:cy="898.57458"
           sodipodi:r1="0.42899281"
           sodipodi:r2="0.22981399"
           sodipodi:arg1="0.48088728"
           sodipodi:arg2="1.1092058"
           inkscape:rounded="0"
           inkscape:randomized="0"
           d="m 2083.1804,898.77302 -0.278,0.007 -0.1735,0.21728 -0.093,-0.26212 -0.2603,-0.0979 0.2206,-0.16932 0.013,-0.27779 0.2292,0.15747 0.2681,-0.0738 -0.079,0.26665 z"
           inkscape:transform-center-x="-0.022076321"
           inkscape:transform-center-y="0.019462336"
           transform="matrix(-1,0,0,1,4209.6533,0)" /></g></g></g></svg>
