<?xml version="1.0" encoding="UTF-8" standalone="no"?>
<!-- Created with Inkscape (http://www.inkscape.org/) -->

<svg
   width="258.04007mm"
   height="223.46931mm"
   viewBox="0 0 258.04007 223.46931"
   version="1.1"
   id="svg1"
   xml:space="preserve"
   inkscape:version="1.3.2 (091e20e, 2023-11-25, custom)"
   sodipodi:docname="Especialidades.svg"
   xmlns:inkscape="http://www.inkscape.org/namespaces/inkscape"
   xmlns:sodipodi="http://sodipodi.sourceforge.net/DTD/sodipodi-0.dtd"
   xmlns="http://www.w3.org/2000/svg"
   xmlns:svg="http://www.w3.org/2000/svg"><sodipodi:namedview
     id="namedview1"
     pagecolor="#ffffff"
     bordercolor="#000000"
     borderopacity="0.25"
     inkscape:showpageshadow="2"
     inkscape:pageopacity="0.0"
     inkscape:pagecheckerboard="0"
     inkscape:deskcolor="#d1d1d1"
     inkscape:document-units="mm"
     inkscape:zoom="0.0625"
     inkscape:cx="3904"
     inkscape:cy="4312"
     inkscape:window-width="1291"
     inkscape:window-height="981"
     inkscape:window-x="-8"
     inkscape:window-y="0"
     inkscape:window-maximized="0"
     inkscape:current-layer="layer3"
     showguides="false" /><defs
     id="defs1" /><g
     inkscape:groupmode="layer"
     id="layer3"
     inkscape:label="Capa 2"
     transform="translate(-2950.0921,-1503.2056)"><g
       id="g1166"
       inkscape:export-filename="CaminantesyRovers\Ciencia y Tecnologia 3.svg"
       inkscape:export-xdpi="96"
       inkscape:export-ydpi="96"
       transform="translate(878.06402,929.07801)"><path
         sodipodi:type="star"
         style="display:inline;fill:#236db0;fill-opacity:1;stroke:#236db0;stroke-width:8;stroke-linecap:round;stroke-linejoin:miter;stroke-miterlimit:29.8;stroke-dasharray:none;stroke-dashoffset:21.9213;stroke-opacity:1;paint-order:fill markers stroke"
         id="path1132"
         inkscape:flatsided="true"
         sodipodi:sides="6"
         sodipodi:cx="2183.8708"
         sodipodi:cy="711.20001"
         sodipodi:r1="104.42606"
         sodipodi:r2="66.092422"
         sodipodi:arg1="6.2931178e-09"
         sodipodi:arg2="0.52359879"
         inkscape:rounded="0"
         inkscape:randomized="0"
         d="m 2288.2969,711.20001 -52.213,90.43563 -104.4261,0 -52.213,-90.43563 52.213,-90.43562 104.4261,0 z"
         inkscape:transform-center-x="2.7513333e-05"
         inkscape:transform-center-y="-8.9599999e-06"
         transform="translate(17.177246,-25.337686)" /><path
         sodipodi:type="star"
         style="display:inline;fill:#478fb1;fill-opacity:1;stroke:none;stroke-width:8;stroke-linecap:round;stroke-linejoin:miter;stroke-miterlimit:29.8;stroke-dasharray:none;stroke-dashoffset:21.9213;stroke-opacity:1;paint-order:fill markers stroke"
         id="path1133"
         inkscape:flatsided="false"
         sodipodi:sides="38"
         sodipodi:cx="2183.8708"
         sodipodi:cy="711.20001"
         sodipodi:r1="109.02294"
         sodipodi:r2="65.413765"
         sodipodi:arg1="0"
         sodipodi:arg2="0.1051533"
         inkscape:rounded="0"
         inkscape:randomized="0"
         d="m 2292.8938,711.20001 -43.9705,6.86581 42.4836,11.07878 -44.5009,-0.46514 40.0806,17.92024 -43.8173,-7.7834 36.5844,24.2729 -41.9387,-14.88935 32.0903,29.96344 -38.916,-21.58915 26.7208,34.83666 -34.8318,-27.70006 20.6224,38.75962 -29.7974,-33.05538 13.9616,41.62533 -23.9503,-37.50904 6.9198,43.35561 -17.4498,-40.93955 -0.3107,43.90326 -10.4734,-43.25334 -7.5327,43.25334 -3.2113,-44.38729 -14.5492,41.42358 4.1384,-44.31046 -21.1689,38.46389 11.3753,-43.02496 -27.2111,34.45501 18.3017,-40.56586 -32.5111,29.5063 24.7291,-37.00023 -36.9243,23.75272 30.4819,-32.42532 -40.3303,17.35123 35.4032,-26.96594 -42.6361,10.47644 39.3587,-20.77099 -43.779,3.31589 42.2408,-14.00947 -43.7277,-3.93512 43.9705,-6.8658 -42.4836,-11.07878 44.5009,0.46514 -40.0806,-17.92025 43.8173,7.7834 -36.5844,-24.27289 41.9387,14.88934 -32.0903,-29.96343 38.916,21.58915 -26.7208,-34.83666 34.8318,27.70006 -20.6224,-38.75963 29.7974,33.05538 -13.9616,-41.62533 23.9503,37.50904 -6.9198,-43.35561 17.4498,40.93955 0.3107,-43.90325 10.4734,43.25333 7.5327,-43.25333 3.2113,44.38728 14.5492,-41.42358 -4.1384,44.31046 21.1689,-38.46389 -11.3753,43.02496 27.2111,-34.45501 -18.3017,40.56586 32.5111,-29.50629 -24.7291,37.00022 36.9243,-23.75271 -30.4819,32.42531 40.3303,-17.35122 -35.4032,26.96593 42.6361,-10.47644 -39.3587,20.77099 43.779,-3.31588 -42.2408,14.00946 z"
         inkscape:transform-center-x="2.7513333e-05"
         inkscape:transform-center-y="-8.9599999e-06"
         transform="translate(17.177246,-25.337686)" /><path
         sodipodi:type="star"
         style="fill:none;stroke:#ffef39;stroke-width:2;stroke-linecap:round;stroke-linejoin:miter;stroke-miterlimit:29.8;stroke-dasharray:4, 6;stroke-dashoffset:6;stroke-opacity:1;paint-order:fill markers stroke"
         id="path1134"
         inkscape:flatsided="true"
         sodipodi:sides="6"
         sodipodi:cx="2183.8708"
         sodipodi:cy="711.20001"
         sodipodi:r1="101.37034"
         sodipodi:r2="66.092422"
         sodipodi:arg1="6.293118e-09"
         sodipodi:arg2="0.52359879"
         inkscape:rounded="0"
         inkscape:randomized="0"
         d="m 2285.2412,711.20001 -50.6852,87.78929 -101.3703,0 -50.6852,-87.78929 50.6852,-87.78929 101.3703,0 z"
         inkscape:transform-center-x="2.7513333e-05"
         inkscape:transform-center-y="-8.9599999e-06"
         transform="translate(17.177246,-26.053936)" /><path
         sodipodi:type="star"
         style="fill:none;stroke:#ffffff;stroke-width:8;stroke-linecap:round;stroke-linejoin:miter;stroke-miterlimit:29.8;stroke-dasharray:none;stroke-dashoffset:21.9213;stroke-opacity:1;paint-order:fill markers stroke"
         id="path1135"
         inkscape:flatsided="true"
         sodipodi:sides="6"
         sodipodi:cx="2183.8708"
         sodipodi:cy="711.20001"
         sodipodi:r1="113.64817"
         sodipodi:r2="66.092422"
         sodipodi:arg1="6.2931178e-09"
         sodipodi:arg2="0.52359879"
         inkscape:rounded="0"
         inkscape:randomized="0"
         d="m 2297.519,711.20001 -56.8241,98.42221 -113.6481,-10e-6 -56.8241,-98.4222 56.8241,-98.4222 113.6481,0 z"
         inkscape:transform-center-x="2.7513333e-05"
         inkscape:transform-center-y="-8.9599999e-06"
         transform="translate(17.177246,-25.337686)" /><path
         sodipodi:type="star"
         style="fill:none;stroke:#ffef39;stroke-width:8;stroke-linecap:round;stroke-linejoin:miter;stroke-miterlimit:29.8;stroke-dasharray:none;stroke-dashoffset:21.9213;stroke-opacity:1;paint-order:fill markers stroke"
         id="path1136"
         inkscape:flatsided="true"
         sodipodi:sides="6"
         sodipodi:cx="2183.8708"
         sodipodi:cy="711.20001"
         sodipodi:r1="115.40091"
         sodipodi:r2="66.092422"
         sodipodi:arg1="6.2931178e-09"
         sodipodi:arg2="0.52359879"
         inkscape:rounded="0"
         inkscape:randomized="0"
         d="m 2299.2718,711.20001 -57.7005,99.94012 -115.4009,0 -57.7005,-99.94012 57.7005,-99.94012 115.4009,0 z"
         inkscape:transform-center-x="2.7513333e-05"
         inkscape:transform-center-y="-8.9599999e-06"
         transform="translate(17.177246,-25.337686)" /><path
         sodipodi:type="star"
         style="fill:none;stroke:#ffffff;stroke-width:8;stroke-linecap:round;stroke-linejoin:miter;stroke-miterlimit:29.8;stroke-dasharray:none;stroke-dashoffset:21.9213;stroke-opacity:1;paint-order:fill markers stroke"
         id="path1137"
         inkscape:flatsided="true"
         sodipodi:sides="6"
         sodipodi:cx="2183.8708"
         sodipodi:cy="711.20001"
         sodipodi:r1="124.40124"
         sodipodi:r2="66.092422"
         sodipodi:arg1="6.2931178e-09"
         sodipodi:arg2="0.52359879"
         inkscape:rounded="0"
         inkscape:randomized="0"
         d="m 2308.2721,711.20001 -62.2006,107.73463 -124.4013,0 -62.2006,-107.73463 62.2006,-107.73463 124.4013,0 z"
         inkscape:transform-center-x="2.7513333e-05"
         inkscape:transform-center-y="-8.9599999e-06"
         transform="translate(17.177246,-25.337686)" /><g
         id="g1268"
         transform="translate(-747.85392,-1118.7801)"><g
           id="g1254"
           transform="translate(231.45133,-16.063034)"
           style="fill:#000000;fill-opacity:0.5;stroke:#000000;stroke-opacity:0.5"><path
             style="display:inline;fill:none;fill-opacity:0.5;stroke:#000000;stroke-width:5;stroke-linecap:round;stroke-miterlimit:10;stroke-dasharray:none;stroke-dashoffset:21.9213;stroke-opacity:0.5;paint-order:fill markers stroke"
             d="m 1484.5845,886.71104 c 0,0 4.6003,-16.65002 32.9743,-25.53758 26.9595,-8.44449 56.956,6.80089 84.2836,0.28065 12.2238,-2.91654 18.475,-12.25431 18.475,-12.25431"
             id="path1249"
             transform="translate(1160.2412,929.078)"
             sodipodi:nodetypes="cssc" /><path
             style="display:inline;fill:none;fill-opacity:0.5;stroke:#000000;stroke-width:5;stroke-linecap:round;stroke-miterlimit:10;stroke-dasharray:none;stroke-dashoffset:21.9213;stroke-opacity:0.5;paint-order:fill markers stroke"
             d="m 2647.8425,1830.3585 c 0,0 4.6003,-16.65 32.9743,-25.5375 26.9595,-8.4445 56.956,6.8009 84.2836,0.2806 12.2238,-2.9165 18.475,-12.2543 18.475,-12.2543"
             id="path1250"
             sodipodi:nodetypes="cssc" /><path
             style="fill:none;fill-opacity:0.5;stroke:#000000;stroke-width:5;stroke-linecap:round;stroke-miterlimit:10;stroke-dasharray:none;stroke-dashoffset:21.9213;stroke-opacity:0.5;paint-order:fill markers stroke"
             d="m 2650.6634,1845.1019 c 0,0 4.6003,-16.65 32.9743,-25.5376 26.9595,-8.4445 56.956,6.8009 84.2836,0.2806 12.2238,-2.9165 18.475,-12.2543 18.475,-12.2543"
             id="path1251"
             sodipodi:nodetypes="cssc" /><path
             style="fill:none;fill-opacity:0.5;stroke:#000000;stroke-width:5;stroke-linecap:round;stroke-miterlimit:10;stroke-dasharray:none;stroke-dashoffset:21.9213;stroke-opacity:0.5;paint-order:fill markers stroke"
             d="m 2652.5557,1859.539 c 0,0 5.7248,-16.5177 34.0988,-25.4052 26.9595,-8.4445 56.956,6.8009 84.2836,0.2806 12.2238,-2.9165 18.475,-12.2543 18.475,-12.2543"
             id="path1252"
             sodipodi:nodetypes="cssc" /><path
             style="fill:none;fill-opacity:0.5;stroke:#000000;stroke-width:5;stroke-linecap:round;stroke-miterlimit:10;stroke-dasharray:none;stroke-dashoffset:21.9213;stroke-opacity:0.5;paint-order:fill markers stroke"
             d="m 2655.6315,1874.1903 c 0,0 5.6917,-16.8815 34.0657,-25.769 26.9595,-8.4445 56.956,6.8009 84.2836,0.2806 12.2238,-2.9165 18.475,-12.2543 18.475,-12.2543"
             id="path1253"
             sodipodi:nodetypes="cssc" /><rect
             style="fill:none;fill-opacity:0.5;stroke:#000000;stroke-width:4.99999;stroke-linecap:round;stroke-miterlimit:10;stroke-dasharray:none;stroke-dashoffset:21.9213;stroke-opacity:0.5;paint-order:fill markers stroke"
             id="rect1253"
             width="57.891254"
             height="14.898919"
             x="2718.8254"
             y="1861.0129"
             ry="0.033105467" /><path
             style="fill:#000000;fill-opacity:0.5;stroke:none;stroke-width:1;stroke-linecap:round;stroke-linejoin:round;stroke-miterlimit:10;stroke-dasharray:none;stroke-dashoffset:21.9213;stroke-opacity:0.5;paint-order:fill markers stroke"
             d="m 2676.163,1769.204 -3.7663,-14.1281 c 0,0 1.3459,1.0067 2.0826,1.5464 2.1065,1.5432 5.1505,1.6375 6.7585,3.6249 2.0879,2.5806 3.3774,7.3582 2.7713,9.5649 -1.2777,-2.6834 -2.5473,-5.7271 -7.0508,-6.6184 0,0 3.1083,8.1669 2.5958,11.5996 -0.5153,3.4515 -5.8923,5.5672 -7.9981,4.7006 -2.5272,-1.04 -4.3607,-4.1942 -1.0757,-7.7642 2.5377,-2.7578 5.6827,-2.5257 5.6827,-2.5257 z"
             id="path1254"
             sodipodi:nodetypes="ccsaccsssc" /></g><g
           id="g1260"
           transform="translate(228.80549,-18.708867)"><path
             style="display:inline;fill:none;fill-opacity:1;stroke:#ffffff;stroke-width:5;stroke-linecap:round;stroke-miterlimit:10;stroke-dasharray:none;stroke-dashoffset:21.9213;stroke-opacity:1;paint-order:fill markers stroke"
             d="m 1484.5845,886.71104 c 0,0 4.6003,-16.65002 32.9743,-25.53758 26.9595,-8.44449 56.956,6.80089 84.2836,0.28065 12.2238,-2.91654 18.475,-12.25431 18.475,-12.25431"
             id="path1255"
             transform="translate(1160.2412,929.078)"
             sodipodi:nodetypes="cssc" /><path
             style="display:inline;fill:none;fill-opacity:1;stroke:#ffffff;stroke-width:5;stroke-linecap:round;stroke-miterlimit:10;stroke-dasharray:none;stroke-dashoffset:21.9213;stroke-opacity:1;paint-order:fill markers stroke"
             d="m 2647.8425,1830.3585 c 0,0 4.6003,-16.65 32.9743,-25.5375 26.9595,-8.4445 56.956,6.8009 84.2836,0.2806 12.2238,-2.9165 18.475,-12.2543 18.475,-12.2543"
             id="path1256"
             sodipodi:nodetypes="cssc" /><path
             style="fill:none;fill-opacity:1;stroke:#ffffff;stroke-width:5;stroke-linecap:round;stroke-miterlimit:10;stroke-dasharray:none;stroke-dashoffset:21.9213;stroke-opacity:1;paint-order:fill markers stroke"
             d="m 2650.6634,1845.1019 c 0,0 4.6003,-16.65 32.9743,-25.5376 26.9595,-8.4445 56.956,6.8009 84.2836,0.2806 12.2238,-2.9165 18.475,-12.2543 18.475,-12.2543"
             id="path1257"
             sodipodi:nodetypes="cssc" /><path
             style="fill:none;fill-opacity:1;stroke:#ffffff;stroke-width:5;stroke-linecap:round;stroke-miterlimit:10;stroke-dasharray:none;stroke-dashoffset:21.9213;stroke-opacity:1;paint-order:fill markers stroke"
             d="m 2652.5557,1859.539 c 0,0 5.7248,-16.5177 34.0988,-25.4052 26.9595,-8.4445 56.956,6.8009 84.2836,0.2806 12.2238,-2.9165 18.475,-12.2543 18.475,-12.2543"
             id="path1258"
             sodipodi:nodetypes="cssc" /><path
             style="fill:none;fill-opacity:1;stroke:#ffffff;stroke-width:5;stroke-linecap:round;stroke-miterlimit:10;stroke-dasharray:none;stroke-dashoffset:21.9213;stroke-opacity:1;paint-order:fill markers stroke"
             d="m 2655.6315,1874.1903 c 0,0 5.6917,-16.8815 34.0657,-25.769 26.9595,-8.4445 56.956,6.8009 84.2836,0.2806 12.2238,-2.9165 18.475,-12.2543 18.475,-12.2543"
             id="path1259"
             sodipodi:nodetypes="cssc" /><rect
             style="fill:#ffffff;fill-opacity:1;stroke:#ffffff;stroke-width:4.99999;stroke-linecap:round;stroke-miterlimit:10;stroke-dasharray:none;stroke-dashoffset:21.9213;stroke-opacity:1;paint-order:fill markers stroke"
             id="rect1259"
             width="57.891254"
             height="14.898919"
             x="2718.8254"
             y="1861.0129"
             ry="0.033105467" /><path
             style="fill:#ffffff;fill-opacity:1;stroke:#ffffff;stroke-width:1;stroke-linecap:round;stroke-linejoin:round;stroke-miterlimit:10;stroke-dasharray:none;stroke-dashoffset:21.9213;stroke-opacity:1;paint-order:fill markers stroke"
             d="m 2676.163,1769.204 -3.7663,-14.1281 c 0,0 1.3459,1.0067 2.0826,1.5464 2.1065,1.5432 5.1505,1.6375 6.7585,3.6249 2.0879,2.5806 3.3774,7.3582 2.7713,9.5649 -1.2777,-2.6834 -2.5473,-5.7271 -7.0508,-6.6184 0,0 3.1083,8.1669 2.5958,11.5996 -0.5153,3.4515 -5.8923,5.5672 -7.9981,4.7006 -2.5272,-1.04 -4.3607,-4.1942 -1.0757,-7.7642 2.5377,-2.7578 5.6827,-2.5257 5.6827,-2.5257 z"
             id="path1260"
             sodipodi:nodetypes="ccsaccsssc" /></g><path
           style="fill:#000000;fill-opacity:0.5;stroke:none;stroke-width:1;stroke-linecap:round;stroke-linejoin:round;stroke-miterlimit:10;stroke-dasharray:none;stroke-dashoffset:21.9213;stroke-opacity:0.5;paint-order:fill markers stroke"
           d="m 2675.7211,1865.6607 c 4.4412,0.9214 13.8783,0.6737 17.3268,-1.135 l -3.7237,16.4468 c -0.097,0.4292 -0.1,1.0699 0.2811,1.2899 l 3.6203,2.0902 c 0.5524,0.3189 1.7262,0.2966 1.8864,-0.3208 l 4.7646,-18.3602 c 14.2822,-1.9647 23.7547,-30.9286 20.7814,-39.185 -0.1822,-0.5059 -1.6639,-0.753 -2.1282,-0.4818 l -13.2985,7.7704 -9.2741,-7.7526 c -0.4537,-0.3793 -1.8368,-0.1868 -2.1351,0.3237 -1.0114,1.7309 0.1323,4.0611 0.089,6.0654 -0.1373,6.3145 -2.1258,18.6904 -2.1258,18.6904 l -1.2297,-0.5419"
           id="path1261"
           sodipodi:nodetypes="ccsssscsscssscc"
           transform="translate(231.45133,-16.063034)" /><path
           style="fill:#ffffff;fill-opacity:1;stroke:#ffffff;stroke-width:1;stroke-linecap:round;stroke-linejoin:round;stroke-miterlimit:10;stroke-dasharray:none;stroke-dashoffset:21.9213;stroke-opacity:1;paint-order:fill markers stroke"
           d="m 2681.4428,1866.4875 c 4.4412,0.9214 8.1566,-0.1531 11.6051,-1.9618 l -3.7237,16.4468 c -0.097,0.4292 -0.1,1.0699 0.2811,1.2899 l 3.6203,2.0902 c 0.5524,0.3189 1.7262,0.2966 1.8864,-0.3208 l 4.7646,-18.3602 c 14.2822,-1.9647 23.7547,-30.9286 20.7814,-39.185 -0.1822,-0.5059 -1.6639,-0.753 -2.1282,-0.4818 l -13.2985,7.7704 -9.2741,-7.7526 c -0.4537,-0.3793 -1.8368,-0.1868 -2.1351,0.3237 -1.0114,1.7309 0.1323,4.0611 0.089,6.0654 -0.1373,6.3145 -2.1258,18.6904 -2.1258,18.6904 l -1.2297,-0.5419"
           id="path1262"
           sodipodi:nodetypes="ccsssscsscssscc"
           transform="translate(228.80549,-18.708867)" /><path
           id="path1263"
           style="fill:#000000;fill-opacity:0.5;stroke:none;stroke-width:1;stroke-linecap:round;stroke-linejoin:round;stroke-miterlimit:10;stroke-dasharray:none;stroke-dashoffset:21.9213;stroke-opacity:0.5;paint-order:fill markers stroke"
           d="m 2912.7151,1849.2118 2.9486,19.9739 c 0.158,1.0729 -0.4829,2.0883 -1.5472,2.2955 l -2.4014,0.4676 c -1.0644,0.2073 -2.0544,-0.4898 -2.2949,-1.5471 l -4.5036,-19.8422 c -12.8096,-6.6129 -22.3168,-18.0042 -21.8108,-45.6417 4.3083,0.3208 14.1255,3.871 21.6555,6.0804 l -1.029,-8.7722 c 0,0 5.5437,5.1121 8.6528,4.282 2.8451,-0.7595 4.9112,-7.3432 4.9112,-7.3432 2.7133,1.3722 4.3791,5.5607 5.332,13.751 2.5319,21.7623 -2.8142,30.2213 -9.9132,36.296 z"
           sodipodi:nodetypes="cssssccccscsc" /><path
           id="path1264"
           style="fill:#ffffff;fill-opacity:1;stroke:#ffffff;stroke-width:1;stroke-linecap:round;stroke-linejoin:round;stroke-miterlimit:10;stroke-dasharray:none;stroke-dashoffset:21.9213;stroke-opacity:1;paint-order:fill markers stroke"
           d="m 2910.0692,1846.5659 2.9487,19.974 c 0.158,1.0728 -0.4829,2.0882 -1.5472,2.2955 l -2.4014,0.4676 c -1.0644,0.2072 -2.0545,-0.4898 -2.295,-1.5471 l -4.5035,-19.8422 c -12.8096,-6.613 -22.3169,-18.0042 -21.8108,-45.6417 4.3083,0.3208 14.1255,3.871 21.6555,6.0803 l -1.029,-8.7721 c 0,0 5.5436,5.1121 8.6528,4.2819 2.8451,-0.7595 4.9112,-7.3432 4.9112,-7.3432 2.7132,1.3723 4.3791,5.5608 5.332,13.7511 2.5318,21.7622 -2.8142,30.2213 -9.9133,36.2959 z"
           sodipodi:nodetypes="cssssccccscsc" /><path
           style="fill:#000000;fill-opacity:0.5;stroke:none;stroke-width:1;stroke-linecap:round;stroke-linejoin:round;stroke-miterlimit:10;stroke-dasharray:none;stroke-dashoffset:21.9213;stroke-opacity:0.5;paint-order:fill markers stroke"
           d="m 2763.4511,1855.6834 h -35.2192 c -0.4702,0 -1.237,-0.6595 -0.9565,-1.0369 2.975,-4.002 7.2885,-16.1047 5.475,-20.5365 0,0 -1.2195,-4.2187 -2.3469,-5.8087 -6.8022,-9.5933 -14.7815,-20.8952 -16.7144,-33.3919 -0.8655,-5.596 -0.5291,-11.8464 2.3259,-16.68 2.7128,-4.593 7.8597,-7.6082 12.8136,-9.5866 5.3069,-2.1194 13.7453,-2.9258 17.025,-2.0113 26.9543,7.5156 22.659,26.316 23.4797,27.315 l 10.7519,13.0882 c 0.8646,1.0525 -0.7838,3.282 -2.1459,3.282 h -6.6182 c 0,0 3.7499,7.0924 3.8935,10.6781 0.092,2.3083 -0.6713,4.2318 -2.1167,6.2177 -0.556,0.7639 -1.549,1.3629 -2.4804,1.7664 -1.4137,0.6124 -3.0855,0.3795 -4.531,0.9127 -2.2965,0.8471 -5.1455,1.4796 -6.4162,3.5717 -0.7958,1.3103 -0.083,2.4021 -0.1323,4.5971 -0.1497,6.6215 3.9431,12.1638 4.8287,16.5365 0.094,0.4642 -0.442,1.0865 -0.9156,1.0865 z"
           id="path1265"
           sodipodi:nodetypes="ssssssaasssscssaaasss"
           transform="translate(231.45133,-16.063034)" /><path
           style="fill:#ffffff;fill-opacity:1;stroke:#ffffff;stroke-width:1;stroke-linecap:round;stroke-linejoin:round;stroke-miterlimit:10;stroke-dasharray:none;stroke-dashoffset:21.9213;stroke-opacity:1;paint-order:fill markers stroke"
           d="m 2763.4511,1855.6834 h -35.2192 c -0.4702,0 -1.237,-0.6595 -0.9565,-1.0369 2.975,-4.002 7.2885,-16.1047 5.475,-20.5365 0,0 -1.2195,-4.2187 -2.3469,-5.8087 -6.8022,-9.5933 -14.7815,-20.8952 -16.7144,-33.3919 -0.8655,-5.596 -0.5291,-11.8464 2.3259,-16.68 2.7128,-4.593 7.8597,-7.6082 12.8136,-9.5866 5.3069,-2.1194 13.7453,-2.9258 17.025,-2.0113 26.9543,7.5156 22.659,26.316 23.4797,27.315 l 10.7519,13.0882 c 0.8646,1.0525 -0.7838,3.282 -2.1459,3.282 h -6.6182 c 0,0 3.7499,7.0924 3.8935,10.6781 0.092,2.3083 -0.6713,4.2318 -2.1167,6.2177 -0.556,0.7639 -1.549,1.3629 -2.4804,1.7664 -1.4137,0.6124 -3.0855,0.3795 -4.531,0.9127 -2.2965,0.8471 -5.1455,1.4796 -6.4162,3.5717 -0.7958,1.3103 -0.083,2.4021 -0.1323,4.5971 -0.1497,6.6215 3.9431,12.1638 4.8287,16.5365 0.094,0.4642 -0.442,1.0865 -0.9156,1.0865 z"
           id="path1266"
           sodipodi:nodetypes="ssssssaasssscssaaasss"
           transform="translate(228.80549,-18.708867)" /><path
           style="fill:#000000;fill-opacity:0.5;stroke:none;stroke-width:1;stroke-linecap:round;stroke-linejoin:round;stroke-miterlimit:10;stroke-dasharray:none;stroke-dashoffset:21.9213;stroke-opacity:0.5;paint-order:fill markers stroke"
           d="m 2692.3647,1786.383 2.418,-22.0614 c 0,0 1.7785,3.449 2.9292,5.0007 2.2097,2.9795 6.3841,4.6505 7.5559,8.17 1.7959,5.3942 0.8439,14.5565 -1.7635,16.9645 0.5184,-4.5803 -1.0887,-9.3853 -6.2865,-14.2517 0,0 -1.0149,16.0067 -4.5046,20.1053 -3.5086,4.1211 -12.9769,3.3857 -15.0384,0.5178 -2.4741,-3.4413 -1.6464,-11.2019 5.6056,-13.2077 5.6023,-1.5497 9.0843,-1.2375 9.0843,-1.2375 z"
           id="path1267"
           sodipodi:nodetypes="ccaaccsssc"
           transform="translate(231.45133,-16.063034)" /><path
           style="fill:#ffffff;fill-opacity:1;stroke:#ffffff;stroke-width:1;stroke-linecap:round;stroke-linejoin:round;stroke-miterlimit:10;stroke-dasharray:none;stroke-dashoffset:21.9213;stroke-opacity:1;paint-order:fill markers stroke"
           d="m 2692.3647,1786.383 2.418,-22.0614 c 0,0 1.7785,3.449 2.9292,5.0007 2.2097,2.9795 6.3841,4.6505 7.5559,8.17 1.7959,5.3942 0.8439,14.5565 -1.7635,16.9645 0.5184,-4.5803 -1.0887,-9.3853 -6.2865,-14.2517 0,0 -1.0149,16.0067 -4.5046,20.1053 -3.5086,4.1211 -12.9769,3.3857 -15.0384,0.5178 -2.4741,-3.4413 -1.6464,-11.2019 5.6056,-13.2077 5.6023,-1.5497 9.0843,-1.2375 9.0843,-1.2375 z"
           id="path1268"
           sodipodi:nodetypes="ccaaccsssc"
           transform="translate(228.80549,-18.708867)" /></g></g></g></svg>
